<?xml version="1.0" encoding="UTF-8"?>
<svg width="43px" height="46px" viewBox="0 0 43 46" version="1.1" xmlns="http://www.w3.org/2000/svg" xmlns:xlink="http://www.w3.org/1999/xlink">
    <!-- Generator: Sketch 52.4 (67378) - http://www.bohemiancoding.com/sketch -->
    <title>Shape</title>
    <desc>Created with Sketch.</desc>
    <g id="Page-1" stroke="none" stroke-width="1" fill="none" fill-rule="evenodd">
        <g id="Ver-producto-tn" transform="translate(-87.000000, -925.000000)" fill="#FF7761" fill-rule="nonzero">
            <g id="Group-Copy-7" transform="translate(0.000000, 94.000000)">
                <path d="M108.329365,848.52381 L112.595238,848.52381 L112.595238,841.952381 L118.994048,841.952381 L118.994048,837.571429 L112.595238,837.571429 L112.595238,831 L108.329365,831 L108.329365,837.571429 L101.930556,837.571429 L101.930556,841.952381 L108.329365,841.952381 L108.329365,848.52381 Z M99.797619,868.238095 C97.4513889,868.238095 95.5530754,870.209524 95.5530754,872.619048 C95.5530754,875.028571 97.4513889,877 99.797619,877 C102.143849,877 104.063492,875.028571 104.063492,872.619048 C104.063492,870.209524 102.143849,868.238095 99.797619,868.238095 Z M121.126984,868.238095 C118.780754,868.238095 116.88244,870.209524 116.88244,872.619048 C116.88244,875.028571 118.780754,877 121.126984,877 C123.473214,877 125.392857,875.028571 125.392857,872.619048 C125.392857,870.209524 123.473214,868.238095 121.126984,868.238095 Z M100.160218,861.119048 L100.224206,860.85619 L102.143849,857.285714 L118.034226,857.285714 C119.633929,857.285714 121.041667,856.387619 121.766865,855.029524 L130,839.674286 L126.28869,837.571429 L126.267361,837.571429 L123.921131,841.952381 L118.034226,852.904762 L103.061012,852.904762 L102.78373,852.313333 L98.0059524,841.952381 L95.9796627,837.571429 L93.9747024,833.190476 L87,833.190476 L87,837.571429 L91.265873,837.571429 L98.9444444,854.197143 L96.0649802,859.56381 C95.7237103,860.177143 95.531746,860.9 95.531746,861.666667 C95.531746,864.07619 97.4513889,866.047619 99.797619,866.047619 L125.392857,866.047619 L125.392857,861.666667 L100.693452,861.666667 C100.416171,861.666667 100.160218,861.425714 100.160218,861.119048 Z" id="Shape"></path>
            </g>
        </g>
    </g>
</svg>