<svg xmlns="http://www.w3.org/2000/svg" width="19" height="17"><title>heart</title><desc>Created with Sketch.</desc><g fill="none"><g fill="#27D8DB" fill-rule="nonzero"><g><path d="M17.27 1.8C15.2-.3 11.9-.56 9.5 1.2 7-.7 3.5-.3 1.45 2.1c-2.04 2.38-1.9 5.95.32 8.17l5.9 5.96c1.03 1.03 2.68 1.03 3.7 0l5.9-5.96c2.32-2.34 2.32-6.13 0-8.47zm-1.34 7.15l-5.9 5.95c-.14.14-.32.22-.52.22-.18 0-.36-.08-.5-.22L3.1 8.92c-1.55-1.6-1.55-4.15 0-5.75 1.58-1.57 4.12-1.57 5.7 0 .18.18.42.3.68.3.25 0 .5-.12.67-.3 1.58-1.57 4.12-1.57 5.7 0 1.57 1.58 1.6 4.13.08 5.75v.03z"/></g></g></g></svg>