<?xml version="1.0" encoding="UTF-8"?>
<svg width="19px" height="17px" viewBox="0 0 19 17" version="1.1" xmlns="http://www.w3.org/2000/svg" xmlns:xlink="http://www.w3.org/1999/xlink">
    <!-- Generator: Sketch 52.4 (67378) - http://www.bohemiancoding.com/sketch -->
    <title>heart</title>
    <desc>Created with Sketch.</desc>
    <g id="Page-1" stroke="none" stroke-width="1" fill="none" fill-rule="evenodd">
        <g id="caja-sorpresa" transform="translate(-1161.000000, -740.000000)" fill="#27D8DB" fill-rule="nonzero">
            <g id="Group-Copy-2" transform="translate(567.000000, 701.000000)">
                <path d="M611.267785,40.8010712 C609.186544,38.6964859 605.894933,38.436103 603.513822,40.1876937 C601.005514,38.3060028 597.48181,38.6995511 595.442454,41.0891523 C593.403098,43.4787535 593.541667,47.0517137 595.759859,49.2733469 L601.660853,55.2346089 C602.688971,56.2551304 604.338674,56.2551304 605.366791,55.2346089 L611.267785,49.2733469 C613.577405,46.9296192 613.577405,43.1447989 611.267785,40.8010712 Z M609.927946,47.9507518 L604.026952,53.9024297 C603.891321,54.0405587 603.706571,54.1182718 603.513822,54.1182718 C603.321074,54.1182718 603.136324,54.0405587 603.000692,53.9024297 L597.099699,47.9219998 C595.54968,46.323956 595.54968,43.7696301 597.099699,42.1715864 C598.679965,40.5979777 601.220876,40.5979777 602.801142,42.1715864 C602.979565,42.353024 603.222443,42.4550801 603.475813,42.4550801 C603.729183,42.4550801 603.97206,42.353024 604.150484,42.1715864 C605.73075,40.5979777 608.271661,40.5979777 609.851927,42.1715864 C611.423263,43.7487038 611.457033,46.3031883 609.927946,47.9219998 L609.927946,47.9507518 Z" id="heart"></path>
            </g>
        </g>
    </g>
</svg>