<?xml version="1.0" encoding="UTF-8"?>
<svg width="460px" height="191px" viewBox="0 0 460 191" version="1.1" xmlns="http://www.w3.org/2000/svg" xmlns:xlink="http://www.w3.org/1999/xlink">
    <!-- Generator: Sketch 52.4 (67378) - http://www.bohemiancoding.com/sketch -->
    <title>b</title>
    <desc>Created with Sketch.</desc>
    <g id="Page-1" stroke="none" stroke-width="1" fill="none" fill-rule="evenodd">
        <g id="Usuario" transform="translate(-993.000000, -785.000000)">
            <g id="b" transform="translate(987.000000, 785.000000)">
                <g transform="translate(0.000000, -35.000000)">
                    <path d="M45.7837378,102.446502 C69.6276982,91.7561323 98.8308727,89.9464496 122.777022,79.8298821 C165.673442,61.7065723 182.602654,8.20175949 230.699328,1.35144852 C291.251634,-7.27323423 350.498198,26.6693504 387.388212,66.5265076 C422.586439,104.565154 452.527641,167.497973 422.972484,215.238284 C400.491036,251.53787 348.61339,263.216944 306.477706,271.550312 C249.831268,282.770344 189.199483,281.596258 133.688472,266.121264 C87.6355655,253.285759 44.7618537,230.633828 19.7824666,192.568698 C4.55639466,169.351794 4.21576665,134.102707 26.7880492,114.355096 C32.251342,109.614138 38.6663156,105.592525 45.7837378,102.446502 Z" id="Path" fill="#E3F2FF"></path>
                    <path d="M466,226.169033 C466,229.045152 304.054403,230.700823 208.844065,230.700823 C138.737423,230.700823 35.428129,232.111674 2.99797128,228.805814 C-8.61457775,227.622057 17.2534012,221.036609 17.2534012,220.278275 C17.2534012,217.402156 113.624762,220.278275 208.844065,220.278275 C304.063369,220.278275 466,223.292915 466,226.169033 Z" id="Path" fill="#A6C3FF"></path>
                    <polygon id="Rectangle" fill="#36B1BA" transform="translate(140.880969, 102.469431) rotate(-52.650000) translate(-140.880969, -102.469431) " points="133.230819 62.2861983 148.01869 62.3809304 148.53112 142.652664 133.743249 142.557932"></polygon>
                    <polygon id="Rectangle" fill="#30AEB7" transform="translate(92.054805, 65.688329) rotate(37.350000) translate(-92.054805, -65.688329) " points="71.0911496 58.4285215 113.113192 58.1602657 113.01846 72.9481369 70.9964175 73.2163927"></polygon>
                    <polygon id="Rectangle" fill="#723891" transform="translate(100.465313, 120.400303) rotate(37.350000) translate(-100.465313, -120.400303) " points="39.5185915 89.5441589 161.812368 88.7634729 161.412034 151.256448 39.1182573 152.037134"></polygon>
                    <polygon id="Rectangle" fill="#5A2C73" transform="translate(68.394918, 96.261065) rotate(37.350000) translate(-68.394918, -96.261065) " points="47.5840639 65.1487056 89.6061068 64.8804498 89.2057725 127.373425 47.1837297 127.641681"></polygon>
                    <polygon id="Rectangle" fill="#D93F7A" transform="translate(92.054805, 65.688329) rotate(37.350000) translate(-92.054805, -65.688329) " points="71.0911496 58.4285215 113.113192 58.1602657 113.01846 72.9481369 70.9964175 73.2163927"></polygon>
                    <polygon id="Rectangle" fill="#FF4A90" transform="translate(139.997329, 102.309204) rotate(37.673593) translate(-139.997329, -102.309204) " points="99.9881051 95.1852972 180.101391 94.6722938 180.006553 109.433111 99.893267 109.946114"></polygon>
                    <path d="" id="Path" fill="#D4E2FF"></path>
                    <path d="M57.2394487,76.0098221 C57.6061422,75.965588 57.9750812,76.0719527 58.2626331,76.3048051 L123.132522,126.317824 L146.140825,96.667568 C147.030551,95.5323305 149.148097,97.3379838 148.356242,98.3748935 L125.339042,128.034089 L155.465149,150.926554 C155.756609,151.157512 155.945315,151.494915 155.990087,151.865136 C156.057165,152.428864 155.779566,152.977663 155.286781,153.25554 C154.793996,153.533417 154.183111,153.485625 153.739081,153.134457 L123.612974,130.241992 L101.147404,159.472121 C100.758668,159.961308 100.094462,160.132694 99.5192065,159.892248 C99.3906075,159.842831 99.2705184,159.773457 99.1633163,159.686654 C99.0485128,159.580147 98.9469409,159.460092 98.8608096,159.329099 C98.5598194,158.828192 98.5951316,158.193148 98.9497822,157.72904 L121.406455,128.507849 L56.518771,78.4948301 C56.3988077,78.3908924 56.2939809,78.27053 56.2073671,78.137275 C55.9012104,77.6376701 55.9366991,76.9994514 56.2963397,76.5372159 C56.5296137,76.2438548 56.8683598,76.0544254 57.2394487,76.0098221 Z" id="Path" fill="#27D8DB"></path>
                    <path d="" id="Path" fill="#D4E2FF"></path>
                    <path d="M143.730855,85.5713752 C144.269913,85.503585 144.725859,85.1399546 144.912109,84.6292918 C145.098359,84.118629 144.983654,83.546636 144.614936,83.1473886 C144.246218,82.7481411 143.685366,82.5886431 143.161897,82.7341655 C140.812727,83.1963842 138.403103,83.2646487 136.031557,82.9361675 C138.619402,82.1740691 139.78485,80.5580533 139.491194,78.1064838 C139.411402,76.8746244 138.785311,75.7429852 137.784318,75.0213626 C136.719814,74.3051737 135.187296,74.1031718 133.094995,74.3327195 C131.018701,74.6905767 129.025211,75.4249414 127.212695,76.4996498 C127.830576,74.4826553 128.079282,72.370582 127.946835,70.2651341 C127.689886,68.1808409 127.111751,66.7392813 126.111484,65.8761819 C124.094853,64.3404858 121.224371,64.6817246 119.623518,66.6474622 C118.984557,67.8283051 118.749288,69.1858974 118.953615,70.5130456 C117.849574,68.2425582 117.14784,65.7975393 116.879668,63.2868838 C116.576835,63.0389723 115.677513,61.9555071 115.292089,62.0014166 C114.91093,62.0386646 114.560579,62.2271666 114.319353,62.5247854 C114.081035,62.825795 113.969136,63.2077812 114.007343,63.5898868 C114.674206,69.7224115 117.571248,75.3955666 122.147126,79.5296795 L125.560879,82.1281596 C130.974648,85.5075578 137.456967,86.735959 143.730855,85.5713752 Z M124.166012,76.6557423 C123.046918,74.9291395 122.26243,73.0073089 121.85347,70.9905048 C121.633227,69.1541232 121.93606,68.4654801 122.073712,68.2359324 C122.211363,68.0063847 122.312307,67.8870198 123.110685,67.7860189 C123.909063,67.6850179 124.120128,67.8870198 124.221073,67.9788389 C124.322017,68.070658 124.872622,68.8143926 125.083688,70.5865009 C125.168825,72.6497007 124.857295,74.7100699 124.166012,76.6557423 Z M133.829136,80.4386885 C131.783017,80.5074891 129.74188,80.1961655 127.809184,79.5204976 C129.527182,78.4052882 131.438052,77.6205817 133.443712,77.2066568 C134.285362,77.0431619 135.153932,77.0840958 135.976497,77.3260216 L136.178385,77.4270226 C136.297683,77.5096597 136.527102,77.6657522 136.628046,78.4645782 C136.728991,79.2634042 136.820758,80.0714121 133.829136,80.4386885 Z" id="Shape" fill="#00C7E6" fill-rule="nonzero"></path>
                    <path d="M177.573462,122.122125 C177.367659,121.777283 177.213133,121.40299 177.114964,121.011551 C176.86717,119.997355 177.02351,118.923879 177.549505,118.027856 C178.0755,117.131832 178.927947,116.486861 179.918853,116.235178 C196.468853,111.991519 207.366988,95.0168857 213.424447,78.6742863 C214.182732,76.6337186 219.525992,79.8029189 221.509876,80.570389 C222.465623,80.9369833 223.23928,81.6785246 223.659609,82.6308842 C224.079938,83.5832438 224.112274,84.6678784 223.74946,85.644721 C216.620575,104.575029 201.001671,118.813666 181.814565,123.873763 C180.178553,124.308011 178.457467,123.597177 177.573462,122.122125 Z" id="Path" fill="#FFB8BC"></path>
                    <path d="M215.256308,104 C218.812804,99.3405068 224.440958,89.7453363 224.983323,82.0745454 C225.125583,80.0610741 224.360936,77.5575988 222.564906,76.4350441 C220.279858,75.0006685 215.789782,77.4685072 213.780362,78.7068811 C210.312779,80.8450806 210.010477,88.5069624 204,96.4450282 C208.081079,99.2068693 211.255251,102.164712 215.256308,104 Z" id="Path" fill="#009DB5"></path>
                    <polygon id="Rectangle" fill="#FFB8BC" transform="translate(224.299778, 212.015922) rotate(-3.750000) translate(-224.299778, -212.015922) " points="220.878802 204.181626 227.707109 204.187496 227.720753 219.850218 220.892446 219.844348"></polygon>
                    <path d="M228.195144,218.011501 C225.824317,217.910596 219.980361,218.50685 219.980361,218.50685 C219.980361,218.50685 213.104088,221.598195 212.106766,223.909824 C211.485627,225.368352 213.725227,226.157241 214.94126,225.973778 L229,223.221839 L228.195144,218.011501 Z" id="Path" fill="#723891"></path>
                    <path d="M228,217.469268 C228,217.469268 222.930777,220.464689 220,218.075083 L221.175719,217.368299 C221.175719,217.368299 225.111821,213.890469 227.454739,214.002657 L228,217.469268 Z" id="Path" fill="#FFB8BC"></path>
                    <polygon id="Rectangle" fill="#FFB8BC" transform="translate(264.336727, 206.085924) rotate(-27.940000) translate(-264.336727, -206.085924) " points="260.888986 198.213446 267.697931 198.250679 267.784467 213.958403 260.975522 213.92117"></polygon>
                    <path d="M271.242777,211 C269.057807,211.884318 264.011568,214.837941 264.002898,214.837941 C263.994227,214.837941 258.991341,220.400302 259.000011,222.84102 C259.000011,224.388577 261.34105,224.149811 262.364171,223.486572 L274,215.227041 L271.242777,211 Z" id="Path" fill="#723891"></path>
                    <path d="M271,209.581491 C271,209.581491 266.851497,214.502459 263,213.957926 L263.958084,212.808355 C263.958084,212.808355 266.77485,208.048731 269.217964,207 L271,209.581491 Z" id="Path" fill="#FFB8BC"></path>
                    <path d="M259.183128,209 C258.165147,207.117302 225.996965,162.002933 229.227947,116 L248.277459,116 C245.294334,157.912023 268.769848,203.677419 269,204.108504 L259.183128,209 Z" id="Path" fill="#723891"></path>
                    <path d="M218.463273,214 C213.970627,182.025791 211.814999,149.785043 212.012424,117.517602 L231,116 C230.44342,166.213199 230.279184,212.835329 230.324805,213.258846 L218.463273,214 Z" id="Path" fill="#723891"></path>
                    <path d="M250,127 L211,127 L211,86.7626265 C211,77.6742285 219.240308,74.2015682 227.118114,74.0266231 C236.277942,73.8079417 250,74.67392 250,86.7626265 L250,127 Z" id="Path" fill="#27D8DB"></path>
                    <path d="M228.487371,80 C230.979627,80 233,77.5326455 233,74.4890096 C233,74.406756 233,74.3347841 233,74.2525305 C230.704024,74.0201565 228.399057,73.9480673 226.096352,74.0366148 C225.397568,74.0366148 224.698784,74.1085867 224,74.1908403 C224,74.2936573 224,74.3964743 224,74.4890096 C223.999961,77.5206404 226.004985,79.9830319 228.487371,80 Z" id="Path" fill="#009DB5"></path>
                    <path d="M228,62.2981936 L223.275262,62.0012374 C222.081628,61.9603309 221.074487,62.9385439 221.003915,64.2073462 C220.933343,65.4761485 221.825011,66.5739901 223.014844,66.6832467 L228,67 L228,62.2981936 Z" id="Path" fill="#FF808C"></path>
                    <path d="M228,66.6897791 L232.682518,66.9958489 C233.889018,67.0721885 234.924855,66.0864414 234.996125,64.7941211 C235.067395,63.5018007 234.147109,62.3922826 232.94061,62.315943 L228,62 L228,66.6897791 Z" id="Path" fill="#FFB8BC"></path>
                    <path d="M229.960916,76.9957518 C229.140247,76.9649379 228.366789,76.6351852 227.8117,76.0794648 C227.256611,75.5237443 226.965662,74.7878775 227.003235,74.0347044 L227.317489,67.5187034 L234,66 L233.214366,74.2807513 C233.180964,75.0387242 232.81789,75.7527581 232.206403,76.2630428 C231.594917,76.7733275 230.786078,77.0372539 229.960916,76.9957518 Z" id="Path" fill="#FFB8BC"></path>
                    <path d="M232.2416,66 L227.4416,66.2077922 L227,74 C230.093394,73.9148374 232.648563,71.7947474 233,69.021645 C232.84741,67.9960821 232.593603,66.984853 232.2416,66 Z" id="Path" fill="#FF808C"></path>
                    <path d="M226.912557,70.9916573 C223.453278,70.7880401 220.817187,68.0002029 221.00993,64.7492466 L221.470485,57.5444274 C221.687305,54.3069418 224.639072,51.8373557 228.087443,52.0083715 C231.546722,52.2119887 234.182813,54.9998258 233.99007,58.2507822 L233.529515,65.446772 C233.317622,68.6877748 230.364372,71.1625427 226.912557,70.9916573 Z" id="Path" fill="#FFB8BC"></path>
                    <path d="M235.089936,61.0694954 C236.004743,58.7654934 236.628864,55.8453048 234.944593,53.7109774 C233.474062,51.8266967 231.439258,50.4960908 229.028272,51.1837193 C227.857826,51.5367546 226.647082,51.7229974 225.428891,51.7373942 C224.266146,51.7373942 222.966607,51.246231 221.932106,52.0410224 C220.58127,53.0769303 220.871956,55.3273509 221.709816,56.5775845 C223.000806,58.5065164 225.847822,59.1137728 227.916824,58.5065164 C229.045371,58.1760975 230.327811,57.6134924 231.054526,58.9440982 C231.37114,59.80221 231.561392,60.7054945 231.6188,61.6231703 C232.148875,64.1414981 234.405969,62.7483806 235.089936,61.0694954 Z" id="Path" fill="#723891"></path>
                    <path d="M203.739043,122.399487 C203.502817,122.081638 203.318662,121.729609 203.193228,121.35611 C202.527176,119.34958 203.63793,117.192314 205.680711,116.525012 C222.135679,111.264289 231.951394,94.0003478 236.881621,77.7447123 C237.499018,75.7193337 243.145067,78.4023027 245.203056,78.998518 C246.199773,79.2885857 247.037549,79.9556974 247.531194,80.8523869 C248.024838,81.7490764 248.133696,82.8014967 247.833704,83.7770085 C241.962406,102.617322 227.175685,117.524636 208.123455,123.811114 C206.504207,124.328903 204.729325,123.757453 203.739043,122.399487 Z" id="Path" fill="#FFB8BC"></path>
                    <path d="M239.470826,102 C242.69055,97.07249 248.017892,89.4174109 247.999955,81.6997319 C247.999955,79.6697051 239.219706,75.9137083 237.28249,77.29985 C233.946175,79.6965336 228,96.4912048 228,96.4912048 C232.869944,98.9057741 235.309401,100.452887 239.470826,102 Z" id="Path" fill="#27D8DB"></path>
                    <polygon id="Rectangle" fill="#FFB8BC" transform="translate(323.431276, 204.977139) rotate(-27.940000) translate(-323.431276, -204.977139) " points="319.983536 197.104661 326.792481 197.141894 326.879017 212.849617 320.070071 212.812384"></polygon>
                    <path d="M329.242775,210 C327.066474,210.884318 322.011561,213.837941 322.00289,213.837941 C321.99422,213.837941 317,219.400302 317,221.84102 C317,223.388577 319.34104,223.149811 320.364162,222.486572 L332,214.227041 L329.242775,210 Z" id="Path" fill="#723891"></path>
                    <path d="M330,208.581491 C330,208.581491 325.861078,213.502459 322,212.957926 L322.958084,211.808355 C322.958084,211.808355 325.77485,207.038647 328.217964,206 L330,208.581491 Z" id="Path" fill="#FFB8BC"></path>
                    <rect id="Rectangle" fill="#723891" x="277" y="103" width="19" height="14"></rect>
                    <polygon id="Rectangle" fill="#FFB8BC" transform="translate(283.406848, 210.901077) rotate(-3.750000) translate(-283.406848, -210.901077) " points="279.985873 203.066781 286.81418 203.072651 286.827824 218.735373 279.999516 218.729503"></polygon>
                    <path d="M287.186798,217.011501 C284.817146,216.910596 278.976085,217.50685 278.976085,217.50685 C278.976085,217.50685 272.111964,220.598195 271.106392,222.909824 C270.485561,224.368352 272.732795,225.157241 273.939482,224.973778 L288,222.221839 L287.186798,217.011501 Z" id="Path" fill="#723891"></path>
                    <path d="M288,216.469434 C288,216.469434 282.930777,219.46453 280,217.075183 L281.184239,216.368475 C281.184239,216.368475 285.111821,212.879804 287.454739,213.003198 L288,216.469434 Z" id="Path" fill="#FFB8BC"></path>
                    <path d="M279.32342,213 C279.242332,212.118427 269.998306,151.122406 274.007655,100 L290,115.215946 C287.783596,166.029802 287.738547,212.056717 287.783596,212.488688 L279.32342,213 Z" id="Path" fill="#723891"></path>
                    <path d="M234.369412,114.769634 C234.191745,114.413537 234.078501,114.02997 234.034714,113.635984 C233.896118,112.620944 234.175978,111.593645 234.812475,110.781017 C235.448971,109.968389 236.389725,109.437306 237.426921,109.305085 C254.776927,107.064355 267.830139,91.7689333 275.835746,76.5355081 C276.839839,74.6401866 281.923626,78.3068366 283.859446,79.3164939 C284.79058,79.7836218 285.493371,80.5945805 285.81249,81.5701326 C286.131608,82.5456846 286.040777,83.6055014 285.560072,84.515343 C276.132684,102.144498 258.589727,114.23067 238.458152,116.966081 C236.75118,117.188768 235.094613,116.29887 234.369412,114.769634 Z" id="Path" fill="#FFB8BC"></path>
                    <path d="M273.04051,101 C276.982212,96.8100776 283.514174,87.9882579 284.882941,80.492363 C285.24679,78.5211548 284.787647,75.9665396 283.150325,74.6582938 C281.088512,72.9876286 276.479753,74.9057998 274.391951,75.9046631 C270.796772,77.6106864 269.653246,85.1772973 263,92.2842543 C266.621168,95.4576343 269.367364,98.7370883 273.04051,101 Z" id="Path" fill="#D93F7A"></path>
                    <path d="M309.279741,131.36567 C313.906724,120.058531 309.810561,107.356757 299.548038,105 L289.223585,115.380324 C285.959041,161.54452 319.506877,206.111064 320.524282,208 L328,204.266261 C327.805366,203.886708 311.694973,168.2882 309.279741,131.36567 Z" id="Path" fill="#723891"></path>
                    <path d="M305.481977,108 L273.65246,108 C273.65246,108 271,85.56792 271,85.5421459 C271,76.6157073 279.240308,73.2049314 287.118114,73.0245126 C296.277942,72.8183196 310,73.6602743 310,85.5421459 L305.481977,108 Z" id="Path" fill="#FF4A90"></path>
                    <path d="M287.964074,96.9999987 L275.722399,96.9999987 C273.592959,97.0012745 271.588976,96.0444771 270.320966,94.4210972 C269.052957,92.7977173 268.67109,90.7000091 269.291702,88.7670449 L271.49215,82 L288,84.4801134 L287.964074,96.9999987 Z" id="Path" fill="#FF4A90"></path>
                    <path d="M290.462114,76.9999135 C291.66185,77.0081207 292.814875,76.4322498 293.666383,75.3995612 C294.517892,74.3668727 294.99778,72.9623863 295,71.4964769 C295,71.4141826 295,71.3318882 295,71.2495938 C292.703798,71.0222533 290.399068,70.9501358 288.096352,71.0335711 C287.397568,71.0335711 286.698784,71.1055786 286,71.1981598 C286,71.290741 286,71.393609 286,71.4964769 C286.004452,74.513672 287.992884,76.9661437 290.462114,76.9999135 Z" id="Path" fill="#D93F7A"></path>
                    <path d="M296.457191,52.9532734 C296.853957,52.3736116 297.172331,51.7442722 297.404075,51.081542 C297.626244,50.4108594 298.025335,49.8122138 298.559447,49.3484574 C299.115396,48.9039178 299.899964,48.8826702 300.479275,49.2964648 C300.709782,49.5420839 300.908259,49.8157673 301.069992,50.1110146 C301.772064,50.9561985 302.81903,51.4401728 303.91933,51.4281589 C305.001407,51.4100417 306.078637,51.2793528 307.133523,51.0382149 C308.189038,50.7779724 309.2922,50.7779724 310.347715,51.0382149 C310.77812,51.1619584 311.165913,51.4018522 311.468339,51.7314487 C311.769244,52.0722911 311.877092,52.5417336 311.75501,52.9792697 C311.598644,53.4212062 311.172981,53.7331615 311.007928,54.1664326 C310.862245,54.6100855 310.929538,55.0959457 311.190355,55.4835769 C311.459315,55.8572475 311.798628,56.175115 312.189361,56.4194426 C313.202051,56.9704996 314.159149,57.6176202 315.047386,58.351832 C315.948022,59.1242178 316.246321,60.3879619 315.785782,61.4800498 C315.381163,62.0872221 314.759932,62.5179047 314.04838,62.6845436 C311.546522,63.4644316 308.836176,62.6845436 306.447249,61.5840348 C304.058322,60.4835261 301.756265,59.1317201 299.184911,58.6811181 C298.414501,58.6185222 297.659957,58.4281584 296.95235,58.1178656 C296.241579,57.6907092 295.703589,57.0283253 295.432124,56.2461342 C295.09456,55.5703064 294.950284,54.8147378 295.015148,54.0624475 C295.188888,53.6031801 296.109711,53.4298717 296.457191,52.9532734 Z" id="Path" fill="#723891"></path>
                    <path d="M298.659472,53.250122 C299.812013,54.5734482 300.252282,56.2963726 299.859451,57.9460599 C299.688574,59.1046048 298.613795,59.9767304 297.328244,60 C296.549821,59.8864401 295.864882,59.4692505 295.453276,58.8579752 C295.031929,58.2430518 294.715826,57.5734878 294.515792,56.8722156 C294.131423,55.7301908 293.578308,53.7018184 294.515792,52.610929 C295.453276,51.5200396 297.375118,52.0484392 298.368851,52.9603545 C298.48135,53.071148 298.575098,53.1563737 298.659472,53.250122 Z" id="Path" fill="#00C7E6"></path>
                    <path d="M295.282116,53.4758187 C293.704141,51.3791778 291.19984,50.0962374 288.497315,50 L288,50.7714622 C288.523957,54.5270419 289.065676,58.4013082 290.82404,61.7923508 C291.208825,62.7842063 292.020283,63.5711833 293.053078,63.9541405 C293.995093,64.1271458 294.961805,63.8033421 295.584057,63.1063799 C296.194775,62.4236962 296.605344,61.598875 296.774062,60.7156948 C297.351423,58.2093329 296.810958,55.5866489 295.282116,53.4758187 Z" id="Path" fill="#723891"></path>
                    <path d="M288,59.3102209 L283.317482,59.0041511 C282.110982,58.9278115 281.075145,59.9135586 281.003875,61.2058789 C280.932605,62.4981993 281.852891,63.6077174 283.05939,63.684057 L288,64 L288,59.3102209 Z" id="Path" fill="#FF808C"></path>
                    <path d="M289,63.6947913 L293.646101,63.9913044 C294.431506,64.0645356 295.191779,63.6711794 295.631487,62.9640892 C296.071196,62.2569991 296.121007,61.3476698 295.761563,60.5894558 C295.40212,59.8312417 294.6901,59.343699 293.902185,59.3162807 L289,59 L289,63.6947913 Z" id="Path" fill="#FFB8BC"></path>
                    <path d="M289.960921,74.9986238 C289.139437,74.9656332 288.365993,74.6342027 287.81115,74.0774203 C287.256307,73.5206379 286.965638,72.7842355 287.003243,72.0306066 L287.317496,65.5179288 L294,64 L293.149668,72.2850081 C293.074632,73.8374904 291.653891,75.0465377 289.960921,74.9986238 Z" id="Path" fill="#FFB8BC"></path>
                    <path d="M292.25,63 L287.442308,63.1993499 L287,71 C290.089824,70.9153743 292.643642,68.8014877 293,66.0335861 C292.850967,65.0042363 292.599964,63.9889858 292.25,63 Z" id="Path" fill="#FF808C"></path>
                    <path d="M286.900046,69.9906769 C283.444533,69.7872212 280.812771,66.9954435 281.010445,63.7429789 L281.469984,56.5510665 C281.686259,53.3032863 284.647411,50.8283645 288.100474,51.0093231 C291.553556,51.2174606 294.182518,54.0062674 293.990075,57.2570211 L293.530536,64.4489335 C293.31426,67.6967137 290.353108,70.1716355 286.900046,69.9906769 Z" id="Path" fill="#FFB8BC"></path>
                    <path d="M281.407945,52.7692064 C278.975359,56.5074361 287.977638,64.2598122 293.699353,59.4980198 C299.087016,55.0121442 286.307377,45.2215428 281.407945,52.7692064 Z" id="Path" fill="#723891"></path>
                    <path d="M160.462411,193.150196 C160.251021,192.651419 159.831873,192.26717 159.312658,192.096173 C158.793444,191.925176 158.224777,191.984102 157.752768,192.257809 C156.659879,192.846785 155.648279,193.04311 156.036661,194.229984 C156.994068,197.139164 160.146286,208.02628 160.146286,208.02628 L82.0453441,207.919194 C80.895076,207.992363 80,208.935476 80,210.074307 C80,211.213139 80.895076,212.156252 82.0453441,212.229421 L82.0453441,222.143836 C82.0453441,222.971826 82.7247072,223.643045 83.5627441,223.643045 C84.400781,223.643045 85.0801442,222.971826 85.0801442,222.143836 L85.0801442,212.27404 L97.1199911,212.27404 L97.1199911,222.500791 C97.1199911,223.328781 97.7993542,224 98.6373911,224 C99.475428,224 100.154791,223.328781 100.154791,222.500791 L100.154791,212.300812 L132.986632,212.300812 L132.986632,222.117064 C132.986632,222.945055 133.665995,223.616274 134.504032,223.616274 C135.342069,223.616274 136.021432,222.945055 136.021432,222.117064 L136.021432,212.300812 L148.521918,212.300812 L148.521918,222.117064 C148.521918,222.945055 149.201281,223.616274 150.039318,223.616274 C150.877355,223.616274 151.556718,222.945055 151.556718,222.117064 L151.556718,212.300812 L163.948819,212.300812 C164.455535,212.293604 164.942763,212.10675 165.321704,211.774304 C165.770684,211.348816 166.016731,210.755659 165.999115,210.141236 C165.999115,209.552261 161.754008,197.326565 160.462411,193.150196 Z" id="Path" fill="#A6C3FF"></path>
                    <path d="M83.500146,226 C86.0661036,225.898553 88.07357,223.666792 87.9976414,221 C88.0785421,218.33126 86.0683097,216.096425 83.500146,216 C80.9297654,216.091365 78.9167414,218.329304 79.0026506,221 C78.9217499,223.66874 80.9319822,225.903575 83.500146,226 Z" id="Path" fill="#723891"></path>
                    <path d="M134.5,226 C137.066041,225.898553 139.073572,223.666792 138.997641,221 C139.078545,218.33126 137.068247,216.096425 134.5,216 C131.931753,216.096425 129.921455,218.33126 130.002359,221 C129.926428,223.666792 131.933959,225.898553 134.5,226 Z" id="Path" fill="#723891"></path>
                    <path d="M98.499854,226 C101.068018,225.903575 103.07825,223.66874 102.997349,221 C103.083259,218.329304 101.070235,216.091365 98.499854,216 C95.9316903,216.096425 93.9214579,218.33126 94.0023586,221 C93.92643,223.666792 95.9338964,225.898553 98.499854,226 Z" id="Path" fill="#723891"></path>
                    <path d="M148.499854,226 C151.068018,225.903575 153.07825,223.66874 152.997349,221 C153.083259,218.329304 151.070235,216.091365 148.499854,216 C145.93169,216.096425 143.921458,218.33126 144.002359,221 C143.92643,223.666792 145.933896,225.898553 148.499854,226 Z" id="Path" fill="#723891"></path>
                    <path d="M160.325236,192.997096 C160.9173,192.980037 161.423081,192.567991 161.5558,191.994589 L178.491553,127.798973 C178.624101,127.230422 179.125995,126.822192 179.713264,126.80526 C181.687479,126.80526 182.041598,126.743703 183.732518,126.726115 C184.084066,126.712441 184.415548,126.559836 184.65328,126.302223 C184.891012,126.044609 185.015292,125.703335 184.998494,125.354264 C185.008012,125.004385 184.877153,124.665093 184.634729,124.411091 C184.392306,124.15709 184.058194,124.009206 183.705959,124 L179.279468,124.079145 C177.393783,124.079145 176.72981,124.721101 176.278308,125.969838 L159.050407,191.282282 C158.855387,191.986252 159.242162,192.720063 159.935705,192.96192 C160.06283,192.9942 160.194335,193.006075 160.325236,192.997096 Z" id="Path" fill="#D4E2FF"></path>
                    <path d="M78.5632557,193.199763 C78.2429303,192.933703 78.0592393,192.53895 78.0626173,192.123889 L78.0000375,142.624778 C77.9974244,142.263456 78.1314442,141.914354 78.3755163,141.64671 C78.602922,141.392068 78.9271282,141.243741 79.2695134,141.2377 L174.614305,134 C175.379603,134 176,134.617035 176,135.378186 C176,136.139337 175.379603,136.756372 174.614305,136.756372 L80.6015691,143.994072 L80.6015691,191.243628 L159.496814,191.243628 C160.262112,191.243628 160.882509,191.860663 160.882509,192.621814 C160.882509,193.382965 160.262112,194 159.496814,194 L79.8506115,194 C79.3086798,193.980782 78.8181001,193.675831 78.5632557,193.199763 Z" id="Path" fill="#D4E2FF"></path>
                    <path d="M184.389483,128 L203.610773,128 C204.972282,127.942816 206.039113,126.602647 205.9989,125 C206.039113,123.397353 204.972282,122.057184 203.610773,122 L184.389483,122 C183.734645,122.02472 183.115015,122.354782 182.667082,122.917483 C182.219148,123.480184 181.979655,124.229364 182.001356,125 C181.979655,125.770636 182.219148,126.519816 182.667082,127.082517 C183.115015,127.645218 183.734645,127.97528 184.389483,128 Z" id="Path" fill="#723891"></path>
                    <path d="M96.5,192.999732 C96.7665345,193.004836 96.9880979,192.754076 97,192.433844 L97,141.601255 C97,141.269191 96.7761424,141 96.5,141 C96.2238577,141 96.0000001,141.269191 96.0000001,141.601255 L96.0000001,192.41616 C95.9999398,192.574046 96.0530825,192.725224 96.1472987,192.835188 C96.2415149,192.945152 96.3687634,193.004516 96.5,192.999732 Z" id="Path" fill="#D4E2FF"></path>
                    <path d="M111.5,192.999934 C111.7705,193.000073 111.992044,192.74393 112,192.421848 L112,140.595603 C112,140.266661 111.776142,140 111.5,140 C111.223858,140 111,140.266661 111,140.595603 L111,192.421848 C111.001936,192.577494 111.055705,192.725848 111.149476,192.834264 C111.243248,192.942679 111.369338,193.002274 111.5,192.999934 Z" id="Path" fill="#D4E2FF"></path>
                    <path d="M126.5,192.999934 C126.7705,193.000073 126.992044,192.74393 127,192.421848 L127,140.595603 C127,140.266661 126.776142,140 126.5,140 C126.223858,140 126,140.266661 126,140.595603 L126,192.421848 C126.001936,192.577494 126.055705,192.725848 126.149476,192.834264 C126.243248,192.942679 126.369338,193.002274 126.5,192.999934 Z" id="Path" fill="#D4E2FF"></path>
                    <path d="M158.500079,193 C158.781388,192.990354 159.004078,192.71035 158.999943,192.371486 L158.999943,136.601957 C158.999943,136.269505 158.776147,136 158.500079,136 C158.224012,136 158.000215,136.269505 158.000215,136.601957 L158.000215,192.371486 C157.996264,192.535004 158.046945,192.693596 158.140905,192.811738 C158.234865,192.929881 158.36425,192.997698 158.500079,193 Z" id="Path" fill="#D4E2FF"></path>
                    <path d="M142.5,194 C142.77449,193.995168 142.99605,193.724143 143,193.388371 L143,138.611629 C143,138.273835 142.776142,138 142.5,138 C142.223858,138 142,138.273835 142,138.611629 L142,193.40636 C142.007956,193.737108 142.2295,194.000143 142.5,194 Z" id="Path" fill="#D4E2FF"></path>
                    <path d="M79.606059,152 L170.393941,152 C170.739809,151.98879 171.009782,151.764424 170.999728,151.496552 C171.004522,151.368502 170.943375,151.244227 170.829754,151.151094 C170.716133,151.057961 170.559354,151.003606 170.393941,151 L79.606059,151 C79.4406462,151.003606 79.2838674,151.057961 79.170246,151.151094 C79.0566247,151.244227 78.9954784,151.368502 79.0002719,151.496552 C78.9902176,151.764424 79.2601912,151.98879 79.606059,152 Z" id="Path" fill="#D4E2FF"></path>
                    <path d="M78.6074733,170 L165.392527,170 C165.558325,169.996394 165.71547,169.942039 165.829357,169.848906 C165.943243,169.755773 166.004532,169.631498 165.999727,169.503448 C166.009805,169.235576 165.739202,169.01121 165.392527,169 L78.6074733,169 C78.2607984,169.01121 77.9901948,169.235576 78.0002726,169.503448 C77.9954678,169.631498 78.0567568,169.755773 78.1706433,169.848906 C78.2845298,169.942039 78.4416745,169.996394 78.6074733,170 Z" id="Path" fill="#D4E2FF"></path>
                    <polygon id="Path" fill="#27D8DB" points="347 179.129142 340.707902 136 340.69873 136.135569 340.69873 136 309.476717 137.491263 308 181"></polygon>
                    <path d="M329.260533,139.568042 C329.05418,139.577239 328.852045,139.51557 328.698732,139.396642 C328.54542,139.277714 328.453534,139.111303 328.443349,138.934132 L328.275974,135.899815 C328.272481,134.520617 327.386065,133.254734 325.968881,132.605073 C324.551697,131.955412 322.833227,132.027172 321.496182,132.791844 C320.159137,133.556517 319.420022,134.890279 319.572472,136.263257 L319.739847,139.297574 C319.753283,139.475299 319.682387,139.65013 319.543295,139.782272 C319.404204,139.914415 319.208752,139.992625 319.001428,139.999101 C318.795074,140.008298 318.592939,139.946628 318.439627,139.8277 C318.286315,139.708772 318.194428,139.542362 318.184243,139.365191 L318.007023,136.322422 C317.849334,133.521631 320.366314,131.1414 323.628855,131.006029 C326.891397,130.870657 329.664042,133.031407 329.821732,135.832198 L329.998953,138.866515 C330.009666,139.043663 329.937829,139.21719 329.799294,139.348804 C329.660759,139.480417 329.466914,139.559299 329.260533,139.568042 Z" id="Path" fill="#009DB5"></path>
                    <path d="M324.417691,132.931591 C324.012953,133.004197 323.599388,133.019107 323.190176,132.975847 C320.999545,132.726511 319.432858,130.808556 319.690843,128.691926 C321.742808,111.68016 309.614228,95.5623529 296.331419,84.2418281 C294.682518,82.8345072 299.647541,78.9311831 301.104069,77.3025853 C302.567612,75.7069254 305.091549,75.5564882 306.746974,76.9662445 C322.079193,90.2130782 329.85337,109.794479 327.623886,129.550481 C327.43638,131.234131 326.137201,132.604187 324.417691,132.931591 Z" id="Path" fill="#FFB8BC"></path>
                    <path d="M320,90.4860189 C316.789653,85.3911999 311.270433,77.9954948 304.058652,74.6993843 C302.16372,73.7863342 299.459302,73.6585072 297.729946,74.9732993 C295.50386,76.6533113 295.890206,80.8350803 296.368538,83.1907493 C297.159626,87.2994744 301.648592,90.2029734 304.50019,93.0242979 C305.052112,93.5812584 310.276973,100 310.276973,100 L320,90.4860189 Z" id="Path" fill="#FF4A90"></path>
                    <path d="M45.8309763,51 C45.6474089,50.9992301 45.4665721,50.9549853 45.3029579,50.8708111 L32.6220001,44.1960497 C32.3514288,44.056254 32.1471531,43.8131132 32.0544345,43.5205001 C31.961716,43.227887 31.9882104,42.9099627 32.1280475,42.6371699 C32.2696072,42.3577838 32.5161397,42.1475564 32.8123464,42.0536429 C33.1085532,41.9597295 33.4296403,41.9899909 33.7035862,42.1376394 L46.3930604,48.8124008 C46.8567238,49.0635754 47.0927065,49.6009311 46.9660799,50.1172223 C46.8394533,50.6335136 46.3825132,50.9970619 45.8565256,51 L45.8309763,51 Z" id="Path" fill="#00C7E6"></path>
                    <path d="M111.280643,36 C111.003082,35.9981434 110.7333,35.9150329 110.510047,35.7626064 C109.94743,35.3666455 109.833032,34.6265647 110.253182,34.1008512 L119.633519,22.5476959 C119.893374,22.1719964 120.359137,21.9625854 120.839365,22.0055369 C121.319594,22.0484885 121.733263,22.3365559 121.910344,22.7513349 C122.087425,23.1661139 121.998039,23.6376228 121.678928,23.9720575 L112.308103,35.5252128 C112.064577,35.8230156 111.684542,35.9986289 111.280643,36 Z" id="Path" fill="#00C7E6"></path>
                </g>
            </g>
        </g>
    </g>
</svg>