<?xml version="1.0" encoding="UTF-8"?>
<svg width="450px" height="186px" viewBox="0 0 450 186" version="1.1" xmlns="http://www.w3.org/2000/svg" xmlns:xlink="http://www.w3.org/1999/xlink">
    <!-- Generator: Sketch 52.4 (67378) - http://www.bohemiancoding.com/sketch -->
    <title>a</title>
    <desc>Created with Sketch.</desc>
    <defs>
        <linearGradient x1="0%" y1="49.9863425%" x2="100%" y2="49.9863425%" id="linearGradient-1">
            <stop stop-color="#00A0FF" stop-opacity="0.3" offset="0%"></stop>
            <stop stop-color="#F6F3FF" stop-opacity="0.4" offset="100%"></stop>
        </linearGradient>
        <linearGradient x1="0%" y1="50.3676471%" x2="100%" y2="50.3676471%" id="linearGradient-2">
            <stop stop-color="#40D5E6" offset="0%"></stop>
            <stop stop-color="#5577FF" offset="100%"></stop>
        </linearGradient>
    </defs>
    <g id="Page-1" stroke="none" stroke-width="1" fill="none" fill-rule="evenodd">
        <g id="Usuario" transform="translate(-987.000000, -576.000000)">
            <g id="Group" transform="translate(987.000000, 572.000000)">
                <g id="a">
                    <g transform="translate(-19.000000, 4.000000)">
                        <path d="M19,185 L460,185 C456.625561,178.986616 425.823288,144.509791 409,142.728516 C395.269947,141.275702 370.320627,170.358167 359.965012,165.05224 C354.116535,162.150631 349.173215,157.611777 345.697006,151.951653 C342.933879,147.50478 342.554866,141.920923 337.138647,138.143608 C328.213502,131.95336 313.309731,133.355641 302.257222,129.376195 C291.204713,125.39675 285.140505,118.334813 282.181758,111.550806 C278.110424,102.075936 279,93.6835937 270,84 C261,74.3164062 245.870332,84.4224133 233.093926,78.7753906 C210.81774,68.8457266 225.758006,42.5855609 198,31.7285156 C177.178154,23.5844245 148,49.0800781 148,49.0800781 C94.5036491,24.5149757 53.1980711,32.9270851 24.0832659,74.3164063 C-5.03153926,115.705727 -6.72596123,152.600259 19,185 Z" id="Path" fill="url(#linearGradient-1)"></path>
                        <path d="M124,183 L189,183 C188.876871,182.244685 188.766054,181.075166 188.667551,179.954376 C188.039591,173.254004 187.645577,168.807394 187.645577,168.807394 C187.645577,168.807394 134.342868,142.66376 128.543474,159.85326 C126.482866,166.400364 125.08464,173.133791 124.369388,179.954376 C124.246259,181.111713 124.110816,182.281233 124,183 Z" id="Path" fill="#D3BE94"></path>
                        <path d="M179,94.4398782 C179,94.4398782 181.922524,111.925419 184.287222,123.480974 C184.861768,126.722445 185.672387,129.917221 186.712553,133.039574 C187.379519,134.512938 192.872895,140.430746 199.603189,147.383562 C211.293285,159.584475 226.936672,175 226.936672,175 L233,163.383562 C233,163.383562 219.187739,146.993912 209.801707,136.144597 C205.448237,131.115677 202.0649,127.243531 201.434314,126.683409 C199.469796,124.917808 197.202111,107.541857 194.000674,93.2222222 C190.799236,78.9025875 184.372109,71 184.372109,71 L179,94.4398782 Z" id="Path" fill="#723891"></path>
                        <path d="M199,147.28079 C210.941283,159.527107 226.838347,175 226.838347,175 L233,163.340332 C233,163.340332 218.963755,146.88969 209.425516,136 C206.49257,137.429959 201.082639,140.778753 199,147.28079 Z" id="Path" fill="#EEA886"></path>
                        <path d="M125.031083,171.806052 C124.590209,173.366193 184.892065,174 184.892065,174 C184.892065,174 182.332543,155.278306 180.875207,150.926975 C179.417872,146.575644 185.026777,120.455469 185.957512,111.923447 C186.716797,105.110018 188.60276,74.6263231 184.083795,69.9702769 C179.368886,65.0948359 162.382964,60 162.382964,60 L137.620504,60.9141452 C135.214814,61.4587668 132.865518,62.2259203 130.603249,63.2056025 C127.688578,64.5585374 111.00882,70.518764 108.265599,78.7948252 C105.522379,87.0708863 124.933111,113.763926 124.933111,113.763926 L125.031083,116.932963 C125.104562,119.553512 125.214781,123.539185 125.325,127.902705 C125.447465,133.509462 125.557683,139.664707 125.557683,144.174489 C125.545437,154.729819 125.471958,170.24591 125.031083,171.806052 Z" id="Path" fill="#723891"></path>
                        <path d="M155.811009,6.34757134 C155.811009,6.34757134 177.151862,1.41412414 172.27569,28.7207544 C167.399518,56.0273847 162.267985,58.0994325 149.390513,52.4629691 C136.513041,46.8265057 137.668244,29.3744362 137.023762,20.8025717 C136.379281,12.2307071 149.001392,6.65591179 155.811009,6.34757134 Z" id="Path" fill="#EEA886"></path>
                        <path d="M161,67.2122612 C161,67.2122612 151.308919,77.3409238 136,68.1341662 C136,68.1341662 139.425511,46.1805359 137.631789,35.4864383 C135.838067,24.7923407 157.562033,52.0561436 157.562033,52.0561436 C157.275536,52.2036484 157.076233,53.2853502 157.038864,54.6743537 C157.003892,56.1283008 157.078839,57.5827973 157.263079,59.0257451 C157.748879,62.5781522 158.869955,66.3395245 161,67.2122612 Z" id="Path" fill="#EEA886"></path>
                        <path d="M143.796432,25.1453582 C143.482496,22.6923977 138.44644,21.7866892 138.04094,25.4598403 C137.635439,29.1329914 140.330056,35.5861643 142.239833,34.9572001 C144.14961,34.3282358 144.201932,28.5166064 143.796432,25.1453582 Z" id="Path" fill="#EEA886"></path>
                        <path d="M137.692464,35 C137.692464,35 138.253668,26.3999513 141.352494,26.1788072 C144.451319,25.9576631 144.927123,29.3608252 144.927123,29.3608252 L148.062549,29.9505428 C148.062549,29.9505428 147.074341,22.4562147 150.173166,21.1539216 C153.271992,19.8516285 170.230131,25.2696592 172.718952,23.0705039 C175.207772,20.8713486 174.036563,5.673834 169.498125,3.63439388 C164.959688,1.59495376 152.588786,-3.11050144 143.487511,3.09381939 C143.487511,3.09381939 136.399253,2.27067188 135.350044,8.00813292 C134.300836,13.745594 135.764848,30.6631183 137.692464,35 Z" id="Path" fill="#292C47"></path>
                        <path d="M158,59 C142.208944,54.3053173 141.012463,45.1440823 141,45 C146.197214,53.6089194 157.77566,54.7495712 157.77566,54.7495712 C157.740669,56.1697833 157.815657,57.590532 158,59 Z" id="Path" fill="#A77860"></path>
                        <path d="M130,63.7091854 C130,63.7091854 141.441649,86.3930704 159.923364,84.9323657 C178.405079,83.471661 163.079681,60.6650276 162.241284,60.4563555 C161.402888,60.2476834 143.278724,55.742821 130,63.7091854 Z" id="Path" fill="#EEA886"></path>
                        <path d="M105.437975,148.026027 C106.263825,148.99091 117.24277,153.436697 129.630517,158.236682 C146.560439,164.79544 165.652144,171 165.652144,171 L170,161.619877 C170,161.619877 150.009576,150.627546 136.492358,143.030623 C130.104166,139.366513 125.173357,136.52072 124.481101,135.848966 C122.307173,133.772637 121.736365,130.426083 123.339485,124.612361 C124.942605,118.798639 128.61035,92.0384185 129.047564,88.9117109 C129.484779,85.7850032 128.015252,77.4674724 120.254693,77.0522065 C112.494133,76.6369406 108.522767,78.835407 108.522767,78.835407 C108.522767,78.835407 106.567446,79.653725 105.122209,98.5971763 C103.676972,117.540628 103.47051,145.729851 105.437975,148.026027 Z" id="Path" fill="#723891"></path>
                        <path d="M125,117.949079 C125.076948,120.589021 125.192369,124.604189 125.307791,129 C133.297537,110.225713 128.680669,95.245576 128.603722,95 C129.462972,100.058866 125.064123,117.691224 125,117.949079 Z" id="Path" fill="#5A2C73"></path>
                        <path d="M184,123.316886 C184.630801,126.600582 185.52079,129.836974 186.662801,133 C189.498683,120.282433 186.942395,104 186.942395,104 C186.378812,110.487621 185.396254,116.938136 184,123.316886 Z" id="Path" fill="#5A2C73"></path>
                        <path d="M130,158.067234 C146.85518,164.566114 170.626546,170 170.626546,170 L174,161.891528 C174,161.891528 150.28909,150.588077 136.831547,143 C136.831547,143 131.934597,145.347826 130,158.067234 Z" id="Path" fill="#EEA886"></path>
                        <path d="M173.878698,161.756752 C173.878698,161.756752 178.906183,160.984735 182.389599,160.200655 C185.094806,159.585453 191.789883,160.429847 193.506887,162.118635 C195.22389,163.807423 200.646656,175.580688 201.671917,176.292392 C202.697178,177.004095 201.15311,178.704946 199.337286,177.836427 C199.337286,177.836427 197.978507,180.164542 193.889816,178.234498 C189.801124,176.304455 186.737694,174.929299 184.600704,174.181407 C182.463715,173.433515 170,169.706119 170,169.706119 C170,169.706119 170.667037,160.502224 173.878698,161.756752 Z" id="Path" fill="#EEA886"></path>
                        <path d="M191.54256,164 C192.967669,164.638869 194.345018,165.371486 195.664756,166.19261 C196.52667,166.863573 199.986817,169.35572 200.823748,169.930831 C201.660678,170.505941 199.574597,172.183348 193.328845,169.607331 C187.083093,167.031313 191.54256,164 191.54256,164 Z" id="Path" fill="#EEA886"></path>
                        <polygon id="Path" fill="#27D8DB" points="192.581787 131 187 183 260.430427 183 266 131"></polygon>
                        <rect id="Rectangle" fill="#3F71D9" transform="translate(187.000000, 180.500000) rotate(180.000000) translate(-187.000000, -180.500000) " x="181" y="178" width="12" height="5"></rect>
                        <path d="M339.608746,99 C339.608746,99 319.973541,114.882818 327.874025,128.979422 C335.774508,143.076026 340.842052,131.586328 340.842052,131.586328 C340.842052,131.586328 346.73994,133.831164 339.034832,116.620755 C335.40818,108.498311 339.608746,99 339.608746,99 Z" id="Path" fill="#BBD070"></path>
                        <path d="M222.130301,155.618064 C221.57418,158.591448 222.848624,161.388444 224.992007,161.917605 C227.135391,162.446767 229.313532,160.367918 229.869653,157.381936 C230.425774,154.395953 229.15133,151.611556 227.019532,151.082395 C224.887735,150.553233 222.651664,152.632082 222.130301,155.618064 Z" id="Path" fill="#3F71D9"></path>
                        <path d="M369,71 C369,71 341.724479,83.9809004 346.578801,103.150226 C351.433123,122.319552 360.673156,110.25089 360.673156,110.25089 C360.673156,110.25089 366.765089,114.713459 363.076286,91.8705265 C361.309985,81.0716008 369,71 369,71 Z" id="Path" fill="#BBD070"></path>
                        <path d="M380.752467,75.2492075 C380.752467,75.2492075 389.323774,50.3376562 372.989311,42.6257794 C356.654848,34.9139027 342.830553,46.0559833 340.210182,52.1014135 C337.58981,58.1468436 338.28776,69.1307942 340.5163,76.7818517 C342.74484,84.4329093 342.426477,96.0980351 337.577566,99.990465 C332.728654,103.882895 326.716494,110.366223 327.010368,123.55183 C327.194039,131.725932 359.409911,102.630019 359.409911,102.630019 L380.752467,75.2492075 Z" id="Path" fill="#463000"></path>
                        <path d="M357.791821,104.685644 C357.791821,104.685644 344.41113,107.647974 339.107733,110.80616 C333.804336,113.964346 322,128.225148 322,134.370146 C322,140.515144 373.579814,146.243946 373.579814,146.243946 L383.355662,182 C383.355662,182 409.481614,175.622422 412.536566,170.322056 C415.591518,165.021689 402.626301,127.147937 400.402296,119.485051 C398.17829,111.822165 388.793477,106.203532 377.930066,104.685644 C371.248336,103.771452 364.473552,103.771452 357.791821,104.685644 Z" id="Path" fill="#27D8DB"></path>
                        <path d="M377,104.993536 C377,104.993536 376.689961,121.505629 363.593913,121.989455 C350.497866,122.47328 353.23861,106.147273 353.23861,106.147273 C353.23861,106.147273 362.837418,102.214641 377,104.993536 Z" id="Path" fill="#EEA886"></path>
                        <path d="M382.196419,56 C382.196419,56 386.912081,82.2982368 373.496403,101.287996 C359.652028,120.965612 382.196419,56 382.196419,56 Z" id="Path" fill="#323657"></path>
                        <path d="M374.318877,93.3975715 C374.318877,93.3975715 373.417165,101.252029 374.924136,106.14254 C376.431106,111.033052 354.987653,111.168899 355.000005,107.142872 C355.000005,102.585805 357.1987,98.769724 355.148232,90.9399661 C353.097764,83.1102081 374.318877,93.3975715 374.318877,93.3975715 Z" id="Path" fill="#EEA886"></path>
                        <path d="M357,94 C361.088211,98.2329891 367.550514,98.5539759 372,94.7450596 C372,94.7450596 371.315452,99.3543268 365.2506,99.960477 C359.185749,100.566627 357,94 357,94 Z" id="Path" fill="#A77860"></path>
                        <path d="M366.075571,47.3365572 C366.075571,47.3365572 383.209856,52.3125431 380.760333,75.6511306 C378.310811,98.9897181 367.151876,97.7881995 366.075571,97.9581113 C364.999266,98.128023 351.724835,98.9897181 347.518585,70.6751447 C343.312334,42.3605713 366.075571,47.3365572 366.075571,47.3365572 Z" id="Path" fill="#EEA886"></path>
                        <path d="M361.625777,57.1176735 C361.625777,57.1176735 370.79456,71.6109018 380.43822,74.9443444 C380.43822,74.9443444 385.710575,50.6681869 363.951458,45.5834793 C342.19234,40.4987717 345.601715,70.1011906 347.221168,78 C350.576689,70.1593037 355.47355,63.060337 361.625777,57.1176735 Z" id="Path" fill="#463000"></path>
                        <path d="M349,55 C349,55 353.875762,45.7522058 361.993905,45.366881 C370.112049,44.9815562 375,51.9414847 375,51.9414847 C372.668523,46.964206 367.555335,43.84162 362.006095,44.0062029 C352.181435,44.0062029 349,55 349,55 Z" id="Path" fill="#88C0FF"></path>
                        <polygon id="Path" fill="#FF4A90" points="382.279489 129 388 182 312.720511 182 307 129"></polygon>
                        <rect id="Rectangle" fill="#ED4586" x="381" y="177" width="13" height="5"></rect>
                        <path d="M351.83852,155.056008 C352.531172,158.326909 350.931776,161.393379 348.261916,161.922495 C345.592057,162.451612 342.871823,160.214893 342.166577,156.943992 C341.461331,153.673091 343.060728,150.606621 345.730587,150.077505 C348.400447,149.548388 351.133274,151.785107 351.83852,155.056008 Z" id="Path" fill="#E0AE4B"></path>
                        <rect id="Rectangle" fill="url(#linearGradient-2)" x="19" y="183" width="450" height="3"></rect>
                    </g>
                </g>
            </g>
        </g>
    </g>
</svg>