<svg xmlns="http://www.w3.org/2000/svg" width="450" height="186"><title>a</title><desc>Created with Sketch.</desc><defs><linearGradient id="a" x1="0%" y1="49.986%" y2="49.986%"><stop stop-color="#00A0FF" stop-opacity=".3" offset="0%"/><stop stop-color="#F6F3FF" stop-opacity=".4" offset="100%"/></linearGradient><linearGradient id="b" x1="0%" y1="50.368%" y2="50.368%"><stop stop-color="#40D5E6" offset="0%"/><stop stop-color="#57f" offset="100%"/></linearGradient></defs><g fill="none"><g><g><g><path id="Path" fill="url(#a)" d="M19 185h441c-3.37-6-34.18-40.5-51-42.27-13.73-1.45-38.68 27.63-49.03 22.32-5.85-2.9-10.8-7.44-14.27-13.1-2.77-4.45-3.15-10.03-8.56-13.8-8.93-6.2-23.83-4.8-34.88-8.77-11.06-3.98-17.12-11.05-20.08-17.83C278.1 102.08 279 93.68 270 84s-24.13.42-36.9-5.22c-22.28-9.93-7.34-36.2-35.1-47.05-20.82-8.15-50 17.35-50 17.35C94.5 24.5 53.2 32.93 24.08 74.32-5.02 115.72-6.72 152.6 19 185z" transform="translate(-19)"/><path id="Path" fill="#D3BE94" d="M105 183h65c-.12-.76-.23-1.92-.33-3.05-.63-6.7-1.02-11.14-1.02-11.14s-53.3-26.14-59.1-8.95c-2.07 6.55-3.47 13.28-4.18 20.1-.12 1.16-.26 2.33-.37 3.05z"/><path id="Path" fill="#723891" d="M160 94.44s2.92 17.5 5.3 29.04c.56 3.24 1.37 6.44 2.4 9.56.68 1.47 6.17 7.4 12.9 14.34 11.7 12.2 27.34 27.62 27.34 27.62l6.06-11.62s-13.8-16.4-23.2-27.24c-4.35-5.02-7.74-8.9-8.37-9.46-1.96-1.76-4.23-19.14-7.43-33.46C171.8 78.9 165.37 71 165.37 71L160 94.44z"/><path id="Path" fill="#EEA886" d="M180 147.28c11.94 12.25 27.84 27.72 27.84 27.72l6.16-11.66S199.96 146.9 190.43 136c-2.94 1.43-8.35 4.78-10.43 11.28z"/><path id="Path" fill="#723891" d="M106.03 171.8c-.44 1.57 59.86 2.2 59.86 2.2s-2.57-18.72-4.02-23.07c-1.46-4.35 4.15-30.47 5.08-39 .76-6.82 2.64-37.3-1.88-41.96-4.7-4.88-21.7-9.97-21.7-9.97l-24.76.9c-2.4.56-4.75 1.33-7.02 2.3-2.9 1.36-19.6 7.32-22.33 15.6-2.75 8.27 16.66 34.96 16.66 34.96l.1 3.17c.07 2.62.18 6.6.3 10.97.12 5.6.23 11.76.23 16.27 0 10.56-.1 26.08-.53 27.64z"/><path id="Path" fill="#EEA886" d="M136.8 6.35s21.35-4.94 16.48 22.37c-4.88 27.3-10 29.38-22.9 23.74-12.87-5.63-11.7-23.1-12.36-31.66-.64-8.57 11.98-14.14 18.8-14.45zM142 67.2s-9.7 10.14-25 .93c0 0 3.43-21.95 1.63-32.64-1.8-10.7 19.93 16.56 19.93 16.56-.28.14-.48 1.23-.52 2.6-.04 1.47.04 2.92.22 4.37.5 3.55 1.6 7.3 3.74 8.18zM124.8 25.15c-.32-2.46-5.35-3.36-5.76.3-.4 3.68 2.3 10.14 4.2 9.5 1.9-.62 1.96-6.43 1.56-9.8z"/><path id="Path" fill="#292C47" d="M118.7 35s.55-8.6 3.65-8.82c3.1-.22 3.58 3.18 3.58 3.18l3.13.6s-1-7.5 2.1-8.8c3.1-1.3 20.07 4.1 22.56 1.9 2.5-2.2 1.32-17.4-3.22-19.43-4.54-2.04-16.9-6.74-26-.54 0 0-7.1-.83-8.15 4.9-1.05 5.75.4 22.66 2.34 27z"/><path id="Path" fill="#A77860" d="M139 59c-15.8-4.7-17-13.86-17-14 5.2 8.6 16.78 9.75 16.78 9.75-.04 1.42.04 2.84.22 4.25z"/><path id="Path" fill="#EEA886" d="M111 63.7s11.44 22.7 29.92 21.23c18.5-1.46 3.16-24.26 2.32-24.47-.84-.2-18.96-4.72-32.24 3.25z"/><path id="Path" fill="#723891" d="M86.44 148.03c.82.96 11.8 5.4 24.2 10.2 16.92 6.57 36 12.77 36 12.77l4.36-9.38s-20-11-33.5-18.6c-6.4-3.65-11.33-6.5-12.02-7.17-2.17-2.08-2.74-5.42-1.14-11.24 1.6-5.8 5.27-32.56 5.7-35.7.44-3.1-1.02-11.43-8.8-11.85-7.75-.4-11.72 1.8-11.72 1.8s-1.95.8-3.4 19.75c-1.44 18.94-1.65 47.13.32 49.43z"/><path id="Path" fill="#5A2C73" d="M106 117.95c.08 2.64.2 6.65.3 11.05 8-18.77 3.38-33.75 3.3-34 .86 5.06-3.54 22.7-3.6 22.95zM165 123.32c.63 3.28 1.52 6.52 2.66 9.68 2.84-12.72.28-29 .28-29-.56 6.5-1.54 12.94-2.94 19.32z"/><path id="Path" fill="#EEA886" d="M111 158.07c16.86 6.5 40.63 11.93 40.63 11.93l3.37-8.1s-23.7-11.3-37.17-18.9c0 0-4.9 2.35-6.83 15.07zM154.88 161.76s5.03-.78 8.5-1.56c2.7-.6 9.4.23 11.13 1.92 1.72 1.7 7.15 13.46 8.17 14.17 1.03.7-.52 2.4-2.33 1.54 0 0-1.36 2.32-5.45.4-4.1-1.94-7.16-3.3-9.3-4.06-2.14-.75-14.6-4.47-14.6-4.47s.67-9.2 3.88-7.94zM172.54 164c1.43.64 2.8 1.37 4.12 2.2.87.66 4.33 3.16 5.16 3.73.84.58-1.25 2.25-7.5-.32-6.24-2.57-1.78-5.6-1.78-5.6z"/><path id="Path" fill="#27D8DB" d="M173.58 131L168 183h73.43l5.57-52z"/><path id="Rectangle" fill="#3F71D9" d="M174 183h-12v-5h12z"/><path id="Path" fill="#BBD070" d="M320.6 99s-19.63 15.88-11.73 29.98c7.9 14.1 12.97 2.6 12.97 2.6s5.9 2.25-1.8-14.96c-3.63-8.12.57-17.62.57-17.62z"/><path id="Path" fill="#3F71D9" d="M203.13 155.62c-.56 2.97.72 5.77 2.86 6.3 2.14.53 4.3-1.55 4.87-4.54.56-2.98-.72-5.77-2.85-6.3-2.13-.53-4.37 1.55-4.9 4.54z"/><path id="Path" fill="#BBD070" d="M350 71s-27.28 12.98-22.42 32.15c4.85 19.17 14.1 7.1 14.1 7.1s6.1 4.46 2.4-18.38C342.3 81.07 350 71 350 71z"/><path id="Path" fill="#463000" d="M361.75 75.25s8.57-24.9-7.76-32.62c-16.35-7.72-30.17 3.43-32.8 9.47-2.6 6.05-1.9 17.03.32 24.68 2.22 7.65 1.9 19.32-2.94 23.2-4.85 3.9-10.86 10.4-10.57 23.57.2 8.18 32.4-20.92 32.4-20.92l21.35-27.38z"/><path id="Path" fill="#27D8DB" d="M338.8 104.7s-13.4 2.95-18.7 6.1c-5.3 3.16-17.1 17.43-17.1 23.57 0 6.15 51.58 11.87 51.58 11.87l9.78 35.76s26.12-6.38 29.18-11.68c3.05-5.3-9.9-43.17-12.14-50.83-2.22-7.68-11.6-13.3-22.47-14.8-6.68-.93-13.46-.93-20.14 0z"/><path id="Path" fill="#EEA886" d="M358 105s-.3 16.5-13.4 17c-13.1.47-10.36-15.85-10.36-15.85s9.6-3.94 23.76-1.16z"/><path id="Path" fill="#323657" d="M363.2 56s4.7 26.3-8.7 45.3c-13.85 19.67 8.7-45.3 8.7-45.3z"/><path id="Path" fill="#EEA886" d="M355.32 93.4s-.9 7.85.6 12.74c1.5 4.9-19.93 5.03-19.92 1 0-4.55 2.2-8.37.15-16.2-2.05-7.83 19.17 2.46 19.17 2.46z"/><path id="Path" fill="#A77860" d="M338 94c4.1 4.23 10.55 4.55 15 .75 0 0-.68 4.6-6.75 5.2C340.2 100.58 338 94 338 94z"/><path id="Path" fill="#EEA886" d="M347.08 47.34s17.13 4.97 14.68 28.3C359.3 99 348.16 97.8 347.08 97.97c-1.08.17-14.36 1.03-18.56-27.28-4.2-28.32 18.56-23.34 18.56-23.34z"/><path id="Path" fill="#463000" d="M342.63 57.12s9.16 14.5 18.8 17.82c0 0 5.28-24.27-16.48-29.36C323.2 40.5 326.6 70.1 328.22 78c3.36-7.84 8.25-14.94 14.4-20.88z"/><path id="Path" fill="#88C0FF" d="M330 55s4.88-9.25 13-9.63c8.1-.4 13 6.57 13 6.57-2.33-4.98-7.44-8.1-13-7.93-9.82 0-13 11-13 11z"/><path id="Path" fill="#FF4A90" d="M363.28 129l5.72 53h-75.28L288 129z"/><path id="Rectangle" fill="#ED4586" d="M362 177h13v5h-13z"/><path fill="#E0AE4B" d="M332.84 155.06c.7 3.27-.9 6.33-3.58 6.86-2.67.53-5.4-1.7-6.1-4.98-.7-3.27.9-6.33 3.57-6.86 2.67-.53 5.4 1.7 6.1 4.98z"/><path fill="url(#b)" d="M19 183h450v3H19z" transform="translate(-19)"/></g></g></g></g></svg>