<?xml version="1.0" encoding="UTF-8"?>
<svg width="420px" height="184px" viewBox="0 0 420 184" version="1.1" xmlns="http://www.w3.org/2000/svg" xmlns:xlink="http://www.w3.org/1999/xlink">
    <!-- Generator: Sketch 52.4 (67378) - http://www.bohemiancoding.com/sketch -->
    <title>Group 4</title>
    <desc>Created with Sketch.</desc>
    <g id="Page-1" stroke="none" stroke-width="1" fill="none" fill-rule="evenodd">
        <g id="Usuario" transform="translate(-987.000000, -1003.000000)">
            <g id="Group-3" transform="translate(987.000000, 996.000000)">
                <g id="c">
                    <g id="Group-4" transform="translate(-41.000000, 7.000000)">
                        <path d="M37.96875,92.4179688 C106.663692,93.9343774 104.483154,65.4866442 201.082031,11.578125 C230.316103,-4.73640773 273.862506,0.54753516 304.710938,6.71484375 C320.074555,9.786383 334.432756,15.8078242 348.167969,23.375 C355.061932,27.1731087 361.899054,31.35336 367.625,36.7539063 C407.93394,74.7721304 320.252373,109.13246 354.597656,144.550781 C370.270702,160.713495 436.18642,162.17118 436.285156,162.1875 C438.775534,162.599137 452.129845,164.32404 456.339844,169.039063 C457.868188,170.750745 459.50244,172.584961 460.113281,174.796875 C460.571468,176.456011 460.087961,178.352186 459.339844,179.902344 C458.455152,181.735496 457.372118,184.068696 455.398438,184.566406 C398.772789,198.845918 393.881311,194.389548 336.511719,202.523438 C323.073858,204.428664 309.905194,207.962592 296.484375,209.984375 C224.859667,220.774302 145.158983,217.95482 74.3984375,201.957031 C61.7141751,199.089329 48.8549593,195.966188 37.1992188,190.199219 C30.5334545,186.901165 25.6488843,180.757236 20.5703125,175.324219 C-4.38863654,148.623324 -7.42338004,128.250789 20.2265625,101.335938 L37.96875,92.4179688 Z" id="Path-2" fill="#E3F2FF"></path>
                        <g id="c" transform="translate(86.000000, 31.000000)">
                            <path d="M244.822226,87.8387417 L185.403223,53.2747594 C182.174755,51.3927342 176.53358,51.6219107 172.800448,53.7817255 L48.0931301,125.854261 C44.359999,128.014076 43.9452066,131.285049 47.1805869,133.16013 L106.634156,167.731057 C109.862623,169.606137 115.503799,169.376961 119.23693,167.217146 L243.909683,95.1446106 C247.642814,92.9847957 248.050693,89.7416011 244.822226,87.8387417 Z" id="Path" fill="#ABD6F4"></path>
                            <path d="M250.064347,60.6733296 L188.045571,24.7111639 C183.691429,22.1840928 176.078616,22.4895629 171.038074,25.4054142 L44.1717146,98.5030286 C39.1311723,101.404995 38.583438,105.806542 42.9375791,108.333613 L104.928623,144.288836 C109.282764,146.815907 116.895577,146.510437 121.929186,143.594586 L248.809412,70.4830864 C253.870754,67.5950051 254.418489,63.1656882 250.064347,60.6733296 Z" id="Path" fill="#D4ECFF"></path>
                            <path d="M111.812212,145.993788 C109.174671,146.068706 106.561975,145.464886 104.223412,144.239941 L42.1174486,108.188638 C40.1039517,107.019407 39,105.404754 39,103.602189 C39,101.465557 40.5899682,99.3219664 43.3533191,97.7281926 L170.411914,24.4424358 C175.542859,21.4775989 183.333009,21.1713717 187.769645,23.7464647 L249.882551,59.8256065 C251.896048,60.994838 253,62.6094909 253,64.4120561 C253,66.5486874 251.410032,68.6922783 248.646681,70.2860522 L121.588086,143.578769 C118.585413,145.198928 115.222073,146.029803 111.812212,145.993788 Z M180.180845,22.6885886 C176.888829,22.6546459 173.642135,23.4592819 170.745182,25.0270515 L43.6865875,98.3197681 C41.1454156,99.7882671 39.6873662,101.709147 39.6804231,103.588269 C39.6804231,105.119406 40.6593991,106.532227 42.4576601,107.569224 L104.563623,143.620527 C108.819739,146.091224 116.304393,145.784997 121.227046,142.924556 L248.28564,69.6318393 C250.826812,68.1633403 252.284861,66.2424601 252.291805,64.3633381 C252.291805,62.8322017 251.305885,61.4193804 249.514568,60.3823834 L187.429434,24.3310804 C185.192624,23.1725961 182.697272,22.6071626 180.180845,22.6885886 Z" id="Shape" fill="#173D7A" fill-rule="nonzero"></path>
                            <path d="M252.9792,65.0277489 C252.937601,66.9354874 251.544017,68.9334098 248.819248,70.501224 L121.940719,143.557201 C116.907177,146.456963 109.294465,146.762202 104.940382,144.250924 L42.9293674,108.309132 C40.918724,107.143677 39.9688684,105.575863 40.0035347,103.945613 L40.0035347,112.964013 C39.9342021,114.622011 40.8840578,116.210637 42.9224342,117.389967 L104.919582,153.290136 C109.273665,155.815288 116.886377,155.510049 121.926852,152.596413 L248.805382,79.5404356 C251.654949,77.9032492 253.062399,75.7873938 252.965334,73.8033458 L253,65 L252.9792,65.0277489 Z" id="Path" fill="#27D8DB"></path>
                            <path d="M111.814042,155.993794 C109.174062,156.068681 106.558913,155.46476 104.21765,154.239546 L42.1063876,118.179994 C40.0718879,116.996573 38.9747856,115.346744 39.0025604,113.522882 C38.9991465,113.495142 38.9991465,113.467087 39.0025604,113.439347 L39.0025604,104.389652 C39.001544,104.244877 39.0900266,104.114588 39.2247583,104.062471 C39.3586167,104.012701 39.5091944,104.048382 39.606661,104.152968 C39.6686969,104.224436 39.703179,104.315799 39.7038726,104.410536 C39.7038726,105.983791 40.6482137,107.424781 42.4813466,108.475937 L104.592609,144.535489 C108.849088,147.006752 116.334381,146.700454 121.257454,143.839358 L248.32689,70.5298728 C250.826617,69.0888831 252.284791,67.1884472 252.319509,65.3297792 C252.31821,65.2509705 252.345333,65.1743405 252.39589,65.1139788 C252.492683,65.0072081 252.645147,64.9713741 252.779189,65.0238912 C252.913231,65.0764083 253.001059,65.2063877 252.99999,65.3506632 L252.986103,74.1845571 C253.069427,76.384329 251.486267,78.5841008 248.639356,80.2269684 L121.569919,153.536454 C118.576467,155.166667 115.220593,156.011955 111.814042,155.993794 Z M39.6899852,113.341888 C39.6933749,113.376612 39.6933749,113.411584 39.6899852,113.446308 C39.627492,115.040446 40.5996079,116.509282 42.4674592,117.574361 L104.578722,153.633912 C108.835201,156.112136 116.320494,155.805839 121.243566,152.937782 L248.313003,79.6282963 C250.94466,78.1107322 252.402833,76.1476447 252.312566,74.1845571 L252.312566,74.135828 L252.312566,67.7314289 C251.425664,69.1769006 250.17265,70.3610371 248.681018,71.1633515 L121.611582,144.472837 C116.480198,147.431391 108.689384,147.737688 104.252369,145.168967 L42.141106,109.109416 C41.1600877,108.572628 40.327387,107.800007 39.7177599,106.860915 L39.6899852,113.341888 Z" id="Shape" fill="#173D7A" fill-rule="nonzero"></path>
                            <path d="M232.238783,69.7825857 L163.829758,31 L105.279168,64.4753507 L102,66.3198548 L170.164831,104.999587 C172.774212,106.480676 177.330162,106.29554 180.344206,104.588174 L231.506203,75.5698032 C234.520246,73.8418662 234.848163,71.2568176 232.238783,69.7825857 Z" id="Path" fill="#ABD6F4"></path>
                            <path d="M244.822226,62.8339407 L185.403223,28.2693609 C182.174755,26.3946247 176.53358,26.6237591 172.800448,28.776234 L48.0931301,100.863311 C44.359999,103.015786 43.9452066,106.293102 47.1805869,108.167838 L106.634156,142.725475 C109.862623,144.607154 115.503799,144.37802 119.23693,142.218602 L243.909683,70.1592987 C247.642814,67.97905 248.050693,64.7086769 244.822226,62.8339407 Z" id="Path" fill="#FFFFFF"></path>
                            <polygon id="Path" fill="#ABD6F4" points="102.051506 142 160 108.430455 109.21058 79 51 112.728741 98.2305745 139.771259"></polygon>
                            <path d="M244.822226,62.8339407 L185.403223,28.2693609 C182.174755,26.3946247 176.53358,26.6237591 172.800448,28.776234 L48.0931301,100.863311 C44.359999,103.015786 43.9452066,106.293102 47.1805869,108.167838 L106.634156,142.725475 C109.862623,144.607154 115.503799,144.37802 119.23693,142.218602 L243.909683,70.1592987 C247.642814,67.97905 248.050693,64.7086769 244.822226,62.8339407 Z" id="Path" fill="#FFFFFF"></path>
                            <ellipse id="Oval" fill="#ABD6F4" cx="213.5" cy="149" rx="17.5" ry="10"></ellipse>
                            <path d="M227.699121,142.827101 C219.297949,147.698196 205.69505,147.698196 197.300879,142.827101 C193.100293,140.384514 191,137.195777 191,134 L191,137.519578 C191,140.715354 193.100293,143.911131 197.300879,146.346678 C205.702051,151.217774 219.30495,151.217774 227.699121,146.346678 C231.899707,143.911131 234,140.715354 234,137.519578 L234,134 C234,137.195777 231.899707,140.384514 227.699121,142.827101 Z" id="Path" fill="#27D8DB"></path>
                            <path d="M212.028196,150 C206.388978,150 200.813201,148.821053 196.520346,146.463158 C192.227491,144.105263 190,141.073684 190,137.705263 L190,134.336842 C190,134.150809 190.157798,134 190.352451,134 C190.547105,134 190.704902,134.150809 190.704902,134.336842 C190.704902,137.402105 192.897148,140.298947 196.872797,142.488421 C205.211791,147.096421 218.788209,147.096421 227.127203,142.488421 C231.102852,140.298947 233.295098,137.402105 233.295098,134.336842 C233.295098,134.150809 233.452895,134 233.647549,134 C233.842202,134 234,134.150809 234,134.336842 L234,137.705263 C234,141.026526 231.680872,144.125474 227.479654,146.463158 C223.278436,148.800842 217.639218,150 212.028196,150 Z M190.733098,137.469474 L190.733098,137.725474 C190.733098,140.790737 192.925344,143.687579 196.900993,145.883789 C205.239987,150.485053 218.816405,150.485053 227.155399,145.883789 C231.131048,143.687579 233.323294,140.790737 233.323294,137.725474 L233.323294,137.469474 C232.34348,139.584842 230.362704,141.511579 227.50785,143.088 C218.971483,147.803789 205.084909,147.803789 196.548542,143.088 C193.693688,141.511579 191.712913,139.584842 190.733098,137.469474 Z" id="Shape" fill="#173D7A" fill-rule="nonzero"></path>
                            <ellipse id="Oval" fill="#91D351" cx="212.5" cy="133.5" rx="21.5" ry="12.5"></ellipse>
                            <path d="M212.028196,147 C206.388978,147 200.813201,145.753083 196.520346,143.266374 C192.227491,140.779666 190,137.530556 190,134.003563 C190,130.476569 192.319128,127.213209 196.520346,124.740751 C205.056713,119.753083 218.943287,119.753083 227.479654,124.740751 C231.709068,127.191833 234,130.476569 234,134.003563 C234,137.530556 231.680872,140.793916 227.479654,143.266374 C223.278436,145.738833 217.632169,147 212.028196,147 Z M212.028196,121.74815 C206.551105,121.74815 201.066966,122.966566 196.900993,125.403398 C192.925344,127.719101 190.733098,130.782954 190.733098,134.024938 C190.733098,137.266922 192.925344,140.330776 196.900993,142.646478 C205.239987,147.520143 218.816405,147.520143 227.155399,142.646478 C231.131048,140.330776 233.323294,137.266922 233.323294,134.024938 C233.323294,130.782954 231.131048,127.719101 227.155399,125.403398 C222.982377,122.966566 217.505287,121.74815 212.028196,121.74815 Z" id="Shape" fill="#173D7A" fill-rule="nonzero"></path>
                            <path d="M206,138.607431 L207.371348,137.793215 C206.438266,137.182553 206.014138,136.56462 206.113101,135.932149 C206.212064,135.299677 206.819981,134.623586 208.00754,133.882068 L210.495759,134.972536 C209.991209,135.226304 209.548985,135.594118 209.202168,136.048465 C209.039585,136.339257 209.124411,136.57916 209.449576,136.775444 C209.918932,137.022572 210.483009,136.980534 210.912818,136.666397 C211.187783,136.522904 211.429013,136.31947 211.619698,136.070275 C211.753294,135.881165 211.840586,135.661718 211.874175,135.430533 C211.904218,135.169733 211.904218,134.906196 211.874175,134.645396 L211.739868,133.533118 C211.715153,133.291458 211.715153,133.047799 211.739868,132.806139 C211.759453,132.584351 211.809429,132.366525 211.888313,132.159128 C211.991519,131.899795 212.148294,131.666627 212.347785,131.475767 C212.610759,131.229613 212.900079,131.014989 213.210179,130.836026 C214.068606,130.320953 215.043862,130.04764 216.0377,130.043619 C217.064428,130.044268 218.07661,130.293302 218.99246,130.770598 L220.29312,130 L221,130.428918 L219.706409,131.155897 C219.953316,131.313841 220.175056,131.510008 220.363808,131.73748 C220.503337,131.895298 220.605013,132.084513 220.660697,132.289984 C220.706672,132.463723 220.706672,132.64694 220.660697,132.820679 C220.608929,132.997142 220.530188,133.164011 220.427427,133.315024 C220.304814,133.480387 220.167564,133.633709 220.017436,133.773021 C219.859699,133.920743 219.691985,134.056786 219.515551,134.180129 C219.360038,134.296446 219.183318,134.420032 218.978322,134.550889 L216.518379,133.424071 L216.977851,133.12601 L217.345429,132.864297 C217.443709,132.792543 217.533816,132.709629 217.614043,132.617124 C217.662506,132.550894 217.700662,132.477318 217.727144,132.399031 C217.748296,132.324592 217.735284,132.244297 217.6918,132.180937 C217.62209,132.100065 217.538148,132.033469 217.444392,131.984653 C217.202384,131.858361 216.928167,131.81263 216.659755,131.853796 C216.384566,131.88512 216.118005,131.971561 215.875118,132.108239 C215.688787,132.217424 215.517598,132.351911 215.366164,132.508078 C215.247675,132.637712 215.166865,132.798891 215.132893,132.973344 C215.099997,133.106402 215.083375,133.243161 215.083412,133.380452 C215.075129,133.540274 215.075129,133.700437 215.083412,133.860258 L215.203582,134.936187 C215.231975,135.206807 215.231975,135.479784 215.203582,135.750404 C215.177645,136.015614 215.113315,136.275348 215.012724,136.521002 C214.895896,136.814768 214.72005,137.079843 214.496701,137.298869 C214.21415,137.580722 213.898294,137.82496 213.55655,138.025848 C212.749673,138.488764 211.843719,138.738553 210.919887,138.752827 C209.958205,138.789765 209.001602,138.593005 208.12771,138.178514 L206.713949,139 L206,138.607431 Z" id="Path" fill="#FFFFFF"></path>
                            <ellipse id="Oval" fill="#ABD6F4" cx="20.5" cy="161" rx="17.5" ry="10"></ellipse>
                            <path d="M36.7001465,154.827101 C28.3003419,159.698196 14.6996581,159.698196 6.29985349,154.827101 C2.09995116,152.384514 0,149.195777 0,146 L0,149.519578 C0,152.715354 2.09995116,155.911131 6.29985349,158.346678 C14.6996581,163.217774 28.3073417,163.217774 36.7001465,158.346678 C40.9000488,155.911131 43,152.715354 43,149.519578 L43,146 C42.9930002,149.195777 40.9000488,152.384514 36.7001465,154.827101 Z" id="Path" fill="#173D7A"></path>
                            <path d="M22.0035251,162 C16.3634033,162 10.7867329,160.820556 6.49319019,158.461668 C2.19964749,156.10278 0,153.076664 0,149.706824 L0,146.336984 C-2.38419845e-17,146.150873 0.157823033,146 0.352507611,146 C0.547192189,146 0.705015222,146.150873 0.705015222,146.336984 C0.705015222,149.403538 2.89761256,152.301601 6.86684826,154.491997 C15.2142285,159.095198 28.7928217,159.101938 37.1331517,154.491997 C41.1094376,152.301601 43.2949848,149.403538 43.2949848,146.336984 C43.2949848,146.150873 43.4528078,146 43.6474924,146 C43.842177,146 44,146.150873 44,146.336984 L44,149.706824 C44,153.029486 41.6875501,156.129739 37.4856593,158.468408 C33.2837686,160.807077 27.6083961,162 22.0035251,162 Z M0.705015222,149.464195 L0.705015222,149.706824 C0.705015222,152.773378 2.89761256,155.671441 6.86684826,157.868576 C15.2142285,162.471778 28.7928217,162.471778 37.1331517,157.868576 C41.1094376,155.671441 43.2949848,152.773378 43.2949848,149.706824 L43.2949848,149.443976 C42.3150136,151.566976 40.3339208,153.487784 37.4856593,155.071609 C28.947925,159.789385 15.0591251,159.789385 6.51434065,155.071609 C3.66607915,153.508003 1.68498638,151.580455 0.705015222,149.464195 Z" id="Shape" fill="#173D7A" fill-rule="nonzero"></path>
                            <ellipse id="Oval" fill="#91D351" cx="21.5" cy="146.5" rx="21.5" ry="12.5"></ellipse>
                            <path d="M22.0035251,160 C16.3634033,160 10.7867329,158.752399 6.49319019,156.264327 C2.19964749,153.776254 0,150.525363 0,147.010694 C0,143.496024 2.31244993,140.216616 6.51434065,137.742802 C15.052075,132.752399 28.947925,132.752399 37.4856593,137.742802 C41.7157507,140.195229 44,143.481766 44,147.010694 C44,150.539622 41.6875501,153.804771 37.4856593,156.278585 C33.2203173,158.752399 27.6083961,160 22.0035251,160 Z M22.0035251,134.734302 C16.5185066,134.734302 11.0405384,135.953386 6.86684826,138.391555 C2.89056241,140.708528 0.705015222,143.774061 0.705015222,147.010694 C0.705015222,150.247327 2.89761256,153.319989 6.86684826,155.636962 C15.2142285,160.506169 28.7928217,160.513299 37.1331517,155.636962 C41.1094376,153.319989 43.2949848,150.254456 43.2949848,147.010694 C43.2949848,143.766932 41.1094376,140.701398 37.1331517,138.384426 C32.9594616,135.953386 27.4955937,134.734302 22.0035251,134.734302 Z" id="Shape" fill="#173D7A" fill-rule="nonzero"></path>
                            <path d="M14,151.580048 L15.3707018,150.769107 C14.4309939,150.160901 14.0141309,149.545455 14.1130476,148.915527 C14.2119642,148.285599 14.8195949,147.604988 16.0065944,146.873693 L18.4936411,147.959775 C17.9876885,148.213081 17.5434801,148.579233 17.193594,149.031376 C17.0381536,149.320998 17.1158738,149.559936 17.4408855,149.75543 C17.9118695,150.004527 18.4792708,149.962594 18.910504,149.646822 C19.1879002,149.504716 19.4296567,149.299086 19.6170513,149.045857 C19.7543268,148.861649 19.8442214,148.645037 19.8784739,148.415929 C19.9085025,148.156178 19.9085025,147.893702 19.8784739,147.63395 L19.7371644,146.518906 C19.7152697,146.278076 19.7152697,146.035681 19.7371644,145.794851 C19.7534812,145.571085 19.8035332,145.351261 19.8855393,145.143202 C19.9881766,144.886719 20.1450251,144.656744 20.3447951,144.469831 C20.6063041,144.222979 20.8956892,144.00907 21.2067829,143.832663 C22.0648051,143.319662 23.0396022,143.047448 24.0329722,143.043443 C25.0614799,143.044037 26.0754901,143.292041 26.9934056,143.767498 L28.2934527,143 L29,143.427192 L27.7070184,144.18745 C27.9509301,144.348741 28.1720321,144.543649 28.3641074,144.766693 C28.5011554,144.925636 28.6024593,145.113491 28.6608573,145.316975 C28.7064697,145.490061 28.7064697,145.672449 28.6608573,145.845535 C28.6076332,146.020693 28.5290361,146.186663 28.4276967,146.337892 C28.3044747,146.504278 28.1647759,146.657144 28.0108337,146.794047 C27.855515,146.940993 27.6902409,147.076489 27.5162506,147.199517 C27.3608102,147.315366 27.1771079,147.431215 26.9792746,147.561545 L24.5204899,146.43926 L24.9797456,146.149638 L25.3400848,145.888978 C25.4381714,145.817323 25.5282159,145.734761 25.6085728,145.6428 C25.6607029,145.575476 25.7013162,145.499581 25.7286858,145.418343 C25.7502007,145.345512 25.7342426,145.26647 25.686293,145.208367 C25.6211546,145.12596 25.5391467,145.059222 25.4460669,145.012872 C25.2052548,144.883725 24.9300964,144.837999 24.6617993,144.882542 C24.3867403,144.91374 24.1203047,144.999833 23.8775318,145.135961 C23.6901202,145.242889 23.5187768,145.37702 23.3688177,145.534191 C23.2480804,145.661622 23.1669384,145.822888 23.1356571,145.997586 C23.1047185,146.13068 23.0857974,146.26641 23.0791333,146.403057 C23.0791333,146.504425 23.0791333,146.663717 23.0791333,146.873693 L23.1992463,147.952534 C23.2275717,148.222069 23.2275717,148.493941 23.1992463,148.763475 C23.1702526,149.027053 23.1060633,149.2853 23.0084786,149.530973 C22.887276,149.822887 22.7093866,150.086479 22.4856335,150.305712 C22.2072499,150.58813 21.8936518,150.831591 21.5529911,151.029767 C20.7478577,151.494258 19.8414625,151.74328 18.9175695,151.753821 C17.9565712,151.797331 16.999434,151.603643 16.1267075,151.189059 L14.7136128,152 L14,151.580048 Z" id="Path" fill="#FFFFFF"></path>
                            <path d="M231.252245,69.354056 L166.661777,32 L105,67.578594 L169.687399,104.988133 C172.276834,106.486179 176.797959,106.298924 179.788964,104.572009 L230.525265,75.2075323 C233.51627,73.4598119 233.84168,70.8451667 231.252245,69.354056 Z" id="Path" fill="#EFEFEF"></path>
                            <path d="M236,63.5154744 L233.593595,63.1616924 L131.584132,4.06623263 C128.859638,2.4915561 124.109062,2.67885243 120.962756,4.5101943 L67.6000243,35.4140883 C67.0646732,35.717982 66.5697844,36.0885783 66.1271382,36.5170556 L65,36.3366962 L65,38.8825388 C65.0722245,40.0419551 65.7734755,41.067858 66.825549,41.5532457 L169.353633,100.933118 C172.071212,102.507795 176.828703,102.320499 179.968094,100.496094 L233.358486,69.5713889 C235.09414,68.5655383 235.965425,67.2822116 235.951595,66.061317 L236,63.5154744 Z" id="Path" fill="#173D7A"></path>
                            <path d="M173.539905,101.996315 C171.875246,102.042195 170.226654,101.659011 168.751501,100.883342 L66.0052371,41.3462593 C64.8678971,40.8024596 64.1049144,39.6920515 64.0025616,38.4316621 C63.9991461,38.4086019 63.9991461,38.3851615 64.0025616,38.3621013 L64.0025616,35.8022641 C64.0034486,35.7015312 64.0461431,35.6057328 64.120366,35.5379331 C64.2010551,35.47529 64.3033924,35.447729 64.4044826,35.4614162 L65.3607775,35.61445 C65.7833602,35.2168246 66.2481177,34.8669282 66.7467122,34.5710381 L120.271508,3.55388037 C123.514595,1.67573895 128.441592,1.46705657 131.261969,3.10869129 L233.412281,62.3257945 L235.706003,62.6805546 C235.872855,62.707698 235.995845,62.8517334 235.997049,63.0214025 L235.997049,65.6021079 C236.000984,65.6204472 236.000984,65.6394172 235.997049,65.6577565 C235.997049,67.0489724 234.978387,68.4401883 233.22518,69.4209955 L179.721174,100.431197 C177.826229,101.470434 175.699183,102.009009 173.539905,101.996315 Z M64.6885992,38.2925405 C64.6885992,38.2925405 64.6885992,38.3412331 64.6885992,38.3621013 C64.7688267,39.3983395 65.4029756,40.3092406 66.3447911,40.7410804 L169.091055,100.285119 C171.717401,101.808501 176.332563,101.606774 179.38162,99.8399303 L232.885626,68.8366848 C234.444802,67.9323945 235.324871,66.749861 235.311012,65.6229761 C235.307649,65.6022444 235.307649,65.5811032 235.311012,65.5603714 L235.311012,63.3344261 L233.23211,63.0005342 C233.190914,62.9928705 233.151166,62.9787883 233.114305,62.9587978 L130.915486,3.72778235 C128.289139,2.20440098 123.667047,2.40612728 120.617991,4.16601535 L67.1209145,35.176217 C66.6137061,35.4645451 66.1475306,35.8201886 65.7349799,36.233541 C65.6524973,36.3093294 65.5410201,36.3449346 65.4300743,36.3309261 L64.6885992,36.2474532 L64.6885992,38.2925405 Z" id="Shape" fill="#173D7A" fill-rule="nonzero"></path>
                            <path d="M169.395935,97.9280734 L66.8353035,38.5722847 C64.1168623,36.9982469 64.4558028,34.2454142 67.6031075,32.4286833 L121.003531,1.51652136 C124.150835,-0.327945905 128.90292,-0.501298091 131.607527,1.05887159 L234.161241,60.4146602 C236.886599,61.9956322 236.540742,64.7484649 233.400354,66.5651958 L180.027599,97.4842918 C176.873378,99.3079568 172.114376,99.5229135 169.395935,97.9280734 Z" id="Path" fill="#F6F6F6"></path>
                            <path d="M173.534545,98.9959997 C171.870639,99.0435512 170.222228,98.6665009 168.746566,97.9008186 L66.0094267,38.9401251 C64.8460225,38.39861 64.0746531,37.2669322 64,35.9920904 C64,34.6145041 65.0116424,33.2369179 66.7716231,32.2381678 L120.263949,1.53865719 C123.506748,-0.321084304 128.433308,-0.527722249 131.253434,1.09782958 L233.983644,60.058523 C235.154907,60.5920643 235.931594,61.7276278 236,63.0065577 C236,64.384144 234.988358,65.7617303 233.228377,66.7604803 L179.729122,97.4668789 C177.828419,98.491298 175.696536,99.0175496 173.534545,98.9959997 Z M126.465455,0.691441623 C124.423767,0.676126273 122.411571,1.17618952 120.617331,2.14479516 L67.125005,32.8374178 C65.5798252,33.725961 64.6929058,34.9037973 64.6929058,35.9920904 C64.7758926,37.0192036 65.4124365,37.9208949 66.3558796,38.347763 L169.093019,97.3084564 C171.719131,98.8169134 176.333884,98.6171634 179.382669,96.8676288 L232.881924,66.1681182 C234.427104,65.2795751 235.314023,64.1017388 235.314023,63.0065577 C235.222053,61.9742196 234.571275,61.0738181 233.616404,60.6577731 L130.91391,1.69707962 C129.541712,0.990013426 128.010306,0.643816679 126.465455,0.691441623 Z" id="Shape" fill="#173D7A" fill-rule="nonzero"></path>
                            <polygon id="Path" fill="#27D8DB" points="75 27.6554836 186.3655 93 196 87.3514813 84.6344999 22"></polygon>
                            <path d="M186.880453,94.9985381 C186.820321,94.9980485 186.761094,94.983695 186.707291,94.9565728 L74.1732156,29.3298375 C74.0645467,29.269959 73.9978234,29.154072 74.0000542,29.0290862 C73.9983079,28.9024041 74.0645511,28.7846755 74.1732156,28.7213406 L83.911808,23.0420367 C84.0205768,22.9859878 84.1493617,22.9859878 84.2581306,23.0420367 L196.826839,88.668772 C196.933433,88.7341603 196.99894,88.8505803 197,88.9765175 C196.999258,89.1007037 196.933348,89.2151769 196.826839,89.2772688 L187.08132,94.9565728 C187.019948,94.9903152 186.950045,95.0049194 186.880453,94.9985381 Z M75.0390221,29.0290862 L186.880453,94.2501569 L195.933326,88.9765175 L84.0849693,23.7484526 L75.0390221,29.0290862 Z" id="Shape" fill="#173D7A" fill-rule="nonzero"></path>
                            <polygon id="Path" fill="#FFFFFF" points="146.557472 45 115 26.2194772 125.442528 20 157 38.7877047"></polygon>
                            <polygon id="Path" fill="#EFEFEF" points="104.111949 140 160 107.64399 108.804626 78 53 110.31418"></polygon>
                            <path d="M12.7347329,117.076028 C7.37551675,114.052754 4.00017495,107.43367 4.00017495,97.9519007 C3.94506733,79.1838635 16.9160237,56.2404965 32.9316761,46.8076028 L44.4836113,40 L45.0415759,40.3211792 L98,70.4980605 L84.5950711,79.3584174 L79.5389469,83.0659426 L72.602275,90.4181536 L71.5070111,91.4445306 L64.1019244,102.811482 L61.3947625,109.912335 L59.3902228,115.553918 L57.7301057,127.388673 L57.6267789,128.449961 L58.2191859,133.442203 L59.9206337,139.621412 L62.3247037,143.810706 L65.8240376,148 L12.7347329,117.076028 Z" id="Path" fill="#FFFFFF"></path>
                            <path d="M66.382833,150 L9.73917853,117.582405 L9.85053109,117.582405 C4.80486829,114.113056 2.02801387,107.597619 2.00017573,98.9936342 C1.94449945,80.2591508 15.1258585,57.2990006 31.3902916,47.8693106 L43.2215009,41 L43.952252,41.4163219 L98,71.7176141 L83.9556586,80.8142466 L78.9099958,84.5195111 L71.9504609,91.7773888 L70.8369353,92.7904386 L63.390233,103.989496 L60.6690549,111.011458 L58.6577493,116.562416 L56.8830679,129.308804 L57.4815879,134.22834 L59.1797144,140.271946 L61.5877135,144.400471 L66.382833,150 Z M12.6482641,118.428926 L63.3136781,147.439621 L61.0518293,144.761283 L58.5533562,140.473168 L56.8343511,134.325482 L56.1801548,129.308804 L56.2984669,128.254122 L57.9896339,116.409765 L60.0148586,110.803297 L62.7986725,103.670316 L70.3080107,92.3394233 L71.4354553,91.3194347 L78.3949902,84.0338023 L83.531127,80.2799669 L96.6289716,71.7939398 L43.2423795,41.8118276 L31.7452278,48.4729773 C15.6687023,57.7985868 2.64045294,80.460373 2.69612922,99.0005729 C2.69612922,108.02088 5.80008178,114.62652 11.3607502,117.735056 L12.6761023,118.46362 L12.6482641,118.428926 Z" id="Shape" fill="#173D7A" fill-rule="nonzero"></path>
                            <path d="M105,71 L105,73.018165 L70,94 C70.719384,92.5823573 71.6900891,91.3165259 72.8617647,90.268165 L105,71 Z" id="Path" fill="#D4ECFF"></path>
                            <polygon id="Path" fill="#F6F6F6" points="158 101.91426 104.637975 71 72.3265783 90.5575731 68.288521 95.3087688 62.2106203 106.070682 58.3945868 116.825598 57.1526413 125.236404 57 133.633215 62.2106203 145.640655 68.9892835 149.636138 75.9552792 150 84.3158618 146.501329 150.381809 107.302214"></polygon>
                            <path d="M76.1182624,151 L69.222437,150.634757 C69.1669259,150.629066 69.1130451,150.612363 69.063833,150.58559 L62.3335075,146.574942 C62.2671138,146.541416 62.2154513,146.483782 62.1886952,146.413392 L57.0099303,134.360378 C56.9966899,134.312135 56.9966899,134.261118 57.0099303,134.212876 L57.1616385,125.784194 L58.402887,117.299322 L62.2093826,106.433346 L68.2708131,95.5743948 L72.3324543,90.7559985 C72.3549562,90.7251125 72.3830427,90.6988883 72.4152042,90.6787356 L104.439417,71.0469315 C104.548597,70.9843562 104.681924,70.9843562 104.791104,71.0469315 L157.826897,102.071504 C157.927912,102.132211 157.992567,102.240215 157.999293,102.359483 C158.006943,102.481117 157.952131,102.598093 157.85448,102.668535 L150.269072,108.076939 L84.5794401,147.410786 L76.2285956,150.922737 C76.1984218,150.957118 76.1605831,150.983615 76.1182624,151 Z M69.2913953,149.939391 L76.0562,150.29761 L84.3311904,146.785659 L149.951865,107.451812 L157.054565,102.373531 L104.646292,71.721226 L72.7186205,91.2265999 L68.7328334,95.9466616 L62.7403612,106.700254 L58.9683447,117.4398 L57.7477836,125.81229 L57.6029713,134.121565 L62.7265695,146.01303 L69.2913953,149.939391 Z" id="Shape" fill="#173D7A" fill-rule="nonzero"></path>
                            <path d="M3.48459804,104.079717 C3.16022354,102.150174 2.99810617,100.195867 3.00001669,98.2381433 C3.00001669,96.8254289 3.0692426,95.4127144 3.20769441,94 L57.3423539,125.665994 L56.9962243,128.018163 L56.8923855,129.091826 L57.4877283,134.142281 L58,136 L3.48459804,104.079717 Z" id="Path" fill="#27D8DB"></path>
                            <path d="M158,103.513912 L158,101.537467 L85.286402,143.989278 C70.1342732,152.841525 57.7591113,145.722147 57.7037104,128.108125 C57.6483096,110.494103 69.9334451,88.9619877 85.0855739,80.0888632 L97.2529827,72.976445 L97.2529827,71 L85.0855739,78.1124182 C68.9916309,87.5144505 55.951659,110.382754 56.0001347,129.089388 C56.0486105,147.796023 69.199384,155.360796 85.286402,145.958764 L158,103.513912 Z" id="Path" fill="#173D7A"></path>
                            <path d="M72.6168544,150.998804 C69.8937675,151.032753 67.2099772,150.343689 64.8364696,149.001187 C59.1956906,145.732361 56.0349093,138.866429 56.0001754,129.653647 C55.9446012,110.795033 69.1017877,87.6827549 85.343341,78.1905862 L97.5488197,71.0522517 C97.655297,70.9851523 97.7898808,70.9824942 97.8988967,71.0453377 C98.0079127,71.1081811 98.0736254,71.2263024 98.0698276,71.3525926 L98.0698276,73.3362394 C98.0715791,73.4627485 98.0051416,73.5803165 97.8961583,73.6435649 L85.6906796,80.7818993 C70.5883969,89.6105243 58.3481844,111.08839 58.4037586,128.647854 C58.4037586,137.071368 61.2588819,143.315665 66.378653,146.28415 C71.4984241,149.252636 78.299314,148.52623 85.5378506,144.293519 L158.478958,101.687022 C158.586102,101.624822 158.718063,101.62462 158.825395,101.686492 C158.932726,101.748365 158.999222,101.862969 158.999966,101.987363 L158.999966,103.977994 C159.001718,104.104503 158.93528,104.222071 158.826297,104.285319 L85.8851892,146.891817 C81.2239051,149.615839 76.7015564,150.998804 72.6168544,150.998804 Z M97.4029375,71.960259 L85.7184667,78.7912679 C69.6158488,88.171682 56.6392784,110.990604 56.6948526,129.653647 C56.6948526,138.601011 59.7375388,145.257403 65.1838082,148.393521 C70.6300776,151.529639 77.8616674,150.782279 85.5517442,146.298119 L158.319183,103.782423 L158.319183,102.595029 L85.8990828,144.8942 C78.4382495,149.25962 71.3872757,149.965072 66.0382612,146.884832 C60.6892466,143.804592 57.7368684,137.329801 57.7021346,128.654839 C57.6396136,110.86488 70.0396019,89.1215973 85.3363942,80.1742329 L97.4029375,73.1406686 L97.4029375,71.960259 Z" id="Shape" fill="#173D7A" fill-rule="nonzero"></path>
                            <path d="M130.232666,107.320608 L101.742649,91.4113584 C100.322166,90.791885 98.6888285,90.8758555 97.340907,91.6376538 L81.0648586,101.162631 C79.7685975,101.916949 79.6368918,103.048426 80.7737197,103.67931 L109.256804,119.588559 C110.679651,120.208133 112.315092,120.124187 113.665479,119.362264 L129.962323,109.837286 C131.237788,109.089826 131.348698,107.951492 130.232666,107.320608 Z" id="Path" fill="#ABD6F4"></path>
                            <path d="M108.113279,113.501033 L78.8722467,96.8328815 C78.3802696,96.607239 78.046834,96.1306949 78,95.5862719 L78,92.294662 L79.6337319,93.6463231 L97.8539962,82.7419901 C99.3986996,81.8536813 101.267877,81.7575726 102.893644,82.4828634 L130.847074,98.4156556 L132.958464,97.1410322 L133,100.467659 C132.91009,101.193092 132.453883,101.81908 131.795469,102.120468 L113.194462,113.24891 C111.638688,114.152394 109.748977,114.24616 108.113279,113.501033 Z" id="Path" fill="#173D7A"></path>
                            <path d="M110.760497,113.998325 C109.955095,114.019603 109.157519,113.837841 108.443349,113.470263 L79.0440934,97.148348 C78.4905472,96.887147 78.1028371,96.3742438 78.0072912,95.7767585 C77.9975696,95.7384873 77.9975696,95.6984445 78.0072912,95.6601734 L78.0072912,92.4300801 C78.0111586,92.2988327 78.0892861,92.1807768 78.2095977,92.1243815 C78.3299094,92.0679862 78.4721342,92.0827533 78.5778803,92.1626201 L80.0321867,93.3353292 L98.1240362,82.7809479 C99.7784891,81.8409288 101.791089,81.7439215 103.530716,82.5203459 L131.45479,98.0261653 L133.430976,96.8740301 C133.538623,96.8127774 133.67125,96.8127774 133.778897,96.8740301 C133.884799,96.9326499 133.951065,97.0423682 133.952857,97.1620639 L133.994607,100.419589 C134.001798,100.458128 134.001798,100.497635 133.994607,100.536174 C133.854825,101.320868 133.335358,101.988986 132.602926,102.326098 L113.898737,113.223377 C112.940807,113.751181 111.857769,114.018623 110.760497,113.998325 Z M108.784311,112.873622 C110.306179,113.532206 112.05517,113.437998 113.49515,112.619878 L132.192381,101.750031 C132.75769,101.501657 133.152496,100.982848 133.236141,100.378441 C133.232789,100.351109 133.232789,100.323478 133.236141,100.296146 L133.201349,97.7312735 L131.573083,98.6845282 C131.465436,98.745781 131.332809,98.745781 131.225163,98.6845282 L103.127128,83.0826976 C101.604648,82.4274463 99.8572463,82.5215682 98.4162892,83.3364416 L80.1017707,94.014266 C79.9803362,94.096997 79.8196179,94.096997 79.6981833,94.014266 L78.6335475,93.1501646 L78.6335475,95.5367303 C78.6368796,95.5663574 78.6368796,95.5962566 78.6335475,95.6258836 C78.68541,96.0347781 78.9488355,96.3878647 79.3293879,96.5585645 L108.784311,112.873622 Z" id="Shape" fill="#27D8DB" fill-rule="nonzero"></path>
                            <path d="M132.11448,95.1634922 L102.867478,78.4826652 C101.240911,77.7555628 99.3697436,77.8544291 97.8268012,78.7489978 L79.2150723,89.8859028 C77.733335,90.7760142 77.5879308,92.0936593 78.88272,92.8365869 L108.136647,109.517414 C109.760851,110.244421 111.629922,110.145529 113.170399,109.251081 L131.782128,98.1141763 C133.263865,97.2240649 133.416193,95.9064198 132.11448,95.1634922 Z" id="Path" fill="#F6F6F6"></path>
                            <path d="M110.793734,109.998601 C109.988873,110.017824 109.19189,109.838722 108.475196,109.477567 L79.0652742,93.1541441 C78.4466929,92.8784182 78.0358282,92.2861243 78,91.6184672 C78.0795085,90.7734815 78.6101279,90.0341802 79.3925152,89.6783039 L98.1009574,78.7845955 C99.7577515,77.8425797 101.773678,77.7430755 103.517842,78.5172231 L132.927763,94.8680693 C133.544898,95.1467286 133.956753,95.736595 134,96.4037462 C133.919107,97.2482277 133.388927,97.9869163 132.607485,98.3439095 L113.899043,109.237618 C112.948979,109.75341 111.8785,110.01574 110.793734,109.998601 Z M101.206266,78.68176 C100.233034,78.6667554 99.2727989,78.9031294 98.4212359,79.36733 L79.7127937,90.2610384 C79.0165361,90.6518134 78.6544822,91.1454238 78.6614447,91.6321786 C78.7060285,92.0470633 78.9711815,92.4073576 79.3577023,92.5782652 L108.767624,108.901689 C110.294676,109.553639 112.04475,109.457058 113.488251,108.641172 L132.280244,97.7268965 C132.850426,97.481233 133.250837,96.9624639 133.338555,96.3557563 C133.292606,95.9413886 133.027894,95.5816941 132.642298,95.4096696 L103.176675,79.0999577 C102.564384,78.8042881 101.88789,78.6607097 101.206266,78.68176 Z" id="Shape" fill="#173D7A" fill-rule="nonzero"></path>
                            <path d="M101.127163,91.5390038 C102.298442,90.9429846 102.283425,89.997128 101.127163,89.4205442 C99.7822737,88.8464218 98.2005223,88.8608644 96.8700147,89.459415 C95.706244,90.0554343 95.7137522,91.0012908 96.8700147,91.5778747 C98.2143435,92.1541115 99.7972675,92.1396583 101.127163,91.5390038 Z" id="Path" fill="#FFFFFF"></path>
                            <path d="M108.128895,94.5451678 C109.294124,93.9486538 109.286606,92.9955282 108.128895,92.4184658 C106.7841,91.8471107 105.204381,91.861554 103.873931,92.4573689 C102.701184,93.0538828 102.716219,94.0070085 103.873931,94.5775871 C105.217255,95.1520164 106.797547,95.139976 108.128895,94.5451678 Z" id="Path" fill="#FFFFFF"></path>
                            <path d="M114.127163,98.5390038 C115.298442,97.9429846 115.283425,96.997128 114.127163,96.4205442 C112.782274,95.8464218 111.200522,95.8608644 109.870015,96.459415 C108.706244,97.0554343 108.713752,98.0012908 109.870015,98.5778747 C111.214343,99.1541115 112.797268,99.1396583 114.127163,98.5390038 Z" id="Path" fill="#FFFFFF"></path>
                            <ellipse id="Oval" fill="#ABD6F4" cx="175" cy="59" rx="17" ry="10"></ellipse>
                            <path d="M194,50.5 L194,47.1555069 L192.990968,47.1555069 C191.866779,45.4402532 190.296167,44.0341485 188.433165,43.0750939 C181.013006,38.9749687 168.986994,38.9749687 161.566835,43.0750939 C159.703833,44.0341485 158.133221,45.4402532 157.009032,47.1555069 L156,47.1555069 L156,50.4737171 C156,53.1677096 157.839595,55.8682728 161.559971,57.9249061 C168.98013,62.0250313 181.006142,62.0250313 188.426301,57.9249061 C192.146676,55.8748436 194,53.1874218 194,50.5 Z" id="Path" fill="#27D8DB"></path>
                            <path d="M174.993335,62 C170.152332,62 165.31133,60.8965308 161.630011,58.6895923 C157.948691,56.4826539 155.979927,53.5912852 156.000154,50.4694451 L156.000154,46.942534 C156.003741,46.7512368 156.152593,46.5970504 156.337271,46.5933349 L157.132868,46.5933349 C158.264405,44.7963494 159.812931,43.3219918 161.636753,42.3051697 C169.006134,37.8982768 180.99402,37.8982768 188.363401,42.3051697 C190.185886,43.3239377 191.73399,44.7978938 192.867286,46.5933349 L193.662883,46.5933349 C193.849068,46.5933349 194,46.7496766 194,46.942534 L194,50.497381 C194,53.6122372 191.977297,56.5175738 188.363401,58.6965763 C184.749505,60.8755788 179.834337,62 174.993335,62 Z M156.667646,47.2917331 L156.667646,50.4694451 C156.667646,53.3328779 158.542018,56.056631 161.967128,58.0889699 C169.147723,62.384119 180.845689,62.384119 188.019542,58.0889699 C191.43791,56.042663 193.319023,53.3468458 193.319023,50.497381 L193.319023,47.2917331 L192.644789,47.2917331 C192.524304,47.2939825 192.41259,47.2267049 192.354868,47.1171335 C191.280604,45.3508284 189.779077,43.9062402 187.999315,42.9267441 C180.818719,38.6315949 169.120754,38.6315949 161.946901,42.9267441 C160.167138,43.9062402 158.665612,45.3508284 157.591347,47.1171335 C157.533625,47.2267049 157.421911,47.2939825 157.301427,47.2917331 L156.667646,47.2917331 Z" id="Shape" fill="#173D7A" fill-rule="nonzero"></path>
                            <ellipse id="Oval" fill="#91D351" cx="175" cy="46.5" rx="19" ry="10.5"></ellipse>
                            <path d="M175,58 C170.158978,58 165.317956,56.8965308 161.636622,54.6965763 C157.955287,52.4966219 156,49.6122372 156,46.497381 C156,43.3825249 158.022711,40.4771882 161.636622,38.3051697 C169.006033,33.8982768 180.993967,33.8982768 188.363378,38.3051697 C191.997516,40.4771882 194,43.3895088 194,46.497381 C194,49.6052532 191.977289,52.5175738 188.363378,54.6965763 C184.695529,56.8965308 179.841022,58 175,58 Z M175,35.6512564 C170.280341,35.6512564 165.560681,36.7267896 161.97374,38.8778562 C158.555358,40.9171791 156.674237,43.6129963 156.674237,46.4624611 C156.674237,49.3119259 158.555358,52.0077431 161.97374,54.05405 C169.154365,58.3491991 180.852378,58.3491991 188.02626,54.05405 C191.444642,52.0077431 193.325763,49.3189099 193.325763,46.4624611 C193.325763,43.6060123 191.444642,40.9171791 188.02626,38.8778562 C184.432576,36.7617096 179.719659,35.6861763 175,35.6861763 L175,35.6512564 Z" id="Shape" fill="#173D7A" fill-rule="nonzero"></path>
                            <path d="M166.50805,49.6978502 C166.224822,49.5786772 166.03031,49.319328 166,49.0204476 L166,41.9686858 C166,41.4335377 166.779474,41 167.732939,41 C168.686403,41 169.465877,41.4335377 169.465877,41.9754598 L169.465877,47.8214448 L186.864858,45.7418187 C187.804403,45.6334342 188.72307,45.9653615 188.952736,46.4937356 C189.182403,47.0221097 188.54908,47.5369357 187.616494,47.6520942 L168.080918,49.9755853 C167.586732,50.041435 167.08346,49.9734649 166.626363,49.7791386 L166.50805,49.6978502 Z" id="Path" fill="#FFFFFF"></path>
                        </g>
                    </g>
                </g>
            </g>
        </g>
    </g>
</svg>