<svg xmlns="http://www.w3.org/2000/svg" width="420" height="184"><title>Group 4</title><desc>Created with Sketch.</desc><g fill="none"><g><g><g id="c"><g><path fill="#E3F2FF" d="M-3.03 92.42c68.7 1.5 66.5-26.93 163.1-80.84C189.33-4.74 232.88.55 263.72 6.7c15.37 3.1 29.73 9.1 43.47 16.68 6.9 3.8 13.73 7.97 19.45 13.37 40.3 38.02-47.37 72.38-13.02 107.8 15.67 16.16 81.6 17.62 81.7 17.64 2.48.4 15.83 2.12 20.04 6.84 1.53 1.7 3.16 3.54 3.77 5.76.47 1.66 0 3.55-.76 5.1-.88 1.84-1.97 4.17-3.94 4.67-56.63 14.28-61.52 9.82-118.9 17.95-13.43 1.9-26.6 5.44-40.02 7.46-71.62 10.8-151.32 7.97-222.08-8.02-12.7-2.87-25.55-6-37.2-11.76-6.67-3.3-11.55-9.44-16.63-14.88-24.96-26.7-28-47.07-.34-73.98l17.74-8.92z"/><g transform="translate(45 31)"><path id="Path" fill="#ABD6F4" d="M244.82 87.84L185.4 53.27c-3.23-1.88-8.87-1.65-12.6.5L48.1 125.86c-3.74 2.16-4.15 5.44-.92 7.3l59.45 34.58c3.23 1.88 8.87 1.65 12.6-.5l124.68-72.1c3.74-2.15 4.15-5.4.92-7.3z"/><path id="Path" fill="#D4ECFF" d="M250.06 60.67l-62-35.96c-4.37-2.52-11.98-2.2-17.02.7L44.17 98.5c-5.04 2.9-5.6 7.3-1.23 9.83l62 35.96c4.34 2.52 11.96 2.2 17-.7L248.8 70.47c5.07-2.88 5.62-7.3 1.26-9.8z"/><path id="Shape" fill="#173D7A" fill-rule="nonzero" d="M111.8 146c-2.63.07-5.24-.54-7.58-1.76l-62.1-36.05C40.1 107 39 105.4 39 103.6c0-2.13 1.6-4.28 4.35-5.87l127.06-73.3c5.14-2.95 12.93-3.26 17.37-.68l62.1 36.08C251.9 61 253 62.6 253 64.4c0 2.15-1.6 4.3-4.35 5.9L121.6 143.57c-3 1.62-6.38 2.45-9.8 2.4zM180.2 22.7c-3.3-.05-6.54.76-9.43 2.33L43.7 98.33c-2.55 1.46-4 3.38-4.02 5.26 0 1.52.98 2.93 2.78 3.97l62.1 36.05c4.26 2.47 11.74 2.16 16.67-.7l127.06-73.3c2.53-1.46 3.98-3.38 4-5.26 0-1.53-1-2.94-2.8-3.98l-62.07-36.05c-2.24-1.16-4.73-1.72-7.25-1.64z"/><path id="Path" fill="#27D8DB" d="M252.98 65.03c-.04 1.9-1.44 3.9-4.16 5.47l-126.88 73.06c-5.03 2.9-12.65 3.2-17 .7l-62-35.95c-2.02-1.16-2.97-2.72-2.94-4.35v9c-.07 1.67.88 3.26 2.92 4.44l62 35.9c4.35 2.52 11.97 2.2 17-.7l126.9-73.06c2.83-1.64 4.24-3.75 4.15-5.74L253 65l-.02.03z"/><path id="Shape" fill="#173D7A" fill-rule="nonzero" d="M111.8 156c-2.63.07-5.24-.54-7.58-1.76l-62.1-36.06c-2.05-1.18-3.15-2.83-3.12-4.66 0-.02 0-.05 0-.08v-9.05c0-.16.1-.3.22-.34.14-.05.3 0 .4.1.05.06.08.16.08.25 0 1.58.95 3.02 2.78 4.08l62.1 36.06c4.27 2.47 11.75 2.16 16.68-.7l127.07-73.3c2.5-1.45 3.95-3.35 4-5.2 0-.1.02-.17.07-.23.1-.1.25-.13.38-.08.13.06.22.2.22.33v8.83c.07 2.2-1.5 4.4-4.36 6.05l-127.07 73.3c-3 1.64-6.35 2.48-9.76 2.46zm-72.1-42.66c0 .04 0 .07 0 .1-.07 1.6.9 3.07 2.77 4.13l62.1 36.06c4.27 2.48 11.75 2.18 16.67-.7l127.07-73.3c2.64-1.52 4.1-3.48 4-5.45v-6.44c-.87 1.44-2.13 2.62-3.62 3.42l-127.07 73.3c-5.12 2.97-12.9 3.28-17.35.7l-62.1-36.05c-1-.53-1.82-1.3-2.43-2.24l-.03 6.48z"/><path id="Path" fill="#ABD6F4" d="M232.24 69.78L163.84 31l-58.56 33.48-3.28 1.84L170.16 105c2.6 1.48 7.17 1.3 10.18-.4l51.17-29.03c3.02-1.73 3.35-4.3.74-5.8z"/><path id="Path" fill="#fff" d="M244.82 62.83L185.4 28.27c-3.23-1.88-8.87-1.65-12.6.5l-124.7 72.1c-3.74 2.15-4.15 5.42-.92 7.3l59.45 34.56c3.23 1.88 8.87 1.65 12.6-.5l124.68-72.07c3.74-2.18 4.15-5.45.92-7.33z"/><path id="Path" fill="#ABD6F4" d="M102.05 142L160 108.43 109.2 79 51 112.73l47.23 27.04z"/><path id="Path" fill="#fff" d="M244.82 62.83L185.4 28.27c-3.23-1.88-8.87-1.65-12.6.5l-124.7 72.1c-3.74 2.15-4.15 5.42-.92 7.3l59.45 34.56c3.23 1.88 8.87 1.65 12.6-.5l124.68-72.07c3.74-2.18 4.15-5.45.92-7.33z"/><ellipse id="Oval" cx="213.5" cy="149" fill="#ABD6F4" rx="17.5" ry="10"/><path id="Path" fill="#27D8DB" d="M227.7 142.83c-8.4 4.87-22 4.87-30.4 0-4.2-2.45-6.3-5.63-6.3-8.83v3.52c0 3.2 2.1 6.4 6.3 8.83 8.4 4.87 22 4.87 30.4 0 4.2-2.44 6.3-5.63 6.3-8.83V134c0 3.2-2.1 6.38-6.3 8.83z"/><path id="Shape" fill="#173D7A" fill-rule="nonzero" d="M212.03 150c-5.64 0-11.22-1.18-15.5-3.54-4.3-2.35-6.53-5.4-6.53-8.75v-3.36c0-.2.16-.34.35-.34.2 0 .35.15.35.34 0 3.06 2.2 5.96 6.17 8.15 8.34 4.6 21.92 4.6 30.26 0 3.97-2.2 6.17-5.1 6.17-8.16 0-.2.15-.34.35-.34.2 0 .35.15.35.34v3.37c0 3.33-2.32 6.43-6.52 8.76-4.2 2.34-9.84 3.54-15.45 3.54zm-21.3-12.53v.26c0 3.06 2.2 5.96 6.17 8.15 8.34 4.6 21.92 4.6 30.26 0 3.97-2.2 6.16-5.1 6.16-8.15v-.26c-.98 2.1-2.96 4.04-5.8 5.62-8.55 4.7-22.44 4.7-30.97 0-2.86-1.6-4.84-3.52-5.82-5.63z"/><ellipse id="Oval" cx="212.5" cy="133.5" fill="#91D351" rx="21.5" ry="12.5"/><path id="Shape" fill="#173D7A" fill-rule="nonzero" d="M212.03 147c-5.64 0-11.22-1.25-15.5-3.73-4.3-2.5-6.53-5.74-6.53-9.27 0-3.52 2.32-6.8 6.52-9.26 8.54-5 22.42-5 30.96 0 4.23 2.45 6.52 5.74 6.52 9.26 0 3.53-2.32 6.8-6.52 9.27-4.2 2.47-9.85 3.73-15.45 3.73zm0-25.25c-5.48 0-10.96 1.22-15.13 3.65-3.97 2.32-6.17 5.38-6.17 8.62 0 3.25 2.2 6.3 6.17 8.63 8.34 4.87 21.92 4.87 30.26 0 3.97-2.32 6.16-5.38 6.16-8.63 0-3.24-2.2-6.3-6.16-8.62-4.18-2.43-9.65-3.65-15.13-3.65z"/><path id="Path" fill="#fff" d="M206 138.6l1.37-.8c-.93-.62-1.36-1.24-1.26-1.87.1-.63.72-1.3 1.9-2.05l2.5 1.1c-.5.25-.95.6-1.3 1.07-.16.3-.08.53.25.73.47.24 1.03.2 1.46-.1.3-.16.53-.36.72-.6.13-.2.22-.42.25-.65.03-.26.03-.52 0-.78l-.13-1.12c-.02-.24-.02-.48 0-.72.02-.22.07-.43.15-.64.1-.26.25-.5.45-.68.26-.25.55-.47.86-.64.87-.52 1.84-.8 2.84-.8 1.02 0 2.04.25 2.95.73l1.3-.77.7.43-1.3.73c.25.15.48.35.66.58.14.16.25.34.3.55.05.16.05.35 0 .52-.05.18-.13.34-.23.5-.13.16-.26.3-.4.45-.17.15-.34.3-.5.4-.17.13-.35.25-.55.38l-2.46-1.13.46-.3.37-.26c.1-.07.18-.15.26-.24.06-.07.1-.14.13-.22.02-.08 0-.16-.04-.22-.08-.08-.16-.15-.26-.2-.24-.12-.5-.17-.78-.13-.28.04-.54.12-.78.26-.2.12-.36.25-.5.4-.13.14-.2.3-.25.47-.03.14-.05.27-.05.4 0 .17 0 .33 0 .5l.12 1.07c.03.27.03.54 0 .8-.02.28-.1.54-.2.78-.1.3-.28.56-.5.78-.3.28-.6.52-.94.73-.8.46-1.72.7-2.64.72-.96.04-1.92-.16-2.8-.57l-1.4.82-.72-.4z"/><ellipse id="Oval" cx="20.5" cy="161" fill="#ABD6F4" rx="17.5" ry="10"/><path id="Path" fill="#173D7A" d="M36.7 154.83c-8.4 4.87-22 4.87-30.4 0C2.1 152.38 0 149.2 0 146v3.52c0 3.2 2.1 6.4 6.3 8.83 8.4 4.87 22 4.87 30.4 0 4.2-2.44 6.3-5.63 6.3-8.83V146c0 3.2-2.1 6.38-6.3 8.83z"/><path id="Shape" fill="#173D7A" fill-rule="nonzero" d="M22 162c-5.64 0-11.2-1.18-15.5-3.54-4.3-2.36-6.5-5.38-6.5-8.75v-3.36c0-.2.16-.34.35-.34.2 0 .36.15.36.34 0 3.06 2.2 5.96 6.17 8.15 8.34 4.6 21.92 4.6 30.26 0 3.98-2.2 6.16-5.1 6.16-8.16 0-.2.15-.34.35-.34.2 0 .35.15.35.34v3.37c0 3.33-2.3 6.43-6.5 8.77C33.27 160.8 27.6 162 22 162zM.7 149.46v.25c0 3.07 2.2 5.97 6.17 8.17 8.34 4.6 21.92 4.6 30.26 0 3.98-2.2 6.16-5.1 6.16-8.16v-.26c-.98 2.13-2.97 4.05-5.8 5.63-8.55 4.72-22.44 4.72-31 0-2.83-1.56-4.82-3.5-5.8-5.6z"/><ellipse id="Oval" cx="21.5" cy="146.5" fill="#91D351" rx="21.5" ry="12.5"/><path id="Shape" fill="#173D7A" fill-rule="nonzero" d="M22 160c-5.64 0-11.2-1.25-15.5-3.74C2.2 153.78 0 150.53 0 147c0-3.5 2.3-6.78 6.5-9.26 8.55-5 22.45-5 31 0 4.22 2.46 6.5 5.74 6.5 9.27 0 3.54-2.3 6.8-6.5 9.28C33.2 158.75 27.6 160 22 160zm0-25.27c-5.48 0-10.96 1.22-15.13 3.66C2.9 140.7.7 143.76.7 147c0 3.25 2.2 6.32 6.17 8.64 8.34 4.87 21.92 4.87 30.26 0 3.98-2.32 6.16-5.4 6.16-8.63 0-3.23-2.2-6.3-6.17-8.62-4.17-2.43-9.63-3.65-15.13-3.65z"/><path id="Path" fill="#fff" d="M14 151.58l1.37-.8c-.94-.62-1.36-1.23-1.26-1.86.1-.63.72-1.32 1.9-2.05l2.5 1.1c-.5.24-.96.6-1.3 1.06-.16.3-.08.53.24.73.47.24 1.04.2 1.47-.1.3-.16.53-.36.72-.6.13-.2.22-.4.26-.64.03-.26.03-.53 0-.8l-.14-1.1c-.02-.24-.02-.48 0-.73 0-.23.06-.45.15-.66.1-.25.25-.48.44-.67.27-.25.56-.46.87-.64.86-.5 1.84-.78 2.83-.8 1.03 0 2.05.26 2.96.74l1.3-.77.7.43-1.3.76c.25.15.47.34.66.57.14.16.24.34.3.55.05.17.05.35 0 .53-.05.17-.13.34-.23.5-.13.15-.27.3-.42.44-.14.14-.3.28-.48.4-.16.12-.34.23-.54.36l-2.46-1.12.46-.3.36-.25c.1-.08.2-.17.27-.26.06-.06.1-.14.13-.22.02-.07 0-.15-.04-.2-.08-.1-.16-.16-.25-.2-.24-.14-.52-.18-.8-.14-.26.03-.53.12-.77.26-.2.1-.36.24-.5.4-.13.12-.2.28-.24.46-.04.13-.05.27-.06.4 0 .1 0 .26 0 .47l.12 1.08c.03.27.03.54 0 .8-.03.28-.1.54-.2.78-.1.3-.3.56-.5.78-.3.3-.6.53-.95.73-.8.46-1.7.7-2.63.72-.96.05-1.92-.15-2.8-.56l-1.4.8-.72-.42z"/><path id="Path" fill="#EFEFEF" d="M231.25 69.35L166.65 32 105 67.58l64.7 37.4c2.58 1.5 7.1 1.32 10.1-.4l50.73-29.37c3-1.74 3.3-4.35.72-5.85z"/><path id="Path" fill="#173D7A" d="M236 63.52l-2.4-.36-102.02-59.1c-2.72-1.57-7.47-1.38-10.62.45L67.6 35.4c-.54.32-1.03.7-1.47 1.12L65 36.34v2.54c.07 1.16.77 2.2 1.83 2.67l102.52 59.38c2.72 1.58 7.48 1.4 10.62-.43l53.4-30.93c1.72-1 2.6-2.3 2.58-3.5l.05-2.55z"/><path id="Shape" fill="#173D7A" fill-rule="nonzero" d="M173.54 102c-1.66.04-3.3-.34-4.8-1.12L66.02 41.35c-1.13-.55-1.9-1.66-2-2.92 0-.02 0-.04 0-.07V35.8c0-.1.05-.2.12-.26.08-.06.18-.1.28-.08l.96.15c.42-.38.9-.73 1.4-1.03l53.5-31.02c3.25-1.87 8.18-2.08 11-.44L233.4 62.34l2.3.35c.17.03.3.17.3.34v2.58c0 .02 0 .04 0 .06 0 1.4-1.02 2.78-2.77 3.76l-53.5 31c-1.9 1.05-4.03 1.6-6.2 1.58zM64.7 38.3s0 .04 0 .06c.07 1.04.7 1.95 1.64 2.38L169.1 100.3c2.62 1.5 7.23 1.3 10.28-.46l53.5-31c1.56-.9 2.44-2.1 2.43-3.22 0-.02 0-.04 0-.06v-2.23l-2.07-.33c-.04 0-.08-.02-.12-.04L130.93 3.73c-2.63-1.53-7.25-1.32-10.3.44l-53.5 31c-.5.3-.97.65-1.4 1.06-.07.08-.18.1-.3.1l-.73-.08v2.04z"/><path id="Path" fill="#F6F6F6" d="M169.4 97.93L66.84 38.57c-2.72-1.57-2.38-4.32.76-6.14L121 1.53c3.15-1.86 7.9-2.03 10.6-.47L234.17 60.4c2.73 1.6 2.38 4.35-.76 6.17l-53.37 30.9c-3.16 1.84-7.92 2.05-10.63.46z"/><path id="Shape" fill="#173D7A" fill-rule="nonzero" d="M173.53 99c-1.66.04-3.3-.33-4.78-1.1L66 38.94c-1.15-.54-1.93-1.67-2-2.95 0-1.4 1-2.76 2.77-3.76l53.5-30.7c3.24-1.86 8.16-2.07 10.98-.44l102.73 58.96c1.17.53 1.95 1.67 2.02 2.95 0 1.38-1 2.76-2.77 3.76l-53.5 30.7c-1.9 1.03-4.03 1.56-6.2 1.54zM126.47.7c-2.05-.02-4.06.48-5.85 1.44l-53.5 30.7c-1.54.9-2.43 2.06-2.43 3.15.08 1.02.7 1.92 1.66 2.35L169.1 97.3c2.62 1.52 7.23 1.32 10.28-.43l53.5-30.7c1.55-.9 2.43-2.07 2.43-3.16-.08-1.03-.73-1.93-1.68-2.34L130.92 1.7c-1.38-.7-2.9-1.06-4.45-1z"/><path id="Path" fill="#27D8DB" d="M75 27.66L186.37 93l9.63-5.65L84.63 22z"/><path id="Shape" fill="#173D7A" fill-rule="nonzero" d="M186.88 95c-.06 0-.12-.02-.17-.04L74.18 29.33c-.1-.06-.17-.18-.17-.3 0-.13.06-.25.17-.3l9.74-5.7c.12-.04.25-.04.36 0l112.57 65.64c.1.06.17.18.17.3 0 .13-.07.25-.17.3l-9.75 5.7c-.06.02-.13.03-.2.03zM75.04 29.03l111.84 65.22 9.05-5.27L84.08 23.75l-9.04 5.28z"/><path id="Path" fill="#fff" d="M146.56 45L115 26.22 125.44 20 157 38.8z"/><path id="Path" fill="#EFEFEF" d="M104.1 140l55.9-32.36L108.8 78 53 110.3z"/><path id="Path" fill="#fff" d="M12.73 117.08C7.38 114.05 4 107.43 4 97.95c-.05-18.77 12.92-41.7 28.93-51.14L44.48 40l.56.32L98 70.5l-13.4 8.86-5.06 3.7-6.94 7.36-1.1 1.02-7.4 11.37-2.7 7.1-2 5.65-1.67 11.84-.1 1.05.6 5 1.7 6.17 2.4 4.2 3.5 4.18-53.1-30.92z"/><path id="Shape" fill="#173D7A" fill-rule="nonzero" d="M66.38 150L9.74 117.58h.1C4.8 114.1 2.05 107.6 2 98.98 1.94 80.27 15.13 57.3 31.4 47.9L43.2 41l.73.42L98 71.72l-14.04 9.1-5.05 3.7-6.95 7.26-1.1 1-7.46 11.2-2.73 7.03-2 5.56-1.8 12.75.6 4.93 1.7 6.04 2.42 4.13 4.78 5.6zm-53.73-31.57l50.66 29-2.25-2.67-2.5-4.3-1.72-6.13-.65-5.02.12-1.05L58 116.4l2-5.6 2.8-7.13 7.5-11.33 1.14-1.02 6.95-7.3 5.13-3.74 13.1-8.5-53.4-29.97-11.48 6.67C15.67 57.8 2.65 80.47 2.7 99c0 9.02 3.1 15.63 8.66 18.74l1.32.72-.03-.03z"/><path id="Path" fill="#D4ECFF" d="M105 71v2.02L70 94c.72-1.42 1.7-2.68 2.86-3.73L105 71z"/><path id="Path" fill="#F6F6F6" d="M158 101.9L104.64 71l-32.3 19.56-4.05 4.75-6.1 10.77-3.8 10.76-1.25 8.4-.15 8.4 5.2 12 6.8 4 6.96.37 8.36-3.5 66.06-39.2z"/><path id="Shape" fill="#173D7A" fill-rule="nonzero" d="M76.12 151l-6.9-.37c-.05 0-.1-.02-.16-.04l-6.73-4.03c-.06-.03-.1-.1-.14-.16L57 134.37c0-.05 0-.1 0-.15l.16-8.42 1.24-8.48 3.8-10.87 6.07-10.86 4.06-4.8c.02-.04.05-.07.1-.1l32-19.62c.12-.07.25-.07.36 0l53.03 31.02c.1.06.16.17.17.3 0 .1-.05.23-.15.3l-7.58 5.4-65.7 39.34-8.34 3.52c-.03.04-.07.06-.1.08zm-6.83-1.06l6.76.36 8.27-3.5 65.62-39.35 7.1-5.08-52.4-30.65-31.93 19.5-4 4.73-5.98 10.75-3.77 10.74-1.22 8.37-.15 8.32 5.13 11.9 6.56 3.92z"/><path id="Path" fill="#27D8DB" d="M3.48 104.08c-.32-1.93-.48-3.88-.48-5.84 0-1.4.07-2.83.2-4.24l54.14 31.67-.34 2.35-.1 1.07.6 5.04.5 1.86-54.52-31.92z"/><path id="Path" fill="#173D7A" d="M158 103.5v-1.96L85.3 144c-15.17 8.84-27.54 1.72-27.6-15.9-.05-17.6 12.23-39.14 27.4-48l12.15-7.12V71L85.1 78.1C69 87.5 55.94 110.4 56 129.1c.05 18.7 13.2 26.26 29.3 16.86L158 103.5z"/><path id="Shape" fill="#173D7A" fill-rule="nonzero" d="M72.62 151c-2.73.03-5.4-.66-7.78-2-5.64-3.27-8.8-10.13-8.84-19.35-.06-18.85 13.1-41.97 29.34-51.46l12.2-7.15c.12-.06.25-.07.36 0 .1.06.17.18.17.3v2c0 .1-.06.23-.17.3l-12.2 7.13c-15.1 8.83-27.35 30.3-27.3 47.87 0 8.42 2.86 14.67 7.98 17.63 5.12 2.97 11.92 2.25 19.16-2l72.94-42.6c.1-.06.24-.06.35 0 .1.07.17.18.17.3v2c0 .12-.06.24-.17.3L85.9 146.9C81.2 149.63 76.7 151 72.6 151zM97.4 71.96L85.72 78.8c-16.1 9.37-29.08 32.2-29.03 50.85 0 8.95 3.04 15.6 8.48 18.74 5.45 3.13 12.68 2.38 20.37-2.1l72.77-42.52v-1.18L85.9 144.9c-7.46 4.36-14.5 5.07-19.86 1.98-5.35-3.08-8.3-9.55-8.34-18.23-.06-17.8 12.34-39.53 27.64-48.48l12.06-7.03v-1.18z"/><path id="Path" fill="#ABD6F4" d="M130.23 107.32l-28.5-15.9c-1.4-.63-3.04-.54-4.4.22l-16.27 9.52c-1.3.76-1.42 1.9-.3 2.52l28.5 15.9c1.42.63 3.06.54 4.4-.22l16.3-9.52c1.28-.75 1.4-1.9.27-2.52z"/><path id="Path" fill="#173D7A" d="M108.1 113.5L78.88 96.83c-.5-.22-.82-.7-.87-1.24v-3.3l1.63 1.35 18.22-10.9c1.55-.9 3.42-1 5.04-.27l27.95 15.94 2.1-1.28.05 3.33c-.1.72-.55 1.35-1.2 1.65l-18.6 11.13c-1.56.9-3.45 1-5.1.25z"/><path id="Shape" fill="#27D8DB" fill-rule="nonzero" d="M110.76 114c-.8.02-1.6-.16-2.32-.53l-29.4-16.32c-.55-.26-.94-.78-1.03-1.37 0-.04 0-.08 0-.12v-3.23c0-.13.1-.25.2-.3.13-.06.27-.05.38.03l1.45 1.18 18.1-10.56c1.65-.94 3.66-1.04 5.4-.26l27.92 15.5 1.98-1.15c.1-.06.24-.06.35 0 .1.06.17.17.17.3l.04 3.25c0 .04 0 .08 0 .12-.15.78-.66 1.45-1.4 1.8l-18.7 10.88c-.96.53-2.04.8-3.14.78zm-1.98-1.13c1.53.66 3.28.57 4.72-.25l18.7-10.87c.56-.25.95-.77 1.04-1.37 0-.03 0-.06 0-.08l-.04-2.57-1.63.95c-.1.07-.24.07-.34 0l-28.1-15.6c-1.53-.65-3.27-.56-4.7.26L80.1 94c-.12.1-.28.1-.4 0l-1.07-.85v2.4c0 .02 0 .05 0 .08.06.4.32.76.7.93l29.45 16.3z"/><path id="Path" fill="#F6F6F6" d="M132.1 95.16l-29.23-16.68c-1.63-.72-3.5-.63-5.04.27L79.23 89.9c-1.5.88-1.64 2.2-.35 2.94l29.26 16.68c1.62.72 3.5.63 5.03-.27l18.6-11.14c1.5-.88 1.65-2.2.34-2.94z"/><path id="Shape" fill="#173D7A" fill-rule="nonzero" d="M110.8 110c-.8.02-1.6-.16-2.32-.52l-29.4-16.33c-.63-.27-1.04-.86-1.08-1.53.08-.85.6-1.6 1.4-1.94l18.7-10.9c1.66-.94 3.67-1.04 5.42-.26l29.4 16.35c.62.28 1.04.87 1.08 1.53-.08.85-.6 1.6-1.4 1.94l-18.7 10.9c-.95.5-2.02.78-3.1.76zm-9.6-31.32c-.97 0-1.93.22-2.78.7l-18.7 10.88c-.7.4-1.07.9-1.06 1.37.05.42.3.78.7.95l29.4 16.32c1.53.65 3.28.56 4.73-.26l18.78-10.9c.57-.26.97-.78 1.06-1.38-.05-.42-.3-.78-.7-.95l-29.46-16.3c-.62-.3-1.3-.44-1.97-.42z"/><path id="Path" fill="#fff" d="M101.13 91.54c1.17-.6 1.15-1.54 0-2.12-1.35-.57-2.93-.56-4.26.04-1.16.6-1.16 1.54 0 2.12 1.34.57 2.93.56 4.26-.04zM108.13 94.55c1.16-.6 1.16-1.55 0-2.13-1.35-.57-2.93-.56-4.26.04-1.17.6-1.15 1.55 0 2.12 1.35.57 2.93.56 4.26-.03zM114.13 98.54c1.17-.6 1.15-1.54 0-2.12-1.35-.57-2.93-.56-4.26.04-1.16.6-1.16 1.54 0 2.12 1.34.57 2.93.56 4.26-.04z"/><ellipse id="Oval" cx="175" cy="59" fill="#ABD6F4" rx="17" ry="10"/><path id="Path" fill="#27D8DB" d="M194 50.5v-3.34h-1c-1.13-1.72-2.7-3.13-4.57-4.08-7.42-4.1-19.44-4.1-26.86 0-1.87.95-3.44 2.36-4.56 4.08h-1v3.3c0 2.7 1.84 5.4 5.56 7.46 7.42 4.1 19.45 4.1 26.87 0 3.72-2.05 5.57-4.73 5.57-7.42z"/><path id="Shape" fill="#173D7A" fill-rule="nonzero" d="M175 62c-4.85 0-9.7-1.1-13.37-3.3-3.68-2.22-5.65-5.1-5.63-8.23v-3.53c0-.2.15-.34.34-.35h.8c1.12-1.8 2.67-3.28 4.5-4.3 7.37-4.4 19.35-4.4 26.72 0 1.83 1.02 3.37 2.5 4.5 4.3h.8c.2 0 .34.15.34.34v3.56c0 3.1-2.02 6.02-5.64 8.2-3.6 2.18-8.53 3.3-13.37 3.3zm-18.33-14.7v3.17c0 2.86 1.87 5.6 5.3 7.62 7.18 4.28 18.88 4.28 26.05 0 3.42-2.06 5.3-4.75 5.3-7.6v-3.2h-.68c-.12 0-.23-.07-.3-.18-1.06-1.77-2.56-3.2-4.34-4.2-7.18-4.3-18.88-4.3-26.05 0-1.78 1-3.28 2.43-4.36 4.2-.07.1-.18.17-.3.17h-.63z"/><ellipse cx="175" cy="46.5" fill="#91D351" rx="19" ry="10.5"/><path fill="#173D7A" fill-rule="nonzero" d="M175 58c-4.84 0-9.68-1.1-13.36-3.3-3.68-2.2-5.64-5.1-5.64-8.2 0-3.12 2.02-6.02 5.64-8.2 7.37-4.4 19.35-4.4 26.72 0C192 40.5 194 43.4 194 46.5c0 3.1-2.02 6.02-5.64 8.2-3.66 2.2-8.52 3.3-13.36 3.3zm0-22.35c-4.72 0-9.44 1.08-13.03 3.23-3.4 2.04-5.3 4.73-5.3 7.58 0 2.85 1.9 5.55 5.3 7.6 7.18 4.3 18.88 4.3 26.06 0 3.4-2.05 5.3-4.74 5.3-7.6 0-2.85-1.9-5.54-5.3-7.58-3.6-2.12-8.3-3.2-13.03-3.2v-.03z"/><path fill="#fff" d="M166.5 49.7c-.28-.12-.47-.38-.5-.68v-7.05c0-.54.78-.97 1.73-.97.96 0 1.74.43 1.74.98v5.84l17.4-2.08c.93-.1 1.85.23 2.08.75.23.52-.4 1.04-1.33 1.15l-19.54 2.33c-.5.06-1 0-1.45-.2l-.12-.08z"/></g></g></g></g></g></g></svg>