<svg xmlns="http://www.w3.org/2000/svg" width="23" height="24"><title>Shape</title><desc>Created with Sketch.</desc><g fill="none"><g fill="#B2B2B2" fill-rule="nonzero"><g><g><path d="M11.43 9.14h2.28V5.7h3.44V3.44H13.7V0h-2.27v3.43H8V5.7h3.43v3.44zm-4.57 10.3c-1.26 0-2.28 1.02-2.28 2.27 0 1.27 1.02 2.3 2.28 2.3 1.25 0 2.28-1.03 2.28-2.3 0-1.24-1.03-2.27-2.28-2.27zm11.43 0c-1.27 0-2.3 1.02-2.3 2.27 0 1.27 1.03 2.3 2.3 2.3 1.24 0 2.27-1.03 2.27-2.3 0-1.24-1.03-2.27-2.28-2.27zM7.04 15.7l.04-.12 1-1.87h8.53c.86 0 1.6-.45 2-1.16l4.4-8-1.98-1.1-1.27 2.27-3.15 5.73H8.6l-.14-.3L5.9 5.7 4.8 3.44l-1.06-2.3H0v2.3h2.3l4.1 8.67-1.54 2.8c-.2.32-.3.7-.3 1.1 0 1.26 1.04 2.3 2.3 2.3h13.7V16H7.35c-.15 0-.3-.13-.3-.3z"/></g></g></g></g></svg>