<?xml version="1.0" encoding="UTF-8"?>
<svg width="23px" height="24px" viewBox="0 0 23 24" version="1.1" xmlns="http://www.w3.org/2000/svg" xmlns:xlink="http://www.w3.org/1999/xlink">
    <!-- Generator: Sketch 52.4 (67378) - http://www.bohemiancoding.com/sketch -->
    <title>Shape</title>
    <desc>Created with Sketch.</desc>
    <g id="Page-1" stroke="none" stroke-width="1" fill="none" fill-rule="evenodd">
        <g id="Catálogo-opc1" transform="translate(-1363.000000, -39.000000)" fill="#B2B2B2" fill-rule="nonzero">
            <g id="Group-5">
                <g id="Carrito-de-compras" transform="translate(1344.000000, 33.000000)">
                    <path d="M30.4285714,15.1428571 L32.7142857,15.1428571 L32.7142857,11.7142857 L36.1428571,11.7142857 L36.1428571,9.42857143 L32.7142857,9.42857143 L32.7142857,6 L30.4285714,6 L30.4285714,9.42857143 L27,9.42857143 L27,11.7142857 L30.4285714,11.7142857 L30.4285714,15.1428571 Z M25.8571429,25.4285714 C24.6,25.4285714 23.5828571,26.4571429 23.5828571,27.7142857 C23.5828571,28.9714286 24.6,30 25.8571429,30 C27.1142857,30 28.1428571,28.9714286 28.1428571,27.7142857 C28.1428571,26.4571429 27.1142857,25.4285714 25.8571429,25.4285714 Z M37.2857143,25.4285714 C36.0285714,25.4285714 35.0114286,26.4571429 35.0114286,27.7142857 C35.0114286,28.9714286 36.0285714,30 37.2857143,30 C38.5428571,30 39.5714286,28.9714286 39.5714286,27.7142857 C39.5714286,26.4571429 38.5428571,25.4285714 37.2857143,25.4285714 Z M26.0514286,21.7142857 L26.0857143,21.5771429 L27.1142857,19.7142857 L35.6285714,19.7142857 C36.4857143,19.7142857 37.24,19.2457143 37.6285714,18.5371429 L42.04,10.5257143 L40.0514286,9.42857143 L40.04,9.42857143 L38.7828571,11.7142857 L35.6285714,17.4285714 L27.6057143,17.4285714 L27.4571429,17.12 L24.8971429,11.7142857 L23.8114286,9.42857143 L22.7371429,7.14285714 L19,7.14285714 L19,9.42857143 L21.2857143,9.42857143 L25.4,18.1028571 L23.8571429,20.9028571 C23.6742857,21.2228571 23.5714286,21.6 23.5714286,22 C23.5714286,23.2571429 24.6,24.2857143 25.8571429,24.2857143 L39.5714286,24.2857143 L39.5714286,22 L26.3371429,22 C26.1885714,22 26.0514286,21.8742857 26.0514286,21.7142857 Z" id="Shape"></path>
                </g>
            </g>
        </g>
    </g>
</svg>