<svg xmlns="http://www.w3.org/2000/svg" width="26" height="24"><title>Shape</title><desc>Created with Sketch.</desc><g fill="none"><g fill="#B2B2B2" fill-rule="nonzero"><g><g><g><path d="M23.63 2.94C20.78.1 16.28-.26 13.03 2.1 9.58-.43 4.75.1 1.96 3.34c-2.8 3.23-2.6 8.06.44 11.07l8.08 8.06c1.4 1.4 3.67 1.4 5.07 0l8.08-8.06c3.16-3.17 3.16-8.3 0-11.46zM21.8 12.6l-8.08 8.06c-.18.2-.44.3-.7.3-.26 0-.52-.1-.7-.3l-8.08-8.1c-2.12-2.15-2.12-5.6 0-7.77 2.16-2.14 5.64-2.14 7.8 0 .25.24.58.37.93.37.34 0 .68-.13.92-.38 2.15-2.14 5.63-2.14 7.8 0 2.14 2.12 2.2 5.58.1 7.77v.04z"/></g></g></g></g></g></svg>