<?xml version="1.0" encoding="UTF-8"?>
<svg width="26px" height="24px" viewBox="0 0 26 24" version="1.1" xmlns="http://www.w3.org/2000/svg" xmlns:xlink="http://www.w3.org/1999/xlink">
    <!-- Generator: Sketch 52.4 (67378) - http://www.bohemiancoding.com/sketch -->
    <title>Shape</title>
    <desc>Created with Sketch.</desc>
    <g id="Page-1" stroke="none" stroke-width="1" fill="none" fill-rule="evenodd">
        <g id="Catálogo-opc1" transform="translate(-1214.000000, -37.000000)" fill="#B2B2B2" fill-rule="nonzero">
            <g id="Group-5" transform="translate(-4.000000, 1.000000)">
                <g id="Menú" transform="translate(1155.000000, 30.000000)">
                    <g id="Lista-de-deseos" transform="translate(46.000000, 0.000000)">
                        <path d="M40.6296009,8.93674332 C37.7815866,6.08936331 33.277277,5.73708048 30.0189148,8.10687974 C26.5864922,5.56106268 21.7645817,6.09351036 18.9738844,9.32650022 C16.1831871,12.5594901 16.372808,17.393495 19.4082287,20.3992341 L27.4832729,28.4644708 C28.8901711,29.8451764 31.1476586,29.8451764 32.5545567,28.4644708 L40.6296009,20.3992341 C43.790133,17.2283083 43.790133,12.1076691 40.6296009,8.93674332 Z M38.7961368,18.6098407 L30.7210926,26.6621108 C30.5354919,26.8489912 30.2826756,26.9541325 30.0189148,26.9541325 C29.7551541,26.9541325 29.5023378,26.8489912 29.3167371,26.6621108 L21.2416929,18.5709409 C19.1206141,16.4088817 19.1206141,12.953029 21.2416929,10.7909698 C23.4041626,8.66196986 26.8811983,8.66196986 29.0436679,10.7909698 C29.2878263,11.0364443 29.6201851,11.1745202 29.9669017,11.1745202 C30.3136182,11.1745202 30.645977,11.0364443 30.8901354,10.7909698 C33.0526051,8.66196986 36.5296408,8.66196986 38.6921105,10.7909698 C40.8423605,12.9247169 40.8885717,16.3807841 38.7961368,18.5709409 L38.7961368,18.6098407 Z" id="Shape"></path>
                    </g>
                </g>
            </g>
        </g>
    </g>
</svg>