<svg xmlns="http://www.w3.org/2000/svg" width="37" height="35"><title>Recurso 2</title><desc>Created with Sketch.</desc><g fill="none"><g fill="#00D0D2" fill-rule="nonzero"><g><g><path d="M36.5 12.24c-.45-.64-1.16-1.02-1.93-1.02H12.72c-.03-.1-.07-.17-.1-.26-.42-1.07-.86-2.18-1.22-3.3-.86-2.64-2.7-4.8-5.46-6.4H5.9C4.6.67 3.15.12 1.57 0 1.06-.02.58-.02.25.35c-.32.38-.27.9-.18 1.43C.3 3.1.8 4.35 1.27 5.5l.05.08c2.15 3.48 5.13 5.5 8.83 6.02.14 0 .2.06.4.44.63 1.27 1.12 2.62 1.46 4 .6 2.4.74 4.87.43 7.3 0 .02 0 .03 0 .05-.27 1.33-.63 2.64-1.1 3.92-.32.95-.7 1.88-1.17 2.77-.03.03-.05.08-.07.13-.3.62-.05 1.35.52 1.64.58.3 1.28.05 1.57-.55v-.04c.32-.65.1-.22.3-.7.63-1.3 1.13-2.66 1.5-4.06h17.55c1.5 0 2.8-1.1 3.15-2.63l2.22-9.42c.2-.77.04-1.6-.42-2.24zM8.92 8.94C7.22 8.28 3.32 6.4 2.6 3.1c-.04-.14 0-.3.1-.4.1-.1.23-.13.37-.1 4.03 1 5.75 4.26 6.35 5.8.06.16.03.33-.08.45-.1.1-.27.15-.42.1zm26.44 5.1l-2.23 9.4c-.18.78-.83 1.32-1.58 1.32H14.4c.03-.1.05-.2.06-.3.14-.82.23-1.65.3-2.48h6.84c.28 0 .82-.43.82-.96s-.54-.96-.82-.96h-6.8c-.02-.86-.08-1.72-.2-2.58H25.5c.3 0 .88-.43.88-.96s-.56-.96-.88-.96H14.24c-.18-.75-.4-1.47-.7-2.18-.05-.13-.1-.26-.15-.4h21.17c.26 0 .5.13.65.35.15.2.2.46.14.7zM14.05 8.7c0 .47.08.93.18 1.4.08.3.18.72.44.85h.03c.26.13.5-.07.76-.3 1.07-.98 1.8-2.27 2.2-3.85.43-1.54.46-3.18.08-4.86-.1-.4-.2-.77-.47-.9-.27-.13-.53.1-.78.33-1.85 1.8-2.68 4.2-2.47 7.15l.02.17zm2.5-5.53c.05-.08.13-.1.2-.07.08.03.13.13.14.24.02 1.03-.08 1.96-.33 2.75v.02c-.3 1.1-.67 2.03-1.12 2.7-.05.1-.13.13-.2.1-.08-.05-.13-.14-.14-.25-.07-2.1.4-3.92 1.45-5.5zM10 13.84c.03-.43-.26-.77-.6-1.08-2.3-2.13-6.24-2.36-8.78-.5-.15.1-.6.42-.62.93-.02.5.38.85.52.97C1.72 15.2 3.2 15.85 4.76 16h.03c1.66.07 3.17-.34 4.47-1.2.36-.25.7-.53.73-.96zm-2.6.02c-.8.2-1.65.27-2.5.22-.8-.05-1.6-.23-2.37-.54-.1-.03-.15-.12-.15-.22s.08-.2.18-.2c1.62-.42 3.32-.3 4.87.3.1.05.15.14.15.24 0 .1-.08.18-.18.2zM30.63 28c-.15 0-.3 0-.46.03H18.83c-.16-.02-.3-.03-.47-.03-1.5 0-2.82 1.04-3.23 2.54-.4 1.5.18 3.1 1.45 3.93 1.28.83 2.93.67 4.04-.37 1.12-1.05 1.43-2.73.77-4.14h6.22c-.66 1.4-.35 3.1.77 4.13 1.1 1.04 2.75 1.2 4.02.36 1.27-.83 1.86-2.43 1.45-3.93-.4-1.5-1.73-2.53-3.23-2.53zm-12.27 4.77c-.67 0-1.22-.57-1.22-1.27 0-.7.55-1.28 1.22-1.28.68 0 1.23.57 1.23 1.28 0 .7-.56 1.27-1.24 1.27zm12.27 0c-.67 0-1.22-.57-1.22-1.27 0-.7.56-1.28 1.23-1.28.68 0 1.23.57 1.23 1.28 0 .7-.55 1.27-1.23 1.27z"/></g></g></g></g></svg>