<svg xmlns="http://www.w3.org/2000/svg" width="106" height="60" xmlns:xlink="http://www.w3.org/1999/xlink"><title>Group 5</title><desc>Created with Sketch.</desc><defs><filter id="a" width="106%" height="108.4%" x="-3%" y="-4.2%" filterUnits="objectBoundingBox"><feOffset dy="6" in="SourceAlpha" result="shadowOffsetOuter1"/><feGaussianBlur stdDeviation="8" in="shadowOffsetOuter1" result="shadowBlurOuter1"/><feColorMatrix values="0 0 0 0 0.503594541 0 0 0 0 0.597691893 0 0 0 0 0.834980867 0 0 0 0.271625906 0" in="shadowBlurOuter1" result="shadowMatrixOuter1"/><feMerge><feMergeNode in="shadowMatrixOuter1"/><feMergeNode in="SourceGraphic"/></feMerge></filter><path id="c" d="M0 18L3.58 0H14l-.57 2.87H5.87l-1 5.05h6.77l-.55 2.82H4.3L2.86 18z"/><filter id="b" width="428.6%" height="355.6%" x="-164.3%" y="-105.6%" filterUnits="objectBoundingBox"><feOffset dy="4" in="SourceAlpha" result="shadowOffsetOuter1"/><feGaussianBlur stdDeviation="7" in="shadowOffsetOuter1" result="shadowBlurOuter1"/><feColorMatrix values="0 0 0 0 0.503594541 0 0 0 0 0.597691893 0 0 0 0 0.834980867 0 0 0 0.271625906 0" in="shadowBlurOuter1"/></filter><path id="e" d="M15.84 13.3c-.02.08-.03.18-.03.27 0 1.73 1.23 2.94 2.93 2.94 1.62 0 2.66-.84 3.15-1.78l2.25 1.24C23.3 17.56 21.4 19 18.65 19 15.6 19 13 16.94 13 13.4 13 8.8 16.32 6 19.7 6c3.4 0 5.3 2.1 5.3 5.05 0 .76-.13 1.52-.36 2.24h-8.8zm6.26-2.15c0-.05.03-.25.03-.37 0-1.05-.64-2.34-2.5-2.34-1.87 0-3.03 1.28-3.46 2.7h5.93z"/><filter id="d" width="483.3%" height="453.8%" x="-191.7%" y="-146.2%" filterUnits="objectBoundingBox"><feOffset dy="4" in="SourceAlpha" result="shadowOffsetOuter1"/><feGaussianBlur stdDeviation="7" in="shadowOffsetOuter1" result="shadowBlurOuter1"/><feColorMatrix values="0 0 0 0 0.503594541 0 0 0 0 0.597691893 0 0 0 0 0.834980867 0 0 0 0.271625906 0" in="shadowBlurOuter1"/></filter><path id="g" d="M26.84 13.3c-.02.08-.03.18-.03.27 0 1.73 1.23 2.94 2.93 2.94 1.63 0 2.67-.84 3.15-1.78l2.26 1.24C34.3 17.56 32.4 19 29.66 19 26.6 19 24 16.94 24 13.4 24 8.8 27.32 6 30.7 6c3.4 0 5.3 2.1 5.3 5.05 0 .76-.13 1.52-.36 2.24h-8.8zm6.27-2.15c0-.05.03-.25.03-.37 0-1.05-.63-2.34-2.5-2.34-1.86 0-3.03 1.28-3.46 2.7h5.94z"/><filter id="f" width="483.3%" height="453.8%" x="-191.7%" y="-146.2%" filterUnits="objectBoundingBox"><feOffset dy="4" in="SourceAlpha" result="shadowOffsetOuter1"/><feGaussianBlur stdDeviation="7" in="shadowOffsetOuter1" result="shadowBlurOuter1"/><feColorMatrix values="0 0 0 0 0.503594541 0 0 0 0 0.597691893 0 0 0 0 0.834980867 0 0 0 0.271625906 0" in="shadowBlurOuter1"/></filter><path id="i" d="M36 19l4-18h3l-4 18z"/><filter id="h" width="757.1%" height="355.6%" x="-328.6%" y="-105.6%" filterUnits="objectBoundingBox"><feOffset dy="4" in="SourceAlpha" result="shadowOffsetOuter1"/><feGaussianBlur stdDeviation="7" in="shadowOffsetOuter1" result="shadowBlurOuter1"/><feColorMatrix values="0 0 0 0 0.503594541 0 0 0 0 0.597691893 0 0 0 0 0.834980867 0 0 0 0.271625906 0" in="shadowBlurOuter1"/></filter><path id="k" d="M41 18l3.7-18H56l-.8 3.8h-7.4l-.76 3.82h6.5l-.76 3.65h-6.46L44.92 18z"/><filter id="j" width="406.7%" height="355.6%" x="-153.3%" y="-105.6%" filterUnits="objectBoundingBox"><feOffset dy="4" in="SourceAlpha" result="shadowOffsetOuter1"/><feGaussianBlur stdDeviation="7" in="shadowOffsetOuter1" result="shadowBlurOuter1"/><feColorMatrix values="0 0 0 0 0.503594541 0 0 0 0 0.597691893 0 0 0 0 0.834980867 0 0 0 0.271625906 0" in="shadowBlurOuter1"/></filter><path id="m" d="M53 19l2.46-12.8H59L56.53 19H53zm5.16-19C59.26 0 60 .87 60 2c0 1.48-1.1 2.46-2.28 2.46-1.07 0-1.84-.85-1.84-1.98 0-1.4 1-2.48 2.28-2.48z"/><filter id="l" width="757.1%" height="342.1%" x="-328.6%" y="-100%" filterUnits="objectBoundingBox"><feOffset dy="4" in="SourceAlpha" result="shadowOffsetOuter1"/><feGaussianBlur stdDeviation="7" in="shadowOffsetOuter1" result="shadowBlurOuter1"/><feColorMatrix values="0 0 0 0 0.503594541 0 0 0 0 0.597691893 0 0 0 0 0.834980867 0 0 0 0.271625906 0" in="shadowBlurOuter1"/></filter><path id="o" d="M63.94 13.34c-.02.14-.04.28-.04.42 0 .77.52 1.06 1.26 1.06.3 0 .62-.05.92-.12l-.65 2.95c-.54.25-1.12.36-1.7.35C61.4 18 60 16.7 60 14.7c.02-.36.07-.72.14-1.06l1-4.8H59l.7-3.27h.6c1.38 0 2.03-.73 2.33-2L63 2h3.4l-.8 3.57H68l-.72 3.28H64.9l-.96 4.5z"/><filter id="n" width="611.1%" height="387.5%" x="-255.6%" y="-118.8%" filterUnits="objectBoundingBox"><feOffset dy="4" in="SourceAlpha" result="shadowOffsetOuter1"/><feGaussianBlur stdDeviation="7" in="shadowOffsetOuter1" result="shadowBlurOuter1"/><feColorMatrix values="0 0 0 0 0.503594541 0 0 0 0 0.597691893 0 0 0 0 0.834980867 0 0 0 0.271625906 0" in="shadowBlurOuter1"/></filter></defs><g fill="none"><g><g filter="url(#a)" transform="translate(-431 -321) translate(423 301)"><g><g id="Path" transform="translate(0 -40) translate(27 71)"><use fill="#000" filter="url(#b)" xlink:href="#c"/><use fill="#20D6D9" xlink:href="#c"/></g><g id="Shape" fill-rule="nonzero" transform="translate(0 -40) translate(27 71)"><use fill="#000" filter="url(#d)" xlink:href="#e"/><use fill="#20D6D9" xlink:href="#e"/></g><g id="Shape" fill-rule="nonzero" transform="translate(0 -40) translate(27 71)"><use fill="#000" filter="url(#f)" xlink:href="#g"/><use fill="#20D6D9" xlink:href="#g"/></g><g id="Path" transform="translate(0 -40) translate(27 71)"><use fill="#000" filter="url(#h)" xlink:href="#i"/><use fill="#20D6D9" xlink:href="#i"/></g><g id="Path" transform="translate(0 -40) translate(27 71)"><use fill="#000" filter="url(#j)" xlink:href="#k"/><use fill="#20D6D9" xlink:href="#k"/></g><g fill-rule="nonzero" transform="translate(0 -40) translate(27 71)"><use fill="#000" filter="url(#l)" xlink:href="#m"/><use fill="#20D6D9" xlink:href="#m"/></g><g transform="translate(0 -40) translate(27 71)"><use fill="#000" filter="url(#n)" xlink:href="#o"/><use fill="#20D6D9" xlink:href="#o"/></g></g></g></g></g></svg>