<svg xmlns="http://www.w3.org/2000/svg" width="22" height="22"><title>ic_perm_identity_black_24px</title><desc>Created with Sketch.</desc><g fill="none" opacity=".3"><g><g><g><g><g><path id="Shape" fill="#000" fill-rule="nonzero" d="M11 2.6c1.6 0 2.9 1.3 2.9 2.9 0 1.6-1.3 2.9-2.9 2.9-1.6 0-2.9-1.3-2.9-2.9 0-1.6 1.3-2.9 2.9-2.9zM11 15c4.08 0 8.4 2 8.4 2.88v1.5H2.6v-1.5c0-.88 4.32-2.9 8.4-2.9zm0-15C7.96 0 5.5 2.46 5.5 5.5S7.96 11 11 11s5.5-2.46 5.5-5.5S14.04 0 11 0zm0 12.38c-3.67 0-11 1.84-11 5.5V22h22v-4.13c0-3.65-7.33-5.5-11-5.5z"/><path d="M-6-6h33v33H-6z"/></g></g></g></g></g></g></svg>