<?xml version="1.0" encoding="UTF-8"?>
<svg width="22px" height="22px" viewBox="0 0 22 22" version="1.1" xmlns="http://www.w3.org/2000/svg" xmlns:xlink="http://www.w3.org/1999/xlink">
    <!-- Generator: Sketch 52.4 (67378) - http://www.bohemiancoding.com/sketch -->
    <title>ic_perm_identity_black_24px</title>
    <desc>Created with Sketch.</desc>
    <g id="Page-1" stroke="none" stroke-width="1" fill="none" fill-rule="evenodd" opacity="0.3">
        <g id="Catálogo-opc1" transform="translate(-1261.000000, -38.000000)">
            <g id="Group-5">
                <g id="Menú" transform="translate(1151.000000, 31.000000)">
                    <g id="perfil" transform="translate(104.000000, 1.000000)">
                        <g id="ic_perm_identity_black_24px">
                            <path d="M17,8.6125 C18.595,8.6125 19.8875,9.905 19.8875,11.5 C19.8875,13.095 18.595,14.3875 17,14.3875 C15.405,14.3875 14.1125,13.095 14.1125,11.5 C14.1125,9.905 15.405,8.6125 17,8.6125 Z M17,20.9875 C21.08375,20.9875 25.3875,22.995 25.3875,23.875 L25.3875,25.3875 L8.6125,25.3875 L8.6125,23.875 C8.6125,22.995 12.91625,20.9875 17,20.9875 Z M17,6 C13.96125,6 11.5,8.46125 11.5,11.5 C11.5,14.53875 13.96125,17 17,17 C20.03875,17 22.5,14.53875 22.5,11.5 C22.5,8.46125 20.03875,6 17,6 Z M17,18.375 C13.32875,18.375 6,20.2175 6,23.875 L6,28 L28,28 L28,23.875 C28,20.2175 20.67125,18.375 17,18.375 Z" id="Shape" fill="#000000" fill-rule="nonzero"></path>
                            <polygon id="Shape" points="0 0 33 0 33 33 0 33"></polygon>
                        </g>
                    </g>
                </g>
            </g>
        </g>
    </g>
</svg>