<?xml version="1.0" encoding="UTF-8"?>
<svg width="39px" height="61px" viewBox="0 0 39 61" version="1.1" xmlns="http://www.w3.org/2000/svg" xmlns:xlink="http://www.w3.org/1999/xlink">
    <!-- Generator: Sketch 52.4 (67378) - http://www.bohemiancoding.com/sketch -->
    <title>scroll (1)</title>
    <desc>Created with Sketch.</desc>
    <defs>
        <filter x="-1.3%" y="-0.2%" width="101.6%" height="100.3%" filterUnits="objectBoundingBox" id="filter-1">
            <feOffset dx="0" dy="2" in="SourceAlpha" result="shadowOffsetOuter1"></feOffset>
            <feGaussianBlur stdDeviation="0.5" in="shadowOffsetOuter1" result="shadowBlurOuter1"></feGaussianBlur>
            <feColorMatrix values="0 0 0 0 0.503594541   0 0 0 0 0.597691893   0 0 0 0 0.834980867  0 0 0 0.271625906 0" type="matrix" in="shadowBlurOuter1" result="shadowMatrixOuter1"></feColorMatrix>
            <feMerge>
                <feMergeNode in="shadowMatrixOuter1"></feMergeNode>
                <feMergeNode in="SourceGraphic"></feMergeNode>
            </feMerge>
        </filter>
    </defs>
    <g id="Page-1" stroke="none" stroke-width="1" fill="none" fill-rule="evenodd">
        <g id="Home-Copy" transform="translate(-1388.000000, -1138.000000)" fill="#27D8DB" fill-rule="nonzero">
            <g id="Group-11" transform="translate(687.000000, 268.500000)">
                <g filter="url(#filter-1)" transform="translate(-250.000000, -49.000000)" id="Group-10">
                    <g>
                        <g id="scroll-(1)" transform="translate(952.000000, 919.000000)">
                            <path d="M18.5265554,47.8871841 L8.52211973,37.3223191 L11.7605775,34.2621002 L18.5178487,41.3979721 L25.2350692,34.266449 L28.4817983,37.3179702 L18.5265554,47.8871841 Z M37,43.640625 L37,13.359375 C37,5.99301908 31.0006471,0 23.626506,0 L13.373494,0 C5.99935285,0 0,5.99301908 0,13.359375 L0,43.640625 C0,51.0069809 5.99935285,57 13.373494,57 L23.626506,57 C31.0006471,57 37,51.0069809 37,43.640625 Z M23.626506,4.453125 C28.5427452,4.453125 32.5421687,8.44832614 32.5421687,13.359375 L32.5421687,43.640625 C32.5421687,48.5516739 28.5427452,52.546875 23.626506,52.546875 L13.373494,52.546875 C8.45725483,52.546875 4.45783133,48.5516739 4.45783133,43.640625 L4.45783133,13.359375 C4.45783133,8.44832614 8.45725483,4.453125 13.373494,4.453125 L23.626506,4.453125 Z M18.5,9.01757813 C17.2688724,9.01757813 16.2710843,10.0143127 16.2710843,11.2441406 C16.2710843,12.4739685 17.2688724,13.4707031 18.5,13.4707031 C19.7311276,13.4707031 20.7289157,12.4739685 20.7289157,11.2441406 C20.7289157,10.0143127 19.7311276,9.01757813 18.5,9.01757813 Z M18.5,17.9238281 C17.2688724,17.9238281 16.2710843,18.9205627 16.2710843,20.1503906 C16.2710843,21.3802185 17.2688724,22.3769531 18.5,22.3769531 C19.7311276,22.3769531 20.7289157,21.3802185 20.7289157,20.1503906 C20.7289157,18.9205627 19.7311276,17.9238281 18.5,17.9238281 Z M18.5,26.8300781 C17.2688724,26.8300781 16.2710843,27.8268127 16.2710843,29.0566406 C16.2710843,30.2864685 17.2688724,31.2832031 18.5,31.2832031 C19.7311276,31.2832031 20.7289157,30.2864685 20.7289157,29.0566406 C20.7289157,27.8268127 19.7311276,26.8300781 18.5,26.8300781 Z" id="Shape"></path>
                        </g>
                    </g>
                </g>
            </g>
        </g>
    </g>
</svg>