<svg xmlns="http://www.w3.org/2000/svg" width="24" height="24" xmlns:xlink="http://www.w3.org/1999/xlink"><title>Search</title><desc>Created with Sketch.</desc><defs><path id="a" d="M0 0h32v32H0z"/><path id="c" d="M17.15 15.1h-1.08l-.4-.38c1.36-1.56 2.17-3.6 2.17-5.8C17.84 4 13.84 0 8.92 0 4 0 0 4 0 8.92c0 4.93 4 8.92 8.92 8.92 2.2 0 4.24-.8 5.8-2.16l.37.4v1.07L21.95 24 24 21.96l-6.85-6.87zm-8.23 0c-3.42 0-6.18-2.76-6.18-6.18S5.5 2.74 8.92 2.74 15.1 5.5 15.1 8.92 12.33 15.1 8.9 15.1z"/></defs><g fill="none"><g><g><g><g transform="translate(-4 -4)"><mask id="b"><use xlink:href="#a"/></mask><g transform="translate(4 4)" mask="url(#b)"><circle cx="8.667" cy="8.667" r="7.333"/><mask><use xlink:href="#c"/></mask><use fill="#20D6D9" fill-rule="nonzero" xlink:href="#c"/></g></g></g></g></g></g></svg>