<svg xmlns="http://www.w3.org/2000/svg" viewBox="0 0 373 35"><defs><style>.cls-1{fill:#fff;}.cls-2{fill:#00d0d2;}.cls-3{fill:#01b7b9;}.cls-4{fill:#029798;}</style></defs><title>mdp</title><g id="Capa_2" data-name="Capa 2"><g id="Capa_1-2" data-name="Capa 1"><g id="Recurso_2feelfit" data-name="Recurso 2feelfit"><g id="Layer_1" data-name="Layer 1"><rect id="Rectángulo_339-4" data-name="Rectángulo 339-4" class="cls-1" width="69" height="35" rx="9"/><g id="Grupo_310" data-name="Grupo 310"><path id="Trazado_329" data-name="Trazado 329" class="cls-2" d="M48.64,22.42h-6a.34.34,0,1,1,0-.68h6.06a2.4,2.4,0,0,0,1.89-2.32c.07-1.85-1-2-1.16-2.06H45.45A2.21,2.21,0,0,1,43.61,15a3.11,3.11,0,0,1,2.49-3h5.52a.35.35,0,0,1,0,.69H46.21A2.44,2.44,0,0,0,44.29,15v0a1.59,1.59,0,0,0,1.24,1.69h3.84s1.91.15,1.81,2.77a3.07,3.07,0,0,1-2.49,3Z"/><path id="Trazado_330" data-name="Trazado 330" class="cls-2" d="M60.05,22.46H54.43c-.73-.08-2.14-.59-2.18-2a44.67,44.67,0,0,1,1-6.09.09.09,0,0,1,0-.05c0-.09.86-2.25,2.66-2.25H60c.07,0,1.72.52,1.72,1.94a24,24,0,0,1-.37,3.29.34.34,0,0,1-.33.29l-7.78.06a18.65,18.65,0,0,0-.34,2.79c0,1.06,1.36,1.27,1.54,1.3H60a.35.35,0,0,1,.37.32.35.35,0,0,1-.33.37h0Zm-6.14-7.89c0,.18-.27,1.23-.48,2.42l7.35-.06a21.78,21.78,0,0,0,.31-2.9c0-.8-1-1.19-1.18-1.26h-4c-1.27,0-1.94,1.61-2,1.8Z"/><path id="Trazado_331" data-name="Trazado 331" class="cls-2" d="M32.1,27H32a.35.35,0,0,1-.28-.4h0s.54-3,1.1-6.05c.27-1.52.55-3,.76-4.17.1-.57.19-1,.26-1.37a5.23,5.23,0,0,1,.12-.57h0a4,4,0,0,1,2.49-2.34h3.94c.33,0,2.11.66,1.9,2.07v0l-1,5.86v0a3.53,3.53,0,0,1-2.2,2.3l-.09,0-3.54.1h0a3.25,3.25,0,0,1-2.07-1.26l-1,5.47a.34.34,0,0,1-.35.26Zm1.51-6.73a2.77,2.77,0,0,0,1.94,1.55l3.46-.1a2.87,2.87,0,0,0,1.69-1.81l1-5.81c.1-.64-.9-1.34-1.3-1.33H36.6a3.39,3.39,0,0,0-1.94,1.88c-.07.27-.54,2.82-1,5.62Z"/><path id="Trazado_332" data-name="Trazado 332" class="cls-2" d="M27.46,10.6a1,1,0,0,1-1.94,0,1,1,0,1,1,1.94,0Z"/><circle id="Elipse_5" data-name="Elipse 5" class="cls-2" cx="24.33" cy="7.34" r="0.96"/><path id="Trazado_333" data-name="Trazado 333" class="cls-2" d="M23.11,10.6a1,1,0,1,1-1-1,1,1,0,0,1,1,1Z"/><circle id="Elipse_6" data-name="Elipse 6" class="cls-2" cx="26.39" cy="23.66" r="0.96"/><circle id="Elipse_7" data-name="Elipse 7" class="cls-2" cx="24.32" cy="20.6" r="0.96"/><circle id="Elipse_8" data-name="Elipse 8" class="cls-2" cx="20.09" cy="20.6" r="0.79"/><path id="Trazado_334" data-name="Trazado 334" class="cls-2" d="M23,23.66a.8.8,0,1,1-.8-.79h0A.8.8,0,0,1,23,23.66Z"/><circle id="Elipse_9" data-name="Elipse 9" class="cls-2" cx="20.03" cy="27.02" r="0.79"/><circle id="Elipse_10" data-name="Elipse 10" class="cls-2" cx="17.98" cy="23.66" r="0.62"/><circle id="Elipse_11" data-name="Elipse 11" class="cls-2" cx="10.42" cy="17.24" r="0.62"/><circle id="Elipse_12" data-name="Elipse 12" class="cls-2" cx="11.52" cy="13.96" r="0.62"/><path id="Trazado_335" data-name="Trazado 335" class="cls-2" d="M14.22,10.6a.61.61,0,0,1-.61.62A.62.62,0,0,1,13,10.6a.61.61,0,0,1,.62-.61h0A.61.61,0,0,1,14.22,10.6Z"/><path id="Trazado_336" data-name="Trazado 336" class="cls-2" d="M16.34,7.42a.61.61,0,0,1-.62.61.61.61,0,0,1-.61-.61.61.61,0,0,1,.61-.62h0A.62.62,0,0,1,16.34,7.42Z"/><circle id="Elipse_13" data-name="Elipse 13" class="cls-2" cx="15.78" cy="27.02" r="0.62"/><circle id="Elipse_14" data-name="Elipse 14" class="cls-2" cx="13.67" cy="23.66" r="0.62"/><circle id="Elipse_15" data-name="Elipse 15" class="cls-2" cx="11.49" cy="20.6" r="0.62"/><circle id="Elipse_16" data-name="Elipse 16" class="cls-2" cx="10.33" cy="23.66" r="0.32"/><circle id="Elipse_17" data-name="Elipse 17" class="cls-2" cx="8.35" cy="20.6" r="0.32"/><path id="Trazado_337" data-name="Trazado 337" class="cls-2" d="M7.45,17.18a.32.32,0,1,1-.32-.32.32.32,0,0,1,.32.32Z"/><circle id="Elipse_18" data-name="Elipse 18" class="cls-2" cx="8.27" cy="13.97" r="0.32"/><circle id="Elipse_19" data-name="Elipse 19" class="cls-2" cx="10.41" cy="10.63" r="0.32"/><circle id="Elipse_20" data-name="Elipse 20" class="cls-2" cx="15.75" cy="20.6" r="0.79"/><circle id="Elipse_21" data-name="Elipse 21" class="cls-2" cx="13.52" cy="17.24" r="0.79"/><path id="Trazado_338" data-name="Trazado 338" class="cls-2" d="M16.51,14a.8.8,0,1,1-.8-.79h0A.79.79,0,0,1,16.51,14Z"/><circle id="Elipse_22" data-name="Elipse 22" class="cls-2" cx="17.92" cy="10.6" r="0.79"/><circle id="Elipse_23" data-name="Elipse 23" class="cls-2" cx="20.01" cy="7.36" r="0.79"/><circle id="Elipse_24" data-name="Elipse 24" class="cls-2" cx="17.87" cy="17.24" r="0.96"/><circle id="Elipse_25" data-name="Elipse 25" class="cls-2" cx="20.01" cy="13.96" r="0.96"/><circle id="Elipse_26" data-name="Elipse 26" class="cls-2" cx="24.32" cy="27.02" r="0.96"/><rect id="Rectángulo_336" data-name="Rectángulo 336" class="cls-2" x="18.35" y="16.9" width="14.19" height="0.59"/><rect id="Rectángulo_337" data-name="Rectángulo 337" class="cls-2" x="20.72" y="13.67" width="4.46" height="0.59"/><path id="Trazado_339" data-name="Trazado 339" class="cls-2" d="M27.1,17.46l-2.46-3.8h.69l2.45,3.8Z"/><rect id="Rectángulo_338" data-name="Rectángulo 338" class="cls-2" x="25.07" y="20.31" width="2.28" height="0.59"/><path id="Trazado_340" data-name="Trazado 340" class="cls-2" d="M26.81,20.9l2-3.44h.59l-2,3.44Z"/></g></g><g id="Capa_2-2" data-name="Capa 2-2"><g id="Layer_1-2" data-name="Layer 1-2"><rect id="Rectángulo_339-5" data-name="Rectángulo 339-5" class="cls-1" x="151" width="69" height="35" rx="9"/><g id="diners-club"><path id="Trazado_345" data-name="Trazado 345" class="cls-2" d="M175.34,17.25a7,7,0,0,0,4.54,6.62V10.63A7,7,0,0,0,175.34,17.25Z"/><path id="Trazado_346" data-name="Trazado 346" class="cls-3" d="M184.92,10.63V23.87a7.11,7.11,0,0,0,4.54-6.62A7,7,0,0,0,184.92,10.63Z"/><g id="Grupo_311" data-name="Grupo 311"><path id="Trazado_347" data-name="Trazado 347" class="cls-4" d="M184.92,23.87a7.11,7.11,0,0,0,4.54-6.62"/><path id="Trazado_348" data-name="Trazado 348" class="cls-4" d="M188.18,5h-5.73A12.05,12.05,0,0,0,170.1,16.74c0,.2,0,.41,0,.61A12.25,12.25,0,0,0,182.45,29.5h5.73c6.72,0,12.84-5.43,12.84-12.15A12.64,12.64,0,0,0,188.18,5Zm-5.73,23.41a11.21,11.21,0,1,1,11.26-11.16h0a11.3,11.3,0,0,1-11.26,11.16Z"/></g><path id="Trazado_386" data-name="Trazado 386" class="cls-3" d="M198.75,15.37a12,12,0,0,0-3.46-8.3A13.66,13.66,0,0,0,188.18,5h-5.73A12.05,12.05,0,0,0,170.1,16.74c0,.2,0,.41,0,.61a12.22,12.22,0,0,0,3.06,8,16.54,16.54,0,0,0,6.92,2.77,11.46,11.46,0,1,1,2.66.2h.5C191.73,28.41,198.75,22.59,198.75,15.37Z"/><path id="Trazado_387" data-name="Trazado 387" class="cls-2" d="M182.35,5A12.05,12.05,0,0,0,170,16.74c0,.2,0,.41,0,.61a11.61,11.61,0,0,0,3,7.8l.3.3a17.47,17.47,0,0,0,6.82,2.77,11.46,11.46,0,1,1,2.67.2h.49a8.12,8.12,0,0,0,1.48-.1c6.52-1.58,10.67-8.2,9.49-15.22a13.81,13.81,0,0,0-4.45-8,8.12,8.12,0,0,0-1.48-.1Z"/></g></g><g id="Layer_1-3" data-name="Layer 1-3"><rect id="Rectángulo_339-6" data-name="Rectángulo 339-6" class="cls-1" x="304" width="69" height="35" rx="9"/><g id="mastercard"><path id="Trazado_388" data-name="Trazado 388" class="cls-2" d="M357.22,17.47a11.47,11.47,0,1,1-22.93,0h0a11.47,11.47,0,1,1,22.93,0Z"/><path id="Trazado_391" data-name="Trazado 391" class="cls-4" d="M330.35,6a11.47,11.47,0,1,0,.12,22.94h0a11.67,11.67,0,0,0,7.7-3h0a10.11,10.11,0,0,0,1.15-1.21H337c-.3-.37-.59-.76-.85-1.15h4.07a8,8,0,0,0,.66-1.22h-5.4a6.63,6.63,0,0,1-.48-1.21h6.31a11.82,11.82,0,0,0,.6-3.64,15.27,15.27,0,0,0-.24-2.43h-7a8.55,8.55,0,0,1,.3-1.21h6.31a7.43,7.43,0,0,0-.48-1.21h-5.34a12.09,12.09,0,0,1,.67-1.22h4.06a5.64,5.64,0,0,0-.91-1.21H337a10.41,10.41,0,0,1,1.15-1.15,11.15,11.15,0,0,0-7.7-3C330.41,6,330.41,6,330.35,6Z"/><g id="Grupo_314" data-name="Grupo 314"><path id="Trazado_394" data-name="Trazado 394" class="cls-1" d="M334.53,20.38l.18-1a1.59,1.59,0,0,1-.3.06c-.42,0-.48-.24-.42-.36l.36-2.13H335l.18-1.15h-.61l.13-.73H333.5s-.73,4-.73,4.49a.93.93,0,0,0,.78,1,.67.67,0,0,0,.2,0A1.75,1.75,0,0,0,334.53,20.38Z"/><path id="Trazado_395" data-name="Trazado 395" class="cls-1" d="M335,18.44a1.92,1.92,0,0,0,1.71,2.12,1.41,1.41,0,0,0,.41,0,3,3,0,0,0,1.27-.18l.25-1.15a4.05,4.05,0,0,1-1.28.3c-1.33,0-1.09-1-1.09-1h2.49a8.14,8.14,0,0,0,.18-1.1,1.63,1.63,0,0,0-1.52-1.75,1,1,0,0,0-.24,0C335.87,15.59,335,16.92,335,18.44Zm2.12-1.76c.67,0,.55.79.55.85h-1.34c0-.06.12-.85.79-.85Z"/><path id="Trazado_396" data-name="Trazado 396" class="cls-1" d="M344.78,20.38,345,19a2.66,2.66,0,0,1-1,.3c-.85,0-1.22-.66-1.22-1.4,0-1.45.73-2.24,1.58-2.24a2,2,0,0,1,1.09.36l.18-1.27a4.12,4.12,0,0,0-1.39-.3c-1.4,0-2.8,1.21-2.8,3.52,0,1.52.73,2.55,2.19,2.55A5.51,5.51,0,0,0,344.78,20.38Z"/><path id="Trazado_397" data-name="Trazado 397" class="cls-1" d="M327.86,15.59a4.26,4.26,0,0,0-1.46.24l-.18,1a3.56,3.56,0,0,1,1.33-.24c.43,0,.79.06.79.42s-.06.3-.06.3h-.54c-1,0-2.19.43-2.19,1.82,0,1.1.73,1.34,1.16,1.34A1.85,1.85,0,0,0,328,20l-.06.49H329l.49-3.34a1.44,1.44,0,0,0-1.35-1.52A.93.93,0,0,0,327.86,15.59Zm.24,2.73c0,.18-.12,1.15-.85,1.15a.46.46,0,0,1-.48-.46v0c0-.3.18-.72,1.09-.72A1.05,1.05,0,0,0,328.1,18.32Z"/><path id="Trazado_398" data-name="Trazado 398" class="cls-1" d="M330.65,20.5a1.55,1.55,0,0,0,1.8-1.27,1.06,1.06,0,0,0,0-.31c0-1.51-1.45-1.21-1.45-1.82,0-.3.24-.42.66-.42.19,0,.85.06.85.06l.19-1.09a4.53,4.53,0,0,0-1.16-.12c-.91,0-1.82.36-1.82,1.57,0,1.4,1.52,1.28,1.52,1.82,0,.37-.43.43-.73.43a4,4,0,0,1-1.09-.18l-.18,1.09C329.31,20.38,329.62,20.5,330.65,20.5Z"/><path id="Trazado_399" data-name="Trazado 399" class="cls-1" d="M354.86,14.62l-.25,1.63a1.65,1.65,0,0,0-1.15-.6c-1.09,0-2.06,1.33-2.06,2.91,0,1,.48,2,1.51,2a1.64,1.64,0,0,0,1.16-.49l-.06.43h1.21l.91-5.83Zm-.55,3.21c0,.67-.3,1.52-1,1.52-.43,0-.67-.37-.67-1,0-1,.43-1.58,1-1.58S354.31,17.1,354.31,17.83Z"/><path id="Trazado_400" data-name="Trazado 400" class="cls-1" d="M321.25,20.44l.72-4.37.12,4.37h.85l1.58-4.37-.67,4.37h1.28l1-5.82h-2l-1.21,3.58-.07-3.58h-1.76l-1,5.82Z"/><path id="Trazado_401" data-name="Trazado 401" class="cls-1" d="M340.05,20.44c.37-2,.43-3.64,1.28-3.34a4.92,4.92,0,0,1,.42-1.4h-.24c-.55,0-1,.73-1,.73l.12-.67h-1.15l-.79,4.74h1.33Z"/><path id="Trazado_402" data-name="Trazado 402" class="cls-1" d="M347.58,15.59a4.26,4.26,0,0,0-1.46.24l-.18,1a3.56,3.56,0,0,1,1.33-.24c.43,0,.79.06.79.42s-.06.3-.06.3h-.54c-1,0-2.19.43-2.19,1.82,0,1.1.73,1.34,1.15,1.34A1.87,1.87,0,0,0,347.7,20l-.06.49h1.09l.48-3.34a1.41,1.41,0,0,0-1.29-1.53A1.27,1.27,0,0,0,347.58,15.59Zm.3,2.73c0,.18-.13,1.15-.85,1.15a.48.48,0,0,1-.49-.46v0c0-.3.18-.72,1.09-.72.19.06.19.06.25.06Z"/><path id="Trazado_403" data-name="Trazado 403" class="cls-1" d="M350.25,20.44c.36-2,.42-3.64,1.27-3.34a4.92,4.92,0,0,1,.42-1.4h-.24c-.54,0-1,.73-1,.73l.12-.67H349.7l-.79,4.74h1.33Z"/></g></g></g></g><g id="visa"><rect id="Rectángulo_340-2" data-name="Rectángulo 340-2" class="cls-2" x="228" width="69" height="35" rx="9"/><path id="Trazado_414" data-name="Trazado 414" class="cls-1" d="M256.72,24.46l2.32-13h3.62l-2.25,13Z"/><path id="Trazado_415" data-name="Trazado 415" class="cls-1" d="M256.72,24.46l3-13h3l-2.25,13Z"/><path id="Trazado_416" data-name="Trazado 416" class="cls-1" d="M273.52,11.58a9.27,9.27,0,0,0-3.33-.58c-3.62,0-6.23,1.81-6.23,4.42,0,2,1.81,3,3.26,3.62s1.88,1.08,1.88,1.66c0,.87-1.16,1.3-2.17,1.3a7.88,7.88,0,0,1-3.48-.72l-.5-.22-.51,3a11.63,11.63,0,0,0,4.13.72c3.83,0,6.37-1.81,6.37-4.56,0-1.52-.95-2.67-3.12-3.62-1.3-.65-2.1-1-2.1-1.66s.65-1.16,2.1-1.16a6.63,6.63,0,0,1,2.75.51l.37.14.58-2.82Z"/><path id="Trazado_417" data-name="Trazado 417" class="cls-1" d="M273.52,11.58a9.27,9.27,0,0,0-3.33-.58c-3.62,0-5.58,1.81-5.58,4.42A3.79,3.79,0,0,0,267.22,19c1.45.65,1.88,1.08,1.88,1.66,0,.87-1.16,1.3-2.17,1.3a7.88,7.88,0,0,1-3.48-.72l-.5-.22-.51,3a11.63,11.63,0,0,0,4.13.72c3.83,0,6.37-1.81,6.37-4.56,0-1.52-.95-2.67-3.12-3.62-1.3-.65-2.1-1-2.1-1.66s.65-1.16,2.1-1.16a6.63,6.63,0,0,1,2.75.51l.37.14.58-2.82Z"/><path id="Trazado_418" data-name="Trazado 418" class="cls-1" d="M279.74,11.43c-.87,0-1.52.08-1.88.94l-5.43,12.09h3.91l.72-2.17h4.63l.44,2.17h3.47l-3-13Zm-1.67,8.69c.22-.65,1.45-3.84,1.45-3.84s.29-.8.51-1.3l.22,1.23s.72,3.26.87,4h-3Z"/><path id="Trazado_419" data-name="Trazado 419" class="cls-1" d="M280.61,11.43c-.87,0-1.52.08-1.88.94l-6.3,12.09h3.91l.72-2.17h4.63l.44,2.17h3.47l-3-13Zm-2.54,8.69c.29-.72,1.45-3.84,1.45-3.84s.29-.8.51-1.3l.22,1.23s.72,3.26.87,4h-3Z"/><path id="Trazado_420" data-name="Trazado 420" class="cls-1" d="M250.06,20.55l-.36-1.88A10.54,10.54,0,0,0,244.63,13l3.26,11.59h3.91l5.86-13h-3.91Z"/><path id="Trazado_421" data-name="Trazado 421" class="cls-1" d="M250.06,20.55l-.36-1.88A10.54,10.54,0,0,0,244.63,13l3.26,11.59h3.91l5.86-13h-3.18Z"/><path id="Trazado_422" data-name="Trazado 422" class="cls-1" d="M240,11.43l.65.15c4.63,1.08,7.82,3.83,9,7.09l-1.3-6.15c-.22-.87-.87-1.09-1.67-1.09Z"/><path id="Trazado_423" data-name="Trazado 423" class="cls-1" d="M240,11.43h0c4.63,1.09,8.47,3.91,9.7,7.17l-1.23-5.14a1.77,1.77,0,0,0-1.74-1.37Z"/><path id="Trazado_424" data-name="Trazado 424" class="cls-1" d="M240,11.43h0c4.63,1.09,8.47,3.91,9.7,7.17l-.87-2.82a2.55,2.55,0,0,0-1.52-2.1Z"/><g id="Grupo_316" data-name="Grupo 316"><path id="Trazado_425" data-name="Trazado 425" class="cls-1" d="M253.68,20.12l-2.46-2.46-1.16,2.75-.29-1.81a10.5,10.5,0,0,0-5.07-5.72L248,24.46h3.91Z"/><path id="Trazado_426" data-name="Trazado 426" class="cls-1" d="M260.41,24.46l-3.11-3.18-.58,3.18Z"/><path id="Trazado_427" data-name="Trazado 427" class="cls-1" d="M268.74,20h0c.29.29.43.5.36.8,0,.86-1.16,1.3-2.17,1.3a8,8,0,0,1-3.48-.73l-.5-.22-.51,3a11.86,11.86,0,0,0,4.13.73A7.19,7.19,0,0,0,271.85,23Z"/><path id="Trazado_428" data-name="Trazado 428" class="cls-1" d="M272.94,24.46h3.4l.72-2.17h4.63l.44,2.17h3.47l-1.23-5.28L280,15l.22,1.16s.72,3.25.86,4h-3c.29-.73,1.45-3.84,1.45-3.84s.29-.8.51-1.3"/></g></g><g id="Recurso_2feelfit-2" data-name="Recurso 2feelfit-2"><g id="Capa_2-3" data-name="Capa 2-3"><path id="Trazado_429" data-name="Trazado 429" class="cls-2" d="M84,0h51a9,9,0,0,1,9,9V26a9,9,0,0,1-9,9H84a9,9,0,0,1-9-9V9A9,9,0,0,1,84,0Z"/><g id="american-express"><path id="Trazado_342" data-name="Trazado 342" class="cls-1" d="M91.58,14l-.83-2-.83,2m20-.82a1.15,1.15,0,0,1-.6.11h-1.48V12.1h1.5a1.15,1.15,0,0,1,.58.09.44.44,0,0,1,.25.45.51.51,0,0,1-.25.49m10.53.82-.84-2-.84,2Zm-19.62,2.22H99.56v-4l-1.77,4H96.72l-1.76-4v4H92.49L92,15H89.49L89,16.17H87.7L89.88,11h1.8l2.07,4.88V11h2l1.59,3.5L98.78,11h2v5.15Zm5,0h-4.06V11h4.05v1.07h-2.84V13h2.78v1.06h-2.78v1h2.85v1.06Zm5.72-3.76a1.44,1.44,0,0,1-.86,1.37,1.33,1.33,0,0,1,.6.44,1.47,1.47,0,0,1,.2.94v1h-1.22v-.65a1.54,1.54,0,0,0-.2-1c-.17-.18-.44-.22-.88-.22h-1.3v1.88h-1.22V11h2.79a2.87,2.87,0,0,1,1.47.25,1.22,1.22,0,0,1,.62,1.14m1.94,3.77h-1.24V11h1.24Zm14.38,0h-1.72l-2.3-3.87v3.87h-2.48L120.84,15h-2.52l-.46,1.15h-1.42a2.58,2.58,0,0,1-1.77-.57,2.62,2.62,0,0,1-.64-2,2.72,2.72,0,0,1,.65-2,2.41,2.41,0,0,1,1.85-.6h1.17v1.1h-1.15a1.17,1.17,0,0,0-.94.3,1.75,1.75,0,0,0-.34,1.17,1.8,1.8,0,0,0,.33,1.21,1.14,1.14,0,0,0,.85.26H117L118.7,11h1.82l2.06,4.88V11h1.85l2.13,3.59V11h1.25v5.15Zm-40.12,1h2.08L90.23,16h1l.47,1.15h4.08v-.88l.37.88h2.12l.36-.89v.89h10.15V15.31h.2c.14,0,.18,0,.18.25v1.63h5.25v-.44a4.22,4.22,0,0,0,2,.44h2.2l.47-1.15h1.05l.46,1.15h4.26V16.1l.64,1.09h3.41V10h-3.37v.85L125,10h-3.46v.85l-.43-.85h-4.68a4.19,4.19,0,0,0-2,.42V10h-3.22v.42a2,2,0,0,0-1.38-.42H98.05l-.79,1.86L96.45,10H92.73v.85l-.4-.85H89.16l-1.47,3.42L86,17.19Z"/><path id="Trazado_344" data-name="Trazado 344" class="cls-1" d="M131.61,22v-3.3h-3a2.56,2.56,0,0,0-1.52.42v-.42h-3.33a2.29,2.29,0,0,0-1.45.42v-.42h-5.94v.42a3.23,3.23,0,0,0-1.64-.42h-3.91v.42a2.82,2.82,0,0,0-1.72-.42h-4.38l-1,1.1-.94-1.1H96.19v7.19h6.42l1-1.12,1,1.12h4V24.24H109a4.26,4.26,0,0,0,1.7-.25v1.93h3.26V24.05h.16c.2,0,.22,0,.22.21v1.66h9.93a2.74,2.74,0,0,0,1.66-.46v.46H129a4.1,4.1,0,0,0,1.79-.33h0a2.61,2.61,0,0,0,.79-3.55ZM109,23.19h-1.51v1.73h-2.37l-1.5-1.7-1.55,1.7H97.28V19.77h4.88l1.5,1.69,1.54-1.69h3.89c1,0,2,.27,2,1.7s-1,1.72-2.1,1.72Zm7.32-.23a1.61,1.61,0,0,1,.2.94v1h-1.22v-.64a1.55,1.55,0,0,0-.2-1,1.19,1.19,0,0,0-.89-.23h-1.3v1.88h-1.21V19.77h2.8A3,3,0,0,1,116,20a1.23,1.23,0,0,1,.62,1.15,1.44,1.44,0,0,1-.86,1.37,1.29,1.29,0,0,1,.6.43Zm5-2.12h-2.85v.93h2.78v1.05h-2.78v1h2.85v1.07h-4.06V19.77h4.06Zm3.09,4.08h-2.37v-1.1h2.36a.68.68,0,0,0,.5-.13.46.46,0,0,0,.15-.33.47.47,0,0,0-.15-.34.68.68,0,0,0-.44-.12c-1.13,0-2.56,0-2.56-1.59a1.53,1.53,0,0,1,1.5-1.55,1,1,0,0,1,.24,0h2.44v1.1h-2.23a.83.83,0,0,0-.49.09.44.44,0,0,0-.1.61.49.49,0,0,0,.18.14,1.32,1.32,0,0,0,.48.06l.65,0a1.93,1.93,0,0,1,1.39.41,1.42,1.42,0,0,1,.36,1.09c0,1.1-.68,1.62-1.91,1.62Zm6.26-.5a2.08,2.08,0,0,1-1.51.5h-2.35v-1.1h2.34a.67.67,0,0,0,.49-.13.45.45,0,0,0,.14-.33.4.4,0,0,0-.15-.34.64.64,0,0,0-.43-.12c-1.14,0-2.56,0-2.56-1.59a1.53,1.53,0,0,1,1.5-1.55,1,1,0,0,1,.24,0h2.38v1.1h-2.17a.83.83,0,0,0-.49.09.39.39,0,0,0-.18.37.38.38,0,0,0,.27.38,1.19,1.19,0,0,0,.46.06l.66,0a1.91,1.91,0,0,1,1.38.41.69.69,0,0,1,.11.13l0-.05a1.68,1.68,0,0,1-.1,2.14Zm-29.15-3.59,1.33,1.5-1.39,1.52h-3v-1h2.67V21.77H98.49v-.94Zm2.9,1.52,1.86-2v4.13Zm5.39-.88a.66.66,0,0,1-.75.68h-1.57V20.83h1.58c.44,0,.75.19.75.64Zm5.43-.08a.55.55,0,0,1-.25.49,1.15,1.15,0,0,1-.6.11h-1.48V20.83h1.5a1.27,1.27,0,0,1,.58.1.47.47,0,0,1,.25.46Z"/></g></g></g></g></g></g></svg>