<svg xmlns="http://www.w3.org/2000/svg" xmlns:xlink="http://www.w3.org/1999/xlink" width="391" height="53" viewBox="0 0 391 53">
  <defs>
    <filter id="Rectángulo_339" x="0" y="0" width="87" height="53" filterUnits="userSpaceOnUse">
      <feOffset dy="3" input="SourceAlpha"/>
      <feGaussianBlur stdDeviation="3" result="blur"/>
      <feFlood flood-opacity="0.161"/>
      <feComposite operator="in" in2="blur"/>
      <feComposite in="SourceGraphic"/>
    </filter>
    <clipPath id="clip-path"/>
    <filter id="Rectángulo_339-2" x="151" y="0" width="87" height="53" filterUnits="userSpaceOnUse">
      <feOffset dy="3" input="SourceAlpha"/>
      <feGaussianBlur stdDeviation="3" result="blur-2"/>
      <feFlood flood-opacity="0.161"/>
      <feComposite operator="in" in2="blur-2"/>
      <feComposite in="SourceGraphic"/>
    </filter>
    <filter id="Rectángulo_339-3" x="304" y="0" width="87" height="53" filterUnits="userSpaceOnUse">
      <feOffset dy="3" input="SourceAlpha"/>
      <feGaussianBlur stdDeviation="3" result="blur-3"/>
      <feFlood flood-opacity="0.161"/>
      <feComposite operator="in" in2="blur-3"/>
      <feComposite in="SourceGraphic"/>
    </filter>
    <filter id="Rectángulo_340" x="228.001" y="0" width="87" height="53" filterUnits="userSpaceOnUse">
      <feOffset dy="3" input="SourceAlpha"/>
      <feGaussianBlur stdDeviation="3" result="blur-4"/>
      <feFlood flood-opacity="0.161"/>
      <feComposite operator="in" in2="blur-4"/>
      <feComposite in="SourceGraphic"/>
    </filter>
  </defs>
  <g id="Recurso_2feelfit" data-name="Recurso 2feelfit" transform="translate(-36 124)">
    <g id="Capa_2" data-name="Capa 2" transform="translate(57 -127)">
      <g id="Layer_1" data-name="Layer 1" transform="translate(0 0)">
        <g transform="matrix(1, 0, 0, 1, -21, 3)" filter="url(#Rectángulo_339)">
          <rect id="Rectángulo_339-4" data-name="Rectángulo 339" width="69" height="35" rx="9" transform="translate(9 6)" fill="#fff"/>
        </g>
        <g id="Grupo_310" data-name="Grupo 310" transform="translate(0.869 0.869)" clip-path="url(#clip-path)">
          <path id="Trazado_329" data-name="Trazado 329" d="M152.755,96.479H146.7a.344.344,0,1,1,0-.687h6.02a2.38,2.38,0,0,0,1.891-2.317c.07-1.852-.99-2.036-1.162-2.055h-3.888a2.21,2.21,0,0,1-1.84-2.4,3.114,3.114,0,0,1,2.493-2.992.374.374,0,0,1,.073,0h5.451a.346.346,0,0,1,0,.69h-5.41a2.428,2.428,0,0,0-1.92,2.317v.027a1.59,1.59,0,0,0,1.235,1.694h3.837c.017,0,1.915.145,1.815,2.769a3.067,3.067,0,0,1-2.491,2.953Z" transform="translate(-116.983 -65.926)" fill="#00d0d2"/>
          <path id="Trazado_330" data-name="Trazado 330" d="M195.479,96.934h-5.623c-.726-.08-2.137-.591-2.179-1.968a44.984,44.984,0,0,1,.988-6.093.145.145,0,0,1,.015-.046c.034-.092.854-2.249,2.663-2.249h4.021a.317.317,0,0,1,.094,0c.07.022,1.719.513,1.719,1.937a24.782,24.782,0,0,1-.366,3.295.341.341,0,0,1-.334.283l-7.775.065a17.96,17.96,0,0,0-.346,2.786c.024,1.065,1.365,1.273,1.54,1.3h5.568a.344.344,0,1,1,0,.687Zm-6.139-7.889c-.039.177-.269,1.232-.484,2.421l7.354-.063a22.316,22.316,0,0,0,.307-2.9c0-.8-.968-1.184-1.181-1.256h-3.975C190.093,87.264,189.42,88.857,189.34,89.046Z" transform="translate(-148.298 -66.345)" fill="#00d0d2"/>
          <path id="Trazado_331" data-name="Trazado 331" d="M103.382,101.333a.261.261,0,0,1-.061,0,.344.344,0,0,1-.278-.4s.547-3.028,1.1-6.052c.276-1.513.552-3.028.763-4.164.1-.569.194-1.043.257-1.375a5.239,5.239,0,0,1,.123-.571h0a4.005,4.005,0,0,1,2.488-2.341.412.412,0,0,1,.094,0h3.846c.334,0,2.116.668,1.907,2.077a.208.208,0,0,0,0,.039l-.968,5.853a.183.183,0,0,1,0,.039,3.532,3.532,0,0,1-2.2,2.3.278.278,0,0,1-.09.015l-3.532.1h-.044a3.236,3.236,0,0,1-2.07-1.256c-.38,2.091-.76,4.188-.99,5.468a.346.346,0,0,1-.346.261ZM104.89,94.6a2.764,2.764,0,0,0,1.937,1.554l3.462-.1a2.891,2.891,0,0,0,1.694-1.806l.951-5.81c.1-.649-.893-1.341-1.3-1.339h-3.759a3.437,3.437,0,0,0-1.937,1.886c-.068.271-.535,2.82-1.046,5.616Z" transform="translate(-84.147 -66.234)" fill="#00d0d2"/>
          <path id="Trazado_332" data-name="Trazado 332" d="M79.207,77.348a.968.968,0,1,1-.968-.968A.968.968,0,0,1,79.207,77.348Z" transform="translate(-64.617 -58.617)" fill="#00d0d2"/>
          <circle id="Elipse_5" data-name="Elipse 5" cx="0.959" cy="0.959" r="0.959" transform="translate(10.501 14.514)" fill="#00d0d2"/>
          <path id="Trazado_333" data-name="Trazado 333" d="M61.227,77.348a.968.968,0,1,1-.968-.968A.968.968,0,0,1,61.227,77.348Z" transform="translate(-50.99 -58.617)" fill="#00d0d2"/>
          <circle id="Elipse_6" data-name="Elipse 6" cx="0.959" cy="0.959" r="0.959" transform="translate(12.561 30.834)" fill="#00d0d2"/>
          <circle id="Elipse_7" data-name="Elipse 7" cx="0.959" cy="0.959" r="0.959" transform="translate(10.496 27.772)" fill="#00d0d2"/>
          <circle id="Elipse_8" data-name="Elipse 8" cx="0.794" cy="0.794" r="0.794" transform="translate(6.427 27.937)" fill="#00d0d2"/>
          <path id="Trazado_334" data-name="Trazado 334" d="M61.878,131.862a.794.794,0,1,1-.792-.792A.794.794,0,0,1,61.878,131.862Z" transform="translate(-51.747 -100.069)" fill="#00d0d2"/>
          <circle id="Elipse_9" data-name="Elipse 9" cx="0.794" cy="0.794" r="0.794" transform="translate(6.371 34.359)" fill="#00d0d2"/>
          <circle id="Elipse_10" data-name="Elipse 10" cx="0.615" cy="0.615" r="0.615" transform="translate(4.498 31.178)" fill="#00d0d2"/>
          <circle id="Elipse_11" data-name="Elipse 11" cx="0.615" cy="0.615" r="0.615" transform="translate(-3.06 24.751)" fill="#00d0d2"/>
          <circle id="Elipse_12" data-name="Elipse 12" cx="0.615" cy="0.615" r="0.615" transform="translate(-1.961 21.476)" fill="#00d0d2"/>
          <path id="Trazado_335" data-name="Trazado 335" d="M26.74,78.455a.615.615,0,1,1-.615-.615A.615.615,0,0,1,26.74,78.455Z" transform="translate(-25.387 -59.724)" fill="#00d0d2"/>
          <path id="Trazado_336" data-name="Trazado 336" d="M35.47,65.295a.615.615,0,1,1-.615-.615A.615.615,0,0,1,35.47,65.295Z" transform="translate(-32.003 -49.749)" fill="#00d0d2"/>
          <circle id="Elipse_13" data-name="Elipse 13" cx="0.615" cy="0.615" r="0.615" transform="translate(2.295 34.538)" fill="#00d0d2"/>
          <circle id="Elipse_14" data-name="Elipse 14" cx="0.615" cy="0.615" r="0.615" transform="translate(0.184 31.178)" fill="#00d0d2"/>
          <circle id="Elipse_15" data-name="Elipse 15" cx="0.615" cy="0.615" r="0.615" transform="translate(-1.99 28.116)" fill="#00d0d2"/>
          <circle id="Elipse_16" data-name="Elipse 16" cx="0.317" cy="0.317" r="0.317" transform="translate(-2.852 31.476)" fill="#00d0d2"/>
          <circle id="Elipse_17" data-name="Elipse 17" cx="0.317" cy="0.317" r="0.317" transform="translate(-4.832 28.414)" fill="#00d0d2"/>
          <path id="Trazado_337" data-name="Trazado 337" d="M.634,106.567a.317.317,0,1,1-.317-.317A.317.317,0,0,1,.634,106.567Z" transform="translate(-6.052 -81.257)" fill="#00d0d2"/>
          <circle id="Elipse_18" data-name="Elipse 18" cx="0.317" cy="0.317" r="0.317" transform="translate(-4.921 21.779)" fill="#00d0d2"/>
          <circle id="Elipse_19" data-name="Elipse 19" cx="0.317" cy="0.317" r="0.317" transform="translate(-2.779 18.445)" fill="#00d0d2"/>
          <circle id="Elipse_20" data-name="Elipse 20" cx="0.794" cy="0.794" r="0.794" transform="translate(2.087 27.937)" fill="#00d0d2"/>
          <circle id="Elipse_21" data-name="Elipse 21" cx="0.794" cy="0.794" r="0.794" transform="translate(-0.145 24.579)" fill="#00d0d2"/>
          <path id="Trazado_338" data-name="Trazado 338" d="M35.078,91.789A.794.794,0,1,1,34.286,91,.794.794,0,0,1,35.078,91.789Z" transform="translate(-31.435 -69.698)" fill="#00d0d2"/>
          <circle id="Elipse_22" data-name="Elipse 22" cx="0.794" cy="0.794" r="0.794" transform="translate(4.258 17.937)" fill="#00d0d2"/>
          <circle id="Elipse_23" data-name="Elipse 23" cx="0.794" cy="0.794" r="0.794" transform="translate(6.342 14.693)" fill="#00d0d2"/>
          <circle id="Elipse_24" data-name="Elipse 24" cx="0.959" cy="0.959" r="0.959" transform="translate(4.038 24.415)" fill="#00d0d2"/>
          <circle id="Elipse_25" data-name="Elipse 25" cx="0.959" cy="0.959" r="0.959" transform="translate(6.178 21.132)" fill="#00d0d2"/>
          <circle id="Elipse_26" data-name="Elipse 26" cx="0.959" cy="0.959" r="0.959" transform="translate(10.496 34.194)" fill="#00d0d2"/>
          <rect id="Rectángulo_336" data-name="Rectángulo 336" width="14.195" height="0.588" transform="translate(5.485 25.034)" fill="#00d0d2"/>
          <rect id="Rectángulo_337" data-name="Rectángulo 337" width="4.464" height="0.588" transform="translate(7.848 21.796)" fill="#00d0d2"/>
          <path id="Trazado_339" data-name="Trazado 339" d="M76.087,96.836l-2.457-3.8h.685l2.457,3.8Z" transform="translate(-61.858 -71.244)" fill="#00d0d2"/>
          <rect id="Rectángulo_338" data-name="Rectángulo 338" width="2.278" height="0.588" transform="translate(12.203 28.438)" fill="#00d0d2"/>
          <path id="Trazado_340" data-name="Trazado 340" d="M82.58,112.155l2.036-3.435H85.2l-2.036,3.435Z" transform="translate(-68.642 -83.129)" fill="#00d0d2"/>
        </g>
      </g>
    </g>
    <g id="Capa_2-2" data-name="Capa 2" transform="translate(207 -127)">
      <g id="Layer_1-2" data-name="Layer 1" transform="translate(0 0)">
        <g transform="matrix(1, 0, 0, 1, -171, 3)" filter="url(#Rectángulo_339-2)">
          <rect id="Rectángulo_339-5" data-name="Rectángulo 339" width="69" height="35" rx="9" transform="translate(160 6)" fill="#fff"/>
        </g>
        <g id="diners-club" transform="translate(-114.4 -62.8)">
          <path id="Trazado_345" data-name="Trazado 345" d="M165.6,129.019a7,7,0,0,0,4.544,6.619V122.4A7,7,0,0,0,165.6,129.019Z" transform="translate(-37.865 -39.969)" fill="#00d0d2"/>
          <path id="Trazado_346" data-name="Trazado 346" d="M243.2,122.4v13.238a7.1,7.1,0,0,0,4.544-6.619A7,7,0,0,0,243.2,122.4Z" transform="translate(-105.883 -39.969)" fill="#01b7b9"/>
          <g id="Grupo_311" data-name="Grupo 311" transform="translate(122.499 76.8)">
            <path id="Trazado_347" data-name="Trazado 347" d="M243.2,182.619A7.1,7.1,0,0,0,247.744,176" transform="translate(-228.381 -163.75)" fill="#029798"/>
            <path id="Trazado_348" data-name="Trazado 348" d="M141.279,76.8h-5.73A12.048,12.048,0,0,0,123.2,89.149,12.249,12.249,0,0,0,135.549,101.3h5.73c6.718,0,12.843-5.433,12.843-12.151A12.643,12.643,0,0,0,141.279,76.8Zm-5.73,23.413A11.213,11.213,0,1,1,146.811,89.05,11.3,11.3,0,0,1,135.549,100.213Z" transform="translate(-123.2 -76.8)" fill="#029798"/>
          </g>
          <path id="Trazado_386" data-name="Trazado 386" d="M151.849,87.173a11.913,11.913,0,0,0-3.458-8.3,13.6,13.6,0,0,0-7.113-2.075h-5.73A12.048,12.048,0,0,0,123.2,89.149a12.2,12.2,0,0,0,3.062,8,16.465,16.465,0,0,0,6.915,2.766,11.462,11.462,0,1,1,2.667.2h.494C144.835,100.213,151.849,94.385,151.849,87.173Z" transform="translate(-0.701)" fill="#01b7b9"/>
          <path id="Trazado_387" data-name="Trazado 387" d="M134.749,76.8A12.048,12.048,0,0,0,122.4,89.149a11.606,11.606,0,0,0,2.964,7.8l.3.3a17.422,17.422,0,0,0,6.817,2.766,11.462,11.462,0,1,1,2.667.2h.494a7.477,7.477,0,0,0,1.482-.1c6.52-1.581,10.669-8.2,9.484-15.214a13.737,13.737,0,0,0-4.446-8,7.477,7.477,0,0,0-1.482-.1Z" fill="#00d0d2"/>
        </g>
      </g>
      <g id="Layer_1-3" data-name="Layer 1" transform="translate(153 0)">
        <g transform="matrix(1, 0, 0, 1, -324, 3)" filter="url(#Rectángulo_339-3)">
          <rect id="Rectángulo_339-6" data-name="Rectángulo 339" width="69" height="35" rx="9" transform="translate(313 6)" fill="#fff"/>
        </g>
        <g id="mastercard" transform="translate(4 -85.8)">
          <path id="Trazado_388" data-name="Trazado 388" d="M224.534,112.267a11.467,11.467,0,0,1-22.934,0h0a11.467,11.467,0,1,1,22.934,0Z" transform="translate(-186.311 0)" fill="#00d0d2"/>
          <path id="Trazado_391" data-name="Trazado 391" d="M11.345,100.8a11.467,11.467,0,0,0,.121,22.934,11.6,11.6,0,0,0,7.705-2.973h0a10.9,10.9,0,0,0,1.153-1.213H17.959a14,14,0,0,1-.849-1.153h4.065a7.772,7.772,0,0,0,.667-1.213h-5.4a7.231,7.231,0,0,1-.485-1.213h6.31a12.047,12.047,0,0,0,.607-3.64,15.66,15.66,0,0,0-.243-2.427H15.592a8.87,8.87,0,0,1,.3-1.213h6.31a7.231,7.231,0,0,0-.485-1.213H16.381a12.031,12.031,0,0,1,.667-1.213h4.065a5.769,5.769,0,0,0-.91-1.213H17.959a10.341,10.341,0,0,1,1.153-1.153,11.2,11.2,0,0,0-7.705-2.973C11.406,100.8,11.406,100.8,11.345,100.8Z" fill="#029798"/>
          <g id="Grupo_314" data-name="Grupo 314" transform="translate(1.092 109.294)">
            <path id="Trazado_394" data-name="Trazado 394" d="M183.359,225.339l.182-1.031a2.627,2.627,0,0,1-.3.061c-.425,0-.485-.243-.425-.364l.364-2.123h.667l.182-1.153h-.607l.121-.728h-1.213s-.728,4-.728,4.49a.911.911,0,0,0,.971,1.031A1.863,1.863,0,0,0,183.359,225.339Z" transform="translate(-168.92 -219.454)" fill="#fff"/>
            <path id="Trazado_395" data-name="Trazado 395" d="M210.4,231.437a1.93,1.93,0,0,0,2.123,2.123,3.15,3.15,0,0,0,1.274-.182l.243-1.153a3.637,3.637,0,0,1-1.274.3c-1.335,0-1.092-.971-1.092-.971h2.488a7.866,7.866,0,0,0,.182-1.092,1.644,1.644,0,0,0-1.759-1.759C211.31,228.585,210.4,229.92,210.4,231.437Zm2.123-1.759c.667,0,.546.789.546.849h-1.335C211.735,230.466,211.856,229.677,212.523,229.677Z" transform="translate(-195.536 -227.493)" fill="#fff"/>
            <path id="Trazado_396" data-name="Trazado 396" d="M299.337,218.685l.243-1.335a2.982,2.982,0,0,1-1.031.3c-.849,0-1.213-.667-1.213-1.4,0-1.456.728-2.245,1.577-2.245a2.026,2.026,0,0,1,1.092.364l.182-1.274a4.266,4.266,0,0,0-1.4-.3c-1.4,0-2.791,1.213-2.791,3.519,0,1.517.728,2.548,2.184,2.548A5.445,5.445,0,0,0,299.337,218.685Z" transform="translate(-274.644 -212.8)" fill="#fff"/>
            <path id="Trazado_397" data-name="Trazado 397" d="M88.705,227.2a4.3,4.3,0,0,0-1.456.243l-.182,1.031a3.586,3.586,0,0,1,1.335-.243c.425,0,.789.061.789.425,0,.243-.061.3-.061.3h-.546c-1.031,0-2.184.425-2.184,1.82,0,1.092.728,1.335,1.153,1.335a1.823,1.823,0,0,0,1.274-.546l-.061.485h1.092l.485-3.337A1.438,1.438,0,0,0,88.705,227.2Zm.243,2.73c0,.182-.121,1.153-.849,1.153a.474.474,0,0,1-.485-.485c0-.3.182-.728,1.092-.728A.957.957,0,0,0,88.948,229.93Z" transform="translate(-80.94 -226.108)" fill="#fff"/>
            <path id="Trazado_398" data-name="Trazado 398" d="M136.6,231.375a1.555,1.555,0,0,0,1.82-1.577c0-1.517-1.456-1.213-1.456-1.82,0-.3.243-.425.667-.425.182,0,.849.061.849.061l.182-1.092a4.609,4.609,0,0,0-1.153-.121c-.91,0-1.82.364-1.82,1.577,0,1.4,1.517,1.274,1.517,1.82,0,.364-.425.425-.728.425a3.968,3.968,0,0,1-1.092-.182l-.182,1.092C135.261,231.254,135.564,231.375,136.6,231.375Z" transform="translate(-126.039 -225.369)" fill="#fff"/>
            <path id="Trazado_399" data-name="Trazado 399" d="M430.658,214.4l-.243,1.638a1.682,1.682,0,0,0-1.153-.607c-1.092,0-2.063,1.335-2.063,2.912,0,.971.485,2,1.517,2a1.62,1.62,0,0,0,1.153-.485l-.061.425h1.213l.91-5.824Zm-.546,3.216c0,.667-.3,1.517-.971,1.517-.425,0-.667-.364-.667-.971,0-.971.425-1.577.971-1.577C429.87,216.584,430.112,216.887,430.112,217.616Z" transform="translate(-395.894 -214.279)" fill="#fff"/>
            <path id="Trazado_400" data-name="Trazado 400" d="M15.553,220.224l.728-4.368.121,4.368h.849l1.577-4.368-.667,4.368h1.274l.971-5.824h-2l-1.213,3.58-.061-3.58H15.371l-.971,5.824Z" transform="translate(-14.4 -214.279)" fill="#fff"/>
            <path id="Trazado_401" data-name="Trazado 401" d="M261.335,233.532c.364-2,.425-3.64,1.274-3.337a4.762,4.762,0,0,1,.425-1.4h-.243c-.546,0-.971.728-.971.728l.121-.667h-1.153L260,233.593h1.335Z" transform="translate(-241.374 -227.587)" fill="#fff"/>
            <path id="Trazado_402" data-name="Trazado 402" d="M348.706,227.2a4.3,4.3,0,0,0-1.456.243l-.182,1.031a3.586,3.586,0,0,1,1.335-.243c.425,0,.789.061.789.425,0,.243-.061.3-.061.3h-.546c-1.031,0-2.184.425-2.184,1.82,0,1.092.728,1.335,1.153,1.335a1.823,1.823,0,0,0,1.274-.546l-.061.485h1.092l.485-3.337A1.417,1.417,0,0,0,348.706,227.2Zm.3,2.73c0,.182-.121,1.153-.849,1.153a.474.474,0,0,1-.485-.485c0-.3.182-.728,1.092-.728C348.948,229.93,348.948,229.93,349.009,229.93Z" transform="translate(-321.222 -226.108)" fill="#fff"/>
            <path id="Trazado_403" data-name="Trazado 403" d="M395.735,233.532c.364-2,.425-3.64,1.274-3.337a4.762,4.762,0,0,1,.425-1.4h-.243c-.546,0-.971.728-.971.728l.121-.667h-1.153l-.789,4.732h1.335Z" transform="translate(-365.581 -227.587)" fill="#fff"/>
          </g>
        </g>
      </g>
    </g>
    <g id="visa" transform="translate(285 -282.601)">
      <g transform="matrix(1, 0, 0, 1, -249, 158.6)" filter="url(#Rectángulo_340)">
        <rect id="Rectángulo_340-2" data-name="Rectángulo 340" width="69" height="35" rx="9" transform="translate(237 6)" fill="#00d0d2"/>
      </g>
      <path id="Trazado_414" data-name="Trazado 414" d="M184.8,193.43l2.316-13.03h3.619l-2.244,13.03Z" transform="translate(-168.079 -4.366)" fill="#fff"/>
      <path id="Trazado_415" data-name="Trazado 415" d="M184.8,193.43l2.968-13.03h2.968l-2.244,13.03Z" transform="translate(-168.079 -4.366)" fill="#fff"/>
      <path id="Trazado_416" data-name="Trazado 416" d="M259.075,176.179a9.181,9.181,0,0,0-3.33-.579c-3.619,0-6.225,1.81-6.225,4.416,0,1.954,1.81,2.968,3.257,3.619s1.882,1.086,1.882,1.665c0,.869-1.158,1.3-2.172,1.3a7.868,7.868,0,0,1-3.475-.724l-.507-.217L248,188.63a11.737,11.737,0,0,0,4.126.724c3.836,0,6.37-1.81,6.37-4.56,0-1.52-.941-2.678-3.113-3.619-1.3-.651-2.1-1.013-2.1-1.665,0-.579.651-1.158,2.1-1.158a6.639,6.639,0,0,1,2.751.507l.362.145.579-2.823Z" transform="translate(-225.56)" fill="#fff"/>
      <path id="Trazado_417" data-name="Trazado 417" d="M259.075,176.179a9.181,9.181,0,0,0-3.33-.579c-3.619,0-5.574,1.81-5.574,4.416a3.784,3.784,0,0,0,2.606,3.619c1.448.651,1.882,1.086,1.882,1.665,0,.869-1.158,1.3-2.172,1.3a7.868,7.868,0,0,1-3.475-.724l-.507-.217L248,188.63a11.737,11.737,0,0,0,4.126.724c3.836,0,6.37-1.81,6.37-4.56,0-1.52-.941-2.678-3.113-3.619-1.3-.651-2.1-1.013-2.1-1.665,0-.579.651-1.158,2.1-1.158a6.639,6.639,0,0,1,2.751.507l.362.145.579-2.823Z" transform="translate(-225.56)" fill="#fff"/>
      <path id="Trazado_418" data-name="Trazado 418" d="M365.711,180.4c-.869,0-1.52.072-1.882.941L358.4,193.43h3.909l.724-2.172h4.633l.434,2.172h3.475l-3.04-13.03Zm-1.665,8.686c.217-.651,1.448-3.836,1.448-3.836s.29-.8.507-1.3l.217,1.231s.724,3.257.869,3.981h-3.04Z" transform="translate(-325.971 -4.366)" fill="#fff"/>
      <path id="Trazado_419" data-name="Trazado 419" d="M366.58,180.4c-.869,0-1.52.072-1.882.941l-6.3,12.089h3.909l.724-2.172h4.633l.434,2.172h3.475l-3.04-13.03Zm-2.534,8.686c.29-.724,1.448-3.836,1.448-3.836s.29-.8.507-1.3l.217,1.231s.724,3.257.869,3.981h-3.04Z" transform="translate(-325.971 -4.366)" fill="#fff"/>
      <path id="Trazado_420" data-name="Trazado 420" d="M56.629,190.248l-.362-1.882a10.493,10.493,0,0,0-5.067-5.719l3.257,11.582h3.909L64.23,181.2H60.321Z" transform="translate(-46.567 -5.093)" fill="#fff"/>
      <path id="Trazado_421" data-name="Trazado 421" d="M56.629,190.248l-.362-1.882a10.493,10.493,0,0,0-5.067-5.719l3.257,11.582h3.909L64.23,181.2H61.045Z" transform="translate(-46.567 -5.093)" fill="#fff"/>
      <path id="Trazado_422" data-name="Trazado 422" d="M0,180.4l.651.145c4.633,1.086,7.818,3.836,9.048,7.094l-1.3-6.153c-.217-.869-.869-1.086-1.665-1.086Z" transform="translate(0 -4.366)" fill="#fff"/>
      <path id="Trazado_423" data-name="Trazado 423" d="M0,180.4H0c4.633,1.086,8.469,3.909,9.7,7.166l-1.231-5.139a1.767,1.767,0,0,0-1.737-1.375Z" transform="translate(0 -4.366)" fill="#fff"/>
      <path id="Trazado_424" data-name="Trazado 424" d="M0,180.4H0c4.633,1.086,8.469,3.909,9.7,7.166l-.869-2.823a2.553,2.553,0,0,0-1.52-2.1Z" transform="translate(0 -4.366)" fill="#fff"/>
      <g id="Grupo_316" data-name="Grupo 316" transform="translate(4.705 177.482)">
        <path id="Trazado_425" data-name="Trazado 425" d="M60.976,203.639l-2.461-2.461-1.158,2.751-.29-1.81A10.493,10.493,0,0,0,52,196.4l3.257,11.582h3.909Z" transform="translate(-52 -196.4)" fill="#fff"/>
        <path id="Trazado_426" data-name="Trazado 426" d="M188.492,292.385l-3.113-3.185-.579,3.185Z" transform="translate(-172.784 -280.803)" fill="#fff"/>
        <path id="Trazado_427" data-name="Trazado 427" d="M254.3,274.8h0c.29.29.434.507.362.8,0,.869-1.158,1.3-2.172,1.3a7.868,7.868,0,0,1-3.475-.724l-.507-.217L248,278.926a11.738,11.738,0,0,0,4.126.724,7.167,7.167,0,0,0,5.284-1.81Z" transform="translate(-230.265 -267.706)" fill="#fff"/>
        <path id="Trazado_428" data-name="Trazado 428" d="M364,229.083h3.4l.724-2.172h4.633l.434,2.172h3.475l-1.231-5.284-4.343-4.2.217,1.158s.724,3.257.869,3.981h-3.04c.29-.724,1.448-3.836,1.448-3.836s.29-.8.507-1.3" transform="translate(-335.769 -217.501)" fill="#fff"/>
      </g>
    </g>
    <g id="Recurso_2feelfit-2" data-name="Recurso 2feelfit" transform="translate(75)">
      <g id="Capa_2-3" data-name="Capa 2" transform="translate(57 -127)">
        <path id="Trazado_429" data-name="Trazado 429" d="M9,0H60a9,9,0,0,1,9,9V26a9,9,0,0,1-9,9H9a9,9,0,0,1-9-9V9A9,9,0,0,1,9,0Z" transform="translate(-12 9)" fill="#00d0d2"/>
        <g id="american-express" transform="translate(-32.21 -141.171)">
          <path id="Trazado_342" data-name="Trazado 342" d="M36.793,167.308l-.832-2.054-.827,2.054m19.974-.818a1.109,1.109,0,0,1-.6.106H53.031v-1.144h1.5a1.232,1.232,0,0,1,.576.092.475.475,0,0,1,.255.456.528.528,0,0,1-.25.489m10.526.818-.84-2.054-.836,2.054Zm-19.622,2.223H44.767l0-4.035L43,169.531H41.934l-1.766-4.039v4.039H37.7l-.467-1.149H34.7l-.472,1.149H32.912l2.175-5.152h1.805l2.066,4.878v-4.878h1.982l1.59,3.495,1.46-3.495h2.023v5.152Zm4.963,0H46.917v-5.152h4.058v1.073H48.133v.929h2.775v1.056H48.133v1.028h2.843v1.066Zm5.721-3.764a1.45,1.45,0,0,1-.856,1.373,1.408,1.408,0,0,1,.6.435,1.493,1.493,0,0,1,.2.944v1.012H55.417l0-.65a1.565,1.565,0,0,0-.192-1c-.178-.181-.448-.221-.885-.221h-1.3v1.874H51.817v-5.152h2.794a2.823,2.823,0,0,1,1.471.247,1.206,1.206,0,0,1,.615,1.142m1.944,3.764H57.4V164.38h1.239Zm14.378,0H71.3l-2.3-3.867v3.867H66.521l-.472-1.149H63.525l-.459,1.149H61.645a2.531,2.531,0,0,1-1.761-.57,2.613,2.613,0,0,1-.649-1.967,2.76,2.76,0,0,1,.655-2.014,2.443,2.443,0,0,1,1.845-.6H62.91v1.1H61.759a1.159,1.159,0,0,0-.934.306,1.719,1.719,0,0,0-.349,1.167,1.8,1.8,0,0,0,.335,1.209,1.158,1.158,0,0,0,.846.266H62.2l1.712-4.051h1.82l2.056,4.873V164.38h1.85l2.135,3.588V164.38h1.244v5.151ZM32.9,170.543h2.075l.468-1.145h1.047l.467,1.145h4.084v-.875l.365.878h2.119l.364-.891v.888H54.035l-.005-1.879h.2c.138.005.178.018.178.248v1.63h5.249v-.437a4.113,4.113,0,0,0,1.949.437H63.81l.473-1.145H65.33l.462,1.145h4.255v-1.087l.645,1.087H74.1v-7.185H70.726v.849l-.472-.849H66.791v.849l-.433-.849H61.68a4.157,4.157,0,0,0-2.027.42v-.42H56.426v.42a1.981,1.981,0,0,0-1.372-.42H43.262l-.791,1.856-.812-1.856H37.944v.849l-.408-.849H34.368L32.9,166.774l-1.687,3.769Z" transform="translate(0 -3.187)" fill="#fff"/>
          <path id="Trazado_344" data-name="Trazado 344" d="M157.2,244.434v-3.3h-3.043a2.514,2.514,0,0,0-1.521.42v-.42h-3.327a2.279,2.279,0,0,0-1.451.42v-.42h-5.941v.42a3.131,3.131,0,0,0-1.638-.42h-3.919v.42a2.745,2.745,0,0,0-1.713-.42h-4.385l-1,1.1-.94-1.1h-6.551v7.184H128.2l1.034-1.117.974,1.117,3.962,0v-1.691h.389a4.076,4.076,0,0,0,1.692-.252v1.939h3.268v-1.873h.158c.2,0,.221.009.221.212v1.661h9.927a2.813,2.813,0,0,0,1.655-.46v.46h3.148a4.173,4.173,0,0,0,1.782-.331v-.008a2.6,2.6,0,0,0,.794-3.549Zm-22.592,1.15h-1.516v1.727h-2.362l-1.5-1.705-1.555,1.705h-4.814v-5.15h4.888l1.495,1.688,1.546-1.688h3.883c.964,0,2.047.271,2.047,1.7S135.672,245.584,134.61,245.584Zm7.313-.234a1.514,1.514,0,0,1,.2.94v1.021h-1.219v-.644a1.54,1.54,0,0,0-.2-1.008c-.178-.184-.448-.229-.892-.229h-1.3v1.881H137.3v-5.15H140.1a2.972,2.972,0,0,1,1.462.243,1.208,1.208,0,0,1,.625,1.143,1.442,1.442,0,0,1-.861,1.37A1.326,1.326,0,0,1,141.924,245.35Zm5-2.123h-2.846v.936h2.777v1.051h-2.777v1.025l2.846.005v1.068h-4.056v-5.15h4.056v1.065Zm3.095,4.084h-2.367v-1.1h2.358a.7.7,0,0,0,.5-.128.46.46,0,0,0,.144-.335.445.445,0,0,0-.149-.341.631.631,0,0,0-.433-.114c-1.137-.039-2.56.035-2.56-1.594a1.52,1.52,0,0,1,1.737-1.533h2.437v1.1h-2.229a.819.819,0,0,0-.487.093.435.435,0,0,0,.083.755,1.4,1.4,0,0,0,.473.058l.655.019a1.942,1.942,0,0,1,1.388.414,1.44,1.44,0,0,1,.363,1.09C151.923,246.794,151.24,247.312,150.014,247.312Zm6.255-.5a2.054,2.054,0,0,1-1.51.5h-2.347v-1.1h2.337a.681.681,0,0,0,.492-.128.454.454,0,0,0,.143-.335.426.426,0,0,0-.149-.341.609.609,0,0,0-.428-.114c-1.141-.039-2.565.035-2.565-1.594a1.525,1.525,0,0,1,1.744-1.533h2.374v1.1h-2.168a.838.838,0,0,0-.492.093.4.4,0,0,0-.178.37.388.388,0,0,0,.266.384,1.363,1.363,0,0,0,.468.058l.659.018a1.9,1.9,0,0,1,1.378.414.692.692,0,0,1,.114.127l-.042-.053a1.691,1.691,0,0,1-.1,2.145Zm-29.145-3.587,1.33,1.5-1.389,1.511h-2.988v-1.025h2.668v-1.051h-2.668v-.936Zm2.894,1.518,1.866-2.03v4.128Zm5.4-.887c0,.446-.291.68-.758.68h-1.57v-1.311h1.585C135.117,243.227,135.422,243.408,135.422,243.858Zm5.424-.075a.557.557,0,0,1-.252.494,1.15,1.15,0,0,1-.6.106h-1.477v-1.156h1.5a1.183,1.183,0,0,1,.58.093A.489.489,0,0,1,140.846,243.783Z" transform="translate(-80.375 -72.22)" fill="#fff"/>
        </g>
      </g>
    </g>
  </g>
</svg>
