<?xml version="1.0" encoding="UTF-8"?>
<svg width="45px" height="63px" viewBox="0 0 45 63" version="1.1" xmlns="http://www.w3.org/2000/svg" xmlns:xlink="http://www.w3.org/1999/xlink">
    <!-- Generator: Sketch 52.4 (67378) - http://www.bohemiancoding.com/sketch -->
    <title>Group 6</title>
    <desc>Created with Sketch.</desc>
    <defs>
        <filter x="-24.5%" y="-20.7%" width="149.0%" height="141.4%" filterUnits="objectBoundingBox" id="filter-1">
            <feOffset dx="0" dy="2" in="SourceAlpha" result="shadowOffsetOuter1"></feOffset>
            <feGaussianBlur stdDeviation="2" in="shadowOffsetOuter1" result="shadowBlurOuter1"></feGaussianBlur>
            <feColorMatrix values="0 0 0 0 0.503594541   0 0 0 0 0.597691893   0 0 0 0 0.834980867  0 0 0 0.271625906 0" type="matrix" in="shadowBlurOuter1" result="shadowMatrixOuter1"></feColorMatrix>
            <feMerge>
                <feMergeNode in="shadowMatrixOuter1"></feMergeNode>
                <feMergeNode in="SourceGraphic"></feMergeNode>
            </feMerge>
        </filter>
    </defs>
    <g id="Page-1" stroke="none" stroke-width="1" fill="none" fill-rule="evenodd">
        <g id="Home" transform="translate(-1355.000000, -1105.000000)">
            <g id="Group-6" filter="url(#filter-1)" transform="translate(1355.000000, 1107.000000)">
                <g id="whatsapp" transform="translate(4.000000, 0.000000)" fill="#20D6D9" fill-rule="nonzero">
                    <path d="M37,8.8725 C36.9792127,8.03121555 36.9174647,7.19161062 36.815,6.357 C36.6768633,5.62599195 36.4466589,4.91772225 36.1305,4.251 C35.799837,3.52775503 35.3557707,2.86850169 34.817,2.301 C34.2732659,1.73979847 33.6489207,1.27255207 32.967,0.9165 C32.3336274,0.58976636 31.6616849,0.35367846 30.969,0.2145 C30.1847213,0.0906739748 29.3938226,0.0190321863 28.601,0 L8.4175,0 C7.61935835,0.0219109815 6.82281007,0.0869966353 6.031,0.195 C5.33747954,0.340603503 4.66553136,0.583251458 4.033,0.9165 C3.34684452,1.2650367 2.72139904,1.73310657 2.183,2.301 C1.65057803,2.87412518 1.20729299,3.5322187 0.8695,4.251 C0.559521931,4.91860895 0.335541103,5.62687265 0.2035,6.357 C0.0860240273,7.18367219 0.0180561767,8.01732209 2.46469511e-15,8.853 C0,9.2235 0,9.75 0,9.906 L0,29.094 C0,29.3085 0,29.7765 0,30.1275 C0.0207873414,30.9687844 0.0825352694,31.8083894 0.185,32.643 C0.323136657,33.374008 0.553341127,34.0822778 0.8695,34.749 C1.20016302,35.472245 1.64422931,36.1314983 2.183,36.699 C2.72673414,37.2602015 3.35107928,37.7274479 4.033,38.0835 C4.6663726,38.4102336 5.33831508,38.6463215 6.031,38.7855 C6.81527874,38.909326 7.60617737,38.9809678 8.399,39 L28.5825,39 C29.3806417,38.978089 30.1771899,38.9130034 30.969,38.805 C31.6625205,38.6593965 32.3344686,38.4167485 32.967,38.0835 C33.6531555,37.7349633 34.278601,37.2668934 34.817,36.699 C35.349422,36.1258748 35.792707,35.4677813 36.1305,34.749 C36.4404781,34.081391 36.6644589,33.3731273 36.7965,32.643 C36.913976,31.8163278 36.9819438,30.9826779 37,30.147 C37,29.7765 37,29.3085 37,29.094 L37,9.906 C37,9.75 37,9.2235 37,8.8725 Z M18.9255,33.15 C16.7037629,33.1384476 14.5208961,32.5347235 12.58,31.395 L5.55,33.345 L7.4,26.091 C6.20696,23.9780814 5.56847364,21.5687445 5.55,19.11 C5.57056513,11.3953061 11.5078814,5.1518083 18.8269782,5.14834129 C26.1460749,5.14487428 32.0887127,11.3827446 32.1158562,19.0974159 C32.1429997,26.8120873 26.2444198,33.0962458 18.9255,33.15 Z M18.9255,7.5465 C14.9326616,7.59466164 11.2720668,9.89968634 9.33934839,13.5827639 C7.40663001,17.2658414 7.4996715,21.7593113 9.583,25.35 L9.842,25.7985 L8.732,30.069 L12.95,28.86 L13.357,29.1135 C15.039711,30.1582272 16.954135,30.7165146 18.907,30.732 C25.0373607,30.732 30.007,25.4937316 30.007,19.032 C30.007,12.5702684 25.0373607,7.332 18.907,7.332 L18.9255,7.5465 Z M25.4005,24.1605 C24.9104881,25.0220097 24.0970773,25.6243007 23.162,25.818 C22.4710974,25.9511089 21.759802,25.90425 21.09,25.6815 C20.4597952,25.4738233 19.8420128,25.2263764 19.24,24.9405 C16.952922,23.7308449 15.002463,21.9168249 13.579,19.6755 C12.8054843,18.6370785 12.3361479,17.3833719 12.2285,16.068 C12.2062227,14.9629679 12.629827,13.8998684 13.394,13.143 C13.6190827,12.8740095 13.9417472,12.7181276 14.282,12.714 L14.8,12.714 C15.0035,12.714 15.281,12.714 15.54,13.3185 C15.799,13.923 16.4835,15.7365 16.576,15.912 C16.6682197,16.101777 16.6682197,16.326723 16.576,16.5165 C16.4942178,16.7283986 16.3818954,16.9257217 16.243,17.1015 C16.0765,17.316 15.8915,17.5695 15.7435,17.7255 C15.5955,17.8815 15.4105,18.0765 15.5955,18.4275 C16.0988606,19.3229197 16.7219206,20.1372759 17.4455,20.8455 C18.2334614,21.5793964 19.1343708,22.1663063 20.1095,22.581 C20.4425,22.7565 20.646,22.737 20.831,22.581 C21.016,22.425 21.6635,21.567 21.8855,21.216 C22.1075,20.865 22.3295,20.9235 22.6255,21.0405 C22.9215,21.1575 24.568,21.996 24.901,22.1715 C25.234,22.347 25.4375,22.425 25.53,22.581 C25.6102328,23.0913589 25.5656617,23.6148541 25.4005,24.102 L25.4005,24.1605 Z" id="Shape"></path>
                </g>
                <text id="!Hola!" font-family="CircularStd-BookItalic, Circular Std" font-size="10" font-style="italic" font-weight="300" letter-spacing="1.400001" fill="#CCCCCC">
                    <tspan x="6.904997" y="55">!Hola!</tspan>
                </text>
            </g>
        </g>
    </g>
</svg>