<svg xmlns="http://www.w3.org/2000/svg" width="45" height="63"><title>Group 6</title><desc>Created with Sketch.</desc><defs><filter id="a" width="149%" height="141.4%" x="-24.5%" y="-20.7%" filterUnits="objectBoundingBox"><feOffset dy="2" in="SourceAlpha" result="shadowOffsetOuter1"/><feGaussianBlur stdDeviation="2" in="shadowOffsetOuter1" result="shadowBlurOuter1"/><feColorMatrix values="0 0 0 0 0.503594541 0 0 0 0 0.597691893 0 0 0 0 0.834980867 0 0 0 0.271625906 0" in="shadowBlurOuter1" result="shadowMatrixOuter1"/><feMerge><feMergeNode in="shadowMatrixOuter1"/><feMergeNode in="SourceGraphic"/></feMerge></filter></defs><g fill="none"><g><g filter="url(#a)" transform="translate(-1355 -1105) translate(1355 1107)"><g fill="#20D6D9" fill-rule="nonzero"><path d="M41 8.87c-.02-.84-.08-1.68-.2-2.5-.12-.74-.35-1.45-.67-2.12-.33-.72-.77-1.38-1.3-1.95-.56-.56-1.18-1.03-1.86-1.38-.64-.33-1.3-.57-2-.7C34.17.08 33.4 0 32.6 0H12.42c-.8.02-1.6.1-2.4.2-.68.14-1.35.38-2 .72-.67.35-1.3.8-1.84 1.38-.53.57-.97 1.23-1.3 1.95-.32.67-.54 1.38-.68 2.1-.1.83-.18 1.67-.2 2.5 0 .37 0 .9 0 1.06v19.2c0 .2 0 .68 0 1.03.02.84.08 1.68.18 2.5.14.74.37 1.45.7 2.12.32.72.76 1.38 1.3 1.95.55.56 1.17 1.03 1.85 1.38.64.33 1.3.57 2 .7.8.13 1.58.2 2.37.22h20.18c.8-.02 1.6-.1 2.4-.2.68-.14 1.35-.38 2-.72.67-.35 1.3-.8 1.84-1.38.53-.57.97-1.23 1.3-1.95.32-.67.54-1.38.68-2.1.1-.83.18-1.67.2-2.5 0-.37 0-.84 0-1.06V9.9c0-.15 0-.68 0-1.03zM22.93 33.15c-2.23 0-4.4-.62-6.35-1.75l-7.03 1.95 1.85-7.26c-1.2-2.12-1.83-4.53-1.85-7 .02-7.7 5.96-13.95 13.28-13.95 7.32 0 13.26 6.23 13.3 13.95 0 7.7-5.9 14-13.2 14.05zm0-25.6c-4 .04-7.66 2.35-9.6 6.03-1.92 3.7-1.83 8.18.25 11.77l.26.45-1.1 4.27 4.2-1.2.42.24c1.68 1.06 3.6 1.62 5.55 1.63 6.14 0 11.1-5.24 11.1-11.7 0-6.46-4.96-11.7-11.1-11.7l.03.22zm6.47 16.6c-.5.87-1.3 1.47-2.24 1.67-.7.13-1.4.08-2.07-.14-.64-.2-1.26-.45-1.86-.74-2.3-1.2-4.24-3.02-5.66-5.26-.77-1.04-1.24-2.3-1.35-3.6-.02-1.12.4-2.18 1.16-2.94.22-.27.54-.42.88-.43h.52c.2 0 .48 0 .74.62.26.6.94 2.42 1.04 2.6.1.18.1.4 0 .6-.1.2-.2.4-.34.58-.16.22-.35.47-.5.63-.14.15-.33.35-.14.7.5.9 1.12 1.7 1.85 2.42.78.73 1.68 1.32 2.66 1.73.34.18.55.16.73 0 .2-.15.83-1 1.06-1.36.2-.36.43-.3.73-.18s1.94.96 2.27 1.13c.33.18.54.25.63.4.08.52.04 1.04-.13 1.53v.06z"/></g><text fill="#ccc" font-family="CircularStd-BookItalic, Circular Std" font-size="10" font-style="italic" font-weight="300" letter-spacing="1.4"><tspan x="6.905" y="55">!Hola!</tspan></text></g></g></g></svg>