<svg xmlns="http://www.w3.org/2000/svg" width="43" height="46"><title>Shape</title><desc>Created with Sketch.</desc><g fill="none"><g fill="#FF7761" fill-rule="nonzero"><g><path d="M21.33 17.52h4.27v-6.57H32V6.57h-6.4V0h-4.27v6.57h-6.4v4.38h6.4v6.57zM12.8 37.24c-2.35 0-4.25 1.97-4.25 4.38 0 2.4 1.9 4.38 4.25 4.38 2.34 0 4.26-1.97 4.26-4.38 0-2.4-1.92-4.38-4.26-4.38zm21.33 0c-2.35 0-4.25 1.97-4.25 4.38 0 2.4 1.9 4.38 4.25 4.38 2.34 0 4.26-1.97 4.26-4.38 0-2.4-1.93-4.38-4.27-4.38zm-20.97-7.12l.06-.26 1.92-3.57h15.9c1.6 0 3-.9 3.73-2.27L43 8.67l-3.7-2.1h-.03l-2.35 4.38-5.9 10.95H16.07l-.28-.6L11 10.96 9 6.57l-2-4.38H0v4.37h4.27l7.67 16.63-2.88 5.36c-.34.62-.53 1.34-.53 2.1 0 2.42 1.92 4.4 4.27 4.4h25.6v-4.4H13.7c-.28 0-.54-.23-.54-.54z"/></g></g></g></svg>