<svg xmlns="http://www.w3.org/2000/svg" width="61" height="58"><title>Recurso 2</title><desc>Created with Sketch.</desc><g fill="none"><g fill="#00D0D2" fill-rule="nonzero"><g><path d="M60.18 20.66c-.74-1.08-1.92-1.73-3.18-1.73H20.97c-.06-.14-.1-.3-.16-.43-.7-1.8-1.4-3.68-2-5.55-1.43-4.47-4.45-8.1-9-10.8l-.1-.05C7.56 1.14 5.2.22 2.6.03 1.75-.04.93-.04.4.6-.12 1.2-.03 2.07.1 3c.38 2.25 1.2 4.34 2 6.28l.07.14c3.56 5.87 8.46 9.28 14.56 10.15.23.03.36.1.65.74 1.05 2.17 1.86 4.44 2.43 6.8.97 4 1.2 8.2.7 12.3 0 .03 0 .04-.02.06-.42 2.27-1.02 4.5-1.78 6.64-.55 1.6-1.2 3.17-1.95 4.67-.04.08-.08.16-.1.24v.02c-.48 1.03-.1 2.27.87 2.77.95.5 2.1.07 2.58-.95l.02-.06c.5-1.1.13-.38.5-1.2 1.02-2.2 1.85-4.48 2.48-6.84H52c2.5-.03 4.64-1.86 5.2-4.44l3.67-15.88c.3-1.3.06-2.7-.7-3.78zM14.7 15.1c-2.78-1.14-9.2-4.3-10.44-9.88-.04-.23.02-.48.2-.64.15-.17.38-.24.6-.18 6.64 1.7 9.48 7.18 10.48 9.78.1.26.04.55-.14.75-.18.2-.45.26-.7.16zm43.6 8.6L54.6 39.57c-.3 1.3-1.37 2.2-2.6 2.22H23.75c.03-.2.06-.36.1-.54.2-1.38.36-2.77.45-4.16h11.3c.48 0 1.36-.73 1.36-1.63 0-.9-.88-1.62-1.35-1.62H24.4c-.03-1.46-.13-2.9-.32-4.35H42c.52 0 1.45-.73 1.45-1.63 0-.9-.92-1.62-1.44-1.62H23.5c-.3-1.25-.68-2.48-1.15-3.67-.1-.22-.18-.44-.26-.67H57c.42 0 .82.23 1.06.6.25.33.33.78.23 1.2zM23.08 14.08c.03.8.14 1.6.32 2.37.14.55.32 1.24.78 1.47l.04.02c.46.2.9-.14 1.34-.53 1.87-1.66 3.16-3.86 3.82-6.53.77-2.63.82-5.42.16-8.27-.16-.66-.34-1.32-.82-1.54-.47-.2-.93.16-1.36.56-3.23 3.05-4.68 7.14-4.3 12.16l.02.3zm4.37-9.4c.1-.12.24-.17.37-.1.13.05.22.2.23.4.07 1.76-.12 3.32-.54 4.67v.05c-.5 1.86-1.18 3.45-1.96 4.62-.1.14-.23.2-.36.13-.14-.07-.23-.23-.23-.4-.15-3.6.68-6.68 2.5-9.36zM17 23.54c.05-.7-.45-1.23-1-1.72-3.9-3.4-10.62-3.78-14.95-.82-.25.17-1 .68-1.05 1.5-.04.83.65 1.4.88 1.57 2.02 1.67 4.55 2.7 7.2 2.92h.06c2.84.1 5.4-.54 7.62-1.94.6-.38 1.18-.83 1.24-1.52zm-4.4.04c-1.4.32-2.83.44-4.25.35-1.4-.08-2.76-.37-4.05-.86-.16-.06-.26-.2-.25-.36 0-.16.14-.3.3-.32 2.75-.67 5.65-.5 8.28.5.16.07.26.22.25.38 0 .15-.13.3-.3.32zM49.5 47c-.25 0-.5.02-.75.05h-18.5c-.25-.03-.5-.05-.76-.05-2.46 0-4.6 1.63-5.3 4-.66 2.35.3 4.87 2.4 6.17 2.06 1.3 4.75 1.06 6.57-.6 1.82-1.63 2.33-4.28 1.26-6.48h10.15c-1.07 2.2-.56 4.84 1.26 6.48 1.82 1.63 4.5 1.87 6.58.57 2.08-1.3 3.04-3.82 2.37-6.17-.7-2.36-2.84-3.98-5.3-3.98zm-20 7.5c-1.1 0-2-.9-2-2s.9-2 2-2 2 .9 2 2c-.02 1.1-.9 2-2 2zm20 0c-1.1 0-2-.9-2-2s.9-2 2-2 2 .9 2 2-.9 2-2 2z"/></g></g></g></svg>