<svg xmlns="http://www.w3.org/2000/svg" width="460" height="191"><title>b</title><desc>Created with Sketch.</desc><g fill="none"><g><g><path id="Path" fill="#E3F2FF" d="M39.78 67.45c23.85-10.7 53.05-12.5 77-22.62C159.68 26.7 176.6-26.8 224.7-33.65c60.55-8.62 119.8 25.32 156.7 65.18 35.2 38.04 65.13 100.97 35.57 148.7-22.48 36.3-74.36 48-116.5 56.32-56.64 11.22-117.27 10.05-172.78-5.43-46.06-12.83-88.94-35.5-113.92-73.55-15.22-23.22-15.56-58.47 7-78.2 5.47-4.76 11.9-8.78 19-11.92z"/><path id="Path" fill="#A6C3FF" d="M460 191.17c0 2.88-161.95 4.53-257.16 4.53-70.1 0-173.4 1.4-205.84-1.9-11.6-1.18 14.25-7.76 14.25-8.52 0-2.88 96.37 0 191.6 0 95.2 0 257.15 3 257.15 5.9z"/><path id="Rectangle" fill="#36B1BA" d="M98.3 49.16l9.04-11.7 64.13 48.32-9.05 11.7z"/><path id="Rectangle" fill="#30AEB7" d="M73.8 12.2l33.57 25.3-9.06 11.68-33.56-25.3z"/><path id="Rectangle" fill="#723891" d="M64.74 23.87l97.7 73.62-38.25 49.42-97.7-73.6z"/><path id="Rectangle" fill="#5A2C73" d="M64.74 23.9L98.3 49.2 60.06 98.62l-33.57-25.3z"/><path id="Rectangle" fill="#D93F7A" d="M73.8 12.2l33.57 25.3-9.06 11.68-33.56-25.3z"/><path id="Rectangle" fill="#FF4A90" d="M106.66 37.22l63.77 48.54-9.1 11.64-63.76-48.55z"/><path id="Path" fill="#D4E2FF" transform="translate(-6 -35)"/><path id="Path" fill="#27D8DB" d="M51.24 41c.37-.03.74.07 1.02.3l64.87 50.02 23-29.65c.9-1.14 3.02.67 2.23 1.7l-23.02 29.66 30.13 22.9c.3.23.48.56.52.94.06.56-.22 1.1-.7 1.4-.5.26-1.12.22-1.56-.14l-30.13-22.9-22.45 29.24c-.4.5-1.06.66-1.63.42-.13-.06-.25-.13-.36-.2-.1-.12-.2-.24-.3-.37-.3-.5-.26-1.14.1-1.6L115.4 93.5l-64.88-50c-.12-.1-.23-.23-.3-.36-.32-.5-.28-1.14.08-1.6.23-.3.57-.5.94-.53z"/><path id="Path" fill="#D4E2FF" transform="translate(-6 -35)"/><path fill="#00C7E6" fill-rule="nonzero" d="M137.73 50.57c.54-.07 1-.43 1.18-.94.2-.5.08-1.08-.3-1.48-.35-.4-.9-.56-1.44-.42-2.35.47-4.76.53-7.13.2 2.6-.76 3.75-2.37 3.46-4.82-.1-1.23-.7-2.36-1.72-3.08-1.06-.7-2.6-.92-4.7-.7-2.06.37-4.05 1.1-5.87 2.18.63-2.02.88-4.13.75-6.23-.26-2.1-.84-3.53-1.84-4.4-2-1.53-4.88-1.2-6.48.78-.64 1.18-.87 2.54-.67 3.86-1.1-2.26-1.8-4.7-2.07-7.2-.3-.26-1.2-1.34-1.6-1.3-.37.04-.72.23-.96.52-.24.3-.35.7-.3 1.07.65 6.12 3.55 11.8 8.13 15.93l3.4 2.6c5.42 3.38 11.9 4.6 18.18 3.44zm-19.56-8.9c-1.12-1.74-1.9-3.66-2.32-5.68-.22-1.85.1-2.53.22-2.76.14-.23.24-.35 1.04-.45.8-.1 1.02.1 1.12.18.1.1.65.83.86 2.6.1 2.07-.22 4.13-.9 6.08zm9.66 3.77c-2.05.07-4.1-.24-6.02-.92 1.73-1.1 3.64-1.9 5.64-2.3.85-.18 1.7-.14 2.54.1l.2.1c.12.1.35.25.45 1.04.1.8.2 1.6-2.8 1.98z"/><path id="Path" fill="#FFB8BC" d="M171.57 87.12c-.2-.34-.36-.72-.46-1.1-.23-1.02-.08-2.1.45-3 .53-.9 1.38-1.53 2.37-1.78 16.55-4.25 27.45-21.22 33.5-37.57.76-2.04 6.1 1.13 8.1 1.9.95.37 1.72 1.1 2.14 2.06.42.95.45 2.04.1 3C210.6 69.6 195 83.82 175.8 88.88c-1.62.44-3.34-.27-4.23-1.75z"/><path id="Path" fill="#009DB5" d="M209.26 69c3.55-4.66 9.18-14.25 9.72-21.93.15-2-.62-4.5-2.42-5.63-2.28-1.44-6.77 1.03-8.78 2.27-3.47 2.15-3.77 9.8-9.78 17.75 4.08 2.76 7.26 5.7 11.26 7.55z"/><path id="Rectangle" fill="#FFB8BC" d="M214.38 169.42l6.8-.44 1.04 15.63-6.8.45z"/><path id="Path" fill="#723891" d="M222.2 183c-2.38-.1-8.22.5-8.22.5s-6.88 3.1-7.87 5.4c-.6 1.47 1.63 2.26 2.84 2.07l14.06-2.75-.8-5.2z"/><path id="Path" fill="#FFB8BC" d="M222 182.47s-5.07 3-8 .6l1.18-.7s3.93-3.48 6.27-3.37l.55 3.47z"/><path id="Rectangle" fill="#FFB8BC" d="M251.6 165.75l6.03-3.16 7.44 13.82-6.03 3.16z"/><path id="Path" fill="#723891" d="M265.24 176c-2.18.88-7.23 3.84-7.24 3.84 0 0-5 5.56-5 8 0 1.55 2.34 1.3 3.36.65l11.64-8.27-2.76-4.23z"/><path id="Path" fill="#FFB8BC" d="M265 174.58s-4.15 4.92-8 4.38l.96-1.15s2.8-4.75 5.26-5.8l1.78 2.58z"/><path id="Path" fill="#723891" d="M253.18 174c-1-1.88-33.18-47-29.95-93h19.05c-3 41.9 20.5 87.68 20.72 88.1l-9.82 4.9zM212.46 179c-4.5-31.97-6.65-64.2-6.45-96.48L225 81c-.56 50.2-.72 96.84-.68 97.26l-11.86.74z"/><path id="Path" fill="#27D8DB" d="M244 92h-39V51.76c0-9.1 8.24-12.56 16.12-12.73 9.16-.22 22.88.64 22.88 12.73V92z"/><path id="Path" fill="#009DB5" d="M222.5 45c2.48 0 4.5-2.47 4.5-5.5 0-.1 0-.17 0-.25-2.3-.23-4.6-.3-6.9-.2-.7 0-1.4.06-2.1.14 0 .1 0 .2 0 .3 0 3.02 2 5.48 4.5 5.5z"/><path id="Path" fill="#FF808C" d="M222 27.3l-4.72-.3c-1.2-.04-2.2.94-2.28 2.2-.07 1.28.83 2.37 2 2.48l5 .32v-4.7z"/><path id="Path" fill="#FFB8BC" d="M222 31.7l4.68.3c1.2.07 2.24-.9 2.32-2.2.07-1.3-.85-2.4-2.06-2.48L222 27v4.7zM223.96 42c-.82-.04-1.6-.36-2.15-.92-.54-.56-.83-1.3-.8-2.05l.32-6.5L228 31l-.8 8.28c-.02.76-.38 1.47-1 1.98-.6.5-1.4.78-2.24.74z"/><path id="Path" fill="#FF808C" d="M226.24 31l-4.8.2L221 39c3.1-.1 5.65-2.2 6-4.98-.15-1.02-.4-2.04-.76-3.02z"/><path id="Path" fill="#FFB8BC" d="M220.9 36c-3.45-.2-6.08-3-5.9-6.25l.47-7.2c.22-3.24 3.17-5.7 6.62-5.54 3.45.2 6.08 3 5.9 6.25l-.47 7.2c-.2 3.24-3.17 5.7-6.62 5.54z"/><path id="Path" fill="#723891" d="M229.1 26.07c.9-2.3 1.53-5.22-.16-7.36-1.47-1.87-3.5-3.2-5.9-2.52-1.18.36-2.4.54-3.6.56-1.17 0-2.47-.5-3.5.3-1.36 1.04-1.07 3.3-.23 4.54 1.3 1.93 4.15 2.53 6.22 1.93 1.13-.32 2.4-.9 3.13.44.32.86.5 1.77.57 2.68.53 2.52 2.8 1.13 3.47-.55z"/><path id="Path" fill="#FFB8BC" d="M197.74 87.4c-.24-.32-.42-.67-.55-1.04-.67-2 .44-4.17 2.48-4.83 16.46-5.27 26.27-22.53 31.2-38.8.62-2 6.27.67 8.32 1.27 1 .3 1.84.96 2.33 1.85.5.9.6 1.95.3 2.93-5.87 18.84-20.65 33.74-39.7 40.03-1.63.53-3.4-.04-4.4-1.4z"/><path id="Path" fill="#27D8DB" d="M233.47 67c3.22-4.93 8.55-12.58 8.53-20.3 0-2.03-8.78-5.8-10.72-4.4-3.33 2.4-9.28 19.2-9.28 19.2 4.87 2.4 7.3 3.95 11.47 5.5z"/><path id="Rectangle" fill="#FFB8BC" d="M310.7 164.64l6.02-3.16 7.45 13.83-6.03 3.17z"/><path id="Path" fill="#723891" d="M323.24 175c-2.17.88-7.23 3.84-7.24 3.84 0 0-5 5.56-5 8 0 1.55 2.34 1.3 3.36.65l11.64-8.27-2.76-4.23z"/><path id="Path" fill="#FFB8BC" d="M324 173.58s-4.14 4.92-8 4.38l.96-1.15s2.8-4.76 5.26-5.8l1.78 2.58z"/><path id="Rectangle" fill="#723891" d="M271 68h19v14h-19z"/><path fill="#FFB8BC" d="M273.48 168.3l6.82-.43 1.03 15.63-6.82.44z"/><path id="Path" fill="#723891" d="M281.2 182c-2.38-.1-8.22.5-8.22.5s-6.87 3.1-7.87 5.4c-.6 1.47 1.63 2.26 2.84 2.07l14.06-2.75-.8-5.2z"/><path id="Path" fill="#FFB8BC" d="M282 181.47s-5.07 3-8 .6l1.18-.7s3.93-3.5 6.27-3.37l.55 3.47z"/><path id="Path" fill="#723891" d="M273.32 178c-.08-.88-9.32-61.88-5.3-113L284 80.22c-2.22 50.8-2.26 96.84-2.22 97.27l-8.46.5z"/><path id="Path" fill="#FFB8BC" d="M228.37 79.77c-.18-.36-.3-.74-.34-1.13-.13-1.02.15-2.05.78-2.86.65-.8 1.6-1.34 2.63-1.47 17.35-2.24 30.4-17.53 38.4-32.76 1-1.9 6.1 1.77 8.03 2.78.93.46 1.63 1.27 1.95 2.25.33.98.24 2.04-.24 2.95-9.43 17.62-26.97 29.7-47.1 32.45-1.7.22-3.37-.67-4.1-2.2z"/><path id="Path" fill="#D93F7A" d="M267.04 66c3.94-4.2 10.47-13 11.84-20.5.37-1.98-.1-4.53-1.73-5.84-2.06-1.67-6.67.25-8.76 1.24-3.6 1.7-4.75 9.28-11.4 16.38 3.62 3.18 6.37 6.46 10.04 8.72z"/><path id="Path" fill="#723891" d="M303.28 96.37c4.63-11.3.53-24-9.73-26.37l-10.33 10.38c-3.26 46.16 30.3 90.73 31.3 92.62l7.48-3.73c-.2-.38-16.3-35.98-18.72-72.9z"/><path id="Path" fill="#FF4A90" d="M299.48 73h-31.83S265 50.57 265 50.54c0-8.92 8.24-12.34 16.12-12.52 9.16-.2 22.88.64 22.88 12.52L299.48 73zM281.96 62h-12.24c-2.13 0-4.13-.96-5.4-2.58-1.27-1.62-1.65-3.72-1.03-5.65l2.2-6.77 16.5 2.48-.04 12.52z"/><path id="Path" fill="#D93F7A" d="M284.46 42c1.2 0 2.35-.57 3.2-1.6.86-1.03 1.34-2.44 1.34-3.9 0-.1 0-.17 0-.25-2.3-.23-4.6-.3-6.9-.22-.7 0-1.4.08-2.1.17 0 .1 0 .2 0 .3 0 3 2 5.47 4.46 5.5z"/><path id="Path" fill="#723891" d="M290.46 17.95c.4-.58.7-1.2.94-1.87.23-.67.63-1.27 1.16-1.73.56-.45 1.34-.47 1.92-.05.23.24.43.52.6.8.7.86 1.74 1.34 2.84 1.33 1.08-.02 2.16-.15 3.2-.4 1.07-.25 2.17-.25 3.23 0 .43.13.82.37 1.12.7.3.34.4.8.3 1.25-.17.44-.6.75-.76 1.2-.14.43-.07.92.2 1.3.26.38.6.7 1 .94 1 .55 1.96 1.2 2.85 1.93.9.77 1.2 2.04.74 3.13-.42.6-1.04 1.04-1.75 1.2-2.5.78-5.2 0-7.6-1.1-2.4-1.1-4.7-2.45-7.27-2.9-.77-.06-1.52-.25-2.23-.56-.7-.43-1.25-1.1-1.52-1.87-.34-.68-.48-1.44-.4-2.2.16-.45 1.08-.62 1.43-1.1z"/><path id="Path" fill="#00C7E6" d="M292.66 18.25c1.15 1.32 1.6 3.05 1.2 4.7-.17 1.15-1.25 2.03-2.53 2.05-.78-.1-1.47-.53-1.88-1.14-.42-.62-.73-1.3-.93-2-.4-1.13-.94-3.16 0-4.25.93-1.08 2.86-.55 3.85.36.1.1.2.2.3.3z"/><path id="Path" fill="#723891" d="M289.28 18.48c-1.58-2.1-4.08-3.38-6.78-3.48l-.5.77c.52 3.76 1.07 7.63 2.82 11.02.4.98 1.2 1.77 2.23 2.15.95.18 1.9-.15 2.53-.84.6-.68 1.03-1.5 1.2-2.38.57-2.5.03-5.13-1.5-7.24z"/><path id="Path" fill="#FF808C" d="M282 24.3l-4.68-.3c-1.2-.07-2.24.9-2.32 2.2-.07 1.3.85 2.4 2.06 2.48L282 29v-4.7z"/><path id="Path" fill="#FFB8BC" d="M283 28.7l4.65.3c.78.06 1.54-.33 1.98-1.04.44-.7.5-1.6.13-2.37-.36-.77-1.07-1.26-1.86-1.28L283 24v4.7zM283.96 40c-.82-.03-1.6-.37-2.15-.92-.54-.56-.83-1.3-.8-2.05l.32-6.5L288 29l-.85 8.3c-.08 1.54-1.5 2.75-3.2 2.7z"/><path id="Path" fill="#FF808C" d="M286.25 28l-4.8.2L281 36c3.1-.08 5.64-2.2 6-4.97-.15-1.03-.4-2.04-.75-3.03z"/><path id="Path" fill="#FFB8BC" d="M280.9 35c-3.46-.2-6.1-3-5.9-6.26l.47-7.2c.22-3.24 3.18-5.7 6.63-5.53 3.45.22 6.08 3 5.9 6.26l-.47 7.2c-.22 3.24-3.18 5.7-6.63 5.53z"/><path id="Path" fill="#723891" d="M275.4 17.77C273 21.5 282 29.27 287.7 24.5c5.4-4.5-7.4-14.28-12.3-6.73z"/><path id="Path" fill="#A6C3FF" d="M154.46 158.15c-.2-.5-.63-.88-1.15-1.05-.5-.17-1.08-.12-1.55.16-1.1.6-2.1.78-1.7 1.97.94 2.9 4.1 13.8 4.1 13.8l-78.1-.1c-1.15.06-2.05 1-2.05 2.14 0 1.14.9 2.1 2.05 2.16v9.9c0 .84.67 1.5 1.5 1.5.85 0 1.53-.66 1.53-1.5v-9.86h12.04v10.23c0 .83.68 1.5 1.52 1.5s1.5-.67 1.5-1.5v-10.2H127v9.82c0 .83.67 1.5 1.5 1.5.84 0 1.52-.67 1.52-1.5v-9.82h12.5v9.82c0 .83.68 1.5 1.52 1.5s1.52-.67 1.52-1.5v-9.82h12.4c.5 0 .98-.2 1.36-.53.45-.42.7-1 .68-1.63 0-.6-4.25-12.8-5.54-17z"/><path id="Path" fill="#723891" d="M77.5 191c2.57-.1 4.57-2.33 4.5-5 .08-2.67-1.93-4.9-4.5-5-2.57.1-4.58 2.33-4.5 5-.08 2.67 1.93 4.9 4.5 5zM128.5 191c2.57-.1 4.57-2.33 4.5-5 .08-2.67-1.93-4.9-4.5-5-2.57.1-4.58 2.33-4.5 5-.07 2.67 1.93 4.9 4.5 5zM92.5 191c2.57-.1 4.58-2.33 4.5-5 .08-2.67-1.93-4.9-4.5-5-2.57.1-4.58 2.33-4.5 5-.07 2.67 1.93 4.9 4.5 5zM142.5 191c2.57-.1 4.58-2.33 4.5-5 .08-2.67-1.93-4.9-4.5-5-2.57.1-4.58 2.33-4.5 5-.07 2.67 1.93 4.9 4.5 5z"/><path id="Path" fill="#D4E2FF" d="M154.33 158c.6-.02 1.1-.43 1.23-1l16.93-64.2c.12-.57.63-.98 1.2-1 2 0 2.34-.06 4.03-.07.35-.02.7-.17.92-.43.24-.26.37-.6.35-.95 0-.35-.12-.68-.37-.94-.24-.24-.57-.4-.92-.4l-4.42.08c-1.9 0-2.55.64-3 1.9l-17.23 65.3c-.2.7.2 1.44.9 1.68.1.03.24.05.38.04zM72.56 158.2c-.32-.27-.5-.66-.5-1.08l-.06-49.5c0-.36.13-.7.38-.97.22-.26.55-.4.9-.4L168.6 99c.78 0 1.4.62 1.4 1.38 0 .76-.62 1.38-1.4 1.38l-94 7.23v47.24h78.9c.76 0 1.38.62 1.38 1.38 0 .76-.62 1.38-1.38 1.38H73.85c-.54-.02-1.03-.32-1.3-.8z"/><path id="Path" fill="#723891" d="M178.4 93h19.2c1.37-.06 2.44-1.4 2.4-3 .04-1.6-1.03-2.94-2.4-3h-19.2c-.67.02-1.28.35-1.73.92-.45.56-.7 1.3-.67 2.08-.02.77.22 1.52.67 2.08.45.57 1.06.9 1.72.92z"/><path id="Path" fill="#D4E2FF" d="M90.5 158c.27 0 .5-.25.5-.57V106.6c0-.33-.22-.6-.5-.6s-.5.27-.5.6v50.82c0 .15.05.3.15.42.1.1.22.16.35.16zM105.5 158c.27 0 .5-.26.5-.58V105.6c0-.33-.22-.6-.5-.6s-.5.27-.5.6v51.82c0 .16.06.3.15.4.1.12.22.18.35.18zM120.5 158c.27 0 .5-.26.5-.58V105.6c0-.33-.22-.6-.5-.6s-.5.27-.5.6v51.82c0 .16.06.3.15.4.1.12.22.18.35.18zM152.5 158c.28 0 .5-.3.5-.63V101.6c0-.33-.22-.6-.5-.6s-.5.27-.5.6v55.77c0 .17.05.32.14.44.1.13.22.2.36.2zM136.5 159c.27 0 .5-.28.5-.6v-54.8c0-.33-.22-.6-.5-.6s-.5.27-.5.6v54.8c0 .34.23.6.5.6zM73.6 117h90.8c.34 0 .6-.24.6-.5 0-.13-.06-.26-.17-.35-.1-.1-.27-.15-.44-.15H73.6c-.16 0-.32.06-.43.15-.1.1-.17.22-.17.35 0 .26.26.5.6.5zM72.6 135h86.8c.16 0 .32-.06.43-.15.1-.1.17-.22.17-.35 0-.26-.26-.5-.6-.5H72.6c-.34 0-.6.24-.6.5 0 .13.06.26.17.35.1.1.27.15.44.15z"/><path id="Path" fill="#27D8DB" d="M341 144.13L334.7 101v.14-.14l-31.22 1.5L302 146z"/><path id="Path" fill="#009DB5" d="M323.26 104.57c-.2 0-.4-.05-.56-.17-.15-.12-.25-.3-.26-.47l-.16-3.03c0-1.38-.9-2.65-2.3-3.3-1.43-.64-3.15-.57-4.48.2-1.34.76-2.08 2.1-1.93 3.46l.17 3.04c0 .18-.06.35-.2.48s-.33.2-.54.22c-.2 0-.4-.05-.56-.17-.15-.12-.25-.3-.26-.46l-.17-3.05c-.15-2.8 2.37-5.18 5.63-5.3 3.26-.15 6.03 2 6.2 4.8l.17 3.05c0 .17-.06.35-.2.48s-.33.2-.54.22z"/><path id="Path" fill="#FFB8BC" d="M318.42 97.93c-.4.07-.82.1-1.23.05-2.2-.25-3.77-2.17-3.5-4.3 2.04-17-10.1-33.12-23.37-44.44-1.65-1.4 3.32-5.3 4.77-6.94 1.47-1.6 4-1.74 5.65-.33 15.33 13.24 23.1 32.82 20.87 52.58-.18 1.68-1.48 3.05-3.2 3.38z"/><path id="Path" fill="#FF4A90" d="M314 55.5c-3.2-5.1-8.73-12.5-15.94-15.8-1.9-.9-4.6-1.04-6.33.27-2.23 1.68-1.84 5.87-1.36 8.22.8 4.1 5.28 7 8.13 9.82.55.56 5.78 6.98 5.78 6.98l9.72-9.5z"/><path fill="#00C7E6" d="M39.83 16c-.18 0-.36-.05-.53-.13L26.62 9.2c-.27-.14-.47-.4-.57-.68-.1-.3-.06-.6.08-.88s.4-.5.68-.6c.3-.08.63-.05.9.1l12.7 6.67c.46.26.7.8.57 1.32-.13.5-.6.88-1.1.88h-.04zM105.28 1c-.28 0-.55-.08-.77-.24-.55-.4-.67-1.13-.25-1.66l9.38-11.55c.26-.38.73-.6 1.2-.54.5.05.9.34 1.08.75.2.42.1.9-.22 1.22L106.3.53c-.24.3-.62.47-1.02.47z"/></g></g></g></svg>