<svg xmlns="http://www.w3.org/2000/svg" width="766" height="565"><title>Recurso 18</title><desc>Created with Sketch.</desc><defs><linearGradient id="a" x1="104.805%" x2="13.345%" y1=".931%" y2="80.51%"><stop stop-color="#fff" offset="0%"/><stop stop-color="#fff" stop-opacity="0" offset="100%"/></linearGradient><linearGradient id="b" x1="92.302%" x2="20.1%" y1="-33.922%" y2="94.551%"><stop stop-color="#fff" offset="0%"/><stop stop-color="#fff" stop-opacity="0" offset="100%"/></linearGradient><linearGradient id="c" x1="115.024%" x2="16.087%" y1="-3.381%" y2="81.397%"><stop stop-color="#fff" offset="0%"/><stop stop-color="#fff" stop-opacity="0" offset="100%"/></linearGradient></defs><g fill="none"><g><g><path id="Path" fill="#00D0D2" d="M556.1 1.82C485.24-7.22 414.87 17.88 364.6 67.3c-17.26 16.96-46.56 31.54-96.08 34.7-132.1 8.45-333.67 58.3-247.98 173.26 85.68 114.97 241.34 111.2 186.08 157.28C151.37 478.6 2.6 468.96 68.56 527.5c65.97 58.54 622.92 9.47 631.03 5.1 17.34-9.38 150.83-33.48-18.26-194.64-109.9-104.77-70.44-144.86-29.37-160.08 40.88-15.17 61.35-60.26 43.42-99.18C679.95 45.28 642 12.78 556.1 1.82z" opacity=".36"/><path id="Path" fill="#fff" d="M628 222s32.78 25.05 1.42 79L628 222z"/><path id="Path" fill="#FFD286" d="M631 200.8V393l-203-48.4V141z"/><path id="Path" fill="#F4BD6C" d="M427 141l-141 76.8V407l141-62.6z"/><path id="Path" fill="#DDA254" d="M286 408.33L461.35 448 631 394.16 427.14 346z"/><path id="Path" fill="#fff" d="M326.95 297.76s.7 15.25 13.54 14.2c12.83-1.08 33.5-58.88 33.5-97.2 0-38.3-12.48-48.58-39.93-41.84C306.62 179.66 179 267.97 179 267.97s9.98 22.7 46 18.1c0 0 10.33 22.68 46.33 15.94 0 0 14.96 14.07 30.66 8.17 10.07-3.8 24.95-12.4 24.95-12.4z"/><path id="Path" fill="#B1C2B3" d="M225 286.84L286 252l-58.28 39c-1.07-1.28-1.98-2.67-2.72-4.16zM272 301.96L312 277l-37.62 27zM327 298.17c4.7-2.8 9.08-6.23 13-10.17 0 0-3.22 7.12-12.58 13l-.42-2.83z"/><path id="Path" fill="#FFFAD7" d="M516.3 168v198.4L366 425.96l39.74 9.03L563 377.47V181.7z"/><path id="Path" stroke="#A73E5C" stroke-width="1.42" d="M441 310l12 3M460 314l7 2M473 317l27 6M505 324.24l2 .52M441 318l23 5M470 324.1l4 .8M482 327l25 5M441 325l17 4M468 331l8 2M482 334.23l3 .54M490 336l17 4M441 333l50 11M495 346l12 3" stroke-linecap="round" stroke-linejoin="round"/><path id="Path" fill="#A73E5C" d="M588 203l-7 9.78 4.23 1.2v15.44l5.55 1.58v-15.44l4.22 1.2zM606 208l-7 9.8 4.23 1.18v15.45l5.54 1.57v-15.43l4.23 1.2zM609 241l-23-6.38V231l23 6.38z"/><path id="Path" stroke="#A73E5C" d="M618 249l-41-11.5V196l41 11.5z"/><path id="Path" fill="#E2D69F" d="M366 425.92L516.3 366l46.7 11.14L405.74 435z"/><path id="Path" fill="#231F20" d="M622 393.78L427.18 349 295 408s119.52-36.7 170.1-35.3c50.6 1.38 108.23 18.47 116.43 31.75L622 393.78zM340 313.06s-12.43 2.75-13.26-14.06c0 0-14.95 10.6-26.53 13.28-11.58 2.67-12.2-.55-12.2-.55v13.72s12.43 4.3 34.4-11.14c0-.04 5.17 6.98 17.6-1.24zM335 314.35s-10 1.32-10.36-12.35c0 0-19.02 15.95-35.64 13.05v4.55c12.2 1.78 24.5-2.45 33.3-11.47 0 0 1.8 10.5 12.7 6.22z" style="mix-blend-mode:soft-light"/><path id="Path" fill="#fff" d="M432 147l196 57.28V313s-76.82-110-196-138v-28z" opacity=".5" style="mix-blend-mode:soft-light"/><path id="Path" fill="#231F20" d="M421 343.14V150l-47 27s23.76-2.53 30.7 64.3c6.97 66.8 7 105.7 7 105.7l9.3-3.86z" style="mix-blend-mode:soft-light"/><path id="Path" fill="#E9F2D7" d="M283 250l-59.44 33.63s-28.23 4.07-40.56-14.7l18.94-12.4s-3.4 13.3 11.8 16.13C228.9 275.5 283 250 283 250zM234 290.52s16 15.6 37.8 8.73L311 274s-39.55 26.72-64.4 7.97l-12.6 8.55zM279 304.36s9.28 6.64 19.03 4.04c9.76-2.6 30.5-12.77 42.97-23.4 0 0-31.2 18.9-48.98 10.86l-13.02 8.5zM342.58 288.83s-6.9 9.58-12.58 11.7c0 0 1.84 9.75 10.8 8.33 8.98-1.43 26.6-46.26 29.2-72.86 0 0-13.45 50.7-23.23 58.5-9.8 7.8-4.2-5.67-4.2-5.67z"/><path id="Path" fill="#E9F2D7" d="M233 291.12L287 255l-48.66 40c-2.1-.78-3.96-2.13-5.34-3.88zM314 281l-35 23.02 3.5 1.98zM343 290s-7.42 10.54-12 12.03c0 0-.15 1.58 2.06 4.97 0 0 9.6-7.08 9.94-17z" style="mix-blend-mode:multiply"/><path id="Path" fill="#E9F2D7" d="M633 243v47s8.2-15.78 8-30.8c0 0-6.17-.46-8-16.2z"/><path id="Path" fill="#E9F2D7" d="M635 262v21c1.62-4.56 2.95-9.25 4-14.03 0 0-2.74-1.73-4-6.97z" style="mix-blend-mode:multiply"/><path id="Path" fill="url(#a)" d="M289.34 195L75 332.26V450l271.12-141.93S368.35 199.73 289.34 195z" style="mix-blend-mode:overlay" transform="translate(-141 -300) translate(141 300)"/><path id="Path" fill="url(#b)" d="M462 446.97L286.6 407 74.82 507.16 62 589z" style="mix-blend-mode:overlay" transform="translate(-141 -300) translate(141 300)"/><path id="Path" fill="url(#c)" d="M286 314v93.4L88 501l3.9-87.8z" style="mix-blend-mode:overlay" transform="translate(-141 -300) translate(141 300)"/><path fill="#F1F2F2" d="M168 202.1h-12.64s-5.7-14.75-19.96-12.95c-14.25 1.8-11.4 17.8-11.4 17.8s-11.57-2.16-13.53 11.12c0 0-12.67.66-12.84 16.14L85 247l83-44.9z"/><path fill="#fff" fill-rule="nonzero" d="M406.33 172.36c-.43-.36-1-.5-1.56-.38l-15.88 3.54-.12-.15c-.47-.68-.96-1.36-1.4-2.07-1.15-1.76-2.92-3.02-4.97-3.53-1.1-.23-2.23-.28-3.35-.14-.38.05-.9.8-.92.44-.27-2.76-.06.65.1 1 .38.86.87 1.65 1.46 2.38 1.9 1.97 4.6 2.96 7.34 2.7.1 0 .17 0 .36.25.67.78 1.24 1.62 1.7 2.53.8 1.54 1.3 3.23 1.45 4.95.02.97-.04 1.93-.17 2.9-.1.7-.23 1.4-.4 2.08v.1c-.02.07-.02.12 0 .17-.02.43.3.8.74.86.43.05.84-.2.96-.63.12-.5 0-.16.1-.53.26-1 .4-2.02.47-3.05l12.73-2.85c1.1-.25 1.87-1.2 1.9-2.33l.12-6.85c0-.54-.25-1.05-.67-1.4zm-20.56 2.22c-1.33-.2-4.48-.84-5.5-3-.06-.1-.05-.2 0-.28.06-.08.15-.13.25-.13 2.23.03 4.3 1.14 5.54 2.96.05.1.05.2 0 .3-.07.1-.18.15-.3.14zm20-.77l-.13 6.85c0 .55-.4 1.03-.94 1.16l-12.45 2.8c0-.08 0-.15 0-.23-.03-.58-.1-1.17-.2-1.75l5-1.1c.34-.13.53-.47.45-.8-.08-.35-.4-.58-.76-.54l-4.94 1.1c-.14-.58-.33-1.16-.55-1.73l7.9-1.77c.34-.13.54-.46.5-.8-.12-.34-.44-.55-.8-.52l-8.16 1.8c-.25-.47-.54-.93-.86-1.37-.06-.1-.12-.18-.18-.26l15.4-3.43c.2-.04.38 0 .53.13.1.1.18.27.18.43v.05zM388.32 173.65c.08.3.2.6.34.88.1.2.24.44.48.47.23 0 .4-.15.57-.35.7-.8 1.15-1.83 1.25-2.94.15-1.1-.06-2.24-.58-3.2-.12-.23-.25-.46-.5-.5-.23-.03-.4.17-.57.38-1.22 1.36-1.62 3.38-1.04 5.18l.06.1zm1.28-4.12c.03-.07.08-.12.15-.12.07 0 .13.06.15.13.16.6.2 1.24.12 1.86-.07.7-.26 1.37-.55 2-.02.06-.08.1-.14.1-.07 0-.12-.04-.15-.1-.35-1.3-.2-2.7.42-3.88zM387 177.4c0-.35-.3-.55-.57-.73-2.05-1.2-4.56-.75-6.15 1.14-.2.22-.3.53-.28.84.07.3.26.54.5.66 1 .6 2.1.8 3.22.65 1.1-.2 2.13-.8 2.9-1.7.24-.2.38-.52.38-.85zm-1.78.46c-.54.3-1.1.5-1.7.6-.57.1-1.15.1-1.72 0-.06-.02-.1-.1-.1-.16 0-.08.04-.15.1-.18 1.05-.6 2.24-.8 3.4-.6.06 0 .1.03.14.08.03.05.03.12 0 .17-.02.06-.07.1-.12.1zM403.9 185.16c-.1.02-.2.05-.3.1l-7.73 1.7-.56.13c-.1-.02-.22-.02-.33 0-1 .2-1.76 1-1.93 2-.18.98.27 1.98 1.13 2.52.87.53 1.97.5 2.8-.08.83-.58 1.23-1.6 1-2.57-.08-.37-.25-.7-.48-1l4.52-1c-.08.34-.08.7 0 1.06.23.98 1.03 1.73 2.03 1.9 1 .17 2.02-.27 2.56-1.12.56-.84.53-1.93-.06-2.75-.6-.82-1.62-1.2-2.62-1v.1zm-8.17 5.28c-.32.08-.65-.03-.87-.26-.22-.24-.3-.57-.2-.88.1-.3.35-.54.67-.6.23-.06.48-.02.68.1.22.13.36.33.4.56.07.24.03.48-.1.68-.13.2-.34.35-.57.4zm8.94-2c-.32.08-.65-.02-.87-.25-.22-.25-.3-.58-.2-.9.1-.3.35-.53.67-.6.24-.06.48 0 .7.1.2.14.33.34.4.57.04.24 0 .48-.13.68-.13.2-.33.35-.57.4z"/></g></g></g></svg>