<svg xmlns="http://www.w3.org/2000/svg" width="711" height="647" xmlns:xlink="http://www.w3.org/1999/xlink"><title>d 2</title><desc>Created with Sketch.</desc><defs><path id="a" d="M0 0h812v776H0z"/><path id="c" d="M87.56 243.82c56.75-25.45 126.26-29.75 183.26-53.83C372.92 146.85 413.22 19.5 527.72 3.2c144.12-20.53 285.14 60.25 372.95 155.1 83.78 90.54 155.05 240.3 84.7 353.93-53.5 86.4-177 114.2-277.3 134.02-134.82 26.7-279.14 23.9-411.28-12.92C187.16 602.8 85.1 548.9 25.66 458.3c-36.25-55.25-37.06-139.15 16.67-186.14 13-11.3 28.27-20.86 45.22-28.34zm799.5-203.16c11.26 0 20.37-9.1 20.37-20.33C907.43 9.1 898.33 0 887.07 0c-11.25 0-20.37 9.1-20.37 20.33 0 11.23 9.12 20.33 20.37 20.33zm-594.9 70.6c6.32 0 12-3.8 14.43-9.62 2.4-5.83 1.07-12.53-3.4-17-4.47-4.45-11.2-5.78-17.03-3.36-5.83 2.42-9.63 8.1-9.62 14.42 0 4.13 1.64 8.1 4.57 11 2.93 2.93 6.9 4.57 11.04 4.57z"/></defs><g fill="none"><g><g transform="translate(-150 -233) translate(150 104)"><mask id="b"><use xlink:href="#a"/></mask><g transform="translate(-303)" mask="url(#b)"><path id="Rectangle" d="M294 0h1440v1419H294z"/><g id="Rectangle" transform="translate(0 129)"><mask id="d"><use xlink:href="#c"/></mask><use fill="#B8D3EE" xlink:href="#c"/><path d="M284-100h1450v997H284z" mask="url(#d)"/><path id="Path" fill="#DCE9F7" d="M620.37 128H373.63c.5 1.88.76 3.82.76 5.77-.05 12.33-10.18 22.3-22.7 22.34H331.3c-32.14.07-58.2 25.72-58.28 57.4v.5h347.37c24.06-.1 43.54-19.3 43.63-43-.1-23.7-19.57-42.9-43.63-43z" mask="url(#d)"/><path id="Path" fill="#CDE0F3" d="M278.9 190H664v458H338.3c-72.97-.22-132.08-59.2-132.3-132.03.2-72.84 59.32-131.83 132.3-132.04 30.86-.1 55.86-25.04 55.94-55.84-.1-30.8-25.08-55.74-55.94-55.83h-6.65c-32.1-.06-58.12-26-58.2-58.04.02-8.38 1.88-16.65 5.45-24.23z" mask="url(#d)"/><path id="Path" fill="#C1DBF2" d="M273.9 227h357.5c10.24 0 18.6 9.93 18.6 22.05V648H337.23c-72.94-.22-132-59.22-132.23-132.07.2-72.85 59.3-131.85 132.23-132.06 30.85-.1 55.83-25.05 55.9-55.86-.08-30.8-25.06-55.74-55.9-55.83h-6.65c-27.1-.06-50.6-18.78-56.67-45.17z" mask="url(#d)"/><path id="Path" fill="#CDE0F3" d="M390.27 309H650v37H390c2.26-6.05 3.4-12.44 3.4-18.9 0-6.16-1.05-12.28-3.13-18.1z" mask="url(#d)"/><path id="Path" fill="#DCE9F7" d="M667.75 294H381c7.7 9.65 11.9 21.58 11.88 33.86 0 1.06 0 2.1 0 3.14h274.87c6.76-.02 12.23-5.4 12.25-12.07V306.1c0-6.68-5.48-12.08-12.25-12.1z" mask="url(#d)"/><path id="Path" fill="#CDE0F3" d="M210.17 481H650v37H205c0-.34 0-.68 0-1.02 0-12.18 1.73-24.3 5.17-35.98z" mask="url(#d)"/><path id="Path" fill="#DCE9F7" d="M667.85 464h-450.8c-5.2 11.77-8.58 24.24-10.05 37h460.85c6.68-.06 12.08-5.4 12.15-12v-12.83c.03-6.67-5.4-12.1-12.15-12.17z" mask="url(#d)"/><path id="Path" fill="#fff" d="M668.8 633H277c18.7 9.2 39.46 14.02 60.52 14H681v-2.34c0-6.4-5.45-11.6-12.2-11.66z" mask="url(#d)"/><path id="Path" fill="#DCE9F7" d="M668.73 172h-376.8c-10.8 9.57-17.55 22.77-18.93 37h395.73c6.78-.02 12.26-5.42 12.27-12.1v-12.83c-.02-6.66-5.5-12.05-12.27-12.07z" mask="url(#d)"/><path id="Path" fill="#CDE0F3" d="M308.15 161.68H629.7c8.72 0 15.85-7.9 15.85-17.58.02-3.57-.98-7.07-2.9-10.1 12.57 6.48 21.35 20.66 21.35 37H293c4.54-3.85 9.65-7 15.15-9.32z" mask="url(#d)"/><rect width="62" height="95" x="577" y="368" fill="#EAEAE6" mask="url(#d)" rx="2.52"/><rect width="33" height="95" x="539" y="368" fill="#E7E9E3" mask="url(#d)" rx="1.28"/><rect width="37" height="113" x="512" y="351" fill="#B3CEEB" mask="url(#d)" rx="1.49"/><rect width="61" height="44" x="500" y="420" fill="#B8D3EE" mask="url(#d)" rx="1.76"/><rect width="33" height="81" x="461" y="383" fill="#B8D3EE" mask="url(#d)" rx="1.28"/><rect width="38" height="24" x="589" y="391" fill="#E3E2DC" mask="url(#d)" rx="1.69"/><path id="Path" fill="#E3E2DC" d="M591.54 420h32.92c1.4 0 2.54 1.37 2.54 3.05v2.9c0 1.68-1.14 3.05-2.54 3.05h-32.92c-1.4 0-2.54-1.37-2.54-3.05v-2.92c0-.8.27-1.58.74-2.15.48-.57 1.13-.9 1.8-.88zM591.54 434h32.92c1.4 0 2.54 1.37 2.54 3.05v2.9c0 1.68-1.14 3.05-2.54 3.05h-32.92c-1.4 0-2.54-1.37-2.54-3.05v-2.92c0-.8.27-1.58.74-2.15.48-.57 1.13-.9 1.8-.88z" mask="url(#d)"/><path id="Path" fill="#B3CEEB" d="M477.5 416c-3.54 0-6.5 3.43-6.5 7.5 0 4.1 2.9 7.5 6.5 7.5 3.57 0 6.5-3.43 6.5-7.5 0-4.05-2.98-7.5-6.5-7.5z" mask="url(#d)"/><path id="Path" fill="#DCE9F7" d="M476.8 279h14.4c1 0 1.8.8 1.8 1.77v10.46c0 .98-.8 1.77-1.8 1.77h-14.4c-1 0-1.8-.8-1.8-1.77v-10.46c0-.98.8-1.77 1.8-1.77z" mask="url(#d)"/><rect width="46" height="37" x="425" y="256" fill="#B8D3EE" mask="url(#d)" rx="1.52"/><rect width="32" height="25" x="419" y="269" fill="#B3CEEB" mask="url(#d)" rx="1.03"/><rect width="27" height="60" x="405" y="233" fill="#DCE9F7" mask="url(#d)" rx="1.1"/><path id="Path" fill="#B3CEEB" d="M577.16 251.6h-1.54v-2.8h.53c1.04-.1 1.8-1 1.72-2 .07-.5-.08-.98-.4-1.36-.34-.38-.8-.6-1.32-.64h-1.83V233c.06-.5-.1-1-.4-1.37-.34-.37-.8-.6-1.32-.63-.52.02-1 .25-1.35.62-.34.38-.52.87-.48 1.37v11.75h-1.83c-.5.03-.98.26-1.3.63-.34.38-.5.87-.42 1.36-.1 1.02.68 1.9 1.72 2.02h.53v2.78h-1.54c-1.16.1-2.02 1.1-1.92 2.22v37c-.1 1.14.77 2.14 1.93 2.24h9.23c1.12-.15 1.93-1.13 1.83-2.23v-36.95c.1-1.1-.72-2.08-1.84-2.23zM591.23 255.87h-1.4v-2.57h.5c.93-.08 1.63-.9 1.55-1.83.08-.92-.62-1.74-1.56-1.83h-1.74v-10.8c.07-.94-.63-1.75-1.57-1.84-.94.1-1.64.9-1.58 1.83v10.8h-1.72c-.94.1-1.65.9-1.58 1.84-.07.94.64 1.75 1.58 1.83h.47v2.57h-1.38c-1.07.1-1.86 1-1.8 2.05v34.03c-.05.5.1 1.02.44 1.4.34.4.83.63 1.35.65h8.43c.52-.03 1-.26 1.33-.65.34-.4.5-.9.43-1.4v-34.03c.05-.5-.1-1-.44-1.4-.33-.4-.8-.63-1.33-.65z" mask="url(#d)"/><rect width="27" height="40" x="592" y="253" fill="#DCE9F7" mask="url(#d)" rx="1.06"/><path id="Path" fill="#F5F6F5" d="M599.2 263h12.62c.65 0 1.18.62 1.18 1.4v8.2c0 .77-.53 1.4-1.2 1.4h-12.6c-.67 0-1.2-.63-1.2-1.4v-8.2c0-.78.54-1.4 1.2-1.4z" mask="url(#d)"/><rect width="15" height="3" x="598" y="276" fill="#F5F6F5" mask="url(#d)" rx=".6"/><rect width="15" height="3" x="598" y="281" fill="#F5F6F5" mask="url(#d)" rx=".6"/><rect width="15" height="24" x="575" y="270" fill="#B8D3EE" mask="url(#d)" rx=".65"/><rect width="56" height="60" x="509" y="233" fill="#B8D3EE" mask="url(#d)" rx="2.22"/><rect width="15" height="24" x="554" y="270" fill="#DCE9F7" mask="url(#d)" rx=".65"/><path id="Path" fill="#B3CEEB" d="M347.82 256h40.36c1.55 0 2.8 1.2 2.82 2.7v31.6c0 1.5-1.27 2.7-2.82 2.7h-6.28c-9.08-11.14-22.3-18.48-36.9-20.47V258.7c0-1.5 1.27-2.7 2.82-2.7z" mask="url(#d)"/><path id="Path" fill="#B8D3EE" d="M367.03 269h28.08c1.05 0 1.9.8 1.9 1.78v21.45c0 .98-.85 1.77-1.9 1.77h-13.06c-4.7-5.56-10.47-10.23-17.04-13.76v-9.52c0-.48.24-.94.62-1.26.38-.33.9-.5 1.4-.46z" mask="url(#d)"/><path id="Path" fill="#F0F1EE" d="M359.8 276h9.4c.44 0 .8.36.8.8v6.2c-3.44-2.4-7.13-4.4-11-6.02v-.2c0-.42.36-.78.8-.78z" mask="url(#d)"/><path id="Path" fill="#B3CEEB" d="M320 397.94h-2.4v-4.5h.8c.78-.04 1.5-.4 2.02-1.02.5-.6.77-1.4.7-2.2.13-1.64-1.04-3.07-2.62-3.22h-2.66c-3.67.68-7.28 1.52-10.83 2.5-.02.24-.02.48 0 .7-.12 1.65 1.05 3.1 2.64 3.25h.8v4.5h-2.5c-1.78.16-3.1 1.8-2.93 3.64v59.75c-.15 1.84 1.16 3.48 2.94 3.65h14.12c1.78-.17 3.1-1.8 2.93-3.65v-59.8c.12-1.86-1.23-3.47-3-3.6z" mask="url(#d)"/><path id="Path" fill="#DEDED7" d="M343.2 405.1h-2.3v-4.12h.77c1.5-.14 2.6-1.42 2.5-2.88.1-1.47-1-2.75-2.5-2.9h-2.64V385h-.73c-1.43 0-2.84 0-4.27 0v10.12h-2.77c-1.5.13-2.62 1.42-2.52 2.88-.07.73.15 1.45.62 2 .48.57 1.16.92 1.9.98h.76v4.04h-2.22c-.82.07-1.57.46-2.1 1.07-.5.6-.76 1.4-.7 2.2v53.47c-.12 1.63 1.12 3.07 2.8 3.23h13.4c1.67-.16 2.9-1.6 2.8-3.23V408.3c.1-1.64-1.14-3.05-2.8-3.2z" mask="url(#d)"/><path id="Path" fill="#F9F9FA" d="M347.07 401h35.88c1.68 0 3.05 1.34 3.05 3v56c0 1.66-1.37 3-3.05 3h-35.88c-1.7 0-3.07-1.35-3.07-3v-56c0-.8.32-1.57.9-2.13.58-.56 1.36-.87 2.17-.87z" mask="url(#d)"/><path id="Path" fill="#F5F6F5" d="M354 415h21.04c1.08 0 1.96.85 1.96 1.9v11.16c0 .52-.2 1-.58 1.38-.38.36-.9.56-1.42.56h-21.04c-1.08 0-1.96-.85-1.96-1.9v-11.2c0-.5.22-1 .6-1.35.37-.36.87-.55 1.4-.55z" mask="url(#d)"/><rect width="25" height="5" x="352" y="435" fill="#F5F6F5" mask="url(#d)" rx=".95"/><rect width="25" height="5" x="352" y="444" fill="#F5F6F5" mask="url(#d)" rx=".95"/><rect width="25" height="38" x="314" y="425" fill="#EAEAE6" mask="url(#d)" rx="1.03"/><rect width="25" height="38" x="282" y="425" fill="#C1DBF2" mask="url(#d)" rx="1.03"/><rect width="27" height="22" x="395" y="612" fill="#EAEAE6" mask="url(#d)" rx="1.47"/><rect width="66" height="56" x="427" y="577" fill="#EAEAE6" mask="url(#d)" rx="2.2"/><rect width="44" height="37" x="456" y="596" fill="#E1E1D9" mask="url(#d)" rx="1.5"/><rect width="40" height="89" x="484" y="544" fill="#B8D3EE" mask="url(#d)" rx="1.59"/><rect width="81" height="86" x="293" y="547" fill="#EAEAE6" mask="url(#d)" rx="3.21"/><rect width="24" height="36" x="285" y="598" fill="#F9F9FA" mask="url(#d)" rx=".95"/><rect width="27" height="22" x="615" y="612" fill="#EAEAE6" mask="url(#d)" rx="1.47"/><rect width="66" height="56" x="545" y="577" fill="#EAEAE6" mask="url(#d)" rx="2.2"/><rect width="44" height="37" x="536" y="596" fill="#E1E1D9" mask="url(#d)" rx="1.5"/><rect width="14" height="27" x="575" y="607" fill="#F0F1EE" mask="url(#d)" rx=".61"/><rect width="96" height="61" x="244" y="431" fill="#4F3F55" mask="url(#d)" rx="6.49"/><rect width="19" height="13" x="309" y="426" fill="#331C38" mask="url(#d)" rx="1.6"/><rect width="15" height="13" x="312" y="426" fill="#4F3F55" mask="url(#d)" rx="1.6"/><path id="Path" fill="#3F2C44" d="M323.73 434c-.64 0-1.16.45-1.16 1v4.6h-4.24V435c0-.55-.53-1-1.18-1-.63 0-1.15.45-1.15 1v12.3c0 .93.9 1.7 2 1.7h5c1.1 0 2-.77 2-1.7V435c0-.28-.14-.55-.4-.74-.23-.2-.55-.28-.87-.26z" mask="url(#d)"/><path id="Path" fill="#331C38" d="M330.88 454h-77.76c-.56 0-1.1.2-1.5.6-.4.36-.62.87-.62 1.4 0 .53.22 1.04.62 1.4.4.4.94.6 1.5.6h77.76c1.17 0 2.1-.9 2.12-2 0-1.1-.95-2-2.12-2zM330.88 462h-77.76c-.56 0-1.1.2-1.5.6-.4.36-.62.87-.62 1.4 0 .53.22 1.04.62 1.4.4.4.94.6 1.5.6h77.76c1.17 0 2.1-.9 2.12-2 0-1.1-.95-2-2.12-2z" mask="url(#d)"/><rect width="82" height="4" x="251" y="472" fill="#331C38" mask="url(#d)" rx="1.17"/><rect width="82" height="4" x="251" y="480" fill="#331C38" mask="url(#d)" rx="1.17"/><rect width="125" height="81" x="238" y="492" fill="#331C38" mask="url(#d)" rx="8.41"/><path id="Path" fill="#4F3F55" d="M207.37 492h85.12c8.54 0 15.47 6.87 15.5 15.34v50.32c-.03 8.46-6.94 15.3-15.47 15.34H217.7c-8.37-17.58-12.7-36.77-12.7-56.2 0-8.33.8-16.63 2.37-24.8z" mask="url(#d)"/><path id="Path" fill="#05304B" d="M439.04 535.57c4.1 14.56 7.1 29.4 8.96 44.43H317.1c-.5-17 .92-30.53 5.47-36.6 19.24-25.4 102.77-23.5 116.47-7.83z" mask="url(#d)"/><path id="Path" fill="#004268" d="M424.5 477.8c-.3 8.2 0 16.43.8 24.6-8.62-3.82-18.3 2.76-17.95 10.03.5 9.48-.65 15.7 11.34 33.98 5.62 8.6 10.6 11.14 14.3 11.43-5.66 4.36-12.14 8.23-17.06 9.13 0 0-.96.45-2.35-1.6-1.4-2.03-6.88-23.94-10.6-29.18-1.2-1.66-.25-16.58 1.6-36.16-19.37 6.37-51.28 5.07-65.8 0-.83-1.22-1.45-2.6-1.8-4.03.54-1.1 10.85-16.43 23.05-34 10.72 17.08 20 31.25 20 31.25l44.45-15.45z" mask="url(#d)"/><path id="Path" fill="#fff" d="M335.52 488.02c.4-1.46.73-2.94.96-4.44.26-1.84.37-3.7.33-5.55 1.58-17-1.04-34.1-7.63-49.85C317.4 398.58 300 349.75 300 349.7c.73-.74 1.46-1.45 2.2-2.12 1.98-2.1 4.32-3.8 6.9-5.08 5.3-3 11.12-5 17.16-5.93h.38c13.05-2.26 29.06-1.82 50.23-4.57 1.3 0 2.12.2 3.32.22 15 .2 56.5 51.8 49.87 78.26-2.38 11.17-3.93 22.5-4.63 33.9-1.3 19.9-2.15 54.8.15 59.7 2.3 4.9 27.87 53.75 29.16 57.08 5.87 14.56-98.7 20.13-132.94-9.6 1.54-12.5 3.98-24.9 7.3-37.04 2.67-8.7 4.8-17.54 6.4-26.5z" mask="url(#d)"/><path id="Path" fill="#FDF1EF" d="M335.94 489.45c.4-1.47.73-2.96.95-4.47.24-1.84.35-3.7.32-5.57 1.54-17.06-1.04-34.26-7.52-50.08-11.6-29.73-28.7-78.8-28.7-78.83.72-.76 1.44-1.48 2.17-2.15 1.95-2.1 4.24-3.83 6.78-5.1 5.23-3.02 10.95-5.04 16.88-5.97h.38c3.2-.56 7.18-2.87 10.77-3.2 5.08-.45 9.97 1.15 16 .75 0 0-34.33 26.63.8 94.14 17 32.64 1.37 53.5-19.58 65.03.24-1.57.5-3.07.74-4.55z" mask="url(#d)"/><path id="Path" fill="#E8685B" d="M338.9 290l.87 11.42s.75 23.44.86 27c-.28 2.04-1.5 3.8-3.3 4.8-2.28 1.65 8.22 6.7 4.05 7.55 0 0 17.36 0 28.74-.24 7.16-.1 11.02 6.8 9.58-8.46 0 0-.16 0-.25-.1-2.56-1.07-1.4 0-3.68-1.82-.3-.28-.66-.6-1.02-.97-4.06-4.16-4.5-23.2-.72-28.3 3.78-5.1-35.12-10.88-35.12-10.88z" mask="url(#d)"/><path id="Path" fill="#F8CFBE" d="M473.03 375.65l9.83-1.65s7.27 12.14-5 35c0 0-5.2-7.24-5.74-11.32-.54-4.1.9-22.03.9-22.03z" mask="url(#d)"/><path id="Path" fill="#F4AD85" d="M395.47 337.6c27.4 10.74 63.86 29.4 91.52 42.16 7.77 3.63 14.63 6.7 16.16.24 3.5-14.52 5.74-45.07 6.74-64.3.25-4.84-5.05-9.9-6.38-12.7-.7-1.45 9-5.2 10.35-4.82 5.1 1.32 11.72-3.43 14.13.25-1.2 5.06-1.74 10.25-1.65 15.46.45 16.08 3.12 43.9-4.78 86.14-.13.33 1.5-5.73-.33 1-1.42 5.26-7.85 10.14-13.48 10.9-10.46 1.47-74.17-19.77-85.3-25.4-6.04-3.07-11.85-6.55-17.4-10.4 4.28-10.7-13.1-28.64-9.6-38.54z" mask="url(#d)"/><path id="Path" fill="#EF8871" d="M526.76 298.08c2.12 0 3.3-.5 4.24.97-1.37 4.82-2.04 9.82-2 14.84.45 16.08 3.1 43.9-4.73 86.14-.12.33 1.5-5.73-.32 1-1.4 5.26-7.77 10.14-13.34 10.9-4.98.7-22.13-3.84-39.82-9.36-1.12-8.2-1.78-13.73-1.78-13.73l10.68-8.53s5.34 15.44 9.7 19.18c4.4 3.74 20.23 5.8 24.93 3.8 4.7-2 10.7-47.07 10.44-66.66-.25-19.6-1.68-25.9-3.35-29.65-1.22-2.46 2.25-4.56 5.36-8.92z" mask="url(#d)"/><path id="Path" fill="#fff" d="M393 338.56l3.18-1.56s36.1 12.65 87.82 38.5c-2.92 3.5-10.65 24.02-4.95 35.5l-36.67-4.22L393 338.56z" mask="url(#d)"/><path id="Path" fill="#FDF1EF" d="M391 338.53l3.17-1.53h2.03l.26.1h.27l.3.12.22.1.33.1.3.1.33.13.37.14.3.1.36.14.26.1h.13l.4.16h.2l.25.1.43.15h.15l.3.1.48.2.4.13.5.18.5.18.44.16.52.2.35.14h.18l.56.22.28.1.27.12 1.1.4.6.24h.1l.52.2.6.24.62.23.57.22.67.26.48.2h.2l.7.26.38.17.3.13.73.3.3.1.42.18.74.3.53.2h.2l.75.32.7.27.75.3.8.32.6.25h.18l.84.34.5.2.3.16.86.34c3.36 10.17 8.6 19.63 15.44 27.88 13.6 16.2 29.94 13.65 38.66 10.6-2.1 7.44-3.2 16.7 0 23.12l-61.7-7.2-23.3-62.27z" mask="url(#d)"/><path id="Path" fill="#27D8DB" d="M383.92 333.13c36.5 36.47-13.26 55.8-36.66 26.6-14.67-18.25-21.2-22.32-21.2-22.32-.46-.3-1.02-.43-1.55-.3-.98.13-9.27 3.05-10.17 3.38-.9.33-1 .85-1 .85s45.62 35.2 11 78.23c0 0 28.04 36.1.47 95.34 0 0-22 46.8-10.45 57.62 11.55 10.8 146.65-7 146.65-7s-21.45-40.42-26.4-50.4c-4.95-9.97-8.92-20.15-7.33-46.3 1.6-26.16 6.78-55.6 5.68-72.2-1.1-16.57-34.68-56.32-36.37-59.08-1.68-2.75-11-5.12-12.66-4.4z" mask="url(#d)"/><path id="Path" fill="#00B0B3" d="M337 389c-1.98 14.83-8.4 25.84-12.75 30.47 0 0 27.85 36.06.46 95.27 0 0-19.08 39.54-13.76 55.7 5.3 16.17 16.92-2.65 25.3-2.73 1.16-49.4 8.45-146.63 92.4-121.02 1.25-11.9 2.65-23.5 3.36-33.52-31.7 12.3-90.33 24.7-95-24.16z" mask="url(#d)"/><path id="Path" fill="#F4AD85" d="M300.05 352.26c-4.25 7.43-42.72 114.8-38.76 136.35 3.95 21.55 33.85 60.62 49.37 71.18 0 0 1.8 1.07 2.7-1.48.9-2.55 4.48-2.02 8.07-4.16-16.27-28.4-24.6-38.16-34.68-69.56-5.53-17.18 30.74-63.1 37.02-74 15.08-25.9-14.36-74.6-23.73-58.32zM342 562c.15-6.3-5-11.54-11.5-11.72l-11.4-.28c-6.5-.14-11.9 4.82-12.1 11.12 0 .3 0 .58 0 .88h35z" mask="url(#d)"/><path id="Path" fill="#3F2C44" d="M277.05 204.95c-10.14 2.8-17.58 11.46-18.86 21.9-1.28 10.44 3.86 20.62 13.02 25.8 9.16 5.16 20.54 4.3 28.82-2.2 8.28-6.48 11.83-17.3 9-27.45-3.87-13.8-18.18-21.88-32-18.05z" mask="url(#d)"/><path id="Path" fill="#70483C" d="M317.72 194s-19.8-8.6-30.52 11.75c-8.4 16.17-14.35 38.18-6.6 63.87 1.16 3.65 15.52 45.63 53.32 41.03 39.48-4.8 57.68-37.7 57.68-37.7 40.82-29.84-28.4-126.7-73.88-78.94z" mask="url(#d)"/><path id="Path" fill="#482E26" d="M281.93 224.16c-4.1 14.88-3.9 30.64.6 45.4.9 2.92 14.97 45.74 52.52 41.1-4.63-24.65-8.83-42.52-8.83-42.52L365 245.3l-1.38-33.3c-52.3 69.82-81.67 12.25-81.7 12.16z" mask="url(#d)"/><path id="Path" fill="#3B241C" d="M391 274.38c-10.2-18.04-67.15-1.83-67.15-1.83l-11.8-8.55s-21 5.18-13.4 33.48c8.34 8.5 20.13 15.16 36.23 13.16 33.68-4.2 51.75-29.37 56.12-36.26z" mask="url(#d)"/><path id="Path" fill="#E8685B" d="M305.4 267.1c-4.82.66-8.77 4.15-10 8.85-1.24 4.7.48 9.7 4.36 12.62 3.88 2.93 9.14 3.24 13.33.77 4.18-2.46 6.46-7.2 5.78-12.03-.93-6.52-6.95-11.07-13.5-10.2z" mask="url(#d)"/><path id="Path" fill="#F4AD85" d="M340.8 200.38c-22.1 3.23-37.47 23.95-34.4 46.38l5.1 36.92c3.18 22.4 23.58 38 45.68 34.94 22.1-3.22 37.48-23.93 34.44-46.36l-5.13-36.94c-3.2-22.4-23.6-38-45.7-34.94z" mask="url(#d)"/><path id="Path" fill="#EF8871" d="M306.94 228.72c-1.88 5.85-2.4 12.04-1.52 18.1l5.25 36.95c3.3 22.36 24.2 37.9 46.84 34.84 1.34-.17 2.66-.4 3.96-.73-44.87-1.14-54.2-51.88-35.72-56.66 22.83-5.9 41.3-27 41.3-27 4.44 5.95 14.84 9.2 21.96 10.76l-1.37-9.65c-2.9-19.8-19.77-34.7-40-35.3-6.6 1.7-12.44 3.75-15.43 4.17-7.83 1.08-17.68 15.26-23.8 22.92-.46.56-.95 1.1-1.46 1.62z" mask="url(#d)"/><path id="Path" fill="#fff" d="M350 292.2c.07 3.86 2.6 7.33 6.46 8.9 3.88 1.6 8.43 1.02 11.67-1.47 3.24-2.5 4.6-6.45 3.5-10.16-.07-.46-.34-.87-.74-1.14-.42-.28-.93-.38-1.43-.3l-17.85 2.28c-.5.06-.95.3-1.25.66-.3.36-.43.82-.34 1.27l-.02-.02z" mask="url(#d)"/><path id="Path" fill="#E8685B" d="M383.15 275.06c-3.27.47-5.55 3.5-5.1 6.78.48 3.28 3.5 5.56 6.8 5.1 3.27-.46 5.55-3.5 5.1-6.78-.23-1.57-1.07-3-2.34-3.96-1.27-.95-2.87-1.36-4.45-1.14zM331.16 281.06c-2.4.34-4.37 2.1-4.97 4.46-.6 2.36.27 4.84 2.22 6.3 1.95 1.45 4.6 1.58 6.68.32 2.08-1.25 3.2-3.64 2.83-6.05-.5-3.26-3.5-5.5-6.77-5.04z" mask="url(#d)"/><path id="Path" fill="#331C38" d="M302 267.63l8.55-4.63s6.44 9.43-1.56 14l-.77-4.82c-.04-1.4-.76-2.7-1.96-3.58-1.2-.88-2.76-1.24-4.27-.97z" mask="url(#d)"/><path id="Path" fill="#573C33" d="M364.28 211.62s0 31.36-58.6 55.38L300 222.5l28.03-26.32 30.94-.18s17.64 14.84 19.5 16.92c1.83 2.1 15.53 23.13 15.53 23.13l-5.35 5.72s-13.9-4.06-24.37-30.15z" mask="url(#d)"/><path id="Path" fill="#482E26" d="M364 212s0 31.7-58.08 56L303 244.7c13.96 5.78 34.6 2.7 61-32.7z" mask="url(#d)"/><path id="Path" fill="#875748" d="M283.35 214.65v.1c-.47 1.2-.9 2.4-1.35 3.6 34.8 32.63 68.26 5.82 84-32.22-5.38-2.88-11.32-4.63-17.42-5.13-7.07 38.13-42.86 56.04-65.23 33.65z" mask="url(#d)"/><path id="Path" fill="#331C38" d="M340.12 273.98c.1.85.84 1.45 1.63 1.33.8-.1 1.35-.9 1.24-1.76-.55-4.15-4.1-7.05-7.95-6.47-3.84.6-6.52 4.42-5.98 8.58.05.4.25.78.56 1.03.3.26.7.36 1.07.3.8-.12 1.34-.9 1.24-1.76-.2-1.57.38-3.13 1.53-4.1 1.15-.98 2.7-1.22 4.05-.63 1.36.58 2.32 1.9 2.53 3.48h.07zM381.1 267.85c.06.56.38 1.05.86 1.28.48.23 1.03.17 1.45-.17.43-.33.65-.9.6-1.45-.27-1.97-1.25-3.76-2.74-4.96-1.48-1.22-3.35-1.75-5.2-1.47-1.84.28-3.5 1.34-4.63 2.95-1.14 1.6-1.63 3.64-1.36 5.64.13.84.85 1.43 1.64 1.33.4-.07.74-.3.97-.62.24-.33.34-.75.28-1.16-.14-1.16.14-2.34.8-3.28 1.37-1.94 3.93-2.33 5.75-.9.85.7 1.42 1.7 1.6 2.8z" mask="url(#d)"/></g><path id="Shape" fill="#331C38" d="M317.02 400.4l-12.8 1.8c-.7.1-1.38-.17-1.8-.7-.43-.55-.54-1.27-.28-1.9.26-.63.84-1.08 1.53-1.18l12.8-1.8-.2-1.48c-.35-1.4-.04-2.9.85-4.03.9-1.14 2.28-1.82 3.75-1.85l23.8-3.3c1.43-.36 2.96-.06 4.14.83 1.2.88 1.9 2.25 1.93 3.72l.1.8.16 1.02 9.9-1.37-.14-1.03-.1-.8c-.4-1.4-.13-2.93.76-4.1.9-1.2 2.3-1.9 3.8-1.92l21.2-2.94c1.4-.37 2.93-.1 4.1.77 1.2.87 1.9 2.2 1.95 3.66l2.43 17.02c.9 6.16-4.8 7.5-6.1 7.7h-.2l-12.3 1.72c-10.22 1.4-13.35-8.2-14.8-16.37l-10.02 1.4c.9 8.26.57 18.32-9.66 19.8l-3.66.54-11.14 1.56h-.2c-1.32.12-7.16.4-8.04-5.77l-1.68-11.78-.08-.02zm9.37 13.74l14.9-2.07c8.48-1.17 6.74-13.15 5.72-20.24l-.1-.8c-.02-.1-.02-.2 0-.3 0 0 0-1.22-1.7-1l-23.8 3.3c-1.4.2-1.36 1.1-1.32 1.34v.25l.47 3.35 1.96 13.68c.13.83.6 1.56 1.28 2.03.7.48 1.57.65 2.4.48l.2-.02zm61.83-8.57c.84-.05 1.63-.45 2.17-1.1.53-.64.78-1.48.66-2.3l-2.43-17.04c0-.1 0-.16 0-.25 0-.1-.26-1.14-1.67-.94l-21.2 2.94c-1.63.23-1.32 1.42-1.32 1.42v.3l.1.8c1 7.1 2.7 19.07 11.2 17.9l12.28-1.8.2.07z"/><path id="Rectangle" fill="#331C38" d="M468 589h7v27h-7z"/><rect id="Rectangle" width="50" height="22" x="447" y="574" fill="#331C38" rx="2.23"/><rect id="Rectangle" width="44" height="14" x="450" y="577" fill="#fff" rx=".56"/><rect id="Rectangle" width="69" height="86" x="416" y="612" fill="#4F3F55" rx="4.85"/><path id="Path" fill="#3F2C44" d="M394 654.92v44c.02 6.1 5.04 11.06 11.24 11.08h91.52c6.2-.02 11.22-4.97 11.24-11.08v-44c0-2.72-2.25-4.92-5-4.92H399.06c-1.34 0-2.62.5-3.57 1.42-.96.92-1.5 2.18-1.5 3.5zM405 643.93v44c.02 6.1 5.07 11.05 11.32 11.07h67.36c6.25-.02 11.3-4.97 11.32-11.08v-44c0-2.7-2.26-4.9-5.04-4.92h-79.94c-2.78 0-5.02 2.22-5.02 4.93z"/><path id="Path" fill="#4F3F55" d="M497 682v-38.97c0-2.77-2.28-5.02-5.08-5.03H417v32.7c.02 6.2 5.08 11.25 11.35 11.3H497z"/><path id="Path" fill="#3F2C44" d="M427.3 612v9.9c.02 4.95 4 8.95 8.9 8.96H485V639h-69v-18c.02-4.97 4-8.98 8.9-9h2.4z"/><path id="Path" fill="#331C38" d="M499.38 650v30.85c0 2.72 2.23 4.92 5 4.93H508V690h-13c.4-1.15.62-2.36.62-3.57V650h3.76zM402.68 650v30.85c0 2.72-2.26 4.92-5.03 4.93H394V690h13c-.4-1.15-.6-2.36-.6-3.57V650h-3.72z"/><path id="Path" fill="#3F2C44" d="M490.6 643h-38.3c-1.26 0-2.3.9-2.3 2s1.04 2 2.3 2h38.4c1.26 0 2.3-.9 2.3-2 0-.54-.25-1.06-.7-1.44-.45-.37-1.06-.58-1.7-.56z"/><path id="Path" fill="#fff" d="M442.4 643h2.2c1.32 0 2.4.9 2.4 2s-1.08 2-2.4 2h-2.2c-1.32 0-2.4-.9-2.4-2s1.08-2 2.4-2z"/><rect id="Rectangle" width="20" height="22" x="470" y="655" fill="#fff" rx="1.46"/><path id="Path" fill="#3F2C44" d="M464.86 654h-40.72c-.63 0-1.14.67-1.14 1.5 0 .4.12.78.33 1.06.22.28.5.44.8.44h40.73c.63 0 1.14-.67 1.14-1.5 0-.4-.12-.78-.33-1.06-.22-.28-.5-.44-.8-.44zM464.86 660h-40.72c-.63 0-1.14.67-1.14 1.5 0 .4.12.78.33 1.06.22.28.5.44.8.44h40.73c.63 0 1.14-.67 1.14-1.5 0-.4-.12-.78-.33-1.06-.22-.28-.5-.44-.8-.44zM464.86 667h-40.72c-.3 0-.6.15-.8.43-.22.28-.34.66-.34 1.06s.12.77.33 1.06c.22.28.5.44.8.44h40.73c.63 0 1.14-.68 1.14-1.5 0-.4-.12-.8-.33-1.07-.22-.28-.5-.44-.8-.43z"/><rect id="Rectangle" width="43" height="3" x="423" y="673" fill="#3F2C44" rx=".62"/><path id="Path" fill="#5FA41E" d="M723.1 721H231c24.84 35.1 64.64 55.93 107.04 56H723.1c4.35-.02 7.88-3.63 7.9-8.08V729.1c0-4.46-3.54-8.08-7.9-8.1z"/><path id="Shape" fill="#91D351" d="M615 777h-17v-40h17v40zm-276.38 0c-6.57 0-13.13-.5-19.62-1.44V737h21.76v40h-2.14zm137 0h-124v-40h124v40zm56.37 0h-21.76v-40H532v40zm35.6 0h-12.8v-40h12.8v40z"/><path id="Path" fill="#331C38" d="M723.1 723H231c6.65 8.92 14.42 16.98 23.15 24H731v-16.27c0-4.26-3.54-7.7-7.9-7.73z"/><path id="Path" fill="#A48378" d="M804.12 691H213c6.6 17.6 16.8 33.62 29.9 47h561.22c3.8-.02 6.87-3.13 6.88-6.96V697.9c-.03-3.8-3.1-6.9-6.88-6.9z"/><path id="Shape" fill="#70483C" d="M394.02 691H376v47h18.02v-47zM765 691h-30.5v47H765v-47zm-45.76 0H476.66v47h242.58v-47zm-262.85 0h-30.5v47h30.44l.05-47z"/><path id="Path" fill="#331C38" d="M718.5 758c-2.5 0-4.5 2-4.5 4.5s2 4.5 4.5 4.5 4.5-2 4.5-4.5-2-4.5-4.5-4.5z"/><path id="Path" fill="#fff" d="M220.22 704.5h128.26l14.55 8.34c.2.1.4.16.6.16H811v-2.44H363.92l-14.42-8.32c-.2-.16-.46-.24-.7-.24H219c.4.87.8 1.68 1.22 2.5z"/><path id="Path" fill="#97B2BC" d="M555.16 483.12s-7.58 3.65-14.68 22.12c-7.1 18.47-29.15 127.45-28.46 142.48.68 15.02 46.85 100.28 46.85 100.28s9.25-15.32 9.77-22.65c.53-7.33-5.95-18.23-5.95-18.23s-15.27-51.8-18.8-71.7c-3.56-19.9 24.62-62 24.62-62L590 516.57s-19.15-41.88-34.84-33.44z"/><path id="Path" fill="#7D939D" d="M542.46 635c-3.7-19.9 25.15-61.95 25.15-61.95l7.4-19.37c-2.14-14.3-4.5-25.4-5.77-22.1-2.34 6.17-23.68 67.6-26.84 77.78-3.17 10.17.06 25.64.06 25.64zM549.62 728.82c5.1 9.7 8.66 16.18 8.66 16.18s9.17-15.1 9.7-22.33c.5-7.23-5.9-18-5.9-18S548.35 658.38 544 637c2.55 13.18 12.56 65.17 13.64 69.45 1.07 4.28-.47 13.6-8.02 22.37zM704.76 503.5l21.68-15.5c3.52 4.64 6.43 9.7 8.67 15.08 6.27 17.45 10.96 35.42 14.02 53.7 6.78 40.7 13.55 96.7 11.5 115.02-2.03 18.32-48.76 66.5-54.18 67.18-5.42.67-7.44-15.27-7.44-15.27s26.4-39.33 29.8-54.94c3.36-15.6-23.7-101.8-23.7-101.8l-.34-63.46z"/><path id="Path" fill="#331C38" stroke="#05304B" stroke-width=".22" d="M563.5 716s-6.8 24.34-7.5 60h154.7s4.76-28.66-3.93-49.76L563.5 716z" stroke-linecap="round" stroke-linejoin="round"/><path id="Path" fill="#fff" d="M568.58 675s-5.92 33.8-7.13 41.1c-1.2 7.3-1.96 16.47 24.8 25.65 26.77 9.17 91.83 12.07 113.8 1.54 0 0 11.9-5.07 10.9-15.6-1.04-10.53-9.7-42.84-9.7-42.84L568.58 675z"/><path id="Path" fill="#E6E4EB" d="M569.5 674s-5.85 34.5-7.05 41.96c-1.05 6.62-1.8 14.8 16.6 23.04-2.4-7.13-3.07-14.76-1.9-22.2 2.95-14.82 12.7-23.64 22.75-22.9 10.07.77 51.2 1.75 82.2 1.75 10.64 0 17.9 2.2 22.9 5.1-2.18-9.06-4.14-16.66-4.14-16.66L569.5 674z"/><path id="Path" fill="#5F6879" d="M698.75 667.7s2.74 3.52 3.25 16.64c-.57 2.26-2.3 4-4.52 4.54-3.76.88-78.46 10.12-130.7-8.07 0 0-4.52-1.85-5.63-5.16-1.1-3.3 4.27-15.64 4.27-15.64l133.33 7.7z"/><path id="Path" fill="#97B2BC" d="M555 481.7s79.68-52.56 162.77-4.35c5.12 3.55 9.42 8.17 12.6 13.53 3.74 22.1 3.5 44.67-.72 66.67-7.88 42.38-23.98 89.18-25 110.02-.53 4.84-4.4 8.65-9.25 9.1-8.57 1.04-105.13 5.9-128.76-12.9-1.57-1.72-2.28-4.04-1.95-6.34 8.14-43.76-.7-48.53-.42-78.8 0-.07 18.17-77.58-9.28-96.92z"/><path id="Path" fill="#8EA7B0" d="M555 482.6s79.67-52.35 162.76-4.33c5.12 3.54 9.42 8.14 12.6 13.48 2.58 14.94 3.28 30.14 2.06 45.24-12.8-1.55-34.43 1-66.35 20.66-49.54 30.5-89.2 38.64-83.82 113.34-5.6-1.37-10.9-3.78-15.6-7.1-1.58-1.7-2.3-4.02-1.97-6.3 8.15-43.6-.7-48.35-.4-78.5 0 0 18.17-77.2-9.28-96.5z"/><path id="Path" fill="#7D939D" d="M575.58 668c-3-1.17-5.8-2.8-8.35-4.83-1.48-1.7-2.15-4-1.84-6.3 7.68-43.56-.67-48.32-.4-78.45 3.3-15.72 5.15-31.74 5.56-47.83 2.2-6.15 7.92 37.2 9.32 58.5 1.14 17.44-6.3 56.5-4.3 78.9z"/><path id="Path" fill="#70483C" d="M654.35 316.54s-29.16-12.76-48.37 10.17c-19.2 22.93-6.2 52.6-9.27 78.87-3.06 26.28-51.84 70.4 3.8 96.3 0 0 8.9 2.05 11.3 16.06 2.4 14 25.05 46.78 66.9 22.18 41.86-24.6 57.64-73.06 28.14-117.1-29.5-44.05 9.62-106.46-52.5-106.46z"/><path id="Path" fill="#482E26" d="M596.92 403c0 .76-.12 1.52-.22 2.27-3.1 26.16-51.8 70 3.78 95.84 0 0 8.9 2.04 11.3 15.98 2.4 13.95 25.06 46.55 66.92 22.07 41.86-24.48 57.64-72.72 28.14-116.55 0 0 20.15 32.06-7.5 63.87C672.24 517.6 600 502.65 596.92 403z"/><path id="Path" fill="#526675" d="M552.9 483v.2c3.28 2.7 27.06 24.86 12.33 92.74-1.02 1.6-2.3 3.64-3.7 6.06.26-1.1.52-2.22.78-3.36 16.57-72.1-9.73-92.84-11.1-93.86-.07-.05-.14-.1-.2-.18.6-.58 1.22-1.1 1.9-1.6z"/><path id="Path" fill="#00D8DC" d="M938.4 466.6c0-2.04-4.4-31.6-4.4-31.6 17.27 8.85 31.4 22.86 40.5 40.1 14.85 28.6 31.72 116.4 24.97 147.7-6.75 31.3-45.9 59.2-45.9 59.2l-15.16-215.4z"/><path id="Path" fill="#00B0B3" d="M938.43 466.6c0-2.05-4.43-31.6-4.43-31.6 17.34 8.85 31.54 22.85 40.67 40.1 1.7 3.33 3.2 6.76 4.52 10.26-6.64 2.7-12.05 8.1-13.57 18.15-4.37 28.9 1.47 107.28 11.23 124.42 5.02 8.84 12.4 9.75 19.14 6-11.9 26.5-42.33 48.08-42.33 48.08l-15.24-215.4z"/><path id="Path" fill="#331C38" d="M764.44 746.8s-3.24 6.63 0 29.2h175.1s11.12-7.6 10.43-36l-185.53 6.8z"/><path id="Path" fill="#fff" d="M763.5 735.1s-4.6 11.05-3.25 15.42c1.37 4.37 14.64 18.45 61 20.13 46.34 1.68 94.37-2.7 112.1-13.1 17.73-10.4 20.94-16.1 19.25-30.68-1.7-14.58-189.1 8.22-189.1 8.22z"/><path id="Path" fill="#00D8DC" d="M795.36 453.2l-23.53-8.2s-24.2 23.2-41.25 62.82c-17.06 39.6-36.16 90.8-37.53 106.5-1.36 15.7 24.57 76.5 73.67 96.28 49.1 19.77 15.68-33.47 15.68-33.47s-35.47-53.92-36.83-63.5c-1.36-9.55 21.15-26.95 21.15-26.95s70.97-31.08 68.2-40.63c-2.76-9.54-39.56-92.85-39.56-92.85z"/><path id="Shape" fill="#00B0B3" d="M694 615.75c.87 18.46 26.6 74.92 73.6 93.86 9.24 3.65 15.55 4.86 19.7 4.25-2.3-12.62-3.76-25.37-4.4-38.17-2.44-3.73-16.22-24.85-26.13-41.8-4.82 23.25-27.16 32.14-42.03 17.3-9.64-9.95-16.76-22.07-20.74-35.34v-.1zm52.48-2.8c-1.36-9.55 21.12-26.9 21.12-26.9s9.64-4.22 21.65-10.02c5.08-48.8 2.2-74.52-1.18-59.98-3.92 17.03-19.12 38.4-33.1 68.56-13.98 30.18-8.5 28.35-8.5 28.35z"/><path id="Path" fill="#F4AD85" d="M847 277c16.53.03 29.94 13.23 30 29.54v58.92c-.06 16.3-13.47 29.5-30 29.54-16.53-.03-29.94-13.23-30-29.54v-58.9c.05-16.32 13.46-29.53 30-29.56z"/><rect width="44" height="76" x="841" y="360" fill="#F09576" rx="2.71"/><path id="Path" fill="#3F2C44" d="M811.74 320.16s-19.6-2.82-23.88-21.98c-4.27-19.16 6.77-46.47 46-34.06h32.58c21.98 0 40.15 4.37 50.85 18.84 17.32 23.45 12.95 75.83-8.3 96.63-24.2 23.72-63.45 11.52-63.24-20.47 3.03-3 4.63-7.16 4.4-11.42-.22-4.24-2.25-8.2-5.58-10.88-4.1-3.28-9.48-2.45-9.48 11.92v12.7c-5.2-1.32-8.8-6-8.73-11.35-.06-9.46-.06-31.1-14.63-29.94z"/><path id="Path" fill="#331C38" d="M811.83 319.5s-19.67-2.82-23.96-21.87c-1.65-7.24-.95-14.8 2-21.63-.08.5-5.1 25.76 13.18 25.76s47.06 2.43 51.74 19.7c4.46 16.44 18.74 62 68.2 34.36-2.7 8.53-7.36 16.35-13.6 22.84-24.28 23.6-63.7 11.46-63.47-20.35 3.04-3 4.64-7.12 4.42-11.35-.23-4.23-2.27-8.17-5.6-10.83-4.12-3.27-9.52-2.44-9.52 11.86v12.62c-5.22-1.3-8.85-5.98-8.77-11.3 0-9.43 0-30.96-14.63-29.8z"/><path id="Path" fill="#00D8DC" d="M810.78 425.3s-26.6 6.48-38.6 18.04c0 0 38.1 71.8-5.16 141.22 0 0-11.67 117.73-11 130.75.7 13.03 3.1 19.42 11 26.55 7.9 7.14 58 20.4 117.72 12.93 59.72-7.48 71.05-25.5 72.43-33 1.37-7.5 7.9-54.78 3.1-131.68-4.8-76.9 3.53-151.2-32.04-159.14-35.58-7.96-117.45-5.65-117.45-5.65z"/><path id="Path" fill="#00B0B3" d="M810.27 426.33c-9.44 2.4-18.58 5.84-27.27 10.2.44-.15 14.87-5.72 20.7 6.58 5.84 12.3-1.83 83.9 82.3 83.9 0 0-27.43-68.52-27.43-79.48 0-5.45-9.7-14.23-19.4-21.52-16.9-.02-28.9.33-28.9.33zM788.6 515c-.38 24.83-7.5 49.08-20.6 70.18 0 0-11.65 118.32-10.97 131.4.67 13.1 3.1 19.52 10.97 26.7 3.46 3.15 15.05 7.5 32 10.72-18.8-40.97-20.26-104.45-13.4-153.1 9.16-65.2 5.94-102.92 2-85.77V515z"/><path id="Path" fill="#fff" d="M811 425.9c4.6.04 8.85 2.5 11.16 6.46 4.12 6.8 3.66 87.84 54.75 94.3 32.55 4.12 50.36-30.87 54.42-62.6 3.35-26.16-4.83-60.35-44.88-59.02-.22 0-.62 0-.62.18v5.6c-2.73 11.93-20.56 9.22-29.17 4.03-14.1-8.54-32.8-15.75-45.65 11.04z"/><path id="Path" fill="#F8CFBE" d="M889.97 404c-1.06 0-2.18 0-3.3 0-.2 0-.6 0-.6.2v5.75c-2.35 10.86-16.2 9.9-25.07 5.8 40.65 27.88 45.83-9.7 28.97-11.75z"/><path id="Path" fill="#fff" d="M308.28 476.27l-4.44-.27s-5.32 3.64-6.8 7.47c-1.5 3.82-20.5 51.82-30.04 84.5 0 0 23.27 2.96 28.54 21.03 0 0 30.3-41.9 31.94-48.78 4.94-23.3-2.34-47.54-19.2-63.95z"/><path id="Path" fill="#FDF1EF" d="M309.47 476.27l-4.6-.27c-1.6 1.06-3.1 2.28-4.44 3.64 31.74 11.15 12.78 65.57 1.3 82.38-3.85 6.1-9.8 10.62-16.73 12.75 5.34 3.27 9.32 8.32 11.23 14.23 0 0 31.5-41.9 33.2-48.78 5.12-23.3-2.45-47.54-19.96-63.95z"/><path fill="#3F2C44" d="M473.9 500c-4.37 6.18-12.7 20.9-6.94 37.17l2.5.28c-6.32-15.97 2.3-30.72 6.46-36.46l-2-1zm4.1 2.04l2 1c-4.27 6.22-11.6 19.98-6 34.96l-2.44-.3c-5.13-15.25 2.02-29.07 6.44-35.66zM271.12 559c7.05.85 24.75 4.6 32.88 20.93l-1.53 2.12c-7.6-16.67-25.63-20.1-32.07-20.8.23-.76.47-1.5.72-2.25zm-1.44 4.5c-.23.77-.45 1.5-.68 2.25 7.18.98 23.33 4.9 30.62 20.25l1.53-2.1c-7.78-15.15-23.82-19.28-31.47-20.4z"/><path id="Path" fill="#3F2C44" d="M370 469.2c-.52 37.8-53.25-8.68-30.15-9.2.07 0 6.68 7.94 30.15 9.2zM376.53 459.18s3.75 8.1-5.53 10.62c0 0 3.42 10.74 10.12 9 6.7-1.72 4.44-21.9-4.6-19.62z"/><path id="Path" fill="#fff" d="M352.8 518.52l15.4-1.5c.47-.06.93.12 1.27.46.34.35.54.85.53 1.36v5.43c-.02 1.12-.8 2.05-1.8 2.2l-15.4 1.52c-.47.04-.93-.14-1.27-.48-.34-.35-.54-.85-.53-1.36v-5.43c.02-1.12.78-2.06 1.8-2.2zM538.56 242h-88.18c-7.37.02-13.35 5.97-13.38 13.33v94.2c0 .6.37 1.12.92 1.35.55.23 1.2.12 1.62-.3l22.8-22.74h76.28c7.38-.02 13.36-6 13.38-13.35v-59.17c-.03-7.38-6.04-13.34-13.44-13.33zM652.4 191h88.2c7.4.02 13.37 5.97 13.4 13.33v94.2c0 .6-.38 1.13-.93 1.36-.56.22-1.2.1-1.63-.33l-22.8-22.78h-76.27c-7.38-.03-13.35-6-13.37-13.35v-59.12c.02-7.37 6.02-13.33 13.4-13.33zM403.4 231.38c0-.76-.63-1.38-1.4-1.38-.77 0-1.4.62-1.4 1.38v3.23h-3.23c-.76.02-1.37.64-1.37 1.4 0 .35.14.7.4.95.26.26.6.4.97.4h3.24v3.27c0 .76.63 1.38 1.4 1.38.77 0 1.4-.62 1.4-1.38v-3.27h3.23c.76 0 1.37-.6 1.37-1.36 0-.76-.6-1.38-1.37-1.4h-3.24v-3.22zM761.38 385.4c0-.78-.62-1.4-1.38-1.4-.76 0-1.38.62-1.38 1.4v3.17h-3.24c-.76 0-1.38.62-1.38 1.4 0 .76.62 1.38 1.38 1.38h3.24v3.26c0 .78.62 1.4 1.38 1.4.76 0 1.38-.62 1.38-1.4v-3.25h3.24c.76 0 1.38-.62 1.38-1.4 0-.76-.62-1.38-1.38-1.38h-3.24v-3.18zM722.34 153.54c.06-.53-.18-1.04-.62-1.33-.44-.27-1-.27-1.44 0-.44.3-.68.8-.62 1.34v3.24h-3.15c-.5-.06-1.02.18-1.3.63-.27.46-.27 1.04 0 1.5.28.44.8.7 1.3.63h3.16v3.25c.08.7.66 1.22 1.34 1.22s1.26-.53 1.34-1.22v-3.25h3.15c.5.06 1.02-.2 1.3-.64.27-.46.27-1.04 0-1.5-.28-.44-.8-.68-1.3-.62h-3.16v-3.24zM543.22 179.4c0-.78-.62-1.4-1.38-1.4-.37 0-.72.15-.97.4-.26.27-.4.62-.4 1v3.22h-3.25c-.7.1-1.22.68-1.22 1.38 0 .7.53 1.3 1.22 1.38h3.25v3.25c0 .76.62 1.37 1.37 1.37.76 0 1.37-.6 1.38-1.37v-3.27h3.24c.53.06 1.04-.2 1.33-.64.27-.45.27-1.03 0-1.48-.3-.45-.8-.7-1.34-.63h-3.24v-3.2zM956.53 404.5c.06-.5-.2-1.02-.64-1.3-.46-.27-1.04-.27-1.5 0-.44.28-.68.8-.62 1.3v3.16h-3.24c-.53-.06-1.04.18-1.33.62-.27.44-.27 1 0 1.44.3.44.8.68 1.34.62h3.24v3.15c-.06.5.18 1.02.63 1.3.46.27 1.04.27 1.5 0 .44-.28.7-.8.63-1.3v-3.16h3.25c.7-.08 1.22-.66 1.22-1.34s-.53-1.26-1.22-1.34h-3.25v-3.15zM460.34 471.22c-.08-.7-.66-1.22-1.34-1.22s-1.26.53-1.34 1.22v3.25h-3.15c-.5-.06-1.02.2-1.3.64-.27.46-.27 1.04 0 1.5.28.44.8.68 1.3.62h3.16v3.24c-.06.53.18 1.04.62 1.33.44.27 1 .27 1.44 0 .44-.3.68-.8.62-1.34v-3.24h3.15c.5.06 1.02-.18 1.3-.63.27-.46.27-1.04 0-1.5-.28-.44-.8-.7-1.3-.63h-3.16v-3.25z"/><path id="Path" fill="#719FD4" d="M596.23 216.54c.07-.53-.18-1.04-.63-1.33-.45-.27-1.03-.27-1.48 0-.45.3-.7.8-.64 1.34v3.24h-3.26c-.7.08-1.22.67-1.22 1.37 0 .7.53 1.3 1.22 1.38h3.24v3.25c.08.7.68 1.22 1.38 1.22.7 0 1.3-.53 1.38-1.22v-3.27h3.23c.53.07 1.05-.18 1.34-.63.27-.45.27-1.02 0-1.48-.3-.46-.82-.7-1.35-.64h-3.23v-3.22zM728.22 352.55c.06-.53-.18-1.05-.63-1.34-.46-.27-1.04-.27-1.5 0-.44.3-.7.82-.63 1.35v3.22h-3.25c-.7.08-1.22.67-1.22 1.37 0 .7.53 1.3 1.22 1.38h3.25v3.26c.1.7.68 1.22 1.38 1.22.7 0 1.3-.53 1.37-1.22v-3.26h3.24c.53.06 1.04-.2 1.33-.64.27-.45.27-1.03 0-1.48-.3-.45-.8-.7-1.34-.63h-3.24v-3.22zM458.34 382.22c-.08-.7-.66-1.22-1.34-1.22s-1.26.53-1.34 1.22v3.25h-3.15c-.5-.06-1.02.2-1.3.64-.27.46-.27 1.04 0 1.5.28.44.8.68 1.3.62h3.16v3.24c-.06.53.18 1.04.62 1.33.44.27 1 .27 1.44 0 .44-.3.68-.8.62-1.34v-3.24h3.15c.5.06 1.02-.18 1.3-.63.27-.46.27-1.04 0-1.5-.28-.44-.8-.7-1.3-.63h-3.16v-3.25zM510.18 561.54c.06-.53-.2-1.04-.63-1.33-.45-.27-1.02-.27-1.47 0-.45.3-.7.8-.63 1.34v3.24h-3.23c-.7.08-1.22.67-1.22 1.37 0 .7.52 1.3 1.22 1.38h3.3v3.25c.08.7.67 1.22 1.37 1.22.68 0 1.27-.53 1.35-1.22v-3.18h3.22c.52.06 1.04-.2 1.32-.64.27-.45.27-1.02 0-1.47-.3-.46-.8-.7-1.33-.65h-3.22l-.07-3.3z"/><path fill="#F4AD85" d="M523.66 450c0-9.6 4.1-13.7 6-17.74 1.36-2.87 2.4-14.3 2.34-17.05-.06-2.74-2.13-22.43-6.24-11.05.04-3-.5-6-1.63-8.8-1.7-3.28-4.1 3.7-4.1 3.7s-.34-7.12-3.6-7.05c-3.27.07-2.3 11.56-2.85 8.33-.56-3.22-1.37-8.15-4.82-7.6l-.58.36c-.68.45-1.33 23.57-1.17 27.03-2-3.17-5-5.56-8.5-6.8-1.4-.6-3.24.1-3.5.9-.24.82 3.48 5.3 3.76 6.7 2.3 11.08 9.57 12.68 13.48 20.46-.2 1.4.9 5.52.6 7.22 6.2 1.05 6.37.44 10.82 1.38z"/></g></g></g></g></svg>