<svg xmlns="http://www.w3.org/2000/svg" width="323" height="345" xmlns:xlink="http://www.w3.org/1999/xlink"><title>Recurso 2</title><desc>Created with Sketch.</desc><defs><filter id="a" width="106.7%" height="109.5%" x="-3.4%" y="-4.7%" filterUnits="objectBoundingBox"><feOffset dy="6" in="SourceAlpha" result="shadowOffsetOuter1"/><feGaussianBlur stdDeviation="9.5" in="shadowOffsetOuter1" result="shadowBlurOuter1"/><feColorMatrix values="0 0 0 0 0.503594541 0 0 0 0 0.597691893 0 0 0 0 0.834980867 0 0 0 0.271625906 0" in="shadowBlurOuter1" result="shadowMatrixOuter1"/><feMerge><feMergeNode in="shadowMatrixOuter1"/><feMergeNode in="SourceGraphic"/></feMerge></filter><filter id="b" width="129.8%" height="127.8%" x="-14.9%" y="-12.5%" filterUnits="objectBoundingBox"><feOffset dy="5" in="SourceAlpha" result="shadowOffsetOuter1"/><feGaussianBlur stdDeviation="4.5" in="shadowOffsetOuter1" result="shadowBlurOuter1"/><feColorMatrix values="0 0 0 0 0.503594541 0 0 0 0 0.597691893 0 0 0 0 0.834980867 0 0 0 0.327530571 0" in="shadowBlurOuter1" result="shadowMatrixOuter1"/><feMerge><feMergeNode in="shadowMatrixOuter1"/><feMergeNode in="SourceGraphic"/></feMerge></filter><path id="d" d="M0 258l14.82-73H58l-2.37 11.64H24.3l-4.13 20.47h28.06l-2.27 11.44H17.88l-6.02 29.44z"/><filter id="c" width="179.3%" height="163%" x="-39.7%" y="-26%" filterUnits="objectBoundingBox"><feOffset dy="4" in="SourceAlpha" result="shadowOffsetOuter1"/><feGaussianBlur stdDeviation="7" in="shadowOffsetOuter1" result="shadowBlurOuter1"/><feColorMatrix values="0 0 0 0 0.503594541 0 0 0 0 0.597691893 0 0 0 0 0.834980867 0 0 0 0.271625906 0" in="shadowBlurOuter1"/></filter><path id="f" d="M60.35 234.73c-.08.37-.1.75-.1 1.13 0 7.07 4.87 12 11.68 12 6.5 0 10.65-3.5 12.57-7.3l9.02 5.04c-3.34 6.56-10.95 12.4-21.9 12.4C59.34 258 49 249.6 49 235.14 49 216.36 62.27 205 75.77 205c13.6 0 21.23 8.58 21.23 20.6-.04 3.1-.52 6.17-1.42 9.12H60.35zM85.4 226c0-.2.1-1 .1-1.52 0-4.3-2.53-9.54-10.03-9.54-7.43 0-12.07 5.23-13.8 11.07H85.4z"/><filter id="e" width="195.8%" height="186.8%" x="-47.9%" y="-35.8%" filterUnits="objectBoundingBox"><feOffset dy="4" in="SourceAlpha" result="shadowOffsetOuter1"/><feGaussianBlur stdDeviation="7" in="shadowOffsetOuter1" result="shadowBlurOuter1"/><feColorMatrix values="0 0 0 0 0.503594541 0 0 0 0 0.597691893 0 0 0 0 0.834980867 0 0 0 0.271625906 0" in="shadowBlurOuter1"/></filter><path id="h" d="M107.36 234.73c-.08.37-.12.75-.1 1.13 0 7.07 4.87 12 11.68 12 6.5 0 10.65-3.5 12.58-7.3l9.03 5.04c-3.35 6.56-10.96 12.4-21.92 12.4-12.28 0-22.63-8.4-22.63-22.86 0-18.78 13.27-30.14 26.8-30.14 13.6 0 21.2 8.58 21.2 20.6-.04 3.1-.52 6.17-1.42 9.12h-35.22zm25.06-8.72c0-.2.1-1 .1-1.52 0-4.3-2.53-9.54-10.04-9.54-7.4 0-12.07 5.23-13.8 11.07h23.74z"/><filter id="g" width="195.8%" height="186.8%" x="-47.9%" y="-35.8%" filterUnits="objectBoundingBox"><feOffset dy="4" in="SourceAlpha" result="shadowOffsetOuter1"/><feGaussianBlur stdDeviation="7" in="shadowOffsetOuter1" result="shadowBlurOuter1"/><feColorMatrix values="0 0 0 0 0.503594541 0 0 0 0 0.597691893 0 0 0 0 0.834980867 0 0 0 0.271625906 0" in="shadowBlurOuter1"/></filter><path id="j" d="M144 257l15.45-74H171l-15.47 74z"/><filter id="i" width="270.4%" height="162.2%" x="-85.2%" y="-25.7%" filterUnits="objectBoundingBox"><feOffset dy="4" in="SourceAlpha" result="shadowOffsetOuter1"/><feGaussianBlur stdDeviation="7" in="shadowOffsetOuter1" result="shadowBlurOuter1"/><feColorMatrix values="0 0 0 0 0.503594541 0 0 0 0 0.597691893 0 0 0 0 0.834980867 0 0 0 0.271625906 0" in="shadowBlurOuter1"/></filter><path id="l" d="M165 258l15.1-73H226l-3.22 15.44h-30.1l-3.12 15.45h26.47l-3.1 14.8h-26.3L180.9 258z"/><filter id="k" width="175.4%" height="163%" x="-37.7%" y="-26%" filterUnits="objectBoundingBox"><feOffset dy="4" in="SourceAlpha" result="shadowOffsetOuter1"/><feGaussianBlur stdDeviation="7" in="shadowOffsetOuter1" result="shadowBlurOuter1"/><feColorMatrix values="0 0 0 0 0.503594541 0 0 0 0 0.597691893 0 0 0 0 0.834980867 0 0 0 0.271625906 0" in="shadowBlurOuter1"/></filter><path id="n" d="M214 255l10.56-50.5h15.15L229.16 255H214zm22.12-74.97c4.7 0 7.88 3.35 7.88 7.82 0 5.9-4.7 9.76-9.77 9.76-4.58 0-7.87-3.34-7.87-7.82 0-5.5 4.3-9.78 9.76-9.78v.03z"/><filter id="m" width="253.3%" height="161.3%" x="-76.7%" y="-25.3%" filterUnits="objectBoundingBox"><feOffset dy="4" in="SourceAlpha" result="shadowOffsetOuter1"/><feGaussianBlur stdDeviation="7" in="shadowOffsetOuter1" result="shadowBlurOuter1"/><feColorMatrix values="0 0 0 0 0.503594541 0 0 0 0 0.597691893 0 0 0 0 0.834980867 0 0 0 0.271625906 0" in="shadowBlurOuter1"/></filter><path id="p" d="M258.33 237.5c-.1.58-.18 1.17-.2 1.76 0 3.2 2.13 4.44 5.2 4.44 1.28-.02 2.55-.2 3.8-.54l-2.7 12.4c-2.2 1-4.6 1.5-7.04 1.43-9.5 0-15.23-5.48-15.23-13.84.03-1.5.2-2.98.53-4.43l4.1-20.03H238l2.86-13.73h2.45c5.73 0 8.38-3.1 9.63-8.36l1.53-6.6h13.9l-3.17 14.97h9.8l-2.96 13.73h-9.73l-3.97 18.8z"/><filter id="o" width="224.3%" height="168.7%" x="-62.2%" y="-28.4%" filterUnits="objectBoundingBox"><feOffset dy="4" in="SourceAlpha" result="shadowOffsetOuter1"/><feGaussianBlur stdDeviation="7" in="shadowOffsetOuter1" result="shadowBlurOuter1"/><feColorMatrix values="0 0 0 0 0.503594541 0 0 0 0 0.597691893 0 0 0 0 0.834980867 0 0 0 0.271625906 0" in="shadowBlurOuter1"/></filter><path id="r" d="M50.64 292.07l1.12-5.25H50l.37-1.73h.28c.98.08 1.86-.6 2-1.6L53 282h1.7l-.67 3.1H56l-.37 1.74h-1.97l-1.05 5.13c-.03.16-.05.3-.05.47 0 .6.36.88 1.1.88.2 0 .43 0 .65-.04l-.33 1.58c-.34.1-.7.15-1.05.14-1.42 0-2.35-.8-2.35-2.17 0-.25.02-.5.07-.76z"/><filter id="q" width="866.7%" height="453.8%" x="-383.3%" y="-146.2%" filterUnits="objectBoundingBox"><feOffset dy="4" in="SourceAlpha" result="shadowOffsetOuter1"/><feGaussianBlur stdDeviation="7" in="shadowOffsetOuter1" result="shadowBlurOuter1"/><feColorMatrix values="0 0 0 0 0.503594541 0 0 0 0 0.597691893 0 0 0 0 0.834980867 0 0 0 0.271625906 0" in="shadowBlurOuter1"/></filter><path id="t" d="M58 295l1.6-10.5h1.48l-1.6 10.5H58zm3.05-16c.25 0 .5.12.68.37.18.25.27.6.27.94-.02.9-.53 1.6-1.16 1.63-.25 0-.5-.12-.68-.37-.18-.25-.28-.6-.27-.94 0-.88.52-1.58 1.15-1.62z"/><filter id="s" width="1250%" height="387.5%" x="-575%" y="-118.8%" filterUnits="objectBoundingBox"><feOffset dy="4" in="SourceAlpha" result="shadowOffsetOuter1"/><feGaussianBlur stdDeviation="7" in="shadowOffsetOuter1" result="shadowBlurOuter1"/><feColorMatrix values="0 0 0 0 0.503594541 0 0 0 0 0.597691893 0 0 0 0 0.834980867 0 0 0 0.271625906 0" in="shadowBlurOuter1"/></filter><path id="v" d="M66.03 290.08c0 .12 0 .25 0 .37-.05.72.2 1.43.7 1.95.5.52 1.2.82 1.93.8 1.27.05 2.45-.6 3.07-1.7l1.54.98c-.95 1.6-2.7 2.57-4.56 2.52-2.56 0-4.7-1.62-4.7-4.7 0-3.93 2.8-6.3 5.7-6.3 2.8 0 4.3 1.73 4.3 4.17 0 .65-.1 1.3-.3 1.9h-7.67zm5.8-1.66c.04-.14.06-.28.05-.43.04-.62-.2-1.22-.64-1.64-.45-.43-1.06-.64-1.67-.58-1.57.04-2.9 1.13-3.26 2.65h5.54z"/><filter id="u" width="560%" height="518.2%" x="-230%" y="-172.7%" filterUnits="objectBoundingBox"><feOffset dy="4" in="SourceAlpha" result="shadowOffsetOuter1"/><feGaussianBlur stdDeviation="7" in="shadowOffsetOuter1" result="shadowBlurOuter1"/><feColorMatrix values="0 0 0 0 0.503594541 0 0 0 0 0.597691893 0 0 0 0 0.834980867 0 0 0 0.271625906 0" in="shadowBlurOuter1"/></filter><path id="x" d="M82.54 295l1.3-6.46c.06-.27.1-.55.1-.82 0-1.18-.64-1.87-1.87-1.87-1.63 0-2.53 1.5-2.82 2.94l-1.27 6.2H76l1.77-8.8c.13-.6.22-1.24.25-1.88h1.94c-.02.4-.06.8-.12 1.18.74-1.02 1.92-1.58 3.14-1.5.82-.04 1.6.28 2.2.9.57.6.87 1.45.8 2.3 0 .35-.03.7-.1 1.03L84.53 295h-1.98z"/><filter id="w" width="560%" height="518.2%" x="-230%" y="-172.7%" filterUnits="objectBoundingBox"><feOffset dy="4" in="SourceAlpha" result="shadowOffsetOuter1"/><feGaussianBlur stdDeviation="7" in="shadowOffsetOuter1" result="shadowBlurOuter1"/><feColorMatrix values="0 0 0 0 0.503594541 0 0 0 0 0.597691893 0 0 0 0 0.834980867 0 0 0 0.271625906 0" in="shadowBlurOuter1"/></filter><path id="z" d="M92.74 295c-2.46 0-3.74-2.03-3.74-4.6 0-3.4 2.03-6.4 4.95-6.4 1.6 0 2.53.8 2.95 1.63l1.27-6.63H100l-2.48 13.06c-.16.78-.23 1.58-.22 2.37 0 .12 0 .24 0 .35h-1.75c-.03-.2-.05-.4-.04-.6 0-.25.02-.5.05-.73-.68.96-1.7 1.53-2.8 1.55zm-1.87-4.62c0 1.68.73 2.86 2.25 2.86 1.8 0 3.14-2.08 3.14-4.78 0-1.5-.67-2.7-2.2-2.7-2.08 0-3.2 2.5-3.2 4.62z"/><filter id="y" width="518.2%" height="387.5%" x="-209.1%" y="-118.8%" filterUnits="objectBoundingBox"><feOffset dy="4" in="SourceAlpha" result="shadowOffsetOuter1"/><feGaussianBlur stdDeviation="7" in="shadowOffsetOuter1" result="shadowBlurOuter1"/><feColorMatrix values="0 0 0 0 0.503594541 0 0 0 0 0.597691893 0 0 0 0 0.834980867 0 0 0 0.271625906 0" in="shadowBlurOuter1"/></filter><path id="B" d="M111 284.3l-1.45 7.76c-.16.78-.23 1.58-.22 2.37 0 .12 0 .24 0 .35h-1.76c-.03-.2-.05-.4-.04-.6 0-.25 0-.5.04-.73-.7.96-1.72 1.52-2.82 1.55-2.47 0-3.75-2.03-3.75-4.6 0-3.4 2.03-6.4 4.95-6.4 1.6 0 2.54.8 2.96 1.63l.27-1.32H111zm-8.1 6.08c0 1.68.72 2.86 2.24 2.86 1.82 0 3.13-2.07 3.13-4.77 0-1.5-.67-2.7-2.2-2.7-2.1 0-3.2 2.5-3.2 4.6h.02z"/><filter id="A" width="560%" height="518.2%" x="-230%" y="-172.7%" filterUnits="objectBoundingBox"><feOffset dy="4" in="SourceAlpha" result="shadowOffsetOuter1"/><feGaussianBlur stdDeviation="7" in="shadowOffsetOuter1" result="shadowBlurOuter1"/><feColorMatrix values="0 0 0 0 0.503594541 0 0 0 0 0.597691893 0 0 0 0 0.834980867 0 0 0 0.271625906 0" in="shadowBlurOuter1"/></filter><path id="D" d="M122.82 291.03c0 .6.23 1.17.66 1.6.44.4 1.03.63 1.64.6 1.16 0 1.7-.68 1.7-1.37-.05-.56-.45-1.05-1-1.2l-1.53-.7c-1.14-.4-1.9-1.45-1.9-2.62 0-1.73 1.45-3.34 3.86-3.34 2.76 0 3.63 1.9 3.74 2.98l-1.82.54c-.04-.5-.28-.98-.67-1.3-.4-.35-.9-.5-1.42-.47-1.05 0-1.7.63-1.7 1.34 0 .52.34.98.84 1.15l1.44.64c1.4.62 2.2 1.65 2.2 2.86 0 1.33-1.05 3.24-3.86 3.24-2.9 0-4-2.06-4-3.53l1.82-.44z"/><filter id="C" width="611.1%" height="518.2%" x="-255.6%" y="-172.7%" filterUnits="objectBoundingBox"><feOffset dy="4" in="SourceAlpha" result="shadowOffsetOuter1"/><feGaussianBlur stdDeviation="7" in="shadowOffsetOuter1" result="shadowBlurOuter1"/><feColorMatrix values="0 0 0 0 0.503594541 0 0 0 0 0.597691893 0 0 0 0 0.834980867 0 0 0 0.271625906 0" in="shadowBlurOuter1"/></filter><path id="F" d="M141 284.3l-1.47 7.76c-.16.78-.23 1.58-.22 2.37 0 .12 0 .24 0 .35h-1.75c-.02-.2-.03-.4-.03-.6 0-.25 0-.5.03-.73-.68.96-1.7 1.53-2.8 1.55-2.47 0-3.75-2.03-3.75-4.6 0-3.4 2.02-6.4 4.94-6.4 1.6 0 2.53.8 2.95 1.63l.25-1.32H141zm-8.1 6.08c0 1.68.73 2.86 2.25 2.86 1.8 0 3.13-2.07 3.13-4.77 0-1.5-.67-2.7-2.2-2.7-2.1 0-3.2 2.5-3.2 4.6h.02z"/><filter id="E" width="560%" height="518.2%" x="-230%" y="-172.7%" filterUnits="objectBoundingBox"><feOffset dy="4" in="SourceAlpha" result="shadowOffsetOuter1"/><feGaussianBlur stdDeviation="7" in="shadowOffsetOuter1" result="shadowBlurOuter1"/><feColorMatrix values="0 0 0 0 0.503594541 0 0 0 0 0.597691893 0 0 0 0 0.834980867 0 0 0 0.271625906 0" in="shadowBlurOuter1"/></filter><path id="H" d="M144 295l2.48-14H148l-2.48 14z"/><filter id="G" width="1250%" height="428.6%" x="-575%" y="-135.7%" filterUnits="objectBoundingBox"><feOffset dy="4" in="SourceAlpha" result="shadowOffsetOuter1"/><feGaussianBlur stdDeviation="7" in="shadowOffsetOuter1" result="shadowBlurOuter1"/><feColorMatrix values="0 0 0 0 0.503594541 0 0 0 0 0.597691893 0 0 0 0 0.834980867 0 0 0 0.271625906 0" in="shadowBlurOuter1"/></filter><path id="J" d="M153.34 295c-2.14 0-3.34-1.4-3.34-3.46 0-.4.05-.82.13-1.23l1.3-6.28h2.04l-1.27 6.23c-.07.34-.1.68-.1 1.03 0 1.1.47 1.93 1.83 1.93 1.57 0 2.5-1.38 2.8-2.9L158 284h2l-1.63 7.98c-.17.8-.25 1.62-.24 2.44 0 .12 0 .24 0 .36h-1.95c-.03-.2-.04-.42-.04-.63 0-.1 0-.34 0-.63-.66.9-1.7 1.46-2.8 1.48z"/><filter id="I" width="560%" height="518.2%" x="-230%" y="-172.7%" filterUnits="objectBoundingBox"><feOffset dy="4" in="SourceAlpha" result="shadowOffsetOuter1"/><feGaussianBlur stdDeviation="7" in="shadowOffsetOuter1" result="shadowBlurOuter1"/><feColorMatrix values="0 0 0 0 0.503594541 0 0 0 0 0.597691893 0 0 0 0 0.834980867 0 0 0 0.271625906 0" in="shadowBlurOuter1"/></filter><path id="L" d="M165.75 295c-2.47 0-3.75-2.03-3.75-4.6 0-3.4 2.03-6.4 4.95-6.4 1.6 0 2.53.8 2.96 1.63l1.27-6.63H173l-2.5 13.06c-.14.78-.2 1.58-.2 2.37 0 .12 0 .24 0 .35h-1.76c-.03-.2-.04-.4-.04-.6 0-.25 0-.5.04-.73-.67.96-1.7 1.53-2.8 1.55zm-1.88-4.62c0 1.68.73 2.86 2.25 2.86 1.82 0 3.13-2.08 3.13-4.78 0-1.5-.67-2.7-2.2-2.7-2.07 0-3.18 2.5-3.18 4.62z"/><filter id="K" width="518.2%" height="387.5%" x="-209.1%" y="-118.8%" filterUnits="objectBoundingBox"><feOffset dy="4" in="SourceAlpha" result="shadowOffsetOuter1"/><feGaussianBlur stdDeviation="7" in="shadowOffsetOuter1" result="shadowBlurOuter1"/><feColorMatrix values="0 0 0 0 0.503594541 0 0 0 0 0.597691893 0 0 0 0 0.834980867 0 0 0 0.271625906 0" in="shadowBlurOuter1"/></filter><path id="N" d="M185 284.3l-1.47 7.76c-.16.78-.23 1.58-.22 2.37 0 .12 0 .24 0 .35h-1.74c-.02-.2-.03-.4-.03-.6 0-.25 0-.5.03-.73-.68.96-1.7 1.53-2.8 1.55-2.48 0-3.76-2.03-3.76-4.6 0-3.4 2.03-6.4 4.95-6.4 1.6 0 2.53.8 2.96 1.63l.27-1.32H185zm-8.1 6.08c0 1.68.72 2.86 2.24 2.86 1.82 0 3.14-2.07 3.14-4.77 0-1.5-.68-2.7-2.2-2.7-2.1 0-3.2 2.5-3.2 4.6z"/><filter id="M" width="560%" height="518.2%" x="-230%" y="-172.7%" filterUnits="objectBoundingBox"><feOffset dy="4" in="SourceAlpha" result="shadowOffsetOuter1"/><feGaussianBlur stdDeviation="7" in="shadowOffsetOuter1" result="shadowBlurOuter1"/><feColorMatrix values="0 0 0 0 0.503594541 0 0 0 0 0.597691893 0 0 0 0 0.834980867 0 0 0 0.271625906 0" in="shadowBlurOuter1"/></filter><path id="P" d="M188 294.72l2.97-15.72h1.8l-1.17 6.14c.76-.8 1.76-1.23 2.8-1.17 2.4 0 3.6 2.04 3.6 4.5 0 3.68-2 6.53-4.95 6.53-1.25.06-2.4-.73-2.93-2l-.33 1.7-1.8.02zm2.68-4.47c0 1.65.82 2.84 2.25 2.9 1.66 0 3.2-1.57 3.2-4.45 0-1.85-.9-2.94-2.43-2.94-1.54 0-3.02 1.77-3.02 4.53v-.05z"/><filter id="O" width="560%" height="387.5%" x="-230%" y="-118.8%" filterUnits="objectBoundingBox"><feOffset dy="4" in="SourceAlpha" result="shadowOffsetOuter1"/><feGaussianBlur stdDeviation="7" in="shadowOffsetOuter1" result="shadowBlurOuter1"/><feColorMatrix values="0 0 0 0 0.503594541 0 0 0 0 0.597691893 0 0 0 0 0.834980867 0 0 0 0.271625906 0" in="shadowBlurOuter1"/></filter><path id="R" d="M201 295l2.5-14h1.5l-2.5 14z"/><filter id="Q" width="1250%" height="428.6%" x="-575%" y="-135.7%" filterUnits="objectBoundingBox"><feOffset dy="4" in="SourceAlpha" result="shadowOffsetOuter1"/><feGaussianBlur stdDeviation="7" in="shadowOffsetOuter1" result="shadowBlurOuter1"/><feColorMatrix values="0 0 0 0 0.503594541 0 0 0 0 0.597691893 0 0 0 0 0.834980867 0 0 0 0.271625906 0" in="shadowBlurOuter1"/></filter><path id="T" d="M210.03 290.08c0 .12 0 .25 0 .37-.04.72.22 1.42.72 1.95.5.52 1.2.82 1.9.8 1.28.05 2.46-.6 3.08-1.7l1.54.98c-.95 1.6-2.7 2.57-4.56 2.52-2.56 0-4.7-1.62-4.7-4.7 0-3.93 2.8-6.3 5.7-6.3 2.9 0 4.3 1.73 4.3 4.17 0 .65-.1 1.3-.3 1.9h-7.67zm5.8-1.66c.04-.14.06-.28.05-.43.04-.62-.2-1.22-.64-1.64-.44-.43-1.05-.64-1.67-.58-1.57.03-2.9 1.12-3.26 2.65h5.54z"/><filter id="S" width="560%" height="518.2%" x="-230%" y="-172.7%" filterUnits="objectBoundingBox"><feOffset dy="4" in="SourceAlpha" result="shadowOffsetOuter1"/><feGaussianBlur stdDeviation="7" in="shadowOffsetOuter1" result="shadowBlurOuter1"/><feColorMatrix values="0 0 0 0 0.503594541 0 0 0 0 0.597691893 0 0 0 0 0.834980867 0 0 0 0.271625906 0" in="shadowBlurOuter1"/></filter><path id="V" d="M215.64 56.25c-2.12-2.96-5.5-4.7-9.1-4.72H103.15c-.16-.4-.3-.8-.47-1.18-2-4.92-4.06-10-5.77-15.1-4.1-12.17-12.78-22.06-25.83-29.4l-.26-.13C64.7 3.1 57.96.6 50.47.07 48-.1 45.67-.1 44.17 1.6c-1.52 1.73-1.27 4.07-.84 6.56 1.06 6.14 3.4 11.8 5.7 17.1l.2.4c10.2 15.96 24.26 25.25 41.76 27.6.65.1 1.02.32 1.87 2.04 3 5.86 5.32 12.05 6.95 18.44 2.76 10.95 3.42 22.34 1.96 33.54 0 .05 0 .1-.03.15-1.2 6.16-2.92 12.2-5.1 18.07-1.57 4.37-3.43 8.62-5.6 12.72-.12.2-.23.42-.33.65v.02s0 0 0 .02c-1.34 2.78-.2 6.14 2.53 7.5 2.74 1.37 6.06.22 7.4-2.56l.08-.15c1.47-3 .38-1 1.42-3.2 2.94-6 5.33-12.23 7.12-18.65h82.94c7.13-.08 13.28-5.07 14.9-12.1l10.53-43.22c.9-3.56.16-7.33-2-10.28zM85.18 41.1C77.2 38 58.75 29.36 55.23 14.2c-.14-.63.06-1.3.53-1.75.46-.45 1.12-.63 1.75-.47 19.06 4.6 27.2 19.55 30.07 26.63.28.7.13 1.5-.4 2.04-.5.54-1.3.72-2 .45zm125.05 23.4l-10.54 43.22c-.84 3.52-3.93 6-7.5 6.03h-81.04c.1-.47.17-.95.25-1.42.65-3.76 1.1-7.54 1.34-11.34h32.42c1.34 0 3.87-2 3.87-4.43 0-2.45-2.53-4.43-3.87-4.43h-32.2c-.04-3.96-.34-7.9-.88-11.84h51.43c1.5 0 4.15-1.98 4.15-4.42s-2.64-4.42-4.14-4.42h-53.14c-.85-3.4-1.96-6.75-3.3-10-.26-.6-.5-1.2-.75-1.8h100.23c1.2 0 2.34.57 3.05 1.56.7.94.94 2.15.65 3.28z"/><filter id="U" width="126.3%" height="131.3%" x="-13.1%" y="-12.9%" filterUnits="objectBoundingBox"><feOffset dy="4" in="SourceAlpha" result="shadowOffsetOuter1"/><feGaussianBlur stdDeviation="7" in="shadowOffsetOuter1" result="shadowBlurOuter1"/><feColorMatrix values="0 0 0 0 0.503594541 0 0 0 0 0.597691893 0 0 0 0 0.834980867 0 0 0 0.271625906 0" in="shadowBlurOuter1"/></filter><path id="X" d="M106.26 37.85c.1 2.08.47 4.14 1.06 6.13.47 1.42 1.05 3.2 2.55 3.8l.13.06c1.5.53 2.95-.35 4.4-1.38 6.14-4.3 10.38-10 12.57-16.92 2.52-6.8 2.7-14 .52-21.4-.53-1.7-1.13-3.4-2.7-3.97-1.56-.57-3.06.4-4.46 1.45-10.63 7.9-15.4 18.46-14.14 31.45l.06.78zm14.38-24.3c.3-.35.78-.47 1.2-.32.43.16.73.57.75 1.04.2 4.57-.4 8.64-1.8 12.1l-.02.08v.07c-1.65 4.8-3.88 8.94-6.42 11.95-.3.36-.78.5-1.2.33-.44-.16-.74-.57-.76-1.05-.5-9.28 2.24-17.25 8.24-24.2z"/><filter id="W" width="300%" height="204.5%" x="-100%" y="-43.2%" filterUnits="objectBoundingBox"><feOffset dy="4" in="SourceAlpha" result="shadowOffsetOuter1"/><feGaussianBlur stdDeviation="7" in="shadowOffsetOuter1" result="shadowBlurOuter1"/><feColorMatrix values="0 0 0 0 0.503594541 0 0 0 0 0.597691893 0 0 0 0 0.834980867 0 0 0 0.271625906 0" in="shadowBlurOuter1"/></filter><path id="Z" d="M93 66.2c.15-2.15-1.3-3.86-2.9-5.38C78.85 50.17 59.5 49 47.03 58.24c-.72.53-2.9 2.15-3.02 4.72-.1 2.58 1.88 4.3 2.53 4.9 5.84 5.2 13.1 8.38 20.8 9.1h.14c8.17.38 15.57-1.65 21.95-6 1.76-1.2 3.4-2.6 3.57-4.76zm-12.72.12c-4 1-8.1 1.35-12.22 1.08-4-.25-7.93-1.16-11.65-2.7-.46-.16-.75-.62-.72-1.12.03-.5.38-.92.86-1.02 7.93-2.08 16.3-1.52 23.88 1.6.45.18.74.64.7 1.14-.02.5-.37.9-.84 1.02z"/><filter id="Y" width="193.9%" height="284%" x="-46.9%" y="-76%" filterUnits="objectBoundingBox"><feOffset dy="4" in="SourceAlpha" result="shadowOffsetOuter1"/><feGaussianBlur stdDeviation="7" in="shadowOffsetOuter1" result="shadowBlurOuter1"/><feColorMatrix values="0 0 0 0 0.503594541 0 0 0 0 0.597691893 0 0 0 0 0.834980867 0 0 0 0.271625906 0" in="shadowBlurOuter1"/></filter><path id="ab" d="M188.5 130c-.74 0-1.5.06-2.25.16h-55.5c-.76-.1-1.52-.16-2.28-.16-7.35 0-13.8 4.9-15.83 11.96-2.02 7.08.88 14.64 7.12 18.54 6.23 3.9 14.3 3.18 19.75-1.75 5.47-4.93 7-12.88 3.8-19.5h30.45c-3.22 6.6-1.68 14.56 3.78 19.48 5.46 4.9 13.5 5.62 19.73 1.72 6.23-3.9 9.13-11.45 7.1-18.52-2.02-7.06-8.48-11.93-15.82-11.93h-.03zm-60.03 22.48c-3.3 0-6-2.7-6-6s2.7-6 6-6 6 2.7 6 6c-.02 3.3-2.7 6-6 6zm60.04 0c-3.3 0-5.98-2.7-5.98-6s2.68-6 6-6c3.3 0 5.98 2.7 5.98 6s-2.68 6-6 6z"/><filter id="aa" width="149.5%" height="239.4%" x="-24.7%" y="-57.6%" filterUnits="objectBoundingBox"><feOffset dy="4" in="SourceAlpha" result="shadowOffsetOuter1"/><feGaussianBlur stdDeviation="7" in="shadowOffsetOuter1" result="shadowBlurOuter1"/><feColorMatrix values="0 0 0 0 0.503594541 0 0 0 0 0.597691893 0 0 0 0 0.834980867 0 0 0 0.271625906 0" in="shadowBlurOuter1"/></filter></defs><g fill="none"><g><g filter="url(#a)" transform="translate(-456 -529) translate(359 256)"><g filter="url(#b)" transform="translate(-1) translate(122 287)"><g id="Path"><use fill="#000" filter="url(#c)" xlink:href="#d"/><use fill="#fff" xlink:href="#d"/></g><g id="Shape" fill-rule="nonzero"><use fill="#000" filter="url(#e)" xlink:href="#f"/><use fill="#fff" xlink:href="#f"/></g><g id="Shape" fill-rule="nonzero"><use fill="#000" filter="url(#g)" xlink:href="#h"/><use fill="#fff" xlink:href="#h"/></g><g id="Path"><use fill="#000" filter="url(#i)" xlink:href="#j"/><use fill="#fff" xlink:href="#j"/></g><g id="Path"><use fill="#000" filter="url(#k)" xlink:href="#l"/><use fill="#fff" xlink:href="#l"/></g><g id="Shape" fill-rule="nonzero"><use fill="#000" filter="url(#m)" xlink:href="#n"/><use fill="#fff" xlink:href="#n"/></g><g id="Path"><use fill="#000" filter="url(#o)" xlink:href="#p"/><use fill="#fff" xlink:href="#p"/></g><g id="Path"><use fill="#000" filter="url(#q)" xlink:href="#r"/><use fill="#fff" xlink:href="#r"/></g><g id="Shape" fill-rule="nonzero"><use fill="#000" filter="url(#s)" xlink:href="#t"/><use fill="#fff" xlink:href="#t"/></g><g id="Shape" fill-rule="nonzero"><use fill="#000" filter="url(#u)" xlink:href="#v"/><use fill="#fff" xlink:href="#v"/></g><g id="Path"><use fill="#000" filter="url(#w)" xlink:href="#x"/><use fill="#fff" xlink:href="#x"/></g><g id="Shape" fill-rule="nonzero"><use fill="#000" filter="url(#y)" xlink:href="#z"/><use fill="#fff" xlink:href="#z"/></g><g id="Shape" fill-rule="nonzero"><use fill="#000" filter="url(#A)" xlink:href="#B"/><use fill="#fff" xlink:href="#B"/></g><g id="Path"><use fill="#000" filter="url(#C)" xlink:href="#D"/><use fill="#fff" xlink:href="#D"/></g><g id="Shape" fill-rule="nonzero"><use fill="#000" filter="url(#E)" xlink:href="#F"/><use fill="#fff" xlink:href="#F"/></g><g id="Path"><use fill="#000" filter="url(#G)" xlink:href="#H"/><use fill="#fff" xlink:href="#H"/></g><g id="Path"><use fill="#000" filter="url(#I)" xlink:href="#J"/><use fill="#fff" xlink:href="#J"/></g><g id="Shape" fill-rule="nonzero"><use fill="#000" filter="url(#K)" xlink:href="#L"/><use fill="#fff" xlink:href="#L"/></g><g id="Shape" fill-rule="nonzero"><use fill="#000" filter="url(#M)" xlink:href="#N"/><use fill="#fff" xlink:href="#N"/></g><g id="Shape" fill-rule="nonzero"><use fill="#000" filter="url(#O)" xlink:href="#P"/><use fill="#fff" xlink:href="#P"/></g><g><use fill="#000" filter="url(#Q)" xlink:href="#R"/><use fill="#fff" xlink:href="#R"/></g><g id="Shape" fill-rule="nonzero"><use fill="#000" filter="url(#S)" xlink:href="#T"/><use fill="#fff" xlink:href="#T"/></g><g id="Shape" fill-rule="nonzero"><use fill="#000" filter="url(#U)" xlink:href="#V"/><use fill="#fff" xlink:href="#V"/></g><g id="Shape" fill-rule="nonzero"><use fill="#000" filter="url(#W)" xlink:href="#X"/><use fill="#fff" xlink:href="#X"/></g><g id="Shape" fill-rule="nonzero"><use fill="#000" filter="url(#Y)" xlink:href="#Z"/><use fill="#fff" xlink:href="#Z"/></g><g fill-rule="nonzero"><use fill="#000" filter="url(#aa)" xlink:href="#ab"/><use fill="#fff" xlink:href="#ab"/></g></g></g></g></g></svg>