<svg xmlns="http://www.w3.org/2000/svg" width="103" height="46"><title>Grupo_310 Clipped</title><desc>Created with Sketch.</desc><defs><filter id="a" width="116.2%" height="118%" x="-8.1%" y="-9%" filterUnits="objectBoundingBox"><feOffset dy="2" in="SourceAlpha" result="shadowOffsetOuter1"/><feGaussianBlur stdDeviation="2" in="shadowOffsetOuter1" result="shadowBlurOuter1"/><feColorMatrix values="0 0 0 0 0.503594541 0 0 0 0 0.597691893 0 0 0 0 0.834980867 0 0 0 0.271625906 0" in="shadowBlurOuter1" result="shadowMatrixOuter1"/><feMerge><feMergeNode in="shadowMatrixOuter1"/><feMergeNode in="SourceGraphic"/></feMerge></filter></defs><g fill="none"><g fill="#00D0D2"><g filter="url(#a)" transform="translate(-497 -1184) translate(474 1138)"><g><g><g><g transform="translate(26 47) translate(.499 .515)"><path d="M72.77 28.85H62.32c-.22 0-.42-.1-.54-.3-.1-.18-.1-.42 0-.6.12-.2.32-.3.54-.3h10.4c1.88-.4 3.24-2.08 3.25-4.04.12-3.2-1.7-3.53-2-3.57h-6.7c-2-.33-3.4-2.16-3.2-4.18.06-2.54 1.85-4.7 4.3-5.22.06 0 .1 0 .14 0h9.4c.32.03.56.3.56.6 0 .32-.24.58-.55.6H68.6c-1.9.42-3.26 2.1-3.3 4.05v.04c-.13 1.4.78 2.65 2.12 2.96h6.62c.03 0 3.3.25 3.13 4.82-.05 2.53-1.84 4.67-4.3 5.15h-.08z"/><path fill-rule="nonzero" d="M92.44 28.9h-9.7c-1.25-.13-3.68-1.02-3.75-3.42.3-3.57.88-7.12 1.7-10.62 0-.02 0-.05.02-.08.06-.16 1.47-3.92 4.6-3.92h6.92c.06 0 .1 0 .17 0 .13.04 2.97.9 2.97 3.38-.08 1.93-.3 3.84-.63 5.74-.05.3-.3.5-.58.5l-13.4.1c-.33 1.6-.53 3.23-.6 4.86.04 1.86 2.35 2.22 2.65 2.27h9.62c.22 0 .42.1.54.3.1.2.1.43 0 .62-.12.2-.32.3-.54.3h.02zM81.86 15.17c-.07.3-.47 2.15-.84 4.22l12.68-.1c.3-1.68.47-3.37.53-5.06 0-1.4-1.67-2.07-2.03-2.2h-6.86c-2.2.04-3.35 2.82-3.48 3.14z"/><path fill-rule="nonzero" d="M44.25 36.77c-.04 0-.07 0-.1 0-.16-.03-.3-.1-.4-.25-.08-.13-.12-.3-.1-.44 0 0 .95-5.28 1.9-10.55.48-2.64.96-5.28 1.32-7.26.18-1 .34-1.82.45-2.4.05-.33.12-.66.2-1 .77-1.93 2.34-3.43 4.3-4.07.05 0 .1 0 .16 0h6.64c.57 0 3.64 1.16 3.28 3.62 0 .02 0 .04 0 .07l-1.67 10.2s0 .03 0 .06c-.56 1.86-1.97 3.35-3.8 4-.04.02-.1.03-.14.03l-6.1.16h-.08c-1.43-.23-2.7-1.02-3.57-2.18-.66 3.64-1.3 7.3-1.7 9.53-.08.28-.33.47-.6.46zm2.6-11.73c.62 1.38 1.86 2.4 3.34 2.7l5.96-.17c1.4-.55 2.46-1.7 2.92-3.15l1.64-10.12c.17-1.13-1.54-2.34-2.24-2.34h-6.5c-1.5.6-2.7 1.78-3.33 3.3-.1.46-.92 4.9-1.8 9.78z"/><path d="M36.23 8.25c0 .93-.74 1.68-1.66 1.68-.93 0-1.67-.75-1.67-1.68 0-.94.74-1.7 1.67-1.7.92 0 1.66.76 1.66 1.7z"/><ellipse cx="30.837" cy="2.567" rx="1.654" ry="1.671"/><path d="M28.73 8.25c0 .93-.75 1.68-1.67 1.68-.92 0-1.67-.75-1.67-1.68 0-.94.74-1.7 1.66-1.7.92 0 1.67.76 1.67 1.7z"/><ellipse cx="34.39" cy="31.011" rx="1.654" ry="1.671"/><ellipse cx="30.828" cy="25.674" rx="1.654" ry="1.671"/><ellipse cx="23.526" cy="25.674" rx="1.369" ry="1.384"/><path d="M28.54 31c0 .57-.33 1.08-.84 1.3-.5.2-1.1.1-1.5-.3-.38-.4-.5-1-.3-1.52.22-.5.72-.85 1.28-.85.75 0 1.36.62 1.36 1.38z"/><ellipse cx="23.429" cy="36.867" rx="1.369" ry="1.384"/><ellipse cx="19.891" cy="31.011" rx="1.061" ry="1.072"/><ellipse cx="6.856" cy="19.809" rx="1.061" ry="1.072"/><ellipse cx="8.751" cy="14.101" rx="1.061" ry="1.072"/><path d="M13.4 8.25c0 .6-.47 1.07-1.05 1.07-.6 0-1.07-.48-1.07-1.07 0-.6.48-1.08 1.07-1.08.58 0 1.06.48 1.06 1.08z"/><path d="M17.05 2.7c0 .43-.26.82-.65.98-.4.17-.86.08-1.16-.23-.3-.3-.4-.77-.23-1.17.18-.4.56-.66 1-.66.58 0 1.05.48 1.05 1.07z"/><ellipse cx="16.091" cy="36.867" rx="1.061" ry="1.072"/><ellipse cx="12.45" cy="31.011" rx="1.061" ry="1.072"/><ellipse cx="8.701" cy="25.674" rx="1.061" ry="1.072"/><ellipse cx="6.701" cy="31.011" rx="1" ry="1"/><ellipse cx="3.286" cy="25.674" rx="1" ry="1"/><path d="M1.73 19.7c0 .24-.13.44-.34.52-.2.1-.45.04-.6-.12-.16-.16-.2-.4-.12-.6.08-.2.28-.34.5-.34.3 0 .55.25.55.55z"/><ellipse cx="3.132" cy="14.11" rx="1" ry="1"/><ellipse cx="6.826" cy="8.299" rx="1" ry="1"/><ellipse cx="16.041" cy="25.674" rx="1.369" ry="1.384"/><ellipse cx="12.192" cy="19.822" rx="1.369" ry="1.384"/><path d="M17.36 14.1c0 .56-.33 1.07-.84 1.3-.52.2-1.1.1-1.5-.3-.4-.4-.5-1-.3-1.52s.7-.86 1.27-.85c.74 0 1.35.6 1.36 1.37z"/><ellipse cx="19.785" cy="8.245" rx="1.369" ry="1.384"/><ellipse cx="23.379" cy="2.592" rx="1.369" ry="1.384"/><ellipse cx="19.69" cy="19.823" rx="1.654" ry="1.671"/><ellipse cx="23.381" cy="14.101" rx="1.654" ry="1.671"/><ellipse cx="30.828" cy="36.867" rx="1.654" ry="1.671"/><path d="M20.53 19.23H45v1.03H20.54z"/><path d="M24.6 13.6h7.7v1h-7.7z"/><path d="M35.6 20.2l-4.23-6.62h1.2l4.22 6.62z"/><path d="M32.12 25.16h3.93v1.03h-3.93z"/><path d="M35.1 26.2l3.52-6h1l-3.5 6z"/></g></g></g></g></g></g></g></svg>