<svg xmlns="http://www.w3.org/2000/svg" width="39" height="61"><title>scroll (1)</title><desc>Created with Sketch.</desc><defs><filter id="a" width="101.6%" height="100.3%" x="-1.3%" y="-.2%" filterUnits="objectBoundingBox"><feOffset dy="2" in="SourceAlpha" result="shadowOffsetOuter1"/><feGaussianBlur stdDeviation=".5" in="shadowOffsetOuter1" result="shadowBlurOuter1"/><feColorMatrix values="0 0 0 0 0.503594541 0 0 0 0 0.597691893 0 0 0 0 0.834980867 0 0 0 0.271625906 0" in="shadowBlurOuter1" result="shadowMatrixOuter1"/><feMerge><feMergeNode in="shadowMatrixOuter1"/><feMergeNode in="SourceGraphic"/></feMerge></filter></defs><g fill="none"><g fill="#27D8DB" fill-rule="nonzero"><g><g filter="url(#a)" transform="translate(-951 -918.5)"><g><path d="M970.53 966.9l-10-10.58 3.23-3.06 6.76 7.14 6.72-7.13 3.24 3.05-9.95 10.57zm18.47-4.26v-30.28c0-7.37-6-13.36-13.37-13.36h-10.26C958 919 952 925 952 932.36v30.28c0 7.37 6 13.36 13.37 13.36h10.26c7.37 0 13.37-6 13.37-13.36zm-13.37-39.2c4.9 0 8.9 4 8.9 8.92v30.28c0 4.9-4 8.9-8.9 8.9h-10.26c-4.9 0-8.9-4-8.9-8.9v-30.28c0-4.9 4-8.9 8.9-8.9h10.26zm-5.13 4.58c-1.23 0-2.23 1-2.23 2.22 0 1.23 1 2.23 2.23 2.23s2.23-1 2.23-2.23-1-2.22-2.23-2.22zm0 8.9c-1.23 0-2.23 1-2.23 2.23s1 2.23 2.23 2.23 2.23-1 2.23-2.23-1-2.23-2.23-2.23zm0 8.9c-1.23 0-2.23 1-2.23 2.24 0 1.23 1 2.22 2.23 2.22s2.23-1 2.23-2.22c0-1.23-1-2.23-2.23-2.23z"/></g></g></g></g></g></svg>