<svg xmlns="http://www.w3.org/2000/svg" width="391" height="53"><defs><filter id="a" width="87" height="53" x="0" y="0" filterUnits="userSpaceOnUse"><feOffset dy="3"/><feGaussianBlur stdDeviation="3" result="blur"/><feFlood flood-opacity=".161"/><feComposite operator="in" in2="blur"/><feComposite in="SourceGraphic"/></filter><clipPath id="b"/><filter id="c" width="87" height="53" x="151" y="0" filterUnits="userSpaceOnUse"><feOffset dy="3"/><feGaussianBlur stdDeviation="3" result="blur-2"/><feFlood flood-opacity=".161"/><feComposite operator="in" in2="blur-2"/><feComposite in="SourceGraphic"/></filter><filter id="d" width="87" height="53" x="304" y="0" filterUnits="userSpaceOnUse"><feOffset dy="3"/><feGaussianBlur stdDeviation="3" result="blur-3"/><feFlood flood-opacity=".161"/><feComposite operator="in" in2="blur-3"/><feComposite in="SourceGraphic"/></filter><filter id="e" width="87" height="53" x="228.001" y="0" filterUnits="userSpaceOnUse"><feOffset dy="3"/><feGaussianBlur stdDeviation="3" result="blur-4"/><feFlood flood-opacity=".161"/><feComposite operator="in" in2="blur-4"/><feComposite in="SourceGraphic"/></filter></defs><g><g><g><g transform="translate(0 0)" filter="url(#a)"><rect width="69" height="35" fill="#fff" rx="9" transform="translate(9 6)"/></g><g fill="#00d0d2" transform="translate(21.869 -2.131)" clip-path="url(#b)"><path d="M35.77 30.55h-6.05a.34.34 0 1 1 0-.68h6.02a2.38 2.38 0 0 0 1.9-2.32c.06-1.85-1-2.04-1.17-2.06h-3.9a2.2 2.2 0 0 1-1.83-2.4 3.1 3.1 0 0 1 2.5-3 .37.37 0 0 1 .06 0h5.45a.35.35 0 0 1 0 .7h-5.4a2.43 2.43 0 0 0-1.93 2.3v.04a1.6 1.6 0 0 0 1.24 1.7h3.84s1.9.13 1.8 2.76a3.07 3.07 0 0 1-2.48 2.95z"/><path d="M47.18 30.6h-5.62c-.73-.1-2.14-.6-2.18-1.98a44.98 44.98 0 0 1 1-6.1.14.14 0 0 1 0-.04c.04-.1.86-2.25 2.67-2.25h4.02a.32.32 0 0 1 .1 0c.06.03 1.7.52 1.7 1.94a24.78 24.78 0 0 1-.36 3.3.34.34 0 0 1-.32.28l-7.78.06a17.96 17.96 0 0 0-.34 2.8c.02 1.06 1.36 1.27 1.54 1.3h5.57a.34.34 0 1 1 0 .7zm-6.14-7.9c-.04.18-.27 1.23-.48 2.42l7.35-.06a22.32 22.32 0 0 0 .32-2.9c0-.8-.97-1.2-1.18-1.26h-3.98c-1.26.02-1.94 1.6-2.02 1.8z"/><path d="M19.23 35.1a.26.26 0 0 1-.06 0 .34.34 0 0 1-.27-.4s.54-3.03 1.1-6.05c.27-1.52.55-3.03.76-4.17.1-.57.2-1.04.26-1.37a5.24 5.24 0 0 1 .12-.56 4 4 0 0 1 2.5-2.34.4.4 0 0 1 .08 0h3.85c.33 0 2.1.66 1.9 2.07a.2.2 0 0 0 0 .04l-.96 5.87a.18.18 0 0 1 0 .03 3.53 3.53 0 0 1-2.2 2.3.28.28 0 0 1-.08.02l-3.54.1h-.04a3.24 3.24 0 0 1-2.07-1.26c-.38 2.1-.76 4.2-1 5.47a.35.35 0 0 1-.34.26zm1.5-6.73a2.76 2.76 0 0 0 1.95 1.55l3.46-.1a2.9 2.9 0 0 0 1.7-1.8l.95-5.82c.1-.65-.9-1.34-1.3-1.34h-3.77a3.44 3.44 0 0 0-1.94 1.9c-.08.26-.54 2.8-1.06 5.6z"/><path d="M14.6 18.73a.97.97 0 1 1-.98-.97.97.97 0 0 1 .97.97z"/><circle cx=".959" cy=".959" r=".959" transform="translate(10.501 14.514)"/><path d="M10.24 18.73a.97.97 0 1 1-.97-.97.97.97 0 0 1 .97.97z"/><circle cx=".959" cy=".959" r=".959" transform="translate(12.561 30.834)"/><circle cx=".959" cy=".959" r=".959" transform="translate(10.496 27.772)"/><circle cx=".794" cy=".794" r=".794" transform="translate(6.427 27.937)"/><path d="M10.13 31.8a.8.8 0 1 1-.8-.8.8.8 0 0 1 .8.8z"/><circle cx=".794" cy=".794" r=".794" transform="translate(6.371 34.359)"/><circle cx=".615" cy=".615" r=".615" transform="translate(4.498 31.178)"/><circle cx=".615" cy=".615" r=".615" transform="translate(-3.06 24.751)"/><circle cx=".615" cy=".615" r=".615" transform="translate(-1.961 21.476)"/><path d="M1.35 18.73a.61.61 0 1 1-.6-.6.61.61 0 0 1 .6.6z"/><path d="M3.47 15.55a.61.61 0 1 1-.62-.62.61.61 0 0 1 .62.62z"/><circle cx=".615" cy=".615" r=".615" transform="translate(2.295 34.538)"/><circle cx=".615" cy=".615" r=".615" transform="translate(.184 31.178)"/><circle cx=".615" cy=".615" r=".615" transform="translate(-1.99 28.116)"/><circle cx=".317" cy=".317" r=".317" transform="translate(-2.852 31.476)"/><circle cx=".317" cy=".317" r=".317" transform="translate(-4.832 28.414)"/><path d="M-5.42 25.3a.32.32 0 1 1-.3-.3.32.32 0 0 1 .3.3z"/><circle cx=".317" cy=".317" r=".317" transform="translate(-4.921 21.779)"/><circle cx=".317" cy=".317" r=".317" transform="translate(-2.779 18.445)"/><circle cx=".794" cy=".794" r=".794" transform="translate(2.087 27.937)"/><circle cx=".794" cy=".794" r=".794" transform="translate(-.145 24.579)"/><path d="M3.64 22.1a.8.8 0 1 1-.8-.8.8.8 0 0 1 .8.8z"/><circle cx=".794" cy=".794" r=".794" transform="translate(4.258 17.937)"/><circle cx=".794" cy=".794" r=".794" transform="translate(6.342 14.693)"/><circle cx=".959" cy=".959" r=".959" transform="translate(4.038 24.415)"/><circle cx=".959" cy=".959" r=".959" transform="translate(6.178 21.132)"/><circle cx=".959" cy=".959" r=".959" transform="translate(10.496 34.194)"/><path d="M5.5 25.03h14.18v.6H5.48z"/><path d="M7.85 21.8h4.46v.58H7.86z"/><path d="M14.23 25.6l-2.46-3.8h.7l2.44 3.8z"/><path d="M12.2 28.44h2.28v.6H12.2z"/><path d="M13.94 29.03l2.03-3.44h.6l-2.05 3.43z"/></g></g></g><g><g><g transform="translate(0 0)" filter="url(#c)"><rect width="69" height="35" fill="#fff" rx="9" transform="translate(160 6)"/></g><g><path fill="#00d0d2" d="M184.33 23.25a7 7 0 0 0 4.55 6.62V16.63a7 7 0 0 0-4.55 6.62z"/><path fill="#01b7b9" d="M193.92 16.63v13.24a7.1 7.1 0 0 0 4.54-6.62 7 7 0 0 0-4.54-6.62z"/><g fill="#029798"><path d="M193.92 29.87a7.1 7.1 0 0 0 4.54-6.62"/><path d="M197.18 11h-5.73a12.05 12.05 0 0 0-12.35 12.35 12.25 12.25 0 0 0 12.35 12.15h5.73c6.72 0 12.84-5.43 12.84-12.15A12.64 12.64 0 0 0 197.18 11zm-5.73 23.4a11.2 11.2 0 1 1 11.26-11.15 11.3 11.3 0 0 1-11.25 11.16z"/></g><path fill="#01b7b9" d="M207.75 21.37a11.9 11.9 0 0 0-3.46-8.3 13.6 13.6 0 0 0-7.12-2.07h-5.73a12.05 12.05 0 0 0-12.35 12.35 12.2 12.2 0 0 0 3.06 8 16.46 16.46 0 0 0 6.92 2.77 11.46 11.46 0 1 1 2.66.2h.5c8.5.1 15.5-5.73 15.5-12.95z"/><path fill="#00d0d2" d="M191.35 11A12.05 12.05 0 0 0 179 23.35a11.6 11.6 0 0 0 2.96 7.8l.3.3a17.42 17.42 0 0 0 6.82 2.77 11.46 11.46 0 1 1 2.67.2h.5a7.48 7.48 0 0 0 1.47-.1c6.52-1.6 10.67-8.2 9.5-15.22a13.74 13.74 0 0 0-4.46-8 7.48 7.48 0 0 0-1.48-.1z"/></g></g><g><g transform="translate(0 0)" filter="url(#d)"><rect width="69" height="35" fill="#fff" rx="9" transform="translate(313 6)"/></g><g><path fill="#00d0d2" d="M366.22 23.47a11.47 11.47 0 0 1-22.93 0 11.47 11.47 0 1 1 22.92 0z"/><path fill="#029798" d="M339.35 12a11.47 11.47 0 0 0 .12 22.93 11.6 11.6 0 0 0 7.7-2.97 10.9 10.9 0 0 0 1.15-1.2h-2.36a14 14 0 0 1-.85-1.17h4.07a7.77 7.77 0 0 0 .67-1.22h-5.4a7.23 7.23 0 0 1-.48-1.2h6.3a12.05 12.05 0 0 0 .6-3.65 15.66 15.66 0 0 0-.23-2.43h-7.04a8.87 8.87 0 0 1 .3-1.2h6.3a7.23 7.23 0 0 0-.48-1.22h-5.34a12.03 12.03 0 0 1 .67-1.22h4.06a5.77 5.77 0 0 0-.9-1.2h-2.24a10.34 10.34 0 0 1 1.15-1.16 11.2 11.2 0 0 0-7.7-2.98c0-.12 0-.12-.05-.12z"/><g fill="#fff"><path d="M343.53 26.38l.18-1.03a2.63 2.63 0 0 1-.3.06c-.4 0-.47-.23-.4-.36l.35-2.12h.67l.18-1.15h-.6l.1-.73h-1.2s-.73 4-.73 4.5a.9.9 0 0 0 .97 1.02 1.86 1.86 0 0 0 .8-.18z"/><path d="M343.96 24.44a1.93 1.93 0 0 0 2.12 2.12 3.15 3.15 0 0 0 1.27-.18l.25-1.15a3.64 3.64 0 0 1-1.28.3c-1.33 0-1.1-.97-1.1-.97h2.5a7.87 7.87 0 0 0 .18-1.1 1.64 1.64 0 0 0-1.76-1.76c-1.27-.1-2.18 1.22-2.18 2.74zm2.12-1.76c.67 0 .55.8.55.85h-1.34c0-.06.1-.85.78-.85z"/><path d="M353.78 26.38l.25-1.34a2.98 2.98 0 0 1-1.03.3c-.85 0-1.22-.66-1.22-1.4 0-1.45.73-2.24 1.58-2.24a2.03 2.03 0 0 1 1.1.36l.17-1.27a4.27 4.27 0 0 0-1.4-.3c-1.4 0-2.8 1.2-2.8 3.5 0 1.52.74 2.56 2.2 2.56a5.45 5.45 0 0 0 1.15-.18z"/><path d="M336.86 21.6a4.3 4.3 0 0 0-1.46.23l-.18 1.03a3.6 3.6 0 0 1 1.33-.24c.43 0 .8.06.8.42 0 .24-.07.3-.07.3h-.54c-1.04 0-2.2.43-2.2 1.82 0 1.1.74 1.34 1.16 1.34a1.82 1.82 0 0 0 1.28-.55l-.06.5h1.1l.47-3.35a1.44 1.44 0 0 0-1.64-1.5zm.24 2.72c0 .18-.12 1.15-.85 1.15a.47.47 0 0 1-.48-.5c0-.3.18-.7 1.1-.7a.96.96 0 0 0 .23.05z"/><path d="M339.65 26.5a1.55 1.55 0 0 0 1.82-1.58c0-1.5-1.45-1.2-1.45-1.82 0-.3.24-.42.66-.42.2 0 .85.06.85.06l.18-1.1a4.6 4.6 0 0 0-1.14-.1c-.9 0-1.82.35-1.82 1.56 0 1.4 1.52 1.28 1.52 1.82 0 .37-.43.43-.73.43a3.97 3.97 0 0 1-1.1-.18l-.17 1.1c.05.1.36.23 1.4.23z"/><path d="M363.86 20.62l-.25 1.63a1.68 1.68 0 0 0-1.14-.6c-1.1 0-2.06 1.33-2.06 2.9 0 .98.48 2 1.5 2a1.62 1.62 0 0 0 1.17-.48l-.06.43h1.22l.9-5.83zm-.55 3.2c0 .68-.3 1.53-.96 1.53-.43 0-.67-.37-.67-.97 0-.97.43-1.58.97-1.58.43 0 .67.3.67 1.03z"/><path d="M330.25 26.44l.72-4.37.12 4.37h.84l1.58-4.37-.67 4.37h1.28l.97-5.83h-2l-1.22 3.6-.06-3.6h-1.76l-.97 5.84z"/><path d="M349.05 26.44c.37-2 .43-3.64 1.28-3.34a4.76 4.76 0 0 1 .42-1.4h-.24c-.54 0-.96.73-.96.73l.12-.67h-1.15l-.78 4.74h1.33z"/><path d="M356.58 21.6a4.3 4.3 0 0 0-1.46.23l-.18 1.03a3.6 3.6 0 0 1 1.33-.24c.43 0 .8.06.8.42 0 .24-.07.3-.07.3h-.55c-1.03 0-2.18.43-2.18 1.82 0 1.1.73 1.34 1.15 1.34a1.82 1.82 0 0 0 1.28-.55l-.06.5h1.1l.47-3.35a1.42 1.42 0 0 0-1.62-1.5zm.3 2.72c0 .18-.12 1.15-.85 1.15a.47.47 0 0 1-.5-.5c0-.3.2-.7 1.1-.7.2.05.2.05.25.05z"/><path d="M359.25 26.44c.36-2 .42-3.64 1.27-3.34a4.76 4.76 0 0 1 .43-1.4h-.25c-.54 0-.97.73-.97.73l.12-.67h-1.15l-.8 4.74h1.35z"/></g></g></g></g><g><g transform="translate(0 -.001)" filter="url(#e)"><rect width="69" height="35" fill="#00d0d2" rx="9" transform="translate(237 6)"/></g><path fill="#fff" d="M265.72 30.46l2.32-13.03h3.62l-2.25 13.03z"/><path fill="#fff" d="M265.72 30.46l2.97-13.03h2.96l-2.25 13.03z"/><path fill="#fff" d="M282.5 17.58a9.18 9.18 0 0 0-3.32-.58c-3.6 0-6.22 1.8-6.22 4.42 0 1.95 1.8 2.96 3.26 3.6s1.88 1.1 1.88 1.68c0 .87-1.16 1.3-2.17 1.3a7.87 7.87 0 0 1-3.48-.72l-.5-.22-.5 2.97a11.74 11.74 0 0 0 4.12.72c3.83 0 6.37-1.8 6.37-4.56 0-1.53-.95-2.68-3.12-3.63-1.3-.65-2.1-1-2.1-1.66 0-.57.65-1.15 2.1-1.15a6.64 6.64 0 0 1 2.75.5l.37.15.57-2.82z"/><path fill="#fff" d="M282.5 17.58a9.18 9.18 0 0 0-3.32-.58c-3.6 0-5.57 1.8-5.57 4.42a3.78 3.78 0 0 0 2.62 3.6c1.44.67 1.88 1.1 1.88 1.68 0 .87-1.16 1.3-2.17 1.3a7.87 7.87 0 0 1-3.48-.72l-.5-.22-.5 2.97a11.74 11.74 0 0 0 4.12.72c3.83 0 6.37-1.8 6.37-4.56 0-1.53-.95-2.68-3.12-3.63-1.3-.65-2.1-1-2.1-1.66 0-.57.65-1.15 2.1-1.15a6.64 6.64 0 0 1 2.75.5l.37.15.57-2.82z"/><path fill="#fff" d="M288.74 17.43c-.87 0-1.52.07-1.88.94l-5.43 12.1h3.9l.73-2.18h4.63l.43 2.16h3.47l-3.04-13.03zm-1.67 8.7c.22-.66 1.45-3.85 1.45-3.85s.3-.8.5-1.3l.23 1.23s.72 3.27.87 4h-3.04z"/><path fill="#fff" d="M289.6 17.43c-.86 0-1.5.07-1.87.94l-6.3 12.1h3.9l.73-2.18h4.63l.43 2.16h3.47l-3.04-13.03zm-2.53 8.7c.3-.74 1.45-3.85 1.45-3.85s.3-.8.5-1.3l.23 1.23s.72 3.27.87 4h-3.04z"/><path fill="#fff" d="M259.06 26.55l-.36-1.88a10.5 10.5 0 0 0-5.07-5.72l3.26 11.6 3.9-.02 5.86-13.02h-3.9z"/><path fill="#fff" d="M259.06 26.55l-.36-1.88a10.5 10.5 0 0 0-5.07-5.72l3.26 11.6 3.9-.02 5.86-13.02h-3.18z"/><path fill="#fff" d="M249 17.43l.65.15c4.63 1.08 7.82 3.83 9.05 7.1l-1.3-6.16c-.22-.87-.87-1.1-1.67-1.1z"/><path fill="#fff" d="M249 17.43c4.63 1.1 8.47 3.9 9.7 7.17l-1.23-5.14a1.77 1.77 0 0 0-1.74-1.38z"/><path fill="#fff" d="M249 17.43c4.63 1.1 8.47 3.9 9.7 7.17l-.87-2.82a2.55 2.55 0 0 0-1.52-2.1z"/><g fill="#fff"><path d="M262.68 26.12l-2.46-2.46-1.16 2.75-.3-1.8a10.5 10.5 0 0 0-5.05-5.72l3.26 11.58h3.9z"/><path d="M269.4 30.46l-3.1-3.18-.58 3.18z"/><path d="M277.74 25.98c.3.3.43.5.36.8 0 .86-1.16 1.3-2.17 1.3a7.87 7.87 0 0 1-3.48-.73l-.5-.22-.5 2.97a11.74 11.74 0 0 0 4.12.72 7.17 7.17 0 0 0 5.28-1.8z"/><path d="M281.94 30.46h3.4l.72-2.17h4.63l.43 2.16h3.47l-1.23-5.28-4.34-4.2.22 1.16s.72 3.25.86 3.98h-3.03c.3-.73 1.45-3.84 1.45-3.84s.3-.8.5-1.3"/></g></g><g><g><path fill="#00d0d2" d="M93 6h51a9 9 0 0 1 9 9v17a9 9 0 0 1-9 9H93a9 9 0 0 1-9-9V15a9 9 0 0 1 9-9z"/><g fill="#fff"><path d="M100.58 19.95l-.83-2.05-.83 2.05m19.98-.82a1.1 1.1 0 0 1-.6.1h-1.48V18.1h1.5a1.23 1.23 0 0 1 .58.1.47.47 0 0 1 .25.44.53.53 0 0 1-.25.5m10.53.8l-.84-2.05-.85 2.05zm-19.62 2.23h-1.24v-4.03l-1.77 4.03h-1.08l-1.76-4.04v4.04h-2.47l-.48-1.15H98.5L98 22.17H96.7l2.18-5.15h1.8l2.07 4.88v-4.88h1.98l1.6 3.5 1.45-3.5h2.02v5.15zm4.97 0h-4.06v-5.15h4.06v1.07h-2.84V19h2.78v1.06h-2.78v1.03h2.85v1.07zm5.72-3.76a1.45 1.45 0 0 1-.87 1.38 1.4 1.4 0 0 1 .6.44 1.5 1.5 0 0 1 .2.94v1h-1.22v-.64a1.56 1.56 0 0 0-.2-1c-.16-.18-.43-.22-.87-.22h-1.3v1.87h-1.22v-5.15h2.8a2.82 2.82 0 0 1 1.47.25 1.2 1.2 0 0 1 .62 1.14m1.93 3.78h-1.24v-5.16h1.23zm14.38 0h-1.7l-2.3-3.87v3.88h-2.5l-.46-1.15h-2.53l-.44 1.15h-1.43a2.53 2.53 0 0 1-1.76-.57 2.6 2.6 0 0 1-.65-1.96 2.76 2.76 0 0 1 .66-2.02 2.44 2.44 0 0 1 1.84-.6h1.18v1.1h-1.15a1.16 1.16 0 0 0-.94.3 1.72 1.72 0 0 0-.33 1.18 1.8 1.8 0 0 0 .33 1.2 1.16 1.16 0 0 0 .85.27h.54l1.7-4.05h1.82l2.06 4.87V17h1.85l2.13 3.6V17h1.25v5.15zm-40.1 1h2.06l.47-1.14h1.05l.47 1.15h4.08v-.9l.37.9h2.1l.38-.9v.9h10.14v-1.9h.2c.14 0 .18.02.18.25v1.63h5.25v-.43a4.1 4.1 0 0 0 1.95.43h2.2l.47-1.14h1.05l.46 1.14h4.26V22.1l.64 1.08h3.4V16h-3.36v.85l-.48-.85h-3.46v.85l-.43-.85h-4.68a4.16 4.16 0 0 0-2.03.42V16h-3.22v.42a1.98 1.98 0 0 0-1.38-.42h-11.8l-.78 1.86-.8-1.86h-3.73v.85l-.4-.85h-3.17l-1.47 3.42L95 23.2z"/><path d="M140.6 28.04v-3.3h-3.03a2.5 2.5 0 0 0-1.52.42v-.42h-3.33a2.28 2.28 0 0 0-1.45.42v-.42h-5.94v.42a3.13 3.13 0 0 0-1.64-.42h-3.93v.42a2.75 2.75 0 0 0-1.7-.42h-4.4l-1 1.1-.93-1.1h-6.55v7.2h6.4l1.05-1.13.97 1.13h3.96v-1.7h.4a4.08 4.08 0 0 0 1.7-.25v1.94h3.25v-1.87h.16c.2 0 .2 0 .2.2v1.67h9.94a2.8 2.8 0 0 0 1.65-.46v.46h3.14a4.17 4.17 0 0 0 1.78-.33v-.02a2.6 2.6 0 0 0 .8-3.54zm-22.58 1.15h-1.5v1.72h-2.38l-1.5-1.7-1.55 1.7h-4.82v-5.15h4.88l1.5 1.7 1.54-1.7h3.9c.95 0 2.03.27 2.03 1.7s-1.04 1.72-2.1 1.72zm7.32-.24a1.5 1.5 0 0 1 .2.94v1.02h-1.22v-.64a1.54 1.54 0 0 0-.2-1c-.18-.2-.45-.24-.9-.24h-1.3v1.88h-1.2v-5.15h2.8a2.97 2.97 0 0 1 1.46.24 1.2 1.2 0 0 1 .62 1.16 1.44 1.44 0 0 1-.86 1.37 1.33 1.33 0 0 1 .6.43zm5-2.12h-2.85v.93h2.77v1.05h-2.78v1.03h2.84v1.07h-4.06v-5.15h4.06v1.07zm3.1 4.08h-2.38v-1.1h2.36a.7.7 0 0 0 .5-.13.46.46 0 0 0 .15-.34.45.45 0 0 0-.15-.34.63.63 0 0 0-.44-.12c-1.13-.04-2.56.04-2.56-1.6a1.52 1.52 0 0 1 1.74-1.53h2.44v1.1h-2.23a.82.82 0 0 0-.5.1.43.43 0 0 0 .1.75 1.4 1.4 0 0 0 .47.06l.65.02a1.94 1.94 0 0 1 1.38.4 1.44 1.44 0 0 1 .36 1.1c0 1.1-.7 1.62-1.9 1.62zm6.25-.5a2.05 2.05 0 0 1-1.52.5h-2.35v-1.1h2.34a.68.68 0 0 0 .5-.13.45.45 0 0 0 .13-.34.43.43 0 0 0-.15-.34.6.6 0 0 0-.43-.12c-1.14-.04-2.56.04-2.56-1.6a1.52 1.52 0 0 1 1.74-1.53h2.38v1.1h-2.17a.84.84 0 0 0-.48.1.4.4 0 0 0-.18.37.4.4 0 0 0 .26.38 1.36 1.36 0 0 0 .47.06l.66.02a1.9 1.9 0 0 1 1.38.4.7.7 0 0 1 .12.14l-.04-.05a1.7 1.7 0 0 1-.1 2.13zm-29.16-3.6l1.33 1.5-1.4 1.52h-2.98v-1.02h2.66v-1.05h-2.67v-.94zm2.9 1.53l1.86-2.03v4.13zm5.4-.9c0 .46-.3.7-.76.7h-1.57v-1.32h1.6c.43 0 .74.2.74.64zm5.42-.06a.56.56 0 0 1-.25.48 1.15 1.15 0 0 1-.6.1h-1.47v-1.15h1.5a1.18 1.18 0 0 1 .58.1.5.5 0 0 1 .26.46z"/></g></g></g></g></svg>