<svg xmlns="http://www.w3.org/2000/svg" width="62" height="62"><title>credit-card</title><desc>Created with Sketch.</desc><g fill="none"><g fill="#27D8DB"><g><path id="Shape" fill-rule="nonzero" d="M60.35 21.28L40.72 1.64C39.66.58 38.25 0 36.74 0c-1.5 0-2.92.58-3.98 1.64L1.64 32.76C.58 33.82 0 35.24 0 36.74s.58 2.92 1.64 3.98l2.42 2.42 16.28 16.28h-2.26c-.7 0-1.3.57-1.3 1.3 0 .7.6 1.28 1.3 1.28H43.92c.7 0 1.3-.58 1.3-1.3 0-.7-.6-1.28-1.3-1.28H30.18l30.17-30.18c2.2-2.2 2.2-5.77 0-7.96zm-1.82 6.13L27.4 58.54c-.56.57-1.33.9-2.14.9-.82 0-1.6-.33-2.16-.9L6.8 42.23l29.9-29.9c.5-.5.5-1.3 0-1.8-.5-.52-1.33-.52-1.84 0L4.98 40.4l-1.5-1.5c-.58-.58-.9-1.34-.9-2.16 0-.8.32-1.58.9-2.15l31.1-31.13c.58-.57 1.35-.9 2.16-.9.82 0 1.58.33 2.16.9l6.98 7L16 40.34c-.5.5-.5 1.32 0 1.82.25.25.58.38.9.38.34 0 .67-.13.92-.38l29.9-29.9L58.5 23.1c1.2 1.2 1.2 3.12 0 4.3z"/><path id="Path" d="M32.6 37.4c-.5-.53-1.33-.53-1.85 0L20.4 47.74c-.53.52-.53 1.35 0 1.86.24.27.58.4.92.4.33 0 .67-.13.93-.4L32.6 39.26c.53-.52.53-1.35 0-1.86zM27.7 46.4l-4.3 4.3c-.53.54-.53 1.38 0 1.9.25.27.6.4.94.4.34 0 .68-.13.95-.4l4.3-4.3c.53-.54.53-1.38 0-1.9-.52-.53-1.36-.53-1.9 0zM30.9 43.36l-.54.53c-.48.47-.48 1.25 0 1.74.24.24.56.36.88.36.3 0 .63-.12.87-.36l.54-.53c.48-.47.48-1.25 0-1.74-.5-.48-1.27-.48-1.75 0z"/><path fill-rule="nonzero" d="M49.22 20.36c-.23-.23-.54-.36-.86-.36-.32 0-.63.13-.86.36l-5.14 5.14c-.23.23-.36.54-.36.86 0 .32.13.63.36.86l3.43 3.42c.22.24.53.36.84.36.3 0 .62-.12.86-.36l5.14-5.14c.48-.47.48-1.24 0-1.7l-3.42-3.44zm-2.58 7.7l-1.7-1.7 3.42-3.43 1.7 1.7-3.42 3.44z"/><path d="M39.24 10c.3 0 .63-.12.87-.36l.54-.53c.48-.47.48-1.25 0-1.74-.5-.48-1.27-.48-1.75 0l-.54.53c-.48.47-.48 1.25 0 1.74.24.24.56.36.88.36zM12.9 43.36l-.54.53c-.48.47-.48 1.25 0 1.74.24.24.56.36.88.36.3 0 .63-.12.87-.36l.54-.53c.48-.47.48-1.25 0-1.74-.5-.48-1.27-.48-1.75 0z"/></g></g></g></svg>