<svg xmlns="http://www.w3.org/2000/svg" width="133" height="57" xmlns:xlink="http://www.w3.org/1999/xlink"><title>Group</title><desc>Created with Sketch.</desc><defs><rect id="b" width="117" height="41" rx="20.5"/><filter id="a" width="122.2%" height="163.4%" x="-11.1%" y="-26.8%" filterUnits="objectBoundingBox"><feOffset dy="2" in="SourceAlpha" result="shadowOffsetOuter1"/><feGaussianBlur stdDeviation="4" in="shadowOffsetOuter1" result="shadowBlurOuter1"/><feColorMatrix values="0 0 0 0 0.503594541 0 0 0 0 0.597691893 0 0 0 0 0.834980867 0 0 0 0.271625906 0" in="shadowBlurOuter1"/></filter><path id="d" d="M28 17l2.04-10H36l-.33 1.6h-4.32l-.57 2.8h3.87l-.3 1.56h-3.88L29.64 17z"/><filter id="c" width="675%" height="560%" x="-287.5%" y="-190%" filterUnits="objectBoundingBox"><feOffset dy="4" in="SourceAlpha" result="shadowOffsetOuter1"/><feGaussianBlur stdDeviation="7" in="shadowOffsetOuter1" result="shadowBlurOuter1"/><feColorMatrix values="0 0 0 0 0.503594541 0 0 0 0 0.597691893 0 0 0 0 0.834980867 0 0 0 0.271625906 0" in="shadowBlurOuter1"/></filter><path id="f" d="M35.66 12.93c-.02.05-.02.1-.02.15 0 .93.7 1.58 1.7 1.58.95 0 1.56-.46 1.84-.96l1.3.66C40 15.23 38.9 16 37.3 16c-1.8 0-3.3-1.1-3.3-3.02C34 10.5 35.93 9 37.9 9c2 0 3.1 1.13 3.1 2.72 0 .4-.08.82-.2 1.2h-5.14zm3.65-1.15c0-.03.02-.14.02-.2 0-.57-.37-1.27-1.46-1.27-1.08 0-1.76.7-2 1.48h3.45z"/><filter id="e" width="757.1%" height="757.1%" x="-328.6%" y="-271.4%" filterUnits="objectBoundingBox"><feOffset dy="4" in="SourceAlpha" result="shadowOffsetOuter1"/><feGaussianBlur stdDeviation="7" in="shadowOffsetOuter1" result="shadowBlurOuter1"/><feColorMatrix values="0 0 0 0 0.503594541 0 0 0 0 0.597691893 0 0 0 0 0.834980867 0 0 0 0.271625906 0" in="shadowBlurOuter1"/></filter><path id="h" d="M42.66 12.93c-.02.05-.02.1-.02.15 0 .93.7 1.58 1.7 1.58.95 0 1.56-.46 1.84-.96l1.32.66c-.5.87-1.6 1.64-3.2 1.64-1.8 0-3.3-1.1-3.3-3.02C41 10.5 42.94 9 44.9 9c2 0 3.1 1.13 3.1 2.72 0 .4-.08.82-.2 1.2h-5.14zm3.65-1.15c0-.03.03-.14.03-.2 0-.57-.37-1.27-1.47-1.27-1.08 0-1.76.7-2 1.48h3.45z"/><filter id="g" width="757.1%" height="757.1%" x="-328.6%" y="-271.4%" filterUnits="objectBoundingBox"><feOffset dy="4" in="SourceAlpha" result="shadowOffsetOuter1"/><feGaussianBlur stdDeviation="7" in="shadowOffsetOuter1" result="shadowBlurOuter1"/><feColorMatrix values="0 0 0 0 0.503594541 0 0 0 0 0.597691893 0 0 0 0 0.834980867 0 0 0 0.271625906 0" in="shadowBlurOuter1"/></filter><path id="j" d="M48 16l2.3-10H52l-2.3 10z"/><filter id="i" width="1250%" height="560%" x="-575%" y="-190%" filterUnits="objectBoundingBox"><feOffset dy="4" in="SourceAlpha" result="shadowOffsetOuter1"/><feGaussianBlur stdDeviation="7" in="shadowOffsetOuter1" result="shadowBlurOuter1"/><feColorMatrix values="0 0 0 0 0.503594541 0 0 0 0 0.597691893 0 0 0 0 0.834980867 0 0 0 0.271625906 0" in="shadowBlurOuter1"/></filter><path id="l" d="M51 17l1.98-10H59l-.42 2.12h-3.95l-.4 2.1h3.46l-.42 2.04h-3.44L53.08 17z"/><filter id="k" width="675%" height="560%" x="-287.5%" y="-190%" filterUnits="objectBoundingBox"><feOffset dy="4" in="SourceAlpha" result="shadowOffsetOuter1"/><feGaussianBlur stdDeviation="7" in="shadowOffsetOuter1" result="shadowBlurOuter1"/><feColorMatrix values="0 0 0 0 0.503594541 0 0 0 0 0.597691893 0 0 0 0 0.834980867 0 0 0 0.271625906 0" in="shadowBlurOuter1"/></filter><path id="n" d="M58 16l1.4-7.4h2.03l-1.4 7.4H58zm2.95-11c.63 0 1.05.5 1.05 1.15 0 .87-.63 1.43-1.3 1.43-.6 0-1.05-.5-1.05-1.15 0-.8.57-1.43 1.3-1.43z"/><filter id="m" width="1250%" height="518.2%" x="-575%" y="-172.7%" filterUnits="objectBoundingBox"><feOffset dy="4" in="SourceAlpha" result="shadowOffsetOuter1"/><feGaussianBlur stdDeviation="7" in="shadowOffsetOuter1" result="shadowBlurOuter1"/><feColorMatrix values="0 0 0 0 0.503594541 0 0 0 0 0.597691893 0 0 0 0 0.834980867 0 0 0 0.271625906 0" in="shadowBlurOuter1"/></filter><path id="p" d="M63.75 13.38c-.02.08-.03.16-.03.24 0 .43.3.6.7.6.18 0 .35-.03.5-.08l-.35 1.67c-.3.14-.62.2-.95.2-1.28 0-2.06-.74-2.06-1.86 0-.2.03-.4.08-.6l.55-2.7H61l.4-1.83h.32c.77 0 1.13-.4 1.3-1.1l.2-.9h1.88l-.43 2H66l-.4 1.85h-1.3l-.55 2.53z"/><filter id="o" width="1020%" height="611.1%" x="-460%" y="-211.1%" filterUnits="objectBoundingBox"><feOffset dy="4" in="SourceAlpha" result="shadowOffsetOuter1"/><feGaussianBlur stdDeviation="7" in="shadowOffsetOuter1" result="shadowBlurOuter1"/><feColorMatrix values="0 0 0 0 0.503594541 0 0 0 0 0.597691893 0 0 0 0 0.834980867 0 0 0 0.271625906 0" in="shadowBlurOuter1"/></filter><path id="r" d="M35.1 21.55l.2-.8H35l.06-.27h.05c.17 0 .32-.1.34-.25l.06-.23h.28l-.1.48H36l-.06.26h-.33l-.16.8c0 .02 0 .04-.02.07 0 .1.07.14.2.14.02 0 .06 0 .1 0l-.06.24c-.05 0-.1.02-.17.02-.25 0-.4-.12-.4-.33 0-.04 0-.08 0-.12z"/><filter id="q" width="4700%" height="2400%" x="-2300%" y="-950%" filterUnits="objectBoundingBox"><feOffset dy="4" in="SourceAlpha" result="shadowOffsetOuter1"/><feGaussianBlur stdDeviation="7" in="shadowOffsetOuter1" result="shadowBlurOuter1"/><feColorMatrix values="0 0 0 0 0.503594541 0 0 0 0 0.597691893 0 0 0 0 0.834980867 0 0 0 0.271625906 0" in="shadowBlurOuter1"/></filter><path id="t" d="M36 22l.4-1.3h.37l-.4 1.3H36zm.76-2c.06 0 .13.02.17.05.05.03.07.07.07.1 0 .12-.13.2-.3.22-.05 0-.1-.02-.16-.05-.04-.03-.07-.07-.07-.12 0-.1.13-.2.3-.2z"/><filter id="s" width="4600%" height="2300%" x="-2300%" y="-950%" filterUnits="objectBoundingBox"><feOffset dy="4" in="SourceAlpha" result="shadowOffsetOuter1"/><feGaussianBlur stdDeviation="7" in="shadowOffsetOuter1" result="shadowBlurOuter1"/><feColorMatrix values="0 0 0 0 0.503594541 0 0 0 0 0.597691893 0 0 0 0 0.834980867 0 0 0 0.271625906 0" in="shadowBlurOuter1"/></filter><path id="v" d="M37.2 21.1c0 .03 0 .05 0 .07 0 .13.02.26.07.36.05.1.12.15.2.14.12 0 .24-.1.3-.3l.16.17c-.1.3-.27.47-.46.46-.26 0-.47-.3-.47-.86 0-.7.28-1.14.57-1.14.28 0 .43.3.43.76 0 .12 0 .23-.03.34h-.77zm.58-.3c0-.02 0-.05 0-.07 0-.12 0-.22-.06-.3-.04-.08-.1-.12-.16-.1-.16 0-.3.2-.33.48h.55z"/><filter id="u" width="4700%" height="2370.8%" x="-2300%" y="-933.3%" filterUnits="objectBoundingBox"><feOffset dy="4" in="SourceAlpha" result="shadowOffsetOuter1"/><feGaussianBlur stdDeviation="7" in="shadowOffsetOuter1" result="shadowBlurOuter1"/><feColorMatrix values="0 0 0 0 0.503594541 0 0 0 0 0.597691893 0 0 0 0 0.834980867 0 0 0 0.271625906 0" in="shadowBlurOuter1"/></filter><path id="x" d="M39.65 22l.13-1.17c0-.05 0-.1 0-.15 0-.22-.05-.34-.17-.34-.16 0-.25.27-.28.53L39.2 22H39l.18-1.6c0-.1.02-.23.02-.34h.2c0 .07 0 .14-.02.2.08-.17.2-.27.32-.26.08 0 .16.05.22.16.05.1.08.27.08.42 0 .07 0 .13 0 .2L39.84 22h-.2z"/><filter id="w" width="4700%" height="2400%" x="-2300%" y="-950%" filterUnits="objectBoundingBox"><feOffset dy="4" in="SourceAlpha" result="shadowOffsetOuter1"/><feGaussianBlur stdDeviation="7" in="shadowOffsetOuter1" result="shadowBlurOuter1"/><feColorMatrix values="0 0 0 0 0.503594541 0 0 0 0 0.597691893 0 0 0 0 0.834980867 0 0 0 0.271625906 0" in="shadowBlurOuter1"/></filter><path id="z" d="M40.68 22c-.45 0-.68-.25-.68-.57 0-.43.37-.8.9-.8.3 0 .46.1.54.2l.23-.83H42l-.45 1.63c-.03.1-.04.2-.04.3 0 0 0 .03 0 .04h-.3c-.02-.02-.02-.05-.02-.07 0-.03 0-.06 0-.1-.1.13-.3.2-.5.2zm-.34-.58c0 .2.13.36.4.36.34 0 .58-.26.58-.6 0-.2-.12-.34-.4-.34-.38 0-.58.32-.58.58z"/><filter id="y" width="2379.1%" height="2400%" x="-1145.8%" y="-950%" filterUnits="objectBoundingBox"><feOffset dy="4" in="SourceAlpha" result="shadowOffsetOuter1"/><feGaussianBlur stdDeviation="7" in="shadowOffsetOuter1" result="shadowBlurOuter1"/><feColorMatrix values="0 0 0 0 0.503594541 0 0 0 0 0.597691893 0 0 0 0 0.834980867 0 0 0 0.271625906 0" in="shadowBlurOuter1"/></filter><path id="B" d="M43 20.06l-.15 1.4c0 .15-.02.3-.02.44 0 .02 0 .04 0 .06h-.17c0-.04 0-.07 0-.1 0-.05 0-.1 0-.14-.07.17-.17.28-.28.28-.25 0-.38-.37-.38-.84 0-.6.2-1.16.5-1.16.15 0 .25.15.3.3l.02-.24H43zm-.8 1.1c0 .3.06.52.2.52.2 0 .33-.38.33-.87 0-.26-.07-.48-.22-.48-.2 0-.3.46-.3.84z"/><filter id="A" width="4700%" height="2400%" x="-2300%" y="-950%" filterUnits="objectBoundingBox"><feOffset dy="4" in="SourceAlpha" result="shadowOffsetOuter1"/><feGaussianBlur stdDeviation="7" in="shadowOffsetOuter1" result="shadowBlurOuter1"/><feColorMatrix values="0 0 0 0 0.503594541 0 0 0 0 0.597691893 0 0 0 0 0.834980867 0 0 0 0.271625906 0" in="shadowBlurOuter1"/></filter><path id="D" d="M45.2 21.28c0 .1.03.2.08.3.04.06.1.1.18.1.13 0 .2-.13.2-.25-.02-.1-.06-.2-.12-.22l-.17-.12c-.13-.07-.2-.26-.2-.47 0-.3.15-.6.4-.6.32 0 .42.34.43.54l-.2.1c0-.1-.03-.18-.08-.24-.04-.06-.1-.1-.16-.08-.1 0-.18.1-.18.24 0 .1.03.18.1.2l.15.13c.15.1.24.3.24.5 0 .25-.1.6-.42.6-.33 0-.45-.37-.45-.64l.2-.08z"/><filter id="C" width="4684.4%" height="2400%" x="-2284.4%" y="-950%" filterUnits="objectBoundingBox"><feOffset dy="4" in="SourceAlpha" result="shadowOffsetOuter1"/><feGaussianBlur stdDeviation="7" in="shadowOffsetOuter1" result="shadowBlurOuter1"/><feColorMatrix values="0 0 0 0 0.503594541 0 0 0 0 0.597691893 0 0 0 0 0.834980867 0 0 0 0.271625906 0" in="shadowBlurOuter1"/></filter><path id="F" d="M47 20.06l-.15 1.4c0 .15-.02.3-.02.44 0 .02 0 .04 0 .06h-.17c0-.04 0-.07 0-.1 0-.05 0-.1 0-.14-.07.17-.18.28-.3.28-.23 0-.36-.37-.36-.84 0-.6.2-1.16.5-1.16.15 0 .25.15.3.3l.02-.24H47zm-.8 1.1c0 .3.06.52.2.52.2 0 .33-.38.33-.87 0-.26-.07-.48-.22-.48-.2 0-.3.46-.3.84z"/><filter id="E" width="4685.3%" height="2400%" x="-2300%" y="-950%" filterUnits="objectBoundingBox"><feOffset dy="4" in="SourceAlpha" result="shadowOffsetOuter1"/><feGaussianBlur stdDeviation="7" in="shadowOffsetOuter1" result="shadowBlurOuter1"/><feColorMatrix values="0 0 0 0 0.503594541 0 0 0 0 0.597691893 0 0 0 0 0.834980867 0 0 0 0.271625906 0" in="shadowBlurOuter1"/></filter><path id="H" d="M48 22l.62-2H49l-.62 2z"/><filter id="G" width="4600%" height="2300%" x="-2300%" y="-950%" filterUnits="objectBoundingBox"><feOffset dy="4" in="SourceAlpha" result="shadowOffsetOuter1"/><feGaussianBlur stdDeviation="7" in="shadowOffsetOuter1" result="shadowBlurOuter1"/><feColorMatrix values="0 0 0 0 0.503594541 0 0 0 0 0.597691893 0 0 0 0 0.834980867 0 0 0 0.271625906 0" in="shadowBlurOuter1"/></filter><path id="J" d="M49.33 22c-.2 0-.33-.25-.33-.63 0-.07 0-.15 0-.22l.14-1.15h.2l-.12 1.14c0 .06 0 .12 0 .18 0 .2.04.35.17.35.15 0 .24-.25.27-.53L49.8 20h.2l-.16 1.45c-.02.15-.03.3-.03.44 0 .02 0 .04 0 .06h-.18c0-.04 0-.08 0-.1 0-.03 0-.08 0-.13-.07.17-.18.27-.3.27z"/><filter id="I" width="4700%" height="2398%" x="-2300%" y="-950%" filterUnits="objectBoundingBox"><feOffset dy="4" in="SourceAlpha" result="shadowOffsetOuter1"/><feGaussianBlur stdDeviation="7" in="shadowOffsetOuter1" result="shadowBlurOuter1"/><feColorMatrix values="0 0 0 0 0.503594541 0 0 0 0 0.597691893 0 0 0 0 0.834980867 0 0 0 0.271625906 0" in="shadowBlurOuter1"/></filter><path id="L" d="M50.68 22c-.45 0-.68-.25-.68-.57 0-.43.37-.8.9-.8.3 0 .46.1.54.2l.23-.83H52l-.45 1.63c-.03.1-.04.2-.04.3 0 0 0 .03 0 .04h-.3c-.02-.02-.02-.05-.02-.07 0-.03 0-.06 0-.1-.1.13-.3.2-.5.2zm-.34-.58c0 .2.13.36.4.36.34 0 .58-.26.58-.6 0-.2-.12-.34-.4-.34-.38 0-.58.32-.58.58z"/><filter id="K" width="2379.1%" height="2400%" x="-1145.7%" y="-950%" filterUnits="objectBoundingBox"><feOffset dy="4" in="SourceAlpha" result="shadowOffsetOuter1"/><feGaussianBlur stdDeviation="7" in="shadowOffsetOuter1" result="shadowBlurOuter1"/><feColorMatrix values="0 0 0 0 0.503594541 0 0 0 0 0.597691893 0 0 0 0 0.834980867 0 0 0 0.271625906 0" in="shadowBlurOuter1"/></filter><path id="N" d="M53 20.06l-.15 1.4c0 .15-.02.3-.02.44 0 .02 0 .04 0 .06h-.17c0-.04 0-.07 0-.1 0-.05 0-.1 0-.14-.07.17-.18.28-.3.28-.23 0-.36-.37-.36-.84 0-.6.2-1.16.5-1.16.15 0 .25.15.3.3l.02-.24H53zm-.8 1.1c0 .3.06.52.2.52.2 0 .33-.38.33-.87 0-.26-.07-.48-.22-.48-.2 0-.3.46-.3.84z"/><filter id="M" width="4685.3%" height="2400%" x="-2300%" y="-950%" filterUnits="objectBoundingBox"><feOffset dy="4" in="SourceAlpha" result="shadowOffsetOuter1"/><feGaussianBlur stdDeviation="7" in="shadowOffsetOuter1" result="shadowBlurOuter1"/><feColorMatrix values="0 0 0 0 0.503594541 0 0 0 0 0.597691893 0 0 0 0 0.834980867 0 0 0 0.271625906 0" in="shadowBlurOuter1"/></filter><path id="P" d="M54 21.96l.3-1.96h.18l-.12.77c.08-.1.18-.16.28-.15.24 0 .36.26.36.57 0 .44-.2.8-.5.8-.12 0-.24-.1-.3-.25l-.02.2H54zm.27-.55c0 .2.08.36.22.37.16 0 .3-.2.3-.56 0-.22-.08-.35-.23-.35-.15 0-.3.22-.3.56z"/><filter id="O" width="4670.3%" height="2400%" x="-2270.3%" y="-950%" filterUnits="objectBoundingBox"><feOffset dy="4" in="SourceAlpha" result="shadowOffsetOuter1"/><feGaussianBlur stdDeviation="7" in="shadowOffsetOuter1" result="shadowBlurOuter1"/><feColorMatrix values="0 0 0 0 0.503594541 0 0 0 0 0.597691893 0 0 0 0 0.834980867 0 0 0 0.271625906 0" in="shadowBlurOuter1"/></filter><path id="R" d="M56 22l.62-2H57l-.62 2z"/><filter id="Q" width="4600%" height="2300%" x="-2300%" y="-950%" filterUnits="objectBoundingBox"><feOffset dy="4" in="SourceAlpha" result="shadowOffsetOuter1"/><feGaussianBlur stdDeviation="7" in="shadowOffsetOuter1" result="shadowBlurOuter1"/><feColorMatrix values="0 0 0 0 0.503594541 0 0 0 0 0.597691893 0 0 0 0 0.834980867 0 0 0 0.271625906 0" in="shadowBlurOuter1"/></filter><path id="T" d="M57.2 21.1c0 .03 0 .05 0 .07 0 .13.02.26.07.36.05.1.12.15.2.14.12 0 .24-.1.3-.3l.16.17c-.1.3-.27.47-.46.46-.26 0-.47-.3-.47-.86 0-.7.28-1.14.57-1.14.3 0 .43.3.43.76 0 .12 0 .23-.03.34h-.77zm.58-.3c0-.02 0-.05 0-.07 0-.12 0-.22-.06-.3-.04-.08-.1-.12-.16-.1-.16 0-.3.2-.33.48h.55z"/><filter id="S" width="4700%" height="2370.8%" x="-2300%" y="-933.2%" filterUnits="objectBoundingBox"><feOffset dy="4" in="SourceAlpha" result="shadowOffsetOuter1"/><feGaussianBlur stdDeviation="7" in="shadowOffsetOuter1" result="shadowBlurOuter1"/><feColorMatrix values="0 0 0 0 0.503594541 0 0 0 0 0.597691893 0 0 0 0 0.834980867 0 0 0 0.271625906 0" in="shadowBlurOuter1"/></filter><path id="V" d="M23.68 8.04c-.3-.43-.76-.68-1.25-.68H8.25c-.02-.05-.04-.1-.06-.17-.3-.7-.57-1.44-.8-2.17C6.84 3.3 5.64 1.88 3.85.83h-.03C2.98.42 2.05.08 1.02 0 .7 0 .37 0 .16.24c-.2.25-.17.58-.1.94.13.87.45 1.68.76 2.44l.03.06c1.4 2.3 3.33 3.6 5.73 3.95.1.02.14.05.26.3.4.84.73 1.72.95 2.63.37 1.57.46 3.2.26 4.8 0 0 0 0 0 .02-.17.88-.4 1.74-.7 2.58-.22.62-.47 1.23-.77 1.82-.03.02-.04.06-.05.1-.2.4-.03.87.34 1.07.37.2.82.03 1-.37l.02-.02c.2-.43.05-.15.2-.46.4-.85.72-1.75.97-2.66h11.36c.98 0 1.82-.72 2.05-1.72l1.45-6.18c.12-.5.02-1.04-.27-1.46zM5.78 5.87c-1.1-.44-3.62-1.67-4.1-3.84-.02-.1 0-.2.07-.25.06-.07.15-.1.24-.07 2.6.67 3.72 2.8 4.1 3.82.05.1.03.2-.04.3-.07.06-.18.1-.28.05zM22.93 9.2l-1.44 6.2c-.12.5-.55.85-1.04.85H9.36c0-.07 0-.14.02-.2.1-.54.15-1.08.18-1.62H14c.2 0 .54-.3.54-.63 0-.35-.35-.64-.53-.64H9.6c0-.56-.05-1.13-.13-1.7h7.06c.2 0 .57-.27.57-.62s-.37-.63-.57-.63h-7.3c-.1-.48-.26-.96-.45-1.42-.03-.08-.06-.17-.1-.26h13.75c.16 0 .32.08.42.23.1.13.12.3.08.46z"/><filter id="U" width="291.7%" height="318.4%" x="-95.8%" y="-90.5%" filterUnits="objectBoundingBox"><feOffset dy="4" in="SourceAlpha" result="shadowOffsetOuter1"/><feGaussianBlur stdDeviation="7" in="shadowOffsetOuter1" result="shadowBlurOuter1"/><feColorMatrix values="0 0 0 0 0.503594541 0 0 0 0 0.597691893 0 0 0 0 0.834980867 0 0 0 0.271625906 0" in="shadowBlurOuter1"/></filter><path id="X" d="M9.03 5.62c.02.28.06.56.14.83.06.2.14.44.34.52h.02c.2.08.4-.04.58-.18.8-.6 1.35-1.37 1.64-2.32.32-.93.35-1.9.06-2.92-.06-.23-.14-.46-.35-.54-.2-.07-.4.06-.58.2-1.4 1.08-2 2.52-1.84 4.3v.1zM10.9 2.3c.05-.04.1-.06.17-.04.05.02.1.08.1.14.02.62-.06 1.18-.24 1.65v.02c-.22.66-.5 1.22-.84 1.63-.05.05-.1.07-.17.05-.05-.03-.1-.08-.1-.15-.06-1.26.3-2.35 1.08-3.3z"/><filter id="W" width="1633.1%" height="866.7%" x="-766.5%" y="-316.7%" filterUnits="objectBoundingBox"><feOffset dy="4" in="SourceAlpha" result="shadowOffsetOuter1"/><feGaussianBlur stdDeviation="7" in="shadowOffsetOuter1" result="shadowBlurOuter1"/><feColorMatrix values="0 0 0 0 0.503594541 0 0 0 0 0.597691893 0 0 0 0 0.834980867 0 0 0 0.271625906 0" in="shadowBlurOuter1"/></filter><path id="Z" d="M7 9.27c.02-.34-.18-.62-.4-.86C4.97 6.7 2.2 6.53.42 8c-.1.08-.4.34-.43.75-.02.42.27.7.36.8.84.82 1.87 1.33 2.97 1.44h.02c1.17.05 2.23-.27 3.14-.97.24-.2.47-.4.5-.76zm-1.82.02c-.57.15-1.16.2-1.74.16-.57-.04-1.14-.18-1.67-.43-.06-.02-.1-.1-.1-.18 0-.08.05-.14.12-.16 1.12-.34 2.32-.25 3.4.25.07.02.1.1.1.18 0 .08-.05.14-.12.16z"/><filter id="Y" width="757.1%" height="1250%" x="-328.6%" y="-475%" filterUnits="objectBoundingBox"><feOffset dy="4" in="SourceAlpha" result="shadowOffsetOuter1"/><feGaussianBlur stdDeviation="7" in="shadowOffsetOuter1" result="shadowBlurOuter1"/><feColorMatrix values="0 0 0 0 0.503594541 0 0 0 0 0.597691893 0 0 0 0 0.834980867 0 0 0 0.271625906 0" in="shadowBlurOuter1"/></filter><path id="ab" d="M20.7 18c-.1 0-.22 0-.32.02h-7.76c-.1 0-.2-.02-.32-.02-1.03 0-1.93.74-2.2 1.8-.3 1.08.1 2.23.98 2.82.88.6 2 .48 2.77-.26.76-.75.97-1.96.52-2.96h4.26c-.45 1-.23 2.2.53 2.95s1.9.85 2.76.26c.87-.58 1.27-1.72 1-2.8-.3-1.06-1.2-1.8-2.22-1.8zm-8.4 3.4c-.46 0-.84-.4-.84-.9s.38-.9.84-.9c.46 0 .84.4.84.9s-.38.9-.84.9zm8.4 0c-.47 0-.84-.4-.84-.9s.37-.9.84-.9c.46 0 .83.4.83.9s-.37.9-.83.9z"/><filter id="aa" width="453.8%" height="1020%" x="-176.9%" y="-380%" filterUnits="objectBoundingBox"><feOffset dy="4" in="SourceAlpha" result="shadowOffsetOuter1"/><feGaussianBlur stdDeviation="7" in="shadowOffsetOuter1" result="shadowBlurOuter1"/><feColorMatrix values="0 0 0 0 0.503594541 0 0 0 0 0.597691893 0 0 0 0 0.834980867 0 0 0 0.271625906 0" in="shadowBlurOuter1"/></filter></defs><g fill="none"><g><g><g><g><g transform="translate(8 6)"><use fill="#000" filter="url(#a)" xlink:href="#b"/><use fill="#fff" xlink:href="#b"/></g></g><g><g id="Path" transform="translate(35 14)"><use fill="#000" filter="url(#c)" xlink:href="#d"/><use fill="#27D8DB" xlink:href="#d"/></g><g id="Shape" fill-rule="nonzero" transform="translate(35 14)"><use fill="#000" filter="url(#e)" xlink:href="#f"/><use fill="#27D8DB" xlink:href="#f"/></g><g id="Shape" fill-rule="nonzero" transform="translate(35 14)"><use fill="#000" filter="url(#g)" xlink:href="#h"/><use fill="#27D8DB" xlink:href="#h"/></g><g id="Path" transform="translate(35 14)"><use fill="#000" filter="url(#i)" xlink:href="#j"/><use fill="#27D8DB" xlink:href="#j"/></g><g id="Path" transform="translate(35 14)"><use fill="#000" filter="url(#k)" xlink:href="#l"/><use fill="#27D8DB" xlink:href="#l"/></g><g id="Shape" fill-rule="nonzero" transform="translate(35 14)"><use fill="#000" filter="url(#m)" xlink:href="#n"/><use fill="#27D8DB" xlink:href="#n"/></g><g id="Path" transform="translate(35 14)"><use fill="#000" filter="url(#o)" xlink:href="#p"/><use fill="#27D8DB" xlink:href="#p"/></g><g id="Path" transform="translate(35 14)"><use fill="#000" filter="url(#q)" xlink:href="#r"/><use fill="#27D8DB" xlink:href="#r"/></g><g id="Shape" fill-rule="nonzero" transform="translate(35 14)"><use fill="#000" filter="url(#s)" xlink:href="#t"/><use fill="#27D8DB" xlink:href="#t"/></g><g id="Shape" fill-rule="nonzero" transform="translate(35 14)"><use fill="#000" filter="url(#u)" xlink:href="#v"/><use fill="#27D8DB" xlink:href="#v"/></g><g id="Path" transform="translate(35 14)"><use fill="#000" filter="url(#w)" xlink:href="#x"/><use fill="#27D8DB" xlink:href="#x"/></g><g id="Shape" fill-rule="nonzero" transform="translate(35 14)"><use fill="#000" filter="url(#y)" xlink:href="#z"/><use fill="#27D8DB" xlink:href="#z"/></g><g id="Shape" fill-rule="nonzero" transform="translate(35 14)"><use fill="#000" filter="url(#A)" xlink:href="#B"/><use fill="#27D8DB" xlink:href="#B"/></g><g id="Path" transform="translate(35 14)"><use fill="#000" filter="url(#C)" xlink:href="#D"/><use fill="#27D8DB" xlink:href="#D"/></g><g id="Shape" fill-rule="nonzero" transform="translate(35 14)"><use fill="#000" filter="url(#E)" xlink:href="#F"/><use fill="#27D8DB" xlink:href="#F"/></g><g id="Path" transform="translate(35 14)"><use fill="#000" filter="url(#G)" xlink:href="#H"/><use fill="#27D8DB" xlink:href="#H"/></g><g id="Path" transform="translate(35 14)"><use fill="#000" filter="url(#I)" xlink:href="#J"/><use fill="#27D8DB" xlink:href="#J"/></g><g id="Shape" fill-rule="nonzero" transform="translate(35 14)"><use fill="#000" filter="url(#K)" xlink:href="#L"/><use fill="#27D8DB" xlink:href="#L"/></g><g id="Shape" fill-rule="nonzero" transform="translate(35 14)"><use fill="#000" filter="url(#M)" xlink:href="#N"/><use fill="#27D8DB" xlink:href="#N"/></g><g id="Shape" fill-rule="nonzero" transform="translate(35 14)"><use fill="#000" filter="url(#O)" xlink:href="#P"/><use fill="#27D8DB" xlink:href="#P"/></g><g transform="translate(35 14)"><use fill="#000" filter="url(#Q)" xlink:href="#R"/><use fill="#27D8DB" xlink:href="#R"/></g><g id="Shape" fill-rule="nonzero" transform="translate(35 14)"><use fill="#000" filter="url(#S)" xlink:href="#T"/><use fill="#27D8DB" xlink:href="#T"/></g><g id="Shape" fill-rule="nonzero" transform="translate(35 14)"><use fill="#000" filter="url(#U)" xlink:href="#V"/><use fill="#27D8DB" xlink:href="#V"/></g><g id="Shape" fill-rule="nonzero" transform="translate(35 14)"><use fill="#000" filter="url(#W)" xlink:href="#X"/><use fill="#27D8DB" xlink:href="#X"/></g><g id="Shape" fill-rule="nonzero" transform="translate(35 14)"><use fill="#000" filter="url(#Y)" xlink:href="#Z"/><use fill="#27D8DB" xlink:href="#Z"/></g><g fill-rule="nonzero" transform="translate(35 14)"><use fill="#000" filter="url(#aa)" xlink:href="#ab"/><use fill="#27D8DB" xlink:href="#ab"/></g></g></g></g></g></g></svg>