<?xml version="1.0" encoding="UTF-8"?>
<svg width="133px" height="57px" viewBox="0 0 133 57" version="1.1" xmlns="http://www.w3.org/2000/svg" xmlns:xlink="http://www.w3.org/1999/xlink">
    <!-- Generator: Sketch 52.4 (67378) - http://www.bohemiancoding.com/sketch -->
    <title>Group</title>
    <desc>Created with Sketch.</desc>
    <defs>
        <rect id="path-1" x="0" y="0" width="117" height="41" rx="20.5"></rect>
        <filter x="-11.1%" y="-26.8%" width="122.2%" height="163.4%" filterUnits="objectBoundingBox" id="filter-2">
            <feOffset dx="0" dy="2" in="SourceAlpha" result="shadowOffsetOuter1"></feOffset>
            <feGaussianBlur stdDeviation="4" in="shadowOffsetOuter1" result="shadowBlurOuter1"></feGaussianBlur>
            <feColorMatrix values="0 0 0 0 0.503594541   0 0 0 0 0.597691893   0 0 0 0 0.834980867  0 0 0 0.271625906 0" type="matrix" in="shadowBlurOuter1"></feColorMatrix>
        </filter>
        <polygon id="path-3" points="28 17 30.044389 7 36 7 35.6726981 8.5939783 31.3528835 8.5939783 30.7824227 11.3981994 34.6529994 11.3981994 34.3392459 12.9641355 30.46653 12.9641355 29.6357964 16.9977861"></polygon>
        <filter x="-287.5%" y="-190.0%" width="675.0%" height="560.0%" filterUnits="objectBoundingBox" id="filter-4">
            <feOffset dx="0" dy="4" in="SourceAlpha" result="shadowOffsetOuter1"></feOffset>
            <feGaussianBlur stdDeviation="7" in="shadowOffsetOuter1" result="shadowBlurOuter1"></feGaussianBlur>
            <feColorMatrix values="0 0 0 0 0.503594541   0 0 0 0 0.597691893   0 0 0 0 0.834980867  0 0 0 0.271625906 0" type="matrix" in="shadowBlurOuter1"></feColorMatrix>
        </filter>
        <path d="M35.6553897,12.9265182 C35.6438714,12.9753778 35.6389332,13.0253449 35.6406855,13.0753036 C35.6406855,14.0098178 36.3511332,14.6595142 37.3432836,14.6595142 C38.2897734,14.6595142 38.8965174,14.1989879 39.1774461,13.6980769 L40.4930901,14.3619433 C40.004754,15.2284413 38.8957435,16 37.2983969,16 C35.5083472,16 34,14.8897773 34,12.9803644 C34,10.5006073 35.9347706,9 37.9043671,9 C39.886346,9 41,10.1336032 41,11.7213563 C40.9947263,12.1299009 40.9248658,12.5355941 40.7925926,12.9258097 L35.6553897,12.9265182 Z M39.3090105,11.7752024 C39.3090105,11.7482794 39.3237148,11.6398785 39.3237148,11.5725709 C39.3237148,11.0057692 38.9537866,10.3128543 37.8594804,10.3128543 C36.7760088,10.3128543 36.099613,11.0036437 35.847319,11.7752024 L39.3090105,11.7752024 Z" id="path-5"></path>
        <filter x="-328.6%" y="-271.4%" width="757.1%" height="757.1%" filterUnits="objectBoundingBox" id="filter-6">
            <feOffset dx="0" dy="4" in="SourceAlpha" result="shadowOffsetOuter1"></feOffset>
            <feGaussianBlur stdDeviation="7" in="shadowOffsetOuter1" result="shadowBlurOuter1"></feGaussianBlur>
            <feColorMatrix values="0 0 0 0 0.503594541   0 0 0 0 0.597691893   0 0 0 0 0.834980867  0 0 0 0.271625906 0" type="matrix" in="shadowBlurOuter1"></feColorMatrix>
        </filter>
        <path d="M42.6563053,12.9265182 C42.6447806,12.9753778 42.6398397,13.0253449 42.6415929,13.0753036 C42.6415929,14.0098178 43.3524336,14.6595142 44.3451327,14.6595142 C45.292146,14.6595142 45.8992257,14.1989879 46.1803097,13.6980769 L47.4966814,14.3619433 C47.0080752,15.2284413 45.8984513,16 44.3002212,16 C42.5091814,16 41,14.8897773 41,12.9803644 C41,10.5006073 42.9358407,9 44.9065265,9 C46.8896018,9 48,10.1336032 48,11.7213563 C47.9947234,12.1299009 47.9248242,12.5355941 47.7924779,12.9258097 L42.6563053,12.9265182 Z M46.3119469,11.7752024 C46.3119469,11.7482794 46.3266593,11.6398785 46.3266593,11.5725709 C46.3266593,11.0057692 45.9565265,10.3128543 44.861615,10.3128543 C43.7814159,10.3128543 43.1007743,11.0036437 42.8483407,11.7752024 L46.3119469,11.7752024 Z" id="path-7"></path>
        <filter x="-328.6%" y="-271.4%" width="757.1%" height="757.1%" filterUnits="objectBoundingBox" id="filter-8">
            <feOffset dx="0" dy="4" in="SourceAlpha" result="shadowOffsetOuter1"></feOffset>
            <feGaussianBlur stdDeviation="7" in="shadowOffsetOuter1" result="shadowBlurOuter1"></feGaussianBlur>
            <feColorMatrix values="0 0 0 0 0.503594541   0 0 0 0 0.597691893   0 0 0 0 0.834980867  0 0 0 0.271625906 0" type="matrix" in="shadowBlurOuter1"></feColorMatrix>
        </filter>
        <polygon id="path-9" points="48 16 50.2889364 6 52 6 49.7087303 16"></polygon>
        <filter x="-575.0%" y="-190.0%" width="1250.0%" height="560.0%" filterUnits="objectBoundingBox" id="filter-10">
            <feOffset dx="0" dy="4" in="SourceAlpha" result="shadowOffsetOuter1"></feOffset>
            <feGaussianBlur stdDeviation="7" in="shadowOffsetOuter1" result="shadowBlurOuter1"></feGaussianBlur>
            <feColorMatrix values="0 0 0 0 0.503594541   0 0 0 0 0.597691893   0 0 0 0 0.834980867  0 0 0 0.271625906 0" type="matrix" in="shadowBlurOuter1"></feColorMatrix>
        </filter>
        <polygon id="path-11" points="51 17 52.9797945 7 59 7 58.5779294 9.11571102 54.6300838 9.11571102 54.2211381 11.231422 57.6930317 11.231422 57.284086 13.2622685 53.8384423 13.2622685 53.0834125 17"></polygon>
        <filter x="-287.5%" y="-190.0%" width="675.0%" height="560.0%" filterUnits="objectBoundingBox" id="filter-12">
            <feOffset dx="0" dy="4" in="SourceAlpha" result="shadowOffsetOuter1"></feOffset>
            <feGaussianBlur stdDeviation="7" in="shadowOffsetOuter1" result="shadowBlurOuter1"></feGaussianBlur>
            <feColorMatrix values="0 0 0 0 0.503594541   0 0 0 0 0.597691893   0 0 0 0 0.834980867  0 0 0 0.271625906 0" type="matrix" in="shadowBlurOuter1"></feColorMatrix>
        </filter>
        <path d="M58,16 L59.4082058,8.59127969 L61.4283727,8.59127969 L60.0194715,16 L58,16 Z M60.9499305,5.00389933 C61.5757997,5.00389933 62,5.49599433 62,6.15186104 C62,7.01595179 61.3741307,7.58291386 60.6974965,7.58291386 C60.0862309,7.58291386 59.647427,7.09081886 59.647427,6.43495214 C59.647427,5.62623183 60.2211405,5 60.9499305,5 L60.9499305,5.00389933 Z" id="path-13"></path>
        <filter x="-575.0%" y="-172.7%" width="1250.0%" height="518.2%" filterUnits="objectBoundingBox" id="filter-14">
            <feOffset dx="0" dy="4" in="SourceAlpha" result="shadowOffsetOuter1"></feOffset>
            <feGaussianBlur stdDeviation="7" in="shadowOffsetOuter1" result="shadowBlurOuter1"></feGaussianBlur>
            <feColorMatrix values="0 0 0 0 0.503594541   0 0 0 0 0.597691893   0 0 0 0 0.834980867  0 0 0 0.271625906 0" type="matrix" in="shadowBlurOuter1"></feColorMatrix>
        </filter>
        <path d="M63.7470384,13.3813822 C63.7319498,13.4591727 63.7227738,13.5380035 63.7195897,13.6171922 C63.7195897,14.0474548 64.0085235,14.2136102 64.4231436,14.2136102 C64.5959009,14.2101933 64.7676151,14.1858312 64.9345565,14.1410532 L64.5733892,15.8055093 C64.274506,15.9417261 63.9487237,16.0079682 63.6206299,15.9992363 C62.3370413,15.9992363 61.563421,15.2642346 61.563421,14.1410532 C61.567901,13.9405835 61.5920964,13.7410494 61.6356544,13.5453608 L62.1875181,10.8549498 L61,10.8549498 L61.386449,9.01055259 L61.7172782,9.01055259 C62.4901762,9.01055259 62.8491765,8.59480137 63.0174805,7.88737128 L63.2247905,7 L65.1028604,7 L64.674516,9.01055259 L66,9.01055259 L65.5998266,10.8549498 L64.2851777,10.8549498 L63.7470384,13.3813822 Z" id="path-15"></path>
        <filter x="-460.0%" y="-211.1%" width="1020.0%" height="611.1%" filterUnits="objectBoundingBox" id="filter-16">
            <feOffset dx="0" dy="4" in="SourceAlpha" result="shadowOffsetOuter1"></feOffset>
            <feGaussianBlur stdDeviation="7" in="shadowOffsetOuter1" result="shadowBlurOuter1"></feGaussianBlur>
            <feColorMatrix values="0 0 0 0 0.503594541   0 0 0 0 0.597691893   0 0 0 0 0.834980867  0 0 0 0.271625906 0" type="matrix" in="shadowBlurOuter1"></feColorMatrix>
        </filter>
        <path d="M35.1070496,21.5496716 L35.2932985,20.7417094 L35,20.7417094 L35.0609225,20.4750818 L35.1079199,20.4750818 C35.271085,20.489265 35.4179289,20.3830398 35.4429939,20.2326931 L35.4978242,20 L35.7832898,20 L35.6718886,20.4783137 L36,20.4783137 L35.9390775,20.7449412 L35.6092254,20.7449412 L35.435161,21.5343203 C35.4287163,21.5578379 35.4252119,21.5819666 35.4247171,21.606229 C35.4247171,21.7007606 35.4856397,21.7419666 35.6074848,21.7419666 C35.6438503,21.7417147 35.6801716,21.7395567 35.716275,21.7355029 L35.6614447,21.9778916 C35.6051662,21.9942349 35.5463124,22.0016109 35.4873803,21.9997066 C35.2506527,21.9997066 35.0948651,21.8768963 35.0948651,21.6660182 C35.0939652,21.6269255 35.0980552,21.5878713 35.1070496,21.5496716 Z" id="path-17"></path>
        <filter x="-2300.0%" y="-950.0%" width="4700.0%" height="2400.0%" filterUnits="objectBoundingBox" id="filter-18">
            <feOffset dx="0" dy="4" in="SourceAlpha" result="shadowOffsetOuter1"></feOffset>
            <feGaussianBlur stdDeviation="7" in="shadowOffsetOuter1" result="shadowBlurOuter1"></feGaussianBlur>
            <feColorMatrix values="0 0 0 0 0.503594541   0 0 0 0 0.597691893   0 0 0 0 0.834980867  0 0 0 0.271625906 0" type="matrix" in="shadowBlurOuter1"></feColorMatrix>
        </filter>
        <path d="M36,22 L36.4019952,20.6879879 L36.7688158,20.6879879 L36.3668206,22 L36,22 Z M36.7617809,20.0000756 C36.8249985,19.9987254 36.8862477,20.0155091 36.9312541,20.0465151 C36.9762606,20.0775211 37.0010926,20.1200408 36.9999631,20.1641648 C36.9937904,20.2738684 36.8677502,20.3618137 36.7105265,20.3661207 C36.647309,20.3674708 36.5860598,20.3506872 36.5410533,20.3196812 C36.4960469,20.2886752 36.4712148,20.2461555 36.4723444,20.2020315 C36.478517,20.0923279 36.6045573,20.0043826 36.7617809,20.0000756 Z" id="path-19"></path>
        <filter x="-2300.0%" y="-950.0%" width="4600.0%" height="2300.0%" filterUnits="objectBoundingBox" id="filter-20">
            <feOffset dx="0" dy="4" in="SourceAlpha" result="shadowOffsetOuter1"></feOffset>
            <feGaussianBlur stdDeviation="7" in="shadowOffsetOuter1" result="shadowBlurOuter1"></feGaussianBlur>
            <feColorMatrix values="0 0 0 0 0.503594541   0 0 0 0 0.597691893   0 0 0 0 0.834980867  0 0 0 0.271625906 0" type="matrix" in="shadowBlurOuter1"></feColorMatrix>
        </filter>
        <path d="M37.2026652,21.1059079 C37.2016107,21.1279849 37.2016107,21.1501854 37.2026652,21.1722624 C37.1983573,21.3034452 37.2242865,21.4319888 37.2742743,21.5272642 C37.3242622,21.6225396 37.3938322,21.6760148 37.4664076,21.6749478 C37.5930515,21.6822206 37.7114113,21.5613074 37.7734592,21.3612721 L37.9267074,21.5412335 C37.8321703,21.8329029 37.6575616,22.0085041 37.4708495,21.9996826 C37.2137701,21.9996826 37,21.7061143 37,21.1431066 C37,20.4302987 37.2803998,20 37.5702388,20 C37.8511938,20 38,20.3136757 38,20.759055 C37.9992915,20.8760265 37.9891914,20.9921897 37.9700167,21.1038972 L37.2026652,21.1059079 Z M37.7840089,20.8042967 C37.7870361,20.7785204 37.7885253,20.75223 37.7884509,20.7258777 C37.7920022,20.6143206 37.7684019,20.5055403 37.7238658,20.4281874 C37.6793296,20.3508345 37.6183226,20.3126641 37.5569128,20.3237294 C37.4001489,20.3300007 37.2658178,20.5284794 37.2309828,20.805302 L37.7840089,20.8042967 Z" id="path-21"></path>
        <filter x="-2300.0%" y="-933.3%" width="4700.0%" height="2370.8%" filterUnits="objectBoundingBox" id="filter-22">
            <feOffset dx="0" dy="4" in="SourceAlpha" result="shadowOffsetOuter1"></feOffset>
            <feGaussianBlur stdDeviation="7" in="shadowOffsetOuter1" result="shadowBlurOuter1"></feGaussianBlur>
            <feColorMatrix values="0 0 0 0 0.503594541   0 0 0 0 0.597691893   0 0 0 0 0.834980867  0 0 0 0.271625906 0" type="matrix" in="shadowBlurOuter1"></feColorMatrix>
        </filter>
        <path d="M39.6536286,22 L39.784246,20.8254114 C39.7898595,20.7763237 39.792766,20.7262434 39.7929177,20.6759938 C39.7929177,20.4622436 39.7295059,20.3366912 39.6070183,20.3366912 C39.4444241,20.3366912 39.3544553,20.6075107 39.3246464,20.8700292 L39.1983649,22 L39,22 L39.1772277,20.4010238 C39.1904273,20.2883869 39.1987658,20.1738624 39.2021588,20.0586084 L39.3961878,20.0586084 C39.3943555,20.130285 39.3901922,20.2016734 39.3837223,20.2723586 C39.4584555,20.0876072 39.5762825,19.9860963 39.6980711,20.0015392 C39.7797694,19.9929107 39.8594893,20.0516487 39.917087,20.1629113 C39.9746847,20.2741738 40.0046504,20.4273173 39.9994123,20.5836454 C39.9986828,20.6459973 39.9952384,20.7081241 39.9891147,20.7693798 L39.8519936,22 L39.6536286,22 Z" id="path-23"></path>
        <filter x="-2300.0%" y="-950.0%" width="4700.0%" height="2400.0%" filterUnits="objectBoundingBox" id="filter-24">
            <feOffset dx="0" dy="4" in="SourceAlpha" result="shadowOffsetOuter1"></feOffset>
            <feGaussianBlur stdDeviation="7" in="shadowOffsetOuter1" result="shadowBlurOuter1"></feGaussianBlur>
            <feColorMatrix values="0 0 0 0 0.503594541   0 0 0 0 0.597691893   0 0 0 0 0.834980867  0 0 0 0.271625906 0" type="matrix" in="shadowBlurOuter1"></feColorMatrix>
        </filter>
        <path d="M40.6807923,22 C40.2330723,22 40,21.7464986 40,21.42507 C40,21 40.3684938,20.6239496 40.9000461,20.6239496 C41.1902349,20.6239496 41.3606633,20.7247899 41.4371257,20.8284314 L41.6665131,20 L42,20 L41.5485951,21.6323529 C41.520533,21.729853 41.5072422,21.8294741 41.508982,21.9292717 C41.507639,21.9437262 41.507639,21.9582346 41.508982,21.9726891 L41.1902349,21.9726891 C41.1847285,21.947469 41.1822617,21.9219195 41.182865,21.8963585 C41.1826228,21.866387 41.1850852,21.8364381 41.1902349,21.8067227 C41.0673687,21.9261726 40.8802288,21.9971715 40.6807923,22 Z M40.3408567,21.4222689 C40.3408567,21.6323529 40.4735145,21.7794118 40.7489636,21.7794118 C41.0787655,21.7794118 41.3192077,21.5203081 41.3192077,21.1827731 C41.3192077,20.9943978 41.1976048,20.8445378 40.9175495,20.8445378 C40.5416859,20.8445378 40.3408567,21.1582633 40.3408567,21.4222689 Z" id="path-25"></path>
        <filter x="-1145.8%" y="-950.0%" width="2379.1%" height="2400.0%" filterUnits="objectBoundingBox" id="filter-26">
            <feOffset dx="0" dy="4" in="SourceAlpha" result="shadowOffsetOuter1"></feOffset>
            <feGaussianBlur stdDeviation="7" in="shadowOffsetOuter1" result="shadowBlurOuter1"></feGaussianBlur>
            <feColorMatrix values="0 0 0 0 0.503594541   0 0 0 0 0.597691893   0 0 0 0 0.834980867  0 0 0 0.271625906 0" type="matrix" in="shadowBlurOuter1"></feColorMatrix>
        </filter>
        <path d="M43,20.0559796 L42.8545362,21.4656489 C42.8390971,21.6073589 42.8317848,21.7521517 42.832742,21.897201 C42.8320031,21.9182096 42.8320031,21.9392967 42.832742,21.9603053 L42.6568677,21.9603053 C42.6538382,21.9236496 42.652481,21.8865151 42.652813,21.8493639 C42.6525794,21.8057967 42.6539346,21.7622537 42.6568677,21.719084 C42.5884237,21.8922534 42.4851322,21.9952192 42.3750634,22 C42.1282311,22 42,21.6315522 42,21.1643766 C42,20.5465649 42.2027369,20 42.495185,20 C42.6548403,20 42.7486062,20.1465649 42.7911809,20.297201 L42.8165231,20.0559796 L43,20.0559796 Z M42.1890522,21.1603053 C42.1890522,21.4656489 42.2620375,21.6793893 42.4140902,21.6793893 C42.5955398,21.6793893 42.7273188,21.302799 42.7273188,20.8122137 C42.7273188,20.5384224 42.6604156,20.3206107 42.5063355,20.3206107 C42.2970096,20.3206107 42.1875317,20.7765903 42.1875317,21.1603053 L42.1890522,21.1603053 Z" id="path-27"></path>
        <filter x="-2300.0%" y="-950.0%" width="4700.0%" height="2400.0%" filterUnits="objectBoundingBox" id="filter-28">
            <feOffset dx="0" dy="4" in="SourceAlpha" result="shadowOffsetOuter1"></feOffset>
            <feGaussianBlur stdDeviation="7" in="shadowOffsetOuter1" result="shadowBlurOuter1"></feGaussianBlur>
            <feColorMatrix values="0 0 0 0 0.503594541   0 0 0 0 0.597691893   0 0 0 0 0.834980867  0 0 0 0.271625906 0" type="matrix" in="shadowBlurOuter1"></feColorMatrix>
        </filter>
        <path d="M45.2025,21.2782783 C45.2010629,21.3865654 45.2276366,21.4909878 45.2759272,21.5668137 C45.3242178,21.6426395 45.38993,21.683124 45.4575,21.6786787 C45.58625,21.6786787 45.645,21.5545546 45.645,21.4294294 C45.6406229,21.3265529 45.5971448,21.2386143 45.535625,21.2082082 L45.365,21.0830831 C45.2402587,21.0099394 45.1570261,20.8203582 45.15625,20.6076076 C45.15625,20.2922923 45.316875,20 45.584375,20 C45.890625,20 45.9875,20.3433433 46,20.5415415 L45.7975,20.6406406 C45.7935017,20.5481628 45.7666539,20.4620514 45.7228998,20.4013685 C45.6791458,20.3406855 45.6220944,20.3104364 45.564375,20.3173173 C45.4475,20.3173173 45.376875,20.4334334 45.376875,20.5625626 C45.3757146,20.6574778 45.4131734,20.7426048 45.469375,20.7727728 L45.629375,20.8898899 C45.785,21.003003 45.873125,21.1901902 45.873125,21.4114114 C45.873125,21.6526527 45.75625,22 45.445,22 C45.12375,22 45,21.6256256 45,21.3573574 L45.2025,21.2782783 Z" id="path-29"></path>
        <filter x="-2284.4%" y="-950.0%" width="4684.4%" height="2400.0%" filterUnits="objectBoundingBox" id="filter-30">
            <feOffset dx="0" dy="4" in="SourceAlpha" result="shadowOffsetOuter1"></feOffset>
            <feGaussianBlur stdDeviation="7" in="shadowOffsetOuter1" result="shadowBlurOuter1"></feGaussianBlur>
            <feColorMatrix values="0 0 0 0 0.503594541   0 0 0 0 0.597691893   0 0 0 0 0.834980867  0 0 0 0.271625906 0" type="matrix" in="shadowBlurOuter1"></feColorMatrix>
        </filter>
        <path d="M47,20.0559796 L46.8527328,21.4656489 C46.8373171,21.6073589 46.8300159,21.7521517 46.8309717,21.897201 C46.8302339,21.9182096 46.8302339,21.9392967 46.8309717,21.9603053 L46.6553644,21.9603053 C46.652848,21.9235464 46.651664,21.8864682 46.6518219,21.8493639 C46.6516161,21.8058296 46.6527993,21.7623135 46.6553644,21.719084 C46.5871157,21.8924807 46.4839243,21.9955032 46.3739879,22 C46.1280364,22 46,21.6315522 46,21.1643766 C46,20.5465649 46.2024291,20 46.4939271,20 C46.6538462,20 46.7469636,20.1465649 46.7894737,20.297201 L46.8152834,20.0559796 L47,20.0559796 Z M46.1902834,21.1603053 C46.1902834,21.4656489 46.2631579,21.6793893 46.4149798,21.6793893 C46.5961538,21.6793893 46.7282389,21.302799 46.7282389,20.8122137 C46.7282389,20.5384224 46.6609312,20.3206107 46.5075911,20.3206107 C46.2990891,20.3206107 46.1887652,20.7765903 46.1887652,21.1603053 L46.1902834,21.1603053 Z" id="path-31"></path>
        <filter x="-2300.0%" y="-950.0%" width="4685.3%" height="2400.0%" filterUnits="objectBoundingBox" id="filter-32">
            <feOffset dx="0" dy="4" in="SourceAlpha" result="shadowOffsetOuter1"></feOffset>
            <feGaussianBlur stdDeviation="7" in="shadowOffsetOuter1" result="shadowBlurOuter1"></feGaussianBlur>
            <feColorMatrix values="0 0 0 0 0.503594541   0 0 0 0 0.597691893   0 0 0 0 0.834980867  0 0 0 0.271625906 0" type="matrix" in="shadowBlurOuter1"></feColorMatrix>
        </filter>
        <polygon id="path-33" points="48 22 48.621118 20 49 20 48.378882 22"></polygon>
        <filter x="-2300.0%" y="-950.0%" width="4600.0%" height="2300.0%" filterUnits="objectBoundingBox" id="filter-34">
            <feOffset dx="0" dy="4" in="SourceAlpha" result="shadowOffsetOuter1"></feOffset>
            <feGaussianBlur stdDeviation="7" in="shadowOffsetOuter1" result="shadowBlurOuter1"></feGaussianBlur>
            <feColorMatrix values="0 0 0 0 0.503594541   0 0 0 0 0.597691893   0 0 0 0 0.834980867  0 0 0 0.271625906 0" type="matrix" in="shadowBlurOuter1"></feColorMatrix>
        </filter>
        <path d="M49.3342618,22 C49.1197772,22 49,21.747644 49,21.3717277 C49.0003636,21.2964255 49.0046553,21.2213717 49.0128134,21.147644 L49.1431755,20.0031414 L49.3470752,20.0031414 L49.2200557,21.1361257 C49.2133724,21.1978314 49.2098281,21.2605924 49.2094708,21.3235602 C49.2094708,21.5235602 49.2568245,21.6743455 49.3933148,21.6743455 C49.5498607,21.6743455 49.6428969,21.4219895 49.6718663,21.1445026 L49.8,20 L50,20 L49.8373259,21.4502618 C49.8203557,21.5960525 49.8123183,21.7450147 49.8133705,21.8942408 C49.8125583,21.9158544 49.8125583,21.9375487 49.8133705,21.9591623 L49.6183844,21.9591623 C49.6150545,21.921451 49.6135627,21.8832472 49.6139276,21.8450262 C49.6139276,21.8251309 49.6139276,21.7842932 49.6139276,21.7308901 C49.5478357,21.8969951 49.4445986,21.9963356 49.3342618,22 Z" id="path-35"></path>
        <filter x="-2300.0%" y="-950.0%" width="4700.0%" height="2398.0%" filterUnits="objectBoundingBox" id="filter-36">
            <feOffset dx="0" dy="4" in="SourceAlpha" result="shadowOffsetOuter1"></feOffset>
            <feGaussianBlur stdDeviation="7" in="shadowOffsetOuter1" result="shadowBlurOuter1"></feGaussianBlur>
            <feColorMatrix values="0 0 0 0 0.503594541   0 0 0 0 0.597691893   0 0 0 0 0.834980867  0 0 0 0.271625906 0" type="matrix" in="shadowBlurOuter1"></feColorMatrix>
        </filter>
        <path d="M50.6813996,22 C50.232965,22 50,21.7464986 50,21.42507 C50,21 50.3683241,20.6239496 50.8996317,20.6239496 C51.1896869,20.6239496 51.3600368,20.7247899 51.4373849,20.8284314 L51.6666667,20 L52,20 L51.5478821,21.6323529 C51.5198329,21.729853 51.5065482,21.8294741 51.5082873,21.9292717 C51.5069449,21.9437262 51.5069449,21.9582346 51.5082873,21.9726891 L51.1896869,21.9726891 C51.1841831,21.947469 51.1817174,21.9219195 51.1823204,21.8963585 C51.1820783,21.866387 51.1845396,21.8364381 51.1896869,21.8067227 C51.0672509,21.9261436 50.8804842,21.9971621 50.6813996,22 Z M50.3406998,21.4222689 C50.3406998,21.6323529 50.4732965,21.7794118 50.7495396,21.7794118 C51.0791897,21.7794118 51.3186004,21.5203081 51.3186004,21.1827731 C51.3186004,20.9943978 51.1970534,20.8445378 50.9171271,20.8445378 C50.5414365,20.8445378 50.3406998,21.1582633 50.3406998,21.4222689 Z" id="path-37"></path>
        <filter x="-1145.7%" y="-950.0%" width="2379.1%" height="2400.0%" filterUnits="objectBoundingBox" id="filter-38">
            <feOffset dx="0" dy="4" in="SourceAlpha" result="shadowOffsetOuter1"></feOffset>
            <feGaussianBlur stdDeviation="7" in="shadowOffsetOuter1" result="shadowBlurOuter1"></feGaussianBlur>
            <feColorMatrix values="0 0 0 0 0.503594541   0 0 0 0 0.597691893   0 0 0 0 0.834980867  0 0 0 0.271625906 0" type="matrix" in="shadowBlurOuter1"></feColorMatrix>
        </filter>
        <path d="M53,20.0559796 L52.8525089,21.4656489 C52.8370697,21.6073589 52.8297574,21.7521517 52.8307146,21.897201 C52.8299757,21.9182096 52.8299757,21.9392967 52.8307146,21.9603053 L52.6563609,21.9603053 C52.6538407,21.9235464 52.6526549,21.8864682 52.652813,21.8493639 C52.6526069,21.8058296 52.6537919,21.7623135 52.6563609,21.719084 C52.5880085,21.8924807 52.4846601,21.9955032 52.3745565,22 C52.1282311,22 52,21.6315522 52,21.1643766 C52,20.5465649 52.2027369,20 52.4946782,20 C52.6548403,20 52.7480993,20.1465649 52.7906741,20.297201 L52.8165231,20.0559796 L53,20.0559796 Z M52.1890522,21.1603053 C52.1890522,21.4656489 52.2620375,21.6793893 52.4140902,21.6793893 C52.5955398,21.6793893 52.7278256,21.302799 52.7278256,20.8122137 C52.7278256,20.5384224 52.6604156,20.3206107 52.5068424,20.3206107 C52.2980233,20.3206107 52.1875317,20.7765903 52.1875317,21.1603053 L52.1890522,21.1603053 Z" id="path-39"></path>
        <filter x="-2300.0%" y="-950.0%" width="4685.3%" height="2400.0%" filterUnits="objectBoundingBox" id="filter-40">
            <feOffset dx="0" dy="4" in="SourceAlpha" result="shadowOffsetOuter1"></feOffset>
            <feGaussianBlur stdDeviation="7" in="shadowOffsetOuter1" result="shadowBlurOuter1"></feGaussianBlur>
            <feColorMatrix values="0 0 0 0 0.503594541   0 0 0 0 0.597691893   0 0 0 0 0.834980867  0 0 0 0.271625906 0" type="matrix" in="shadowBlurOuter1"></feColorMatrix>
        </filter>
        <path d="M54,21.9646066 L54.2970297,20 L54.4757426,20 L54.360396,20.767152 C54.4356001,20.6672023 54.5363123,20.6143745 54.639604,20.6206957 C54.8806931,20.6206957 55,20.8759481 55,21.1855986 C55,21.6437976 54.799505,21.9994771 54.5049505,21.9994771 C54.3802833,22.0081042 54.2643599,21.9093462 54.2118812,21.749804 L54.1792079,21.9639092 L54,21.9646066 Z M54.2678218,21.4066778 C54.2678218,21.6124141 54.350495,21.76166 54.4930693,21.7700289 C54.6589109,21.7700289 54.8128713,21.5719642 54.8128713,21.2121002 C54.8128713,20.9812572 54.7242574,20.845262 54.570297,20.845262 C54.4163366,20.845262 54.2678218,21.0663413 54.2678218,21.4108623 L54.2678218,21.4066778 Z" id="path-41"></path>
        <filter x="-2270.3%" y="-950.0%" width="4670.3%" height="2400.0%" filterUnits="objectBoundingBox" id="filter-42">
            <feOffset dx="0" dy="4" in="SourceAlpha" result="shadowOffsetOuter1"></feOffset>
            <feGaussianBlur stdDeviation="7" in="shadowOffsetOuter1" result="shadowBlurOuter1"></feGaussianBlur>
            <feColorMatrix values="0 0 0 0 0.503594541   0 0 0 0 0.597691893   0 0 0 0 0.834980867  0 0 0 0.271625906 0" type="matrix" in="shadowBlurOuter1"></feColorMatrix>
        </filter>
        <polygon id="path-43" points="56 22 56.6217617 20 57 20 56.3782383 22"></polygon>
        <filter x="-2300.0%" y="-950.0%" width="4600.0%" height="2300.0%" filterUnits="objectBoundingBox" id="filter-44">
            <feOffset dx="0" dy="4" in="SourceAlpha" result="shadowOffsetOuter1"></feOffset>
            <feGaussianBlur stdDeviation="7" in="shadowOffsetOuter1" result="shadowBlurOuter1"></feGaussianBlur>
            <feColorMatrix values="0 0 0 0 0.503594541   0 0 0 0 0.597691893   0 0 0 0 0.834980867  0 0 0 0.271625906 0" type="matrix" in="shadowBlurOuter1"></feColorMatrix>
        </filter>
        <path d="M57.2032204,21.1059079 C57.202166,21.1279849 57.202166,21.1501854 57.2032204,21.1722624 C57.1989194,21.3032695 57.2247744,21.431652 57.27464,21.5268949 C57.3245055,21.6221377 57.3939284,21.6757352 57.4664076,21.6749478 C57.5930515,21.6822206 57.7114113,21.5613074 57.7734592,21.3612721 L57.9267074,21.5412335 C57.8321703,21.8329029 57.6575616,22.0085041 57.4708495,21.9996826 C57.2137701,21.9996826 57,21.7061143 57,21.1431066 C57,20.4302987 57.280955,20 57.5702388,20 C57.8595225,20 58,20.3136757 58,20.759055 C57.9992915,20.8760265 57.9891914,20.9921897 57.9700167,21.1038972 L57.2032204,21.1059079 Z M57.7840089,20.8042967 C57.7870361,20.7785204 57.7885253,20.75223 57.7884509,20.7258777 C57.7919801,20.6145134 57.7684525,20.5059186 57.7240452,20.4286041 C57.6796379,20.3512895 57.6187868,20.3129786 57.5574681,20.3237294 C57.4004952,20.3295451 57.2658684,20.5281224 57.2309828,20.805302 L57.7840089,20.8042967 Z" id="path-45"></path>
        <filter x="-2300.0%" y="-933.2%" width="4700.0%" height="2370.8%" filterUnits="objectBoundingBox" id="filter-46">
            <feOffset dx="0" dy="4" in="SourceAlpha" result="shadowOffsetOuter1"></feOffset>
            <feGaussianBlur stdDeviation="7" in="shadowOffsetOuter1" result="shadowBlurOuter1"></feGaussianBlur>
            <feColorMatrix values="0 0 0 0 0.503594541   0 0 0 0 0.597691893   0 0 0 0 0.834980867  0 0 0 0.271625906 0" type="matrix" in="shadowBlurOuter1"></feColorMatrix>
        </filter>
        <path d="M23.6763445,8.03558136 C23.3857968,7.61288748 22.9214431,7.36237885 22.4269081,7.36153772 L8.25041537,7.36153772 C8.22863554,7.30555913 8.2075817,7.2488137 8.18652787,7.1928351 C7.91355397,6.49041876 7.63114215,5.76423067 7.39591996,5.03497527 C6.83545228,3.29733832 5.64409546,1.88483732 3.85379325,0.835813778 L3.81821953,0.817409857 C2.97606602,0.44319678 2.05114914,0.0858539645 1.02459305,0.0107046171 C0.687005653,-0.0138339453 0.36684212,-0.0161344356 0.15920772,0.230018019 C-0.0484266796,0.476170473 -0.0135789482,0.810508386 0.0452265987,1.16555071 C0.19042548,2.04357115 0.510589013,2.85257688 0.824944591,3.60867133 L0.853258372,3.6638831 C2.25370158,5.9459694 4.18194272,7.27335226 6.58208023,7.60999067 C6.67137754,7.62225995 6.72219715,7.65369998 6.83980824,7.89985243 C7.24963796,8.73772158 7.56913942,9.6215298 7.7923129,10.5346806 C8.17043298,12.0990031 8.26161241,13.7253084 8.06093083,15.3258349 C8.06093083,15.3327364 8.06093083,15.3396378 8.05730086,15.3473061 C7.89079666,16.2265107 7.65623869,17.0897934 7.35599027,17.9284562 C7.14217746,18.5523375 6.88671157,19.1594029 6.59151816,19.7450766 C6.57390026,19.774762 6.5583706,19.8057743 6.54505451,19.8378631 L6.54505451,19.8416972 C6.54505451,19.8416972 6.54505451,19.8416972 6.54505451,19.8462982 C6.36061492,20.2433375 6.51582093,20.7231293 6.89171684,20.9179432 C7.26761275,21.1127571 7.72185443,20.9488211 7.90629403,20.5517819 L7.91718394,20.5295438 C8.11828439,20.1001189 7.96872954,20.3846129 8.11247644,20.0694457 C8.51562538,19.2160535 8.84229455,18.3246908 9.08821292,17.4070117 L20.4630933,17.4070117 C21.4394552,17.3963909 22.2826647,16.6827405 22.5053155,15.6785767 L23.9493184,9.50406095 C24.0710721,8.99608753 23.9709021,8.45721656 23.6763445,8.03558136 Z M5.78493837,5.87005322 C4.69013881,5.43065959 2.1600483,4.19606317 1.67726202,2.03053504 C1.65863116,1.93922183 1.6858887,1.84421477 1.74937421,1.77918562 C1.81285973,1.71415647 1.90360157,1.68829501 1.98943962,1.71076689 C4.60301948,2.36717344 5.72032487,4.50432886 6.11236185,5.51577773 C6.15079852,5.61528457 6.129687,5.72939499 6.05861284,5.80629795 C5.98753867,5.88320092 5.88004492,5.90824269 5.78493837,5.87005322 Z M22.9343782,9.21496601 L21.4889234,15.388715 C21.3754372,15.8916125 20.9510907,16.2473338 20.4616413,16.2498651 L9.34739292,16.2498651 C9.35973483,16.1823841 9.37135074,16.1141362 9.38224065,16.0466552 C9.46968456,15.5105335 9.53050925,14.969946 9.56446525,14.42711 L14.011181,14.42711 C14.1941316,14.42711 14.5418829,14.1441497 14.5418829,13.7952421 C14.5418829,13.4463344 14.1941316,13.1633741 14.011181,13.1633741 L9.596409,13.1633741 C9.58898799,12.5973732 9.54825371,12.0324074 9.47444194,11.4717469 L16.5274776,11.4717469 C16.730756,11.4717469 17.0952052,11.1887866 17.0952052,10.8398789 C17.0952052,10.4909713 16.732208,10.208011 16.5274776,10.208011 L9.23849376,10.208011 C9.12136869,9.7211212 8.96944191,9.24431839 8.78402126,8.78170702 C8.74989952,8.69582205 8.71650378,8.60840342 8.68310804,8.52175101 L22.4269081,8.52175163 C22.5921729,8.52148933 22.7475934,8.60471064 22.8450809,8.74566601 C22.9408395,8.87962816 22.9737005,9.05232821 22.9343782,9.21496601 Z" id="path-47"></path>
        <filter x="-95.8%" y="-90.5%" width="291.7%" height="318.4%" filterUnits="objectBoundingBox" id="filter-48">
            <feOffset dx="0" dy="4" in="SourceAlpha" result="shadowOffsetOuter1"></feOffset>
            <feGaussianBlur stdDeviation="7" in="shadowOffsetOuter1" result="shadowBlurOuter1"></feGaussianBlur>
            <feColorMatrix values="0 0 0 0 0.503594541   0 0 0 0 0.597691893   0 0 0 0 0.834980867  0 0 0 0.271625906 0" type="matrix" in="shadowBlurOuter1"></feColorMatrix>
        </filter>
        <path d="M9.03416304,5.61628954 C9.04857012,5.89996567 9.09491371,6.18060926 9.17214213,6.45185165 C9.23346617,6.64596476 9.30945465,6.88970079 9.50542496,6.97070288 L9.5220891,6.97800036 C9.71805941,7.05097522 9.90603092,6.93056671 10.0966687,6.79045498 C10.8965475,6.20227764 11.449797,5.42655491 11.7357537,4.48299001 C12.0643705,3.55474983 12.0863672,2.57177851 11.8024102,1.56399574 C11.7357537,1.33120595 11.6564324,1.0991459 11.4524633,1.0225223 C11.2484942,0.945898705 11.0525239,1.0779832 10.8698849,1.22028417 C9.48409486,2.2966633 8.86218909,3.73791672 9.02549768,5.50974625 L9.03416304,5.61628954 Z M10.9092122,2.30323104 C10.9487698,2.25519203 11.0107953,2.23783156 11.0665589,2.25919089 C11.1223226,2.28055022 11.1609333,2.3364577 11.1645069,2.40101735 C11.1925027,3.02422262 11.1145145,3.57810179 10.9312089,4.05243836 L10.9278761,4.06192509 L10.9278761,4.07068207 C10.7125754,4.72745578 10.4219527,5.28936218 10.0906696,5.70094037 C10.05111,5.7495704 9.98863694,5.76722177 9.93252214,5.74562393 C9.87640735,5.72402609 9.83776793,5.66745788 9.8347084,5.60242431 C9.77138466,4.33631055 10.1266642,3.24971493 10.9092122,2.30323104 Z" id="path-49"></path>
        <filter x="-766.5%" y="-316.7%" width="1633.1%" height="866.7%" filterUnits="objectBoundingBox" id="filter-50">
            <feOffset dx="0" dy="4" in="SourceAlpha" result="shadowOffsetOuter1"></feOffset>
            <feGaussianBlur stdDeviation="7" in="shadowOffsetOuter1" result="shadowBlurOuter1"></feGaussianBlur>
            <feColorMatrix values="0 0 0 0 0.503594541   0 0 0 0 0.597691893   0 0 0 0 0.834980867  0 0 0 0.271625906 0" type="matrix" in="shadowBlurOuter1"></feColorMatrix>
        </filter>
        <path d="M6.99811427,9.2715545 C7.02200413,8.92732221 6.81520753,8.65365753 6.5875073,8.41097377 C4.97643484,6.70788448 2.21491629,6.51769614 0.432135461,7.99789501 C0.329110438,8.08395308 0.0163025792,8.34212731 0.000624858334,8.75434548 C-0.0150528625,9.16656365 0.268639229,9.44281007 0.361958996,9.53661337 C1.195194,10.3684939 2.23397925,10.8778123 3.33176726,10.992716 L3.35267089,10.992716 C4.52028782,11.0538172 5.57666758,10.7302389 6.48821507,10.0323079 C6.74055172,9.84125895 6.97422441,9.6157868 6.99811427,9.2715545 Z M5.18323144,9.29134786 C4.61225535,9.44973434 4.02379561,9.50776136 3.43777852,9.46346401 C2.86611046,9.42435091 2.30367643,9.27904944 1.77220732,9.03317364 C1.70633542,9.00668286 1.66387587,8.93280389 1.66840108,8.85255236 C1.67292629,8.77230082 1.72332526,8.70537952 1.79161783,8.68894134 C2.92362441,8.35606607 4.11811268,8.44647472 5.20264195,8.94711557 C5.26752659,8.97462161 5.30897351,9.04806596 5.30448932,9.12759007 C5.30000513,9.20711419 5.25065907,9.27375564 5.18323144,9.29134786 Z" id="path-51"></path>
        <filter x="-328.6%" y="-475.0%" width="757.1%" height="1250.0%" filterUnits="objectBoundingBox" id="filter-52">
            <feOffset dx="0" dy="4" in="SourceAlpha" result="shadowOffsetOuter1"></feOffset>
            <feGaussianBlur stdDeviation="7" in="shadowOffsetOuter1" result="shadowBlurOuter1"></feGaussianBlur>
            <feColorMatrix values="0 0 0 0 0.503594541   0 0 0 0 0.597691893   0 0 0 0 0.834980867  0 0 0 0.271625906 0" type="matrix" in="shadowBlurOuter1"></feColorMatrix>
        </filter>
        <path d="M20.6953563,18 C20.5894476,18.0002885 20.4836777,18.008335 20.3787675,18.0240847 L12.6193828,18.0240847 C12.5142239,18.0083426 12.4082084,18.0002962 12.3020543,18 C11.2744403,18.000748 10.3715796,18.7401997 10.0889964,19.8125161 C9.80641311,20.8848325 10.212468,22.0306058 11.0843027,22.6209922 C11.9561374,23.2113787 13.0828434,23.103556 13.8460419,22.3567012 C14.6092404,21.6098465 14.8243033,20.4046339 14.3731961,19.4025298 L18.6316115,19.4025298 C18.1818239,20.403739 18.3975009,21.6072161 19.1602706,22.3524472 C19.9230403,23.0976783 21.0483786,23.2043819 21.918657,22.6139951 C22.7889354,22.0236082 23.1936219,20.8789534 22.9106092,19.8082607 C22.6275965,18.7375679 21.7253492,17.9998523 20.6990548,18 L20.6953563,18 Z M12.3020543,21.4055702 C11.839608,21.4055702 11.4647213,20.9986891 11.4647213,20.4967759 C11.4647213,19.9948627 11.839608,19.5879816 12.3020543,19.5879816 C12.7645006,19.5879816 13.1393873,19.9948627 13.1393873,20.4967759 C13.138573,20.9983226 12.7641629,21.4046864 12.3020543,21.4055702 Z M20.6953563,21.4055702 C20.23291,21.4055702 19.8580233,20.9986891 19.8580233,20.4967759 C19.8580233,19.9948627 20.23291,19.5879816 20.6953563,19.5879816 C21.1578026,19.5879816 21.5326893,19.9948627 21.5326893,20.4967759 C21.5322815,20.9985057 21.1576335,21.4051276 20.6953563,21.4055702 Z" id="path-53"></path>
        <filter x="-176.9%" y="-380.0%" width="453.8%" height="1020.0%" filterUnits="objectBoundingBox" id="filter-54">
            <feOffset dx="0" dy="4" in="SourceAlpha" result="shadowOffsetOuter1"></feOffset>
            <feGaussianBlur stdDeviation="7" in="shadowOffsetOuter1" result="shadowBlurOuter1"></feGaussianBlur>
            <feColorMatrix values="0 0 0 0 0.503594541   0 0 0 0 0.597691893   0 0 0 0 0.834980867  0 0 0 0.271625906 0" type="matrix" in="shadowBlurOuter1"></feColorMatrix>
        </filter>
    </defs>
    <g id="Page-1" stroke="none" stroke-width="1" fill="none" fill-rule="evenodd">
        <g id="Sign-up-Copy" transform="translate(-630.000000, -746.000000)">
            <g id="Group-Copy" transform="translate(0.000000, 752.000000)">
                <g id="Group" transform="translate(638.000000, 0.000000)">
                    <g id="Group-Copy-7">
                        <g id="Rectangle">
                            <use fill="black" fill-opacity="1" filter="url(#filter-2)" xlink:href="#path-1"></use>
                            <use fill="#FFFFFF" fill-rule="evenodd" xlink:href="#path-1"></use>
                        </g>
                    </g>
                    <g id="Recurso-2" transform="translate(27.000000, 8.000000)">
                        <g id="Path">
                            <use fill="black" fill-opacity="1" filter="url(#filter-4)" xlink:href="#path-3"></use>
                            <use fill="#27D8DB" fill-rule="evenodd" xlink:href="#path-3"></use>
                        </g>
                        <g id="Shape" fill-rule="nonzero">
                            <use fill="black" fill-opacity="1" filter="url(#filter-6)" xlink:href="#path-5"></use>
                            <use fill="#27D8DB" xlink:href="#path-5"></use>
                        </g>
                        <g id="Shape" fill-rule="nonzero">
                            <use fill="black" fill-opacity="1" filter="url(#filter-8)" xlink:href="#path-7"></use>
                            <use fill="#27D8DB" xlink:href="#path-7"></use>
                        </g>
                        <g id="Path">
                            <use fill="black" fill-opacity="1" filter="url(#filter-10)" xlink:href="#path-9"></use>
                            <use fill="#27D8DB" fill-rule="evenodd" xlink:href="#path-9"></use>
                        </g>
                        <g id="Path">
                            <use fill="black" fill-opacity="1" filter="url(#filter-12)" xlink:href="#path-11"></use>
                            <use fill="#27D8DB" fill-rule="evenodd" xlink:href="#path-11"></use>
                        </g>
                        <g id="Shape" fill-rule="nonzero">
                            <use fill="black" fill-opacity="1" filter="url(#filter-14)" xlink:href="#path-13"></use>
                            <use fill="#27D8DB" xlink:href="#path-13"></use>
                        </g>
                        <g id="Path">
                            <use fill="black" fill-opacity="1" filter="url(#filter-16)" xlink:href="#path-15"></use>
                            <use fill="#27D8DB" fill-rule="evenodd" xlink:href="#path-15"></use>
                        </g>
                        <g id="Path">
                            <use fill="black" fill-opacity="1" filter="url(#filter-18)" xlink:href="#path-17"></use>
                            <use fill="#27D8DB" fill-rule="evenodd" xlink:href="#path-17"></use>
                        </g>
                        <g id="Shape" fill-rule="nonzero">
                            <use fill="black" fill-opacity="1" filter="url(#filter-20)" xlink:href="#path-19"></use>
                            <use fill="#27D8DB" xlink:href="#path-19"></use>
                        </g>
                        <g id="Shape" fill-rule="nonzero">
                            <use fill="black" fill-opacity="1" filter="url(#filter-22)" xlink:href="#path-21"></use>
                            <use fill="#27D8DB" xlink:href="#path-21"></use>
                        </g>
                        <g id="Path">
                            <use fill="black" fill-opacity="1" filter="url(#filter-24)" xlink:href="#path-23"></use>
                            <use fill="#27D8DB" fill-rule="evenodd" xlink:href="#path-23"></use>
                        </g>
                        <g id="Shape" fill-rule="nonzero">
                            <use fill="black" fill-opacity="1" filter="url(#filter-26)" xlink:href="#path-25"></use>
                            <use fill="#27D8DB" xlink:href="#path-25"></use>
                        </g>
                        <g id="Shape" fill-rule="nonzero">
                            <use fill="black" fill-opacity="1" filter="url(#filter-28)" xlink:href="#path-27"></use>
                            <use fill="#27D8DB" xlink:href="#path-27"></use>
                        </g>
                        <g id="Path">
                            <use fill="black" fill-opacity="1" filter="url(#filter-30)" xlink:href="#path-29"></use>
                            <use fill="#27D8DB" fill-rule="evenodd" xlink:href="#path-29"></use>
                        </g>
                        <g id="Shape" fill-rule="nonzero">
                            <use fill="black" fill-opacity="1" filter="url(#filter-32)" xlink:href="#path-31"></use>
                            <use fill="#27D8DB" xlink:href="#path-31"></use>
                        </g>
                        <g id="Path">
                            <use fill="black" fill-opacity="1" filter="url(#filter-34)" xlink:href="#path-33"></use>
                            <use fill="#27D8DB" fill-rule="evenodd" xlink:href="#path-33"></use>
                        </g>
                        <g id="Path">
                            <use fill="black" fill-opacity="1" filter="url(#filter-36)" xlink:href="#path-35"></use>
                            <use fill="#27D8DB" fill-rule="evenodd" xlink:href="#path-35"></use>
                        </g>
                        <g id="Shape" fill-rule="nonzero">
                            <use fill="black" fill-opacity="1" filter="url(#filter-38)" xlink:href="#path-37"></use>
                            <use fill="#27D8DB" xlink:href="#path-37"></use>
                        </g>
                        <g id="Shape" fill-rule="nonzero">
                            <use fill="black" fill-opacity="1" filter="url(#filter-40)" xlink:href="#path-39"></use>
                            <use fill="#27D8DB" xlink:href="#path-39"></use>
                        </g>
                        <g id="Shape" fill-rule="nonzero">
                            <use fill="black" fill-opacity="1" filter="url(#filter-42)" xlink:href="#path-41"></use>
                            <use fill="#27D8DB" xlink:href="#path-41"></use>
                        </g>
                        <g id="Path">
                            <use fill="black" fill-opacity="1" filter="url(#filter-44)" xlink:href="#path-43"></use>
                            <use fill="#27D8DB" fill-rule="evenodd" xlink:href="#path-43"></use>
                        </g>
                        <g id="Shape" fill-rule="nonzero">
                            <use fill="black" fill-opacity="1" filter="url(#filter-46)" xlink:href="#path-45"></use>
                            <use fill="#27D8DB" xlink:href="#path-45"></use>
                        </g>
                        <g id="Shape" fill-rule="nonzero">
                            <use fill="black" fill-opacity="1" filter="url(#filter-48)" xlink:href="#path-47"></use>
                            <use fill="#27D8DB" xlink:href="#path-47"></use>
                        </g>
                        <g id="Shape" fill-rule="nonzero">
                            <use fill="black" fill-opacity="1" filter="url(#filter-50)" xlink:href="#path-49"></use>
                            <use fill="#27D8DB" xlink:href="#path-49"></use>
                        </g>
                        <g id="Shape" fill-rule="nonzero">
                            <use fill="black" fill-opacity="1" filter="url(#filter-52)" xlink:href="#path-51"></use>
                            <use fill="#27D8DB" xlink:href="#path-51"></use>
                        </g>
                        <g id="Shape" fill-rule="nonzero">
                            <use fill="black" fill-opacity="1" filter="url(#filter-54)" xlink:href="#path-53"></use>
                            <use fill="#27D8DB" xlink:href="#path-53"></use>
                        </g>
                    </g>
                </g>
            </g>
        </g>
    </g>
</svg>