<?xml version="1.0" encoding="UTF-8"?>
<svg width="323px" height="345px" viewBox="0 0 323 345" version="1.1" xmlns="http://www.w3.org/2000/svg" xmlns:xlink="http://www.w3.org/1999/xlink">
    <!-- Generator: Sketch 52.4 (67378) - http://www.bohemiancoding.com/sketch -->
    <title>Recurso 2</title>
    <desc>Created with Sketch.</desc>
    <defs>
        <filter x="-3.4%" y="-4.7%" width="106.7%" height="109.5%" filterUnits="objectBoundingBox" id="filter-1">
            <feOffset dx="0" dy="6" in="SourceAlpha" result="shadowOffsetOuter1"></feOffset>
            <feGaussianBlur stdDeviation="9.5" in="shadowOffsetOuter1" result="shadowBlurOuter1"></feGaussianBlur>
            <feColorMatrix values="0 0 0 0 0.503594541   0 0 0 0 0.597691893   0 0 0 0 0.834980867  0 0 0 0.271625906 0" type="matrix" in="shadowBlurOuter1" result="shadowMatrixOuter1"></feColorMatrix>
            <feMerge>
                <feMergeNode in="shadowMatrixOuter1"></feMergeNode>
                <feMergeNode in="SourceGraphic"></feMergeNode>
            </feMerge>
        </filter>
        <filter x="-14.9%" y="-12.5%" width="129.8%" height="127.8%" filterUnits="objectBoundingBox" id="filter-2">
            <feOffset dx="0" dy="5" in="SourceAlpha" result="shadowOffsetOuter1"></feOffset>
            <feGaussianBlur stdDeviation="4.5" in="shadowOffsetOuter1" result="shadowBlurOuter1"></feGaussianBlur>
            <feColorMatrix values="0 0 0 0 0.503594541   0 0 0 0 0.597691893   0 0 0 0 0.834980867  0 0 0 0.327530571 0" type="matrix" in="shadowBlurOuter1" result="shadowMatrixOuter1"></feColorMatrix>
            <feMerge>
                <feMergeNode in="shadowMatrixOuter1"></feMergeNode>
                <feMergeNode in="SourceGraphic"></feMergeNode>
            </feMerge>
        </filter>
        <polygon id="path-3" points="0 258 14.8218201 185 58 185 55.6270612 196.636042 24.3084054 196.636042 20.1725644 217.106856 48.2342455 217.106856 45.9595329 228.538189 17.8823425 228.538189 11.859524 257.983839"></polygon>
        <filter x="-39.7%" y="-26.0%" width="179.3%" height="163.0%" filterUnits="objectBoundingBox" id="filter-4">
            <feOffset dx="0" dy="4" in="SourceAlpha" result="shadowOffsetOuter1"></feOffset>
            <feGaussianBlur stdDeviation="7" in="shadowOffsetOuter1" result="shadowBlurOuter1"></feGaussianBlur>
            <feColorMatrix values="0 0 0 0 0.503594541   0 0 0 0 0.597691893   0 0 0 0 0.834980867  0 0 0 0.271625906 0" type="matrix" in="shadowBlurOuter1"></feColorMatrix>
        </filter>
        <path d="M60.3512438,234.729352 C60.2722611,235.099289 60.2383992,235.477611 60.2504146,235.85587 C60.2504146,242.931478 65.1220564,247.850607 71.9253731,247.850607 C78.4155887,247.850607 82.5761194,244.363765 84.5024876,240.571154 L93.5240464,245.597571 C90.1754561,252.158198 82.5708126,258 71.6175788,258 C59.3429519,258 49,249.594028 49,235.137045 C49,216.361741 62.2669983,205 75.7728027,205 C89.3635158,205 97,213.582996 97,225.604555 C96.9638375,228.697821 96.4847938,231.769498 95.5777778,234.723988 L60.3512438,234.729352 Z M85.4046434,226.012247 C85.4046434,225.808401 85.5054726,224.987652 85.5054726,224.478036 C85.5054726,220.186538 82.9688226,214.940182 75.4650083,214.940182 C68.0354892,214.940182 63.3973466,220.170445 61.66733,226.012247 L85.4046434,226.012247 Z" id="path-5"></path>
        <filter x="-47.9%" y="-35.8%" width="195.8%" height="186.8%" filterUnits="objectBoundingBox" id="filter-6">
            <feOffset dx="0" dy="4" in="SourceAlpha" result="shadowOffsetOuter1"></feOffset>
            <feGaussianBlur stdDeviation="7" in="shadowOffsetOuter1" result="shadowBlurOuter1"></feGaussianBlur>
            <feColorMatrix values="0 0 0 0 0.503594541   0 0 0 0 0.597691893   0 0 0 0 0.834980867  0 0 0 0.271625906 0" type="matrix" in="shadowBlurOuter1"></feColorMatrix>
        </filter>
        <path d="M107.357522,234.729352 C107.278496,235.099289 107.244615,235.477611 107.256637,235.85587 C107.256637,242.931478 112.130973,247.850607 118.938053,247.850607 C125.431858,247.850607 129.59469,244.363765 131.522124,240.571154 L140.548673,245.597571 C137.19823,252.158198 129.589381,258 118.630088,258 C106.348673,258 96,249.594028 96,235.137045 C96,216.361741 109.274336,205 122.787611,205 C136.385841,205 144,213.582996 144,225.604555 C143.963818,228.697821 143.484509,231.769498 142.576991,234.723988 L107.357522,234.729352 Z M132.424779,226.012247 C132.424779,225.808401 132.525664,224.987652 132.525664,224.478036 C132.525664,220.186538 129.987611,214.940182 122.479646,214.940182 C115.072566,214.940182 110.40531,220.170445 108.674336,226.012247 L132.424779,226.012247 Z" id="path-7"></path>
        <filter x="-47.9%" y="-35.8%" width="195.8%" height="186.8%" filterUnits="objectBoundingBox" id="filter-8">
            <feOffset dx="0" dy="4" in="SourceAlpha" result="shadowOffsetOuter1"></feOffset>
            <feGaussianBlur stdDeviation="7" in="shadowOffsetOuter1" result="shadowBlurOuter1"></feGaussianBlur>
            <feColorMatrix values="0 0 0 0 0.503594541   0 0 0 0 0.597691893   0 0 0 0 0.834980867  0 0 0 0.271625906 0" type="matrix" in="shadowBlurOuter1"></feColorMatrix>
        </filter>
        <polygon id="path-9" points="144 257 159.450321 183 171 183 155.53393 257"></polygon>
        <filter x="-85.2%" y="-25.7%" width="270.4%" height="162.2%" filterUnits="objectBoundingBox" id="filter-10">
            <feOffset dx="0" dy="4" in="SourceAlpha" result="shadowOffsetOuter1"></feOffset>
            <feGaussianBlur stdDeviation="7" in="shadowOffsetOuter1" result="shadowBlurOuter1"></feGaussianBlur>
            <feColorMatrix values="0 0 0 0 0.503594541   0 0 0 0 0.597691893   0 0 0 0 0.834980867  0 0 0 0.271625906 0" type="matrix" in="shadowBlurOuter1"></feColorMatrix>
        </filter>
        <polygon id="path-11" points="165 258 180.095933 185 226 185 222.781711 200.44469 192.679389 200.44469 189.561178 215.889381 216.034367 215.889381 212.916156 230.71456 186.643122 230.71456 180.88602 258"></polygon>
        <filter x="-37.7%" y="-26.0%" width="175.4%" height="163.0%" filterUnits="objectBoundingBox" id="filter-12">
            <feOffset dx="0" dy="4" in="SourceAlpha" result="shadowOffsetOuter1"></feOffset>
            <feGaussianBlur stdDeviation="7" in="shadowOffsetOuter1" result="shadowBlurOuter1"></feGaussianBlur>
            <feColorMatrix values="0 0 0 0 0.503594541   0 0 0 0 0.597691893   0 0 0 0 0.834980867  0 0 0 0.271625906 0" type="matrix" in="shadowBlurOuter1"></feColorMatrix>
        </filter>
        <path d="M214,255 L224.561544,204.485998 L239.712796,204.485998 L229.146036,255 L214,255 Z M236.124478,180.026586 C240.818498,180.026586 244,183.38178 244,187.853598 C244,193.745126 239.305981,197.610776 234.231224,197.610776 C229.646732,197.610776 226.355702,194.255583 226.355702,189.783765 C226.355702,184.269762 230.658554,180 236.124478,180 L236.124478,180.026586 Z" id="path-13"></path>
        <filter x="-76.7%" y="-25.3%" width="253.3%" height="161.3%" filterUnits="objectBoundingBox" id="filter-14">
            <feOffset dx="0" dy="4" in="SourceAlpha" result="shadowOffsetOuter1"></feOffset>
            <feGaussianBlur stdDeviation="7" in="shadowOffsetOuter1" result="shadowBlurOuter1"></feGaussianBlur>
            <feColorMatrix values="0 0 0 0 0.503594541   0 0 0 0 0.597691893   0 0 0 0 0.834980867  0 0 0 0.271625906 0" type="matrix" in="shadowBlurOuter1"></feColorMatrix>
        </filter>
        <path d="M258.328084,237.505845 C258.216428,238.084953 258.148526,238.671804 258.124964,239.26132 C258.124964,242.464386 260.263074,243.70132 263.331263,243.70132 C264.609667,243.675883 265.880352,243.494521 267.115718,243.161174 L264.44308,255.552125 C262.231344,256.566183 259.820555,257.059319 257.392661,256.994315 C247.894106,256.994315 242.169315,251.522635 242.169315,243.161174 C242.202467,241.668789 242.381514,240.183368 242.703843,238.726575 L246.787634,218.69796 L238,218.69796 L240.859723,204.967447 L243.307859,204.967447 C249.027304,204.967447 251.683906,201.87241 252.929356,196.605986 L254.46345,190 L268.361167,190 L265.191419,204.967447 L275,204.967447 L272.038717,218.69796 L262.310315,218.69796 L258.328084,237.505845 Z" id="path-15"></path>
        <filter x="-62.2%" y="-28.4%" width="224.3%" height="168.7%" filterUnits="objectBoundingBox" id="filter-16">
            <feOffset dx="0" dy="4" in="SourceAlpha" result="shadowOffsetOuter1"></feOffset>
            <feGaussianBlur stdDeviation="7" in="shadowOffsetOuter1" result="shadowBlurOuter1"></feGaussianBlur>
            <feColorMatrix values="0 0 0 0 0.503594541   0 0 0 0 0.597691893   0 0 0 0 0.834980867  0 0 0 0.271625906 0" type="matrix" in="shadowBlurOuter1"></feColorMatrix>
        </filter>
        <path d="M50.6422977,292.072866 L51.7597911,286.821111 L50,286.821111 L50.3655352,285.088032 L50.6475196,285.088032 C51.62651,285.180222 52.5075736,284.489758 52.6579634,283.512505 L52.9869452,282 L54.6997389,282 L54.0313316,285.109039 L56,285.109039 L55.6344648,286.842118 L53.6553525,286.842118 L52.6109661,291.973082 C52.5722978,292.125947 52.5512714,292.282783 52.5483029,292.440488 C52.5483029,293.054944 52.9138381,293.322783 53.6449086,293.322783 C53.863102,293.321146 54.0810294,293.307119 54.2976501,293.280769 L53.9686684,294.856296 C53.6309973,294.962527 53.2778744,295.010471 52.924282,294.998093 C51.5039164,294.998093 50.5691906,294.199826 50.5691906,292.829118 C50.5637912,292.575015 50.5883311,292.321164 50.6422977,292.072866 Z" id="path-17"></path>
        <filter x="-383.3%" y="-146.2%" width="866.7%" height="453.8%" filterUnits="objectBoundingBox" id="filter-18">
            <feOffset dx="0" dy="4" in="SourceAlpha" result="shadowOffsetOuter1"></feOffset>
            <feGaussianBlur stdDeviation="7" in="shadowOffsetOuter1" result="shadowBlurOuter1"></feGaussianBlur>
            <feColorMatrix values="0 0 0 0 0.503594541   0 0 0 0 0.597691893   0 0 0 0 0.834980867  0 0 0 0.271625906 0" type="matrix" in="shadowBlurOuter1"></feColorMatrix>
        </filter>
        <path d="M58,295 L59.6079808,284.503903 L61.0752633,284.503903 L59.4672825,295 L58,295 Z M61.0471237,279.000605 C61.2999939,278.989804 61.5449908,279.124073 61.7250165,279.372121 C61.9050423,279.620168 62.0043706,279.960326 61.9998523,280.313318 C61.9751617,281.190947 61.4710007,281.894509 60.8421061,281.928965 C60.5892359,281.939767 60.344239,281.805497 60.1642133,281.557449 C59.9841875,281.309402 59.8848592,280.969244 59.8893775,280.616252 C59.9140681,279.738623 60.4182291,279.035061 61.0471237,279.000605 Z" id="path-19"></path>
        <filter x="-575.0%" y="-118.8%" width="1250.0%" height="387.5%" filterUnits="objectBoundingBox" id="filter-20">
            <feOffset dx="0" dy="4" in="SourceAlpha" result="shadowOffsetOuter1"></feOffset>
            <feGaussianBlur stdDeviation="7" in="shadowOffsetOuter1" result="shadowBlurOuter1"></feGaussianBlur>
            <feColorMatrix values="0 0 0 0 0.503594541   0 0 0 0 0.597691893   0 0 0 0 0.834980867  0 0 0 0.271625906 0" type="matrix" in="shadowBlurOuter1"></feColorMatrix>
        </filter>
        <path d="M66.0266519,290.082494 C66.0161072,290.203917 66.0161072,290.32602 66.0266519,290.447443 C65.9835734,291.168948 66.242865,291.875938 66.7427435,292.399953 C67.242622,292.923968 67.9383225,293.218081 68.6640755,293.212213 C69.9305146,293.252214 71.1141131,292.587191 71.7345919,291.486997 L73.2670738,292.476784 C72.3217029,294.080966 70.575616,295.046773 68.7084953,294.998254 C66.1377013,294.998254 64,293.383629 64,290.287087 C64,286.366643 66.8039978,284 69.7023876,284 C72.5119378,284 74,285.725216 74,288.174802 C73.9929154,288.818146 73.8919139,289.457043 73.7001666,290.071434 L66.0266519,290.082494 Z M71.8400888,288.423632 C71.8703611,288.281862 71.8852531,288.137265 71.8845086,287.992328 C71.9200225,287.378763 71.6840194,286.780472 71.2386579,286.355031 C70.7932964,285.92959 70.1832265,285.719652 69.5691283,285.780512 C68.0014885,285.815004 66.6581775,286.906637 66.3098279,288.429161 L71.8400888,288.423632 Z" id="path-21"></path>
        <filter x="-230.0%" y="-172.7%" width="560.0%" height="518.2%" filterUnits="objectBoundingBox" id="filter-22">
            <feOffset dx="0" dy="4" in="SourceAlpha" result="shadowOffsetOuter1"></feOffset>
            <feGaussianBlur stdDeviation="7" in="shadowOffsetOuter1" result="shadowBlurOuter1"></feGaussianBlur>
            <feColorMatrix values="0 0 0 0 0.503594541   0 0 0 0 0.597691893   0 0 0 0 0.834980867  0 0 0 0.271625906 0" type="matrix" in="shadowBlurOuter1"></feColorMatrix>
        </filter>
        <path d="M82.5362865,295 L83.8424598,288.539763 C83.8985951,288.26978 83.92766,287.994339 83.9291767,287.717966 C83.9291767,286.54234 83.2950593,285.851802 82.0701831,285.851802 C80.4442412,285.851802 79.5445534,287.341309 79.246464,288.78516 L77.9836491,295 L76,295 L77.7722767,286.205631 C77.9042731,285.586128 77.9876579,284.956243 78.0215878,284.322346 L79.9618784,284.322346 C79.943555,284.716568 79.9019225,285.109204 79.8372229,285.497973 C80.5845553,284.48184 81.7628249,283.923529 82.9807106,284.008466 C83.797694,283.961009 84.5948929,284.284068 85.1708701,284.896012 C85.7468474,285.507956 86.0465042,286.350245 85.9941229,287.21005 C85.9868284,287.552985 85.9523835,287.894682 85.8911466,288.231589 L84.5199356,295 L82.5362865,295 Z" id="path-23"></path>
        <filter x="-230.0%" y="-172.7%" width="560.0%" height="518.2%" filterUnits="objectBoundingBox" id="filter-24">
            <feOffset dx="0" dy="4" in="SourceAlpha" result="shadowOffsetOuter1"></feOffset>
            <feGaussianBlur stdDeviation="7" in="shadowOffsetOuter1" result="shadowBlurOuter1"></feGaussianBlur>
            <feColorMatrix values="0 0 0 0 0.503594541   0 0 0 0 0.597691893   0 0 0 0 0.834980867  0 0 0 0.271625906 0" type="matrix" in="shadowBlurOuter1"></feColorMatrix>
        </filter>
        <path d="M92.7443574,295 C90.2818977,295 89,292.971989 89,290.40056 C89,287 91.0267158,283.991597 93.9502533,283.991597 C95.546292,283.991597 96.4836481,284.798319 96.9041916,285.627451 L98.1658222,279 L100,279 L97.5172731,292.058824 C97.3629315,292.838824 97.2898319,293.635793 97.2994012,294.434174 C97.2920145,294.549809 97.2920145,294.665877 97.2994012,294.781513 L95.546292,294.781513 C95.516007,294.579752 95.5024393,294.375356 95.5057577,294.170868 C95.5044253,293.931096 95.5179685,293.691505 95.546292,293.453782 C94.8705278,294.409381 93.8412586,294.977372 92.7443574,295 Z M90.8747121,290.378151 C90.8747121,292.058824 91.6043298,293.235294 93.1192999,293.235294 C94.9332105,293.235294 96.2556426,291.162465 96.2556426,288.462185 C96.2556426,286.955182 95.5868263,285.756303 94.0465223,285.756303 C91.9792722,285.756303 90.8747121,288.266106 90.8747121,290.378151 Z" id="path-25"></path>
        <filter x="-209.1%" y="-118.8%" width="518.2%" height="387.5%" filterUnits="objectBoundingBox" id="filter-26">
            <feOffset dx="0" dy="4" in="SourceAlpha" result="shadowOffsetOuter1"></feOffset>
            <feGaussianBlur stdDeviation="7" in="shadowOffsetOuter1" result="shadowBlurOuter1"></feGaussianBlur>
            <feColorMatrix values="0 0 0 0 0.503594541   0 0 0 0 0.597691893   0 0 0 0 0.834980867  0 0 0 0.271625906 0" type="matrix" in="shadowBlurOuter1"></feColorMatrix>
        </filter>
        <path d="M111,284.307888 L109.545362,292.061069 C109.390971,292.840474 109.317848,293.636834 109.32742,294.434606 C109.320031,294.550153 109.320031,294.666132 109.32742,294.781679 L107.568677,294.781679 C107.538382,294.580073 107.52481,294.375833 107.52813,294.171501 C107.525794,293.931882 107.539346,293.692395 107.568677,293.454962 C106.884237,294.407393 105.851322,294.973705 104.750634,295 C102.282311,295 101,292.973537 101,290.404071 C101,287.006107 103.027369,284 105.95185,284 C107.548403,284 108.486062,284.806107 108.911809,285.634606 L109.165231,284.307888 L111,284.307888 Z M102.890522,290.381679 C102.890522,292.061069 103.620375,293.236641 105.140902,293.236641 C106.955398,293.236641 108.273188,291.165394 108.273188,288.467176 C108.273188,286.961323 107.604156,285.763359 106.063355,285.763359 C103.970096,285.763359 102.875317,288.271247 102.875317,290.381679 L102.890522,290.381679 Z" id="path-27"></path>
        <filter x="-230.0%" y="-172.7%" width="560.0%" height="518.2%" filterUnits="objectBoundingBox" id="filter-28">
            <feOffset dx="0" dy="4" in="SourceAlpha" result="shadowOffsetOuter1"></feOffset>
            <feGaussianBlur stdDeviation="7" in="shadowOffsetOuter1" result="shadowBlurOuter1"></feGaussianBlur>
            <feColorMatrix values="0 0 0 0 0.503594541   0 0 0 0 0.597691893   0 0 0 0 0.834980867  0 0 0 0.271625906 0" type="matrix" in="shadowBlurOuter1"></feColorMatrix>
        </filter>
        <path d="M122.8225,291.030531 C122.809566,291.62611 123.048729,292.200433 123.483345,292.617475 C123.91796,293.034517 124.50937,293.257182 125.1175,293.232733 C126.27625,293.232733 126.805,292.55005 126.805,291.861862 C126.765606,291.296041 126.374303,290.812379 125.820625,290.645145 L124.285,289.956957 C123.162329,289.554667 122.413235,288.51197 122.40625,287.341842 C122.40625,285.607608 123.851875,284 126.259375,284 C129.015625,284 129.8875,285.888388 130,286.978478 L128.1775,287.523524 C128.141515,287.014896 127.899885,286.541283 127.506099,286.207527 C127.112312,285.87377 126.59885,285.7074 126.079375,285.745245 C125.0275,285.745245 124.391875,286.383884 124.391875,287.094094 C124.381431,287.616128 124.718561,288.084326 125.224375,288.25025 L126.664375,288.894394 C128.065,289.516517 128.858125,290.546046 128.858125,291.762763 C128.858125,293.08959 127.80625,295 125.005,295 C122.11375,295 121,292.940941 121,291.465465 L122.8225,291.030531 Z" id="path-29"></path>
        <filter x="-255.6%" y="-172.7%" width="611.1%" height="518.2%" filterUnits="objectBoundingBox" id="filter-30">
            <feOffset dx="0" dy="4" in="SourceAlpha" result="shadowOffsetOuter1"></feOffset>
            <feGaussianBlur stdDeviation="7" in="shadowOffsetOuter1" result="shadowBlurOuter1"></feGaussianBlur>
            <feColorMatrix values="0 0 0 0 0.503594541   0 0 0 0 0.597691893   0 0 0 0 0.834980867  0 0 0 0.271625906 0" type="matrix" in="shadowBlurOuter1"></feColorMatrix>
        </filter>
        <path d="M141,284.307888 L139.527328,292.061069 C139.373171,292.840474 139.300159,293.636834 139.309717,294.434606 C139.302339,294.550153 139.302339,294.666132 139.309717,294.781679 L137.553644,294.781679 C137.52848,294.579505 137.51664,294.375575 137.518219,294.171501 C137.516161,293.932063 137.527993,293.692724 137.553644,293.454962 C136.871157,294.408644 135.839243,294.975268 134.739879,295 C132.280364,295 131,292.973537 131,290.404071 C131,287.006107 133.024291,284 135.939271,284 C137.538462,284 138.469636,284.806107 138.894737,285.634606 L139.152834,284.307888 L141,284.307888 Z M132.902834,290.381679 C132.902834,292.061069 133.631579,293.236641 135.149798,293.236641 C136.961538,293.236641 138.282389,291.165394 138.282389,288.467176 C138.282389,286.961323 137.609312,285.763359 136.075911,285.763359 C133.990891,285.763359 132.887652,288.271247 132.887652,290.381679 L132.902834,290.381679 Z" id="path-31"></path>
        <filter x="-230.0%" y="-172.7%" width="560.0%" height="518.2%" filterUnits="objectBoundingBox" id="filter-32">
            <feOffset dx="0" dy="4" in="SourceAlpha" result="shadowOffsetOuter1"></feOffset>
            <feGaussianBlur stdDeviation="7" in="shadowOffsetOuter1" result="shadowBlurOuter1"></feGaussianBlur>
            <feColorMatrix values="0 0 0 0 0.503594541   0 0 0 0 0.597691893   0 0 0 0 0.834980867  0 0 0 0.271625906 0" type="matrix" in="shadowBlurOuter1"></feColorMatrix>
        </filter>
        <polygon id="path-33" points="144 295 146.484472 281 148 281 145.515528 295"></polygon>
        <filter x="-575.0%" y="-135.7%" width="1250.0%" height="428.6%" filterUnits="objectBoundingBox" id="filter-34">
            <feOffset dx="0" dy="4" in="SourceAlpha" result="shadowOffsetOuter1"></feOffset>
            <feGaussianBlur stdDeviation="7" in="shadowOffsetOuter1" result="shadowBlurOuter1"></feGaussianBlur>
            <feColorMatrix values="0 0 0 0 0.503594541   0 0 0 0 0.597691893   0 0 0 0 0.834980867  0 0 0 0.271625906 0" type="matrix" in="shadowBlurOuter1"></feColorMatrix>
        </filter>
        <path d="M153.342618,295 C151.197772,295 150,293.612042 150,291.544503 C150.003636,291.13034 150.046553,290.717544 150.128134,290.312042 L151.431755,284.017277 L153.470752,284.017277 L152.200557,290.248691 C152.133724,290.588073 152.098281,290.933258 152.094708,291.279581 C152.094708,292.379581 152.568245,293.208901 153.933148,293.208901 C155.498607,293.208901 156.428969,291.820942 156.718663,290.294764 L158,284 L160,284 L158.373259,291.97644 C158.203557,292.778289 158.123183,293.597581 158.133705,294.418325 C158.125583,294.537199 158.125583,294.656518 158.133705,294.775393 L156.183844,294.775393 C156.150545,294.567981 156.135627,294.357859 156.139276,294.147644 C156.139276,294.03822 156.139276,293.813613 156.139276,293.519895 C155.478357,294.433473 154.445986,294.979846 153.342618,295 Z" id="path-35"></path>
        <filter x="-230.0%" y="-172.7%" width="560.0%" height="518.2%" filterUnits="objectBoundingBox" id="filter-36">
            <feOffset dx="0" dy="4" in="SourceAlpha" result="shadowOffsetOuter1"></feOffset>
            <feGaussianBlur stdDeviation="7" in="shadowOffsetOuter1" result="shadowBlurOuter1"></feGaussianBlur>
            <feColorMatrix values="0 0 0 0 0.503594541   0 0 0 0 0.597691893   0 0 0 0 0.834980867  0 0 0 0.271625906 0" type="matrix" in="shadowBlurOuter1"></feColorMatrix>
        </filter>
        <path d="M165.747698,295 C163.281308,295 162,292.971989 162,290.40056 C162,287 164.025783,283.991597 166.947974,283.991597 C168.543278,283.991597 169.480203,284.798319 169.905617,285.627451 L171.166667,279 L173,279 L170.513352,292.058824 C170.359081,292.838824 170.286015,293.635793 170.29558,294.434174 C170.288197,294.549809 170.288197,294.665877 170.29558,294.781513 L168.543278,294.781513 C168.513007,294.579752 168.499446,294.375356 168.502762,294.170868 C168.501431,293.931096 168.514968,293.691505 168.543278,293.453782 C167.86988,294.409149 166.842663,294.977297 165.747698,295 Z M163.873849,290.378151 C163.873849,292.058824 164.603131,293.235294 166.122468,293.235294 C167.935543,293.235294 169.252302,291.162465 169.252302,288.462185 C169.252302,286.955182 168.583794,285.756303 167.044199,285.756303 C164.977901,285.756303 163.873849,288.266106 163.873849,290.378151 Z" id="path-37"></path>
        <filter x="-209.1%" y="-118.8%" width="518.2%" height="387.5%" filterUnits="objectBoundingBox" id="filter-38">
            <feOffset dx="0" dy="4" in="SourceAlpha" result="shadowOffsetOuter1"></feOffset>
            <feGaussianBlur stdDeviation="7" in="shadowOffsetOuter1" result="shadowBlurOuter1"></feGaussianBlur>
            <feColorMatrix values="0 0 0 0 0.503594541   0 0 0 0 0.597691893   0 0 0 0 0.834980867  0 0 0 0.271625906 0" type="matrix" in="shadowBlurOuter1"></feColorMatrix>
        </filter>
        <path d="M185,284.307888 L183.525089,292.061069 C183.370697,292.840474 183.297574,293.636834 183.307146,294.434606 C183.299757,294.550153 183.299757,294.666132 183.307146,294.781679 L181.563609,294.781679 C181.538407,294.579505 181.526549,294.375575 181.52813,294.171501 C181.526069,293.932063 181.537919,293.692724 181.563609,293.454962 C180.880085,294.408644 179.846601,294.975268 178.745565,295 C176.282311,295 175,292.973537 175,290.404071 C175,287.006107 177.027369,284 179.946782,284 C181.548403,284 182.480993,284.806107 182.906741,285.634606 L183.165231,284.307888 L185,284.307888 Z M176.890522,290.381679 C176.890522,292.061069 177.620375,293.236641 179.140902,293.236641 C180.955398,293.236641 182.278256,291.165394 182.278256,288.467176 C182.278256,286.961323 181.604156,285.763359 180.068424,285.763359 C177.980233,285.763359 176.875317,288.271247 176.875317,290.381679 L176.890522,290.381679 Z" id="path-39"></path>
        <filter x="-230.0%" y="-172.7%" width="560.0%" height="518.2%" filterUnits="objectBoundingBox" id="filter-40">
            <feOffset dx="0" dy="4" in="SourceAlpha" result="shadowOffsetOuter1"></feOffset>
            <feGaussianBlur stdDeviation="7" in="shadowOffsetOuter1" result="shadowBlurOuter1"></feGaussianBlur>
            <feColorMatrix values="0 0 0 0 0.503594541   0 0 0 0 0.597691893   0 0 0 0 0.834980867  0 0 0 0.271625906 0" type="matrix" in="shadowBlurOuter1"></feColorMatrix>
        </filter>
        <path d="M188,294.716853 L190.970297,279 L192.757426,279 L191.60396,285.137216 C192.356001,284.337618 193.363123,283.914996 194.39604,283.965566 C196.806931,283.965566 198,286.007585 198,288.484789 C198,292.15038 195.99505,294.995817 193.049505,294.995817 C191.802833,295.064834 190.643599,294.274769 190.118812,292.998432 L189.792079,294.711273 L188,294.716853 Z M190.678218,290.253423 C190.678218,291.899312 191.50495,293.09328 192.930693,293.160231 C194.589109,293.160231 196.128713,291.575714 196.128713,288.696802 C196.128713,286.850057 195.242574,285.762096 193.70297,285.762096 C192.163366,285.762096 190.678218,287.53073 190.678218,290.286898 L190.678218,290.253423 Z" id="path-41"></path>
        <filter x="-230.0%" y="-118.8%" width="560.0%" height="387.5%" filterUnits="objectBoundingBox" id="filter-42">
            <feOffset dx="0" dy="4" in="SourceAlpha" result="shadowOffsetOuter1"></feOffset>
            <feGaussianBlur stdDeviation="7" in="shadowOffsetOuter1" result="shadowBlurOuter1"></feGaussianBlur>
            <feColorMatrix values="0 0 0 0 0.503594541   0 0 0 0 0.597691893   0 0 0 0 0.834980867  0 0 0 0.271625906 0" type="matrix" in="shadowBlurOuter1"></feColorMatrix>
        </filter>
        <polygon id="path-43" points="201 295 203.487047 281 205 281 202.512953 295"></polygon>
        <filter x="-575.0%" y="-135.7%" width="1250.0%" height="428.6%" filterUnits="objectBoundingBox" id="filter-44">
            <feOffset dx="0" dy="4" in="SourceAlpha" result="shadowOffsetOuter1"></feOffset>
            <feGaussianBlur stdDeviation="7" in="shadowOffsetOuter1" result="shadowBlurOuter1"></feGaussianBlur>
            <feColorMatrix values="0 0 0 0 0.503594541   0 0 0 0 0.597691893   0 0 0 0 0.834980867  0 0 0 0.271625906 0" type="matrix" in="shadowBlurOuter1"></feColorMatrix>
        </filter>
        <path d="M210.032204,290.082494 C210.02166,290.203917 210.02166,290.32602 210.032204,290.447443 C209.989194,291.167982 210.247744,291.874086 210.7464,292.397922 C211.245055,292.921757 211.939284,293.216543 212.664076,293.212213 C213.930515,293.252214 215.114113,292.587191 215.734592,291.486997 L217.267074,292.476784 C216.321703,294.080966 214.575616,295.046773 212.708495,294.998254 C210.137701,294.998254 208,293.383629 208,290.287087 C208,286.366643 210.80955,284 213.702388,284 C216.595225,284 218,285.725216 218,288.174802 C217.992915,288.818146 217.891914,289.457043 217.700167,290.071434 L210.032204,290.082494 Z M215.840089,288.423632 C215.870361,288.281862 215.885253,288.137265 215.884509,287.992328 C215.919801,287.379824 215.684525,286.782552 215.240452,286.357322 C214.796379,285.932092 214.187868,285.721382 213.574681,285.780512 C212.004952,285.812498 210.658684,286.904673 210.309828,288.429161 L215.840089,288.423632 Z" id="path-45"></path>
        <filter x="-230.0%" y="-172.7%" width="560.0%" height="518.2%" filterUnits="objectBoundingBox" id="filter-46">
            <feOffset dx="0" dy="4" in="SourceAlpha" result="shadowOffsetOuter1"></feOffset>
            <feGaussianBlur stdDeviation="7" in="shadowOffsetOuter1" result="shadowBlurOuter1"></feGaussianBlur>
            <feColorMatrix values="0 0 0 0 0.503594541   0 0 0 0 0.597691893   0 0 0 0 0.834980867  0 0 0 0.271625906 0" type="matrix" in="shadowBlurOuter1"></feColorMatrix>
        </filter>
        <path d="M215.640012,56.2490695 C213.521435,53.2902124 210.135523,51.5366519 206.529538,51.5307641 L103.159279,51.5307641 C103.000467,51.1389139 102.84695,50.7416959 102.693432,50.3498457 C100.702998,45.4329313 98.6437448,40.3496147 96.928583,35.2448269 C92.8418395,23.0813682 84.1548627,13.1938613 71.1005758,5.85069645 L70.841184,5.721869 C64.7004814,3.10237746 57.9562958,0.600977751 50.470991,0.0749323196 C48.0094162,-0.0968376173 45.6748905,-0.112941049 44.1608896,1.61012613 C42.6468888,3.33319331 42.9009868,5.6735587 43.3297773,8.15885498 C44.3885191,14.304998 46.7230449,19.9680381 49.015221,25.2606993 L49.2216756,25.6471817 C59.4332407,41.6217858 73.4933324,50.9134658 90.994335,53.2699347 C91.6454612,53.3558196 92.0160209,53.5758999 92.8736018,55.298967 C95.8619434,61.164051 98.1916416,67.3507086 99.8189483,73.742764 C102.576074,84.6930218 103.240924,96.0771585 101.777621,107.280844 C101.777621,107.329154 101.777621,107.377465 101.751152,107.431143 C100.537059,113.585575 98.8267405,119.628554 96.637429,125.499193 C95.0783773,129.866363 93.2156052,134.11582 91.0631532,138.215536 C90.9346894,138.423334 90.8214523,138.64042 90.7243558,138.865041 L90.7243558,138.89188 C90.7243558,138.89188 90.7243558,138.89188 90.7243558,138.924087 C89.3794838,141.703362 90.5111943,145.061905 93.252102,146.425602 C95.9930097,147.7893 99.3051886,146.641748 100.650061,143.862473 L100.729466,143.706806 C102.195824,140.700833 101.10532,142.69229 102.153474,140.48612 C105.093102,134.512375 107.475064,128.272836 109.268219,121.849082 L192.210055,121.849082 C199.329361,121.774736 205.477764,116.779183 207.101259,109.750037 L217.630447,66.5284267 C218.518234,62.9726127 217.787828,59.2005159 215.640012,56.2490695 Z M85.1818423,41.0903726 C77.1989288,38.0146171 58.7503522,29.3724422 55.2300356,14.2137453 C55.0941855,13.5745528 55.2929385,12.9095034 55.7558536,12.4542993 C56.2187688,11.9990953 56.8804281,11.8180651 57.5063305,11.9753683 C76.5636837,16.5702141 84.7107022,31.530302 87.5693051,38.6104441 C87.8495725,39.306992 87.6956344,40.1057649 87.1773853,40.6440857 C86.6591361,41.1824064 85.8753276,41.3576988 85.1818423,41.0903726 Z M210.229841,64.5047621 L199.690066,107.721005 C198.862563,111.241287 195.768369,113.731336 192.199468,113.749056 L111.158073,113.749056 C111.248066,113.276689 111.332766,112.798953 111.412171,112.326586 C112.049783,108.573734 112.493297,104.789622 112.740892,100.98977 L145.164861,100.98977 C146.498876,100.98977 149.034563,99.0090482 149.034563,96.5666944 C149.034563,94.1243406 146.498876,92.1436185 145.164861,92.1436185 L112.973816,92.1436185 C112.919704,88.1816124 112.622683,84.2268515 112.084472,80.3022285 L163.512857,80.3022285 C164.995096,80.3022285 167.652538,78.3215064 167.652538,75.8791526 C167.652538,73.4367988 165.005683,71.4560767 163.512857,71.4560767 L110.364017,71.4560767 C109.50998,68.0478484 108.402181,64.7102288 107.050155,61.4719492 C106.801351,60.8707544 106.55784,60.258824 106.314329,59.6522571 L206.529538,59.6522614 C207.734594,59.6504253 208.867868,60.2329744 209.578715,61.2196621 C210.276955,62.1573971 210.516566,63.3662975 210.229841,64.5047621 Z" id="path-47"></path>
        <filter x="-13.1%" y="-12.9%" width="126.3%" height="131.3%" filterUnits="objectBoundingBox" id="filter-48">
            <feOffset dx="0" dy="4" in="SourceAlpha" result="shadowOffsetOuter1"></feOffset>
            <feGaussianBlur stdDeviation="7" in="shadowOffsetOuter1" result="shadowBlurOuter1"></feGaussianBlur>
            <feColorMatrix values="0 0 0 0 0.503594541   0 0 0 0 0.597691893   0 0 0 0 0.834980867  0 0 0 0.271625906 0" type="matrix" in="shadowBlurOuter1"></feColorMatrix>
        </filter>
        <path d="M106.261917,37.8527899 C106.372371,39.9330816 106.727672,41.9911346 107.319756,43.9802454 C107.789907,45.4037416 108.372486,47.1911391 109.874925,47.7851544 L110.002683,47.8386693 C111.505122,48.3738183 112.946237,47.4908225 114.407793,46.4633365 C120.540197,42.150036 124.781777,36.4614027 126.974111,29.5419267 C129.493507,22.7348321 129.662149,15.5263758 127.485145,8.13596877 C126.974111,6.42884362 126.365981,4.72706996 124.802218,4.16516357 C123.238455,3.60325717 121.736016,4.57187677 120.335784,5.61541722 C109.711394,13.5088642 104.94345,24.078056 106.195482,37.0714725 L106.261917,37.8527899 Z M120.637294,13.5570276 C120.940568,13.2047415 121.416097,13.0774314 121.843618,13.2340665 C122.27114,13.3907016 122.567156,13.8006898 122.594553,14.2741272 C122.809187,18.8442992 122.211278,22.9060798 120.805935,26.3845479 L120.780383,26.4541173 L120.780383,26.5183352 C119.129745,31.3346757 116.901638,35.4553226 114.3618,38.4735627 C114.05851,38.8301829 113.57955,38.9596263 113.149336,38.8012422 C112.719123,38.642858 112.422887,38.2280245 112.399431,37.7511116 C111.913949,28.4662774 114.637759,20.4979095 120.637294,13.5570276 Z" id="path-49"></path>
        <filter x="-100.0%" y="-43.2%" width="300.0%" height="204.5%" filterUnits="objectBoundingBox" id="filter-50">
            <feOffset dx="0" dy="4" in="SourceAlpha" result="shadowOffsetOuter1"></feOffset>
            <feGaussianBlur stdDeviation="7" in="shadowOffsetOuter1" result="shadowBlurOuter1"></feGaussianBlur>
            <feColorMatrix values="0 0 0 0 0.503594541   0 0 0 0 0.597691893   0 0 0 0 0.834980867  0 0 0 0.271625906 0" type="matrix" in="shadowBlurOuter1"></feColorMatrix>
        </filter>
        <path d="M92.9867999,66.1972156 C93.1540289,64.0457638 91.7064527,62.3353596 90.1125511,60.818586 C78.8350439,50.174278 59.504414,48.9856009 47.0249482,58.2368438 C46.3037731,58.7747068 44.1141181,60.3882957 44.004374,62.9646593 C43.89463,65.5410228 45.8804746,67.2675629 46.533713,67.8538336 C52.366358,73.0530868 59.6378548,76.2363267 67.3223708,76.9544749 L67.4686962,76.9544749 C75.6420147,77.3363576 83.0366731,75.3139928 89.4175055,70.9519242 C91.183862,69.7578685 92.8195709,68.3486675 92.9867999,66.1972156 Z M80.2826201,66.3209241 C76.2857874,67.3108396 72.1665693,67.6735085 68.0644496,67.3966501 C64.0627732,67.1521932 60.125735,66.244059 56.4054512,64.7073352 C55.9443479,64.5417679 55.6471311,64.0800243 55.6788076,63.5784522 C55.710484,63.0768802 56.0632768,62.658622 56.5413248,62.5558834 C64.4653709,60.475413 72.8267888,61.040467 80.4184937,64.1694723 C80.8726861,64.3413851 81.1628146,64.8004122 81.1314252,65.297438 C81.1000359,65.7944637 80.7546135,66.2109728 80.2826201,66.3209241 Z" id="path-51"></path>
        <filter x="-46.9%" y="-76.0%" width="193.9%" height="284.0%" filterUnits="objectBoundingBox" id="filter-52">
            <feOffset dx="0" dy="4" in="SourceAlpha" result="shadowOffsetOuter1"></feOffset>
            <feGaussianBlur stdDeviation="7" in="shadowOffsetOuter1" result="shadowBlurOuter1"></feGaussianBlur>
            <feColorMatrix values="0 0 0 0 0.503594541   0 0 0 0 0.597691893   0 0 0 0 0.834980867  0 0 0 0.271625906 0" type="matrix" in="shadowBlurOuter1"></feColorMatrix>
        </filter>
        <path d="M188.512934,130 C187.755279,130.001904 186.998617,130.055011 186.248106,130.158959 L130.738662,130.158959 C129.986371,130.055061 129.227952,130.001955 128.468542,130 C121.11715,130.004937 114.658223,134.885318 112.636666,141.962606 C110.615109,149.039894 113.519963,156.601998 119.756935,160.498549 C125.993906,164.3951 134.054187,163.68347 139.513992,158.754228 C144.973796,153.824987 146.512324,145.870584 143.285172,139.256696 L173.749221,139.256696 C170.53151,145.864677 172.074429,153.807626 177.531167,158.726152 C182.987904,163.644677 191.0384,164.348921 197.264238,160.452367 C203.490076,156.555814 206.385141,149.001093 204.360512,141.93452 C202.335882,134.867948 195.881344,129.999025 188.539392,130 L188.512934,130 Z M128.468542,152.476763 C125.160273,152.476763 122.478391,149.791348 122.478391,146.478721 C122.478391,143.166094 125.160273,140.480679 128.468542,140.480679 C131.776812,140.480679 134.458694,143.166094 134.458694,146.478721 C134.452869,149.788929 131.774396,152.47093 128.468542,152.476763 Z M188.512934,152.476763 C185.204664,152.476763 182.522782,149.791348 182.522782,146.478721 C182.522782,143.166094 185.204664,140.480679 188.512934,140.480679 C191.821203,140.480679 194.503085,143.166094 194.503085,146.478721 C194.500168,149.790138 191.819994,152.473842 188.512934,152.476763 Z" id="path-53"></path>
        <filter x="-24.7%" y="-57.6%" width="149.5%" height="239.4%" filterUnits="objectBoundingBox" id="filter-54">
            <feOffset dx="0" dy="4" in="SourceAlpha" result="shadowOffsetOuter1"></feOffset>
            <feGaussianBlur stdDeviation="7" in="shadowOffsetOuter1" result="shadowBlurOuter1"></feGaussianBlur>
            <feColorMatrix values="0 0 0 0 0.503594541   0 0 0 0 0.597691893   0 0 0 0 0.834980867  0 0 0 0.271625906 0" type="matrix" in="shadowBlurOuter1"></feColorMatrix>
        </filter>
    </defs>
    <g id="Page-1" stroke="none" stroke-width="1" fill="none" fill-rule="evenodd">
        <g id="Conócenos" transform="translate(-456.000000, -529.000000)">
            <g id="Group-2" filter="url(#filter-1)" transform="translate(359.000000, 256.000000)">
                <g transform="translate(-1.000000, 0.000000)" id="Recurso-2">
                    <g filter="url(#filter-2)" transform="translate(122.000000, 287.000000)">
                        <g id="Path">
                            <use fill="black" fill-opacity="1" filter="url(#filter-4)" xlink:href="#path-3"></use>
                            <use fill="#FFFFFF" fill-rule="evenodd" xlink:href="#path-3"></use>
                        </g>
                        <g id="Shape" fill-rule="nonzero">
                            <use fill="black" fill-opacity="1" filter="url(#filter-6)" xlink:href="#path-5"></use>
                            <use fill="#FFFFFF" xlink:href="#path-5"></use>
                        </g>
                        <g id="Shape" fill-rule="nonzero">
                            <use fill="black" fill-opacity="1" filter="url(#filter-8)" xlink:href="#path-7"></use>
                            <use fill="#FFFFFF" xlink:href="#path-7"></use>
                        </g>
                        <g id="Path">
                            <use fill="black" fill-opacity="1" filter="url(#filter-10)" xlink:href="#path-9"></use>
                            <use fill="#FFFFFF" fill-rule="evenodd" xlink:href="#path-9"></use>
                        </g>
                        <g id="Path">
                            <use fill="black" fill-opacity="1" filter="url(#filter-12)" xlink:href="#path-11"></use>
                            <use fill="#FFFFFF" fill-rule="evenodd" xlink:href="#path-11"></use>
                        </g>
                        <g id="Shape" fill-rule="nonzero">
                            <use fill="black" fill-opacity="1" filter="url(#filter-14)" xlink:href="#path-13"></use>
                            <use fill="#FFFFFF" xlink:href="#path-13"></use>
                        </g>
                        <g id="Path">
                            <use fill="black" fill-opacity="1" filter="url(#filter-16)" xlink:href="#path-15"></use>
                            <use fill="#FFFFFF" fill-rule="evenodd" xlink:href="#path-15"></use>
                        </g>
                        <g id="Path">
                            <use fill="black" fill-opacity="1" filter="url(#filter-18)" xlink:href="#path-17"></use>
                            <use fill="#FFFFFF" fill-rule="evenodd" xlink:href="#path-17"></use>
                        </g>
                        <g id="Shape" fill-rule="nonzero">
                            <use fill="black" fill-opacity="1" filter="url(#filter-20)" xlink:href="#path-19"></use>
                            <use fill="#FFFFFF" xlink:href="#path-19"></use>
                        </g>
                        <g id="Shape" fill-rule="nonzero">
                            <use fill="black" fill-opacity="1" filter="url(#filter-22)" xlink:href="#path-21"></use>
                            <use fill="#FFFFFF" xlink:href="#path-21"></use>
                        </g>
                        <g id="Path">
                            <use fill="black" fill-opacity="1" filter="url(#filter-24)" xlink:href="#path-23"></use>
                            <use fill="#FFFFFF" fill-rule="evenodd" xlink:href="#path-23"></use>
                        </g>
                        <g id="Shape" fill-rule="nonzero">
                            <use fill="black" fill-opacity="1" filter="url(#filter-26)" xlink:href="#path-25"></use>
                            <use fill="#FFFFFF" xlink:href="#path-25"></use>
                        </g>
                        <g id="Shape" fill-rule="nonzero">
                            <use fill="black" fill-opacity="1" filter="url(#filter-28)" xlink:href="#path-27"></use>
                            <use fill="#FFFFFF" xlink:href="#path-27"></use>
                        </g>
                        <g id="Path">
                            <use fill="black" fill-opacity="1" filter="url(#filter-30)" xlink:href="#path-29"></use>
                            <use fill="#FFFFFF" fill-rule="evenodd" xlink:href="#path-29"></use>
                        </g>
                        <g id="Shape" fill-rule="nonzero">
                            <use fill="black" fill-opacity="1" filter="url(#filter-32)" xlink:href="#path-31"></use>
                            <use fill="#FFFFFF" xlink:href="#path-31"></use>
                        </g>
                        <g id="Path">
                            <use fill="black" fill-opacity="1" filter="url(#filter-34)" xlink:href="#path-33"></use>
                            <use fill="#FFFFFF" fill-rule="evenodd" xlink:href="#path-33"></use>
                        </g>
                        <g id="Path">
                            <use fill="black" fill-opacity="1" filter="url(#filter-36)" xlink:href="#path-35"></use>
                            <use fill="#FFFFFF" fill-rule="evenodd" xlink:href="#path-35"></use>
                        </g>
                        <g id="Shape" fill-rule="nonzero">
                            <use fill="black" fill-opacity="1" filter="url(#filter-38)" xlink:href="#path-37"></use>
                            <use fill="#FFFFFF" xlink:href="#path-37"></use>
                        </g>
                        <g id="Shape" fill-rule="nonzero">
                            <use fill="black" fill-opacity="1" filter="url(#filter-40)" xlink:href="#path-39"></use>
                            <use fill="#FFFFFF" xlink:href="#path-39"></use>
                        </g>
                        <g id="Shape" fill-rule="nonzero">
                            <use fill="black" fill-opacity="1" filter="url(#filter-42)" xlink:href="#path-41"></use>
                            <use fill="#FFFFFF" xlink:href="#path-41"></use>
                        </g>
                        <g id="Path">
                            <use fill="black" fill-opacity="1" filter="url(#filter-44)" xlink:href="#path-43"></use>
                            <use fill="#FFFFFF" fill-rule="evenodd" xlink:href="#path-43"></use>
                        </g>
                        <g id="Shape" fill-rule="nonzero">
                            <use fill="black" fill-opacity="1" filter="url(#filter-46)" xlink:href="#path-45"></use>
                            <use fill="#FFFFFF" xlink:href="#path-45"></use>
                        </g>
                        <g id="Shape" fill-rule="nonzero">
                            <use fill="black" fill-opacity="1" filter="url(#filter-48)" xlink:href="#path-47"></use>
                            <use fill="#FFFFFF" xlink:href="#path-47"></use>
                        </g>
                        <g id="Shape" fill-rule="nonzero">
                            <use fill="black" fill-opacity="1" filter="url(#filter-50)" xlink:href="#path-49"></use>
                            <use fill="#FFFFFF" xlink:href="#path-49"></use>
                        </g>
                        <g id="Shape" fill-rule="nonzero">
                            <use fill="black" fill-opacity="1" filter="url(#filter-52)" xlink:href="#path-51"></use>
                            <use fill="#FFFFFF" xlink:href="#path-51"></use>
                        </g>
                        <g id="Shape" fill-rule="nonzero">
                            <use fill="black" fill-opacity="1" filter="url(#filter-54)" xlink:href="#path-53"></use>
                            <use fill="#FFFFFF" xlink:href="#path-53"></use>
                        </g>
                    </g>
                </g>
            </g>
        </g>
    </g>
</svg>