<svg xmlns="http://www.w3.org/2000/svg" width="26" height="24"><title>heart full</title><desc>Created with Sketch.</desc><g fill="none"><g fill="#27D8DB" fill-rule="nonzero"><g><g><path d="M23.73 2.88C22.4 1.45 20.6.68 18.63.68c-1.48 0-2.82.45-4 1.37-.6.46-1.15 1.03-1.63 1.7-.48-.67-1.02-1.24-1.62-1.7-1.2-.92-2.53-1.38-4-1.38-1.98 0-3.8.78-5.1 2.2C.97 4.3.24 6.23.24 8.33c0 2.15.8 4.12 2.53 6.2 1.54 1.85 3.76 3.74 6.33 5.93.9.74 1.88 1.6 2.9 2.5.3.23.64.36 1 .36s.7-.12 1-.36c1.02-.9 2-1.75 2.9-2.5 2.56-2.18 4.78-4.07 6.32-5.92 1.73-2.08 2.53-4.05 2.53-6.2 0-2.1-.72-4.02-2.02-5.44z"/></g></g></g></g></svg>