<?xml version="1.0" encoding="UTF-8"?>
<svg width="26px" height="24px" viewBox="0 0 26 24" version="1.1" xmlns="http://www.w3.org/2000/svg" xmlns:xlink="http://www.w3.org/1999/xlink">
    <!-- Generator: Sketch 52.4 (67378) - http://www.bohemiancoding.com/sketch -->
    <title>heart full</title>
    <desc>Created with Sketch.</desc>
    <g id="Page-1" stroke="none" stroke-width="1" fill="none" fill-rule="evenodd">
        <g id="Productos-1" transform="translate(-1264.000000, -825.000000)" fill="#27D8DB" fill-rule="nonzero">
            <g id="heart-full" transform="translate(1264.000000, 825.000000)">
                <g id="heart-(12)" transform="translate(0.250000, 0.666667)">
                    <path d="M23.4770736,2.21587171 C22.1570549,0.786972301 20.3457985,0 18.3765678,0 C16.9046059,0 15.5565719,0.464455409 14.3698197,1.3803568 C13.7709961,1.84267633 13.2283974,2.40829451 12.75,3.06847361 C12.2717972,2.40848867 11.7290039,1.84267633 11.1299858,1.3803568 C9.94342806,0.464455409 8.59539412,0 7.12343217,0 C5.1542015,0 3.34275057,0.786972301 2.02273177,2.21587171 C0.718471515,3.62807245 5.68434189e-14,5.55734876 5.68434189e-14,7.64856315 C5.68434189e-14,9.80094115 0.803684247,11.7711874 2.52914429,13.8491982 C4.07270053,15.7079907 6.29114913,17.5949379 8.86017611,19.7799365 C9.73740007,20.526133 10.7317428,21.371939 11.7642174,22.2728893 C12.0369759,22.5113304 12.3869705,22.6425895 12.75,22.6425895 C13.1128349,22.6425895 13.4630241,22.5113304 13.7353935,22.2732776 C14.767868,21.3721331 15.7627945,20.5259389 16.6404075,19.779354 C19.2090454,17.5947437 21.4274941,15.7079907 22.9710503,13.849004 C24.6965103,11.7711874 25.5,9.80094115 25.5,7.64836899 C25.5,5.55734876 24.7815285,3.62807245 23.4770736,2.21587171 Z" id="Path"></path>
                </g>
            </g>
        </g>
    </g>
</svg>