<?xml version="1.0" encoding="UTF-8"?>
<svg width="36px" height="36px" viewBox="0 0 36 36" version="1.1" xmlns="http://www.w3.org/2000/svg" xmlns:xlink="http://www.w3.org/1999/xlink">
    <!-- Generator: Sketch 59.1 (86144) - https://sketch.com -->
    <title>Group 12</title>
    <desc>Created with Sketch.</desc>
    <g id="Page-1" stroke="none" stroke-width="1" fill="none" fill-rule="evenodd">
        <g id="Home-Recetas-&amp;-Blog" transform="translate(-958.000000, -935.000000)">
            <g id="Redes" transform="translate(959.000000, 936.000000)">
                <g id="Group-12">
                    <circle id="Oval-Copy" stroke="#E5E5E5" stroke-width="0.708333333" cx="17" cy="17" r="17"></circle>
                    <g id="facebook-logo-(1)-copy" transform="translate(11.750000, 8.208333)" fill="#556274" fill-rule="nonzero">
                        <path d="M8.91108642,0.794995735 L6.75239566,0.791666667 C4.32718063,0.791666667 2.75990013,2.33718647 2.75990013,4.72928826 L2.75990013,6.54479547 L0.589433124,6.54479547 C0.401879005,6.54479547 0.25,6.69094155 0.25,6.87121058 L0.25,9.50167364 C0.25,9.68194267 0.402052185,9.8279223 0.589433124,9.8279223 L2.75990013,9.8279223 L2.75990013,16.465418 C2.75990013,16.645687 2.91177914,16.7916667 3.09933326,16.7916667 L5.93117532,16.7916667 C6.11872943,16.7916667 6.27060844,16.6455206 6.27060844,16.465418 L6.27060844,9.8279223 L8.80839058,9.8279223 C8.9959447,9.8279223 9.1478237,9.68194267 9.1478237,9.50167364 L9.14886278,6.87121058 C9.14886278,6.78465482 9.11301449,6.70176102 9.04945737,6.64050617 C8.98590025,6.57925132 8.89931017,6.54479547 8.80925648,6.54479547 L6.27060844,6.54479547 L6.27060844,5.00576735 C6.27060844,4.26604845 6.45400623,3.89052958 7.45654621,3.89052958 L8.91074006,3.89003022 C9.098121,3.89003022 9.25,3.74388414 9.25,3.56378156 L9.25,1.1212444 C9.25,0.941308272 9.09829418,0.795328641 8.91108642,0.794995735 Z" id="Path"></path>
                    </g>
                </g>
            </g>
        </g>
    </g>
</svg>