<?xml version="1.0" encoding="UTF-8"?>
<svg width="689px" height="690px" viewBox="0 0 689 690" version="1.1" xmlns="http://www.w3.org/2000/svg" xmlns:xlink="http://www.w3.org/1999/xlink">
    <!-- Generator: Sketch 52.4 (67378) - http://www.bohemiancoding.com/sketch -->
    <title>e copy</title>
    <desc>Created with Sketch.</desc>
    <defs>
        <rect id="path-1" x="0.5" y="0" width="668" height="668" rx="43"></rect>
        <filter x="-2.6%" y="-2.3%" width="105.2%" height="105.2%" filterUnits="objectBoundingBox" id="filter-3">
            <feOffset dx="0" dy="2" in="SourceAlpha" result="shadowOffsetOuter1"></feOffset>
            <feGaussianBlur stdDeviation="5.5" in="shadowOffsetOuter1" result="shadowBlurOuter1"></feGaussianBlur>
            <feColorMatrix values="0 0 0 0 0.503594541   0 0 0 0 0.597691893   0 0 0 0 0.834980867  0 0 0 0.271625906 0" type="matrix" in="shadowBlurOuter1"></feColorMatrix>
        </filter>
        <path d="M144.425563,100.93355 L528.305251,49.2239009 C598.97055,39.7050911 663.972612,89.2741136 673.491422,159.939412 C678.009656,193.481662 669.175857,227.456846 648.891881,254.550339 L530.07982,413.248706 C488.688012,468.536127 423.889436,501.368766 354.827716,502.046785 L354.827716,502.046785 C284.894596,502.733358 217.775821,474.539813 169.31042,424.119405 L68.3329011,319.068635 C18.7577623,267.493725 20.3788977,185.495408 71.9538082,135.92027 C91.7836927,116.859272 117.166377,104.605437 144.425563,100.93355 Z" id="path-4"></path>
    </defs>
    <g id="Page-1" stroke="none" stroke-width="1" fill="none" fill-rule="evenodd">
        <g id="e-copy" transform="translate(10.000000, 9.000000)">
            <mask id="mask-2" fill="white">
                <use xlink:href="#path-1"></use>
            </mask>
            <g id="Mask">
                <use fill="black" fill-opacity="1" filter="url(#filter-3)" xlink:href="#path-1"></use>
                <use fill="#FFFFFF" fill-rule="evenodd" xlink:href="#path-1"></use>
            </g>
            <circle id="Oval" fill="#00D8DC" mask="url(#mask-2)" cx="598" cy="387" r="11"></circle>
            <circle id="Oval-Copy" fill="#00D8DC" mask="url(#mask-2)" cx="67" cy="387" r="11"></circle>
            <g id="e" mask="url(#mask-2)">
                <g transform="translate(1.000000, -65.000000)">
                    <mask id="mask-5" fill="white">
                        <use xlink:href="#path-4"></use>
                    </mask>
                    <use id="Mask" stroke="none" fill="#FFFFFF" fill-rule="evenodd" transform="translate(353.417064, 275.056095) scale(-1, 1) rotate(9.000000) translate(-353.417064, -275.056095) " xlink:href="#path-4"></use>
                    <g id="Group-5" opacity="0.5492234" stroke="none" stroke-width="1" fill="none" fill-rule="evenodd" mask="url(#mask-5)">
                        <g transform="translate(374.726328, 238.278932)" id="Path" stroke="#57BFCC" stroke-width="2">
                            <path d="M39.0234967,96.4044247 C54.9077953,95.6467137 69.6386495,87.6722668 74.125353,75.8907838 C81.2610687,57.1050938 64.8098228,50.0177232 65.7384433,38.6058554 C66.6670638,27.1939876 60.1471702,23.6364418 56.1101146,16.0038889 C52.073059,8.37133604 47.4104064,-1.31258093 36.2376351,0.147398919 C25.4851868,1.56117687 19.4638157,16.0038889 13.2567205,23.0542979 C7.04962537,30.1047069 4.24421385,38.9015476 5.48563289,49.768233 C6.72705192,60.6349185 -10.965613,75.0129479 11.3506047,89.4002176 C18.0296775,93.6264297 25.8042808,96.045349 33.8329966,96.3951844"></path>
                            <path d="M14.7818472,149.332344 L34.2107318,149.332344 L34.2107318,73.486527 L15.2973074,55.8578488 C14.6211904,55.2251076 14.6234095,54.2012997 15.3022637,53.5711099 C15.981118,52.94092 17.0795391,52.9429883 17.755656,53.5757295 L34.2107318,68.9222885 L34.2107318,48.5957203 L19.549854,34.9214836 C19.0654862,34.5234119 18.8584401,33.9075144 19.0124897,33.3229927 C19.1665394,32.7384709 19.6561833,32.2820874 20.283304,32.138502 C20.9104246,31.9949165 21.5712076,32.1878985 21.99829,32.6393643 L34.2107318,44.0314818 L34.2107318,30.6344256 C34.2956275,29.3530002 35.4353825,28.3542426 36.8128145,28.3542426 C38.1902466,28.3542426 39.3300015,29.3530002 39.4148973,30.6344256 L39.4148973,49.5843307 L39.4148973,51.8849286 L51.627339,40.4928111 C52.06471,40.0834993 52.7031367,39.9227644 53.30213,40.0711536 C53.9011234,40.2195427 54.369682,40.6545122 54.5313044,41.2122132 C54.6929268,41.7699141 54.5230586,42.3656186 54.0856877,42.7749304 L39.4148973,56.4491671 L39.4148973,74.4381799 L39.4148973,80.7209374 L58.9329961,62.5286589 C59.6199162,61.9641222 60.6593296,61.9945375 61.3069045,62.598124 C61.9544793,63.2017105 61.9871111,64.170519 61.3814321,64.8107781 L39.7717543,84.9617986 C39.6618849,85.0529862 39.5423124,85.133478 39.4148973,85.2020217 L39.4148973,149.332344 L58.3084963,149.332344"></path>
                            <path d="M28.21989,11.341697 C30.1407604,8.71078899 32.6721799,6.55269202 35.6108136,5.04075424"></path>
                        </g>
                    </g>
                    <path d="M396.769053,161.699282 C396.769053,161.699282 398.920612,159.124629 403.783136,159.124629 C409.958112,159.124629 411.464203,163.204748 411.464203,163.204748" id="Path" stroke="#57BFCC" stroke-width="2" fill="none" mask="url(#mask-5)"></path>
                    <path d="M425.342956,161.699282 C425.342956,161.699282 423.191397,159.124629 418.328873,159.124629 C412.153898,159.124629 410.647806,163.204748 410.647806,163.204748" id="Path" stroke="#57BFCC" stroke-width="2" fill="none" mask="url(#mask-5)"></path>
                    <path d="M407.382217,163.61276 L414.729792,163.61276" id="Path" stroke="#57BFCC" stroke-width="2" fill="none" mask="url(#mask-5)"></path>
                    <g id="Group-4" opacity="0.5492234" stroke="none" stroke-width="1" fill="none" fill-rule="evenodd" mask="url(#mask-5)">
                        <g transform="translate(42.452656, 256.231454)" id="Path" stroke="#57BFCC" stroke-width="2">
                            <path d="M0,30.4648863 L30.1075747,30.4648863 C30.1075747,30.4648863 29.8253929,17.9746078 47.3574729,18.8262177 C47.3574729,18.8262177 42.2413936,5.30265261 54.0807618,1.10137714 C60.4494947,-1.52570601 67.9343923,0.687317618 71.4778852,6.24510089 C71.4778852,6.24510089 75.2812056,0.567701602 81.4155933,2.9976285 C87.549981,5.42755539 85.2189136,10.4350216 85.2189136,10.4350216 C85.2189136,10.4350216 95.303847,2.05518022 102.763262,7.86883709 C110.222678,13.682494 103.634345,20.8587267 103.634345,20.8587267 C103.634345,20.8587267 117.129998,21.6649174 117.522599,30.4648863 L133.889145,30.4648863"></path>
                            <path d="M6.08587025,34.8170129 L66.2683649,34.8170129"></path>
                            <path d="M72.3542352,34.8170129 L127.127067,34.8170129"></path>
                            <path d="M20.2862342,38.5474071 L111.574288,38.5474071"></path>
                            <path d="M54.0966244,5.59559135 C54.3167851,5.44581575 54.5614081,5.30673841 54.8060311,5.16766106 C56.7140903,4.09783534 59.5150234,3.56292248 63.5635337,3.77688763"></path>
                            <path d="M51.844707,17.4085064 C50.8014971,14.8026349 50.6560816,11.9992304 51.4254582,9.32598559"></path>
                            <path d="M35.8476356,29.8431539 C35.8476356,29.8431539 35.1635572,22.4671175 45.9821308,23.783082"></path>
                        </g>
                    </g>
                    <g id="Group-4" opacity="0.5492234" stroke="none" stroke-width="1" fill="none" fill-rule="evenodd" mask="url(#mask-5)">
                        <g transform="translate(211.446882, 168.100890)" id="Path" stroke="#57BFCC" stroke-width="2">
                            <path d="M0,30.4648863 L30.1075747,30.4648863 C30.1075747,30.4648863 29.8253929,17.9746078 47.3574729,18.8262177 C47.3574729,18.8262177 42.2413936,5.30265261 54.0807618,1.10137714 C60.4494947,-1.52570601 67.9343923,0.687317618 71.4778852,6.24510089 C71.4778852,6.24510089 75.2812056,0.567701602 81.4155933,2.9976285 C87.549981,5.42755539 85.2189136,10.4350216 85.2189136,10.4350216 C85.2189136,10.4350216 95.303847,2.05518022 102.763262,7.86883709 C110.222678,13.682494 103.634345,20.8587267 103.634345,20.8587267 C103.634345,20.8587267 117.129998,21.6649174 117.522599,30.4648863 L133.889145,30.4648863"></path>
                            <path d="M6.08587025,34.8170129 L66.2683649,34.8170129"></path>
                            <path d="M72.3542352,34.8170129 L127.127067,34.8170129"></path>
                            <path d="M20.2862342,38.5474071 L111.574288,38.5474071"></path>
                            <path d="M54.0966244,5.59559135 C54.3167851,5.44581575 54.5614081,5.30673841 54.8060311,5.16766106 C56.7140903,4.09783534 59.5150234,3.56292248 63.5635337,3.77688763"></path>
                            <path d="M51.844707,17.4085064 C50.8014971,14.8026349 50.6560816,11.9992304 51.4254582,9.32598559"></path>
                            <path d="M35.8476356,29.8431539 C35.8476356,29.8431539 35.1635572,22.4671175 45.9821308,23.783082"></path>
                        </g>
                    </g>
                    <g id="Group-4" opacity="0.5492234" stroke="none" stroke-width="1" fill="none" fill-rule="evenodd" mask="url(#mask-5)">
                        <g transform="translate(494.736721, 218.694362)" id="Path" stroke="#57BFCC" stroke-width="2">
                            <path d="M0,30.4648863 L30.1075747,30.4648863 C30.1075747,30.4648863 29.8253929,17.9746078 47.3574729,18.8262177 C47.3574729,18.8262177 42.2413936,5.30265261 54.0807618,1.10137714 C60.4494947,-1.52570601 67.9343923,0.687317618 71.4778852,6.24510089 C71.4778852,6.24510089 75.2812056,0.567701602 81.4155933,2.9976285 C87.549981,5.42755539 85.2189136,10.4350216 85.2189136,10.4350216 C85.2189136,10.4350216 95.303847,2.05518022 102.763262,7.86883709 C110.222678,13.682494 103.634345,20.8587267 103.634345,20.8587267 C103.634345,20.8587267 117.129998,21.6649174 117.522599,30.4648863 L133.889145,30.4648863"></path>
                            <path d="M6.08587025,34.8170129 L66.2683649,34.8170129"></path>
                            <path d="M72.3542352,34.8170129 L127.127067,34.8170129"></path>
                            <path d="M20.2862342,38.5474071 L111.574288,38.5474071"></path>
                            <path d="M54.0966244,5.59559135 C54.3167851,5.44581575 54.5614081,5.30673841 54.8060311,5.16766106 C56.7140903,4.09783534 59.5150234,3.56292248 63.5635337,3.77688763"></path>
                            <path d="M51.844707,17.4085064 C50.8014971,14.8026349 50.6560816,11.9992304 51.4254582,9.32598559"></path>
                            <path d="M35.8476356,29.8431539 C35.8476356,29.8431539 35.1635572,22.4671175 45.9821308,23.783082"></path>
                        </g>
                    </g>
                    <g id="e" stroke="none" stroke-width="1" fill="none" fill-rule="evenodd" mask="url(#mask-5)">
                        <g transform="translate(120.010393, 140.356083)">
                            <g id="Shadow" transform="translate(0.000000, 307.993825)" opacity="0.5">
                                <g id="Group" fill="#BFDCFF">
                                    <path d="M191.442729,0.228347672 C179.257331,0.228347672 167.077826,0.676260413 154.910106,2.5469548 C150.325851,3.25834563 145.835874,4.81286632 141.239834,5.43643112 C132.059539,6.68356071 123.044231,9.01973305 113.828582,10.0912106 C106.410103,10.9694709 98.9621615,11.4700792 91.5672515,12.5679046 C84.4062121,13.6376529 77.1828945,13.3425212 70.0719276,11.6896443 C64.9750375,10.4249495 59.8604703,9.71355867 54.8519655,7.69356003 C49.2483326,5.42764851 43.1615262,3.8116496 37.3221989,3.86434522 C28.9962963,3.95217125 20.888411,3.96095385 12.9219423,7.95703811 C10.123072,9.36225456 6.69961165,11.6720791 4.57836258,14.614251 C-0.282833209,21.3592899 -0.942777365,38.1867569 3.91252606,45.1777087 C12.0852273,56.9463964 29.5383933,61.5660454 40.9990306,61.7856105 C53.5556467,62.0227408 65.7469365,60.7316982 78.3330143,59.9763943 C90.0234536,59.2737861 101.678539,58.2725694 113.386655,58.3076998 C137.291954,58.3779606 161.203145,58.3076998 185.067197,56.0944839 C207.493513,54.0217897 229.966969,54.7331805 252.440424,54.7331805 C275.485438,54.7331805 298.371359,54.9790934 321.245495,59.2210905 C331.215365,61.0654371 341.373791,61.7065671 351.390801,63.0063923 C360.358971,64.1656959 368.979491,63.0063923 377.906414,61.9085669 C385.426097,61.0612909 392.79638,58.3327403 399.708141,53.837355 C405.105541,50.2716183 414.727763,39.1879736 416.383515,30.6776315 C421.020802,6.80651715 350.978336,7.37738633 340.248351,7.43886455 C328.222047,7.49156017 316.089681,8.04486414 304.086947,7.43886455 C299.031303,7.17538647 294.069937,5.81408304 289.114464,4.31225796 C284.15899,2.81043289 279.250655,3.19686741 274.26572,2.55573741 C253.489264,-0.079043425 232.659777,0.324956303 211.80672,0.324956303 C205.01283,0.281043289 198.230726,0.193217261 191.442729,0.228347672 Z" id="Path"></path>
                                </g>
                            </g>
                            <g id="Object" transform="translate(43.133207, 0.000000)">
                                <path d="M186.436407,14.6054616 C186.554412,16.3009139 185.674291,17.8538499 184.754834,19.18564 C178.608731,28.0314781 164.467778,37.4375527 155.071616,31.2896952 C156.158247,31.093121 158.970704,31.1619219 161.188217,30.6950583 C166.454198,29.5844141 169.955018,23.9722213 172.836311,18.9006074 C174.601472,15.8094785 175.107911,6.90958244 178.495643,5.74488042 C181.735868,4.65389372 186.200397,11.2293001 186.436407,14.6054616 Z" id="Path" fill="#649A30"></path>
                                <path d="M156.67452,19.2298692 C159.073958,14.0206534 161.512732,10.6985498 164.708705,6.98329776 C167.904678,3.26804575 172.236452,0.491435451 176.868155,0.491435451 C177.424605,0.460411906 177.979754,0.572061333 178.480892,0.815782849 C179.036291,1.19991648 179.498358,1.70373101 179.833035,2.2900892 C181.962045,5.40087561 186.057807,9.57807694 186.382322,13.9027089 C178.35797,13.0525256 169.910766,15.8684507 163.322144,20.9892081 C158.405262,24.7978329 155.430548,31.8253598 154.909359,31.800788 C149.967892,31.6877579 155.548554,21.6821321 156.67452,19.2298692 Z" id="Path" fill="#91D351"></path>
                                <path d="M121.204132,21.0678378 C121.341805,22.7583757 122.438269,24.1540524 123.549485,25.3187544 C130.924808,33.0834346 146.304815,40.061818 154.668432,32.4887977 C153.56705,32.4887977 150.803762,32.9802331 148.541997,32.8868604 C143.172761,32.6411427 138.880323,27.6629015 135.266415,23.1416954 C133.063652,20.3699994 131.239488,11.6617633 127.719001,11.0572976 C124.370604,10.4823182 120.933703,17.6916762 121.204132,21.0678378 Z" id="Path" fill="#649A30"></path>
                                <path d="M151.295451,20.8368631 C148.618529,16.7521904 145.326374,13.1053297 141.53544,10.0252832 C137.823194,6.8702676 133.132488,4.81115307 128.559788,5.60236414 C128.002375,5.66002153 127.469094,5.85968789 127.01097,6.18225797 C126.519976,6.64903163 126.137314,7.21769733 125.889921,7.84822415 C124.252599,11.2882723 120.825532,16.0502818 121.150046,20.3749138 C128.943304,18.2175122 137.719939,19.657418 144.987091,23.6380452 C150.395661,26.5866579 154.398003,33.0686915 154.909359,32.9753188 C159.772155,32.0563345 152.775432,23.0974662 151.295451,20.8368631 Z" id="Path" fill="#91D351"></path>
                                <polygon id="Path" fill="#27D8DB" points="114.900689 119.998708 108.62183 36.0910195 202.804708 28.4491983 209.083566 112.351973"></polygon>
                                <polygon id="Path" fill="#27D8DB" points="103.768868 57.8026377 102.185632 36.6168555 209.240907 27.9282767 210.82906 49.114059"></polygon>
                                <g id="Group" opacity="0.1" transform="translate(114.192658, 49.634981)" fill="#000000">
                                    <polygon id="Path" points="0.0295012929 7.32238822 90.195286 0.00491435451 90.7607275 7.55827724"></polygon>
                                </g>
                                <path d="M167.009806,115.767449 L155.356795,116.71592 L148.999267,31.7614732 C148.903403,30.9411209 149.483213,30.1954101 150.30224,30.0856783 L159.113293,29.3681826 C159.510387,29.3508956 159.897656,29.4945118 160.187366,29.7664952 C160.477075,30.0384785 160.644704,30.4158089 160.652277,30.8130028 L167.009806,115.767449 Z" id="Path" fill="#91D351"></path>
                                <polygon id="Path" fill="#BABCBE" points="290.438298 150.801882 322.225941 185.241679 298.064383 205.744366 294.494726 201.439391 303.954807 181.786888 285.423079 165.456488"></polygon>
                                <polygon id="Path" fill="#552D7A" points="298.349562 236.631084 299.785291 269.886521 295.581357 326.435998 289.287748 326.883205 281.641996 275.523286 271.060866 232.060734"></polygon>
                                <polygon id="Path" fill="#212135" points="289.509008 329.532042 296.559817 332.451168 299.721372 328.809632 296.073045 325.649702 289.26808 326.131308"></polygon>
                                <polygon id="Path" fill="#552D7A" points="253.80261 224.861205 252.420966 249.998128 256.521645 324.750375 262.820171 325.064893 272.265502 276.039293 280.5947 222.276254"></polygon>
                                <polygon id="Path" fill="#212135" points="262.652997 327.718645 255.666108 330.780288 252.430799 327.207552 256.005373 323.968992 262.820171 324.312997"></polygon>
                                <path d="M290.438298,150.801882 L270.77077,148.698539 C270.77077,148.698539 259.835624,149.868155 252.411132,175.83069 C248.280951,190.273978 247.002562,213.032354 246.722299,230.380025 C247.213987,232.837202 249.883854,243.697926 261.291021,241.855043 C280.884796,238.700027 291.308587,235.540097 299.839377,237.117605 C307.106529,238.700027 306.496835,228.699316 305.695384,221.067323 L302.804257,197.458764 L290.438298,150.801882 Z" id="Path" fill="#BABCBE"></path>
                                <path d="M286.642465,126.34314 C281.686248,125.247239 276.587441,124.269282 271.626307,125.252153 C270.539676,125.468385 269.369458,125.84679 268.784349,126.780518 C268.571535,127.155046 268.415761,127.559187 268.322162,127.97962 C267.068358,132.6286 265.480205,139.523439 268.543422,143.81367 C269.144591,144.614469 269.896129,145.290506 270.756019,145.803984 C271.881303,146.502103 273.124163,146.99 274.424013,147.24389 C274.154781,148.400061 273.782902,149.529926 273.312798,150.620051 C274.448598,152.330247 279.739163,152.53665 280.717622,150.895255 C280.771708,149.475007 280.830711,148.059673 280.884796,146.639424 C281.530929,146.381211 282.150146,146.06024 282.733544,145.681125 C284.93141,144.162023 286.556855,141.950894 287.350496,139.40058 C288.294538,136.648542 289.622096,134.034105 290.48255,131.228008 C290.797231,130.205823 291.043075,129.041121 290.507135,128.117222 C289.971195,127.193323 288.697722,126.795261 287.586507,126.549543 L286.642465,126.34314 Z" id="Path" fill="#AA6755"></path>
                                <path d="M270.146326,129.001806 C272.604767,127.424298 276.272761,126.746117 278.573862,126.913205 C285.536167,127.404641 288.088029,132.530312 288.461712,138.928802 C290.379296,136.471625 293.978454,133.424725 294.194796,130.289367 C294.376721,127.724074 294.017789,124.225053 292.582059,122.008679 C291.234833,119.934822 287.793016,118.794692 285.742676,117.58576 L279.955506,114.189941 C279.568065,113.929462 279.136603,113.741315 278.682033,113.634619 C278.132782,113.580439 277.57827,113.642392 277.054545,113.81645 L263.370862,117.354786 C262.495657,117.580846 261.49753,117.910108 261.177933,118.755377 C261.026673,119.295247 261.036929,119.867575 261.207434,120.401685 C261.699122,122.770404 262.716917,125.188267 262.962761,127.586472 C263.243023,128.977234 264.073976,136.117791 266.542251,135.29218 C267.265033,134.10782 267.373204,132.648257 267.938646,131.360696 C268.431146,130.377787 269.197931,129.558483 270.146326,129.001806 Z" id="Path" fill="#292949"></path>
                                <polygon id="Path" fill="#BABCBE" points="270.775687 148.698539 263.508535 150.909998 236.967205 178.700673 235.388886 187.856115 248.074442 208.79618 251.501509 201.119958 246.132273 185.64957 254.663064 179.649143 266.035812 154.065014"></polygon>
                                <polygon id="Path" fill="#F8A094" points="212.254955 113.767307 213.567763 105.702851 210.145613 104.99027 208.02152 110.31743 206.556289 109.231358 206.276027 116.268713 209.737512 117.487473"></polygon>
                                <polygon id="Path" fill="#91D351" points="169.399411 160.340645 192.115406 141.238549 206.276027 116.268713 210.971649 117.521874 203.896256 148.521622 179.892037 177.462256"></polygon>
                                <polygon id="Path" fill="#212135" points="166.055931 328.81946 166.390279 332.288995 173.416503 335.296579 176.430552 331.596071 172.752724 328.357511 165.7265 325.349926"></polygon>
                                <polygon id="Path" fill="#C45AA5" points="160.19009 258.504876 165.598661 327.728474 172.369207 328.647458 177.974453 269.650632 182.606156 250.931856"></polygon>
                                <polygon id="Path" fill="#C45AA5" points="143.998798 240.341422 139.937453 322.592973 146.113057 323.757675 158.985454 261.517375 166.060848 243.496437"></polygon>
                                <polygon id="Path" fill="#212135" points="145.562366 326.480228 138.226378 328.721173 135.546677 324.593115 139.544102 321.723132 146.221228 322.981207"></polygon>
                                <path d="M152.73118,151.504635 C157.731649,147.366749 169.787844,149.745296 176.130622,149.745296 C175.520929,149.745296 195.871904,229.701844 197.317467,234.272194 C199.707072,241.850128 199.702155,250.774596 199.023626,258.617906 C192.218661,260.490275 185.841465,263.99421 178.834907,264.898451 C173.077238,265.645433 167.260567,264.588847 161.473397,264.077754 C154.629097,263.468374 147.740545,263.630548 140.891328,263.094883 C134.042111,262.559218 127.124058,261.310972 121.056625,258.082241 C123.718289,252.814089 125.905111,247.31942 127.591162,241.663383 C129.316987,236.070848 131.524668,229.868932 132.168779,224.02085 C132.734221,218.752662 132.827641,213.391102 133.594675,208.044284 C134.489547,201.827625 135.561428,195.630624 137.036492,189.526996 C138.742112,182.544623 140.985997,175.704702 143.748037,169.068538 C145.847545,164.016582 148.355155,155.745723 152.303411,151.868297 C152.44764,151.7438 152.59023,151.62258 152.73118,151.504635 Z" id="Path" fill="#91D351"></path>
                                <path d="M163.361479,132.368139 C160.19009,132.948033 156.286086,135.650928 155.519052,138.992689 C155.155203,140.599683 155.676393,142.083818 155.214206,143.789099 C154.319333,147.155431 158.395428,152.143501 154.358668,154.458162 C152.283744,155.662179 149.692547,155.269031 147.332444,154.846396 C147.04204,154.815548 146.763555,154.714333 146.521158,154.551535 C146.168762,154.210646 146.052815,153.693016 146.226145,153.234488 C146.403766,152.789444 146.642027,152.371048 146.934176,151.991156 C149.707298,147.823784 149.038602,141.847929 150.115399,137.100662 C151.192196,132.353396 153.739141,127.645444 158.434763,125.704274 C160.795491,127.248425 162.455207,129.657305 163.056633,132.412368 L163.361479,132.368139 Z" id="Path" fill="#292949"></path>
                                <path d="M159.378805,152.76271 C156.330338,151.460406 154.309499,148.339791 153.64572,145.11106 C152.981941,141.882329 153.508048,138.481596 154.407837,135.282351 C157.392384,124.667345 170.722052,127.709331 173.829521,136.786143 C176.538724,144.708083 168.243943,156.551677 159.378805,152.76271 Z" id="Path" fill="#F8A094"></path>
                                <path d="M174.896485,158.600963 C173.42142,157.67215 171.946356,156.699108 171.066234,154.959426 C169.664922,152.15333 170.254948,147.794298 170.082857,144.747398 C169.910766,141.538324 169.615753,138.044218 167.41299,135.700071 C165.977261,134.171707 164.207183,133.734329 162.210929,133.547584 C160.844036,133.409982 160.735864,133.921075 159.649233,133.085634 C158.813363,132.446768 158.198753,130.702173 158.075831,129.699644 C157.874239,128.014021 158.690441,126.318568 159.895077,125.12438 C161.562781,123.343675 163.953259,122.422366 166.385362,122.622974 C175.324254,123.188124 181.573611,129.046035 183.343688,137.975417 C184.199226,142.270563 182.906086,146.855656 183.835377,150.998457 C184.420486,153.553921 185.870966,155.34766 186.293818,158.05547 C187.385366,165.078082 190.433832,174.199124 189.53896,181.285624 C189.539224,181.552422 189.43096,181.807865 189.23903,181.993291 C188.806344,182.312724 188.255654,181.831117 187.926223,181.393739 L182.404564,173.747004 C181.634597,172.781586 181.004003,171.712939 180.531232,170.572331 C179.483936,167.677776 180.457479,164.139441 178.6579,161.647863 C177.694191,160.286587 176.283046,159.460975 174.896485,158.600963 Z" id="Path" fill="#292949"></path>
                                <polygon id="Path" fill="#F8A094" points="110.918014 120.780091 108.705417 112.912209 112.02923 111.821223 114.738432 116.873179 116.06599 115.629847 117.13787 122.593488 113.838642 124.195567"></polygon>
                                <polygon id="Path" fill="#91D351" points="158.729776 162.252328 134.01261 145.818727 117.13787 122.593488 112.609422 124.36757 123.126633 154.374618 150.228487 180.445269"></polygon>
                                <polygon id="Path" fill="#F8A094" points="19.6606819 111.054583 25.3150963 102.63138 30.0402201 104.675751 27.8079556 111.226586 30.5319083 111.383845 24.5677302 118.052624 19.3410845 116.44563"></polygon>
                                <polygon id="Path" fill="#09AEB1" points="55.657176 156.787566 63.5782732 159.50029 76.391668 178.700673 92.8042206 167.726919 98.0210326 173.914092 89.7410031 186.185235 74.8379333 196.824812 55.657176 176.759503"></polygon>
                                <polygon id="Path" fill="#6364CE" points="74.2774087 212.029825 74.8379333 260.760565 69.6457057 323.4923 62.5801461 323.4923 54.1231088 265.615947 44.4565185 207.641307"></polygon>
                                <polygon id="Path" fill="#212135" points="62.6194812 326.470399 70.260316 330.288852 74.0807334 326.470399 70.260316 322.651945 62.6194812 322.651945"></polygon>
                                <polygon id="Path" fill="#6364CE" points="25.8412027 212.029825 25.6986131 240.218563 30.4630719 323.4923 37.5286316 323.4923 49.3488162 268.235298 55.657176 207.641307"></polygon>
                                <polygon id="Path" fill="#212135" points="37.4892965 326.470399 29.8484617 330.288852 26.0280442 326.470399 29.8484617 322.651945 37.4892965 322.651945"></polygon>
                                <path d="M18.4904639,229.00892 C18.3429575,233.480983 18.4363782,239.466667 20.324461,239.687813 C20.6707811,239.694203 21.0117981,239.602176 21.3078374,239.422437 C24.5824809,237.830187 26.9179999,235.584326 30.1582252,234.046134 C33.5410402,232.434225 37.3909589,231.588956 41.1523737,231.009062 C46.7573453,230.097187 52.4225546,229.604385 58.1008665,229.534756 C62.9538291,229.490527 67.9985502,231.701986 72.5860013,232.915832 C74.3511619,233.407267 75.7868915,234.670257 77.2521224,235.677699 C79.4155506,237.152006 80.3645088,237.756471 80.0694959,234.694828 C79.5778077,229.73133 79.0861194,224.767832 78.4764261,219.814163 C77.2570393,209.941225 75.60005,200.087944 72.7925103,190.52461 C71.72063,186.873245 70.4815757,183.271023 69.2425214,179.673715 C67.7379555,175.290111 66.2317506,170.904869 64.7239067,166.517988 C62.8554915,161.072883 59.6939363,157.234773 54.1624439,155.328003 C49.3832344,153.681694 43.4436408,153.229574 38.7922703,155.534406 C33.6246272,158.099699 31.1661861,166.837421 28.6536593,171.496229 C26.4508961,175.584972 23.6777746,186.730728 22.8566553,191.153647 C21.8732788,196.46115 20.948905,201.744081 20.2261233,207.007355 C19.4058043,212.7879 18.8969923,218.608341 18.7018899,224.443485 C18.6920561,225.077437 18.5642172,226.866262 18.4904639,229.00892 Z" id="Path" fill="#27D8DB"></path>
                                <path d="M49.8159201,156.502534 C49.7020067,156.600715 49.5700812,156.675824 49.4274864,156.72368 C49.1215562,156.792563 48.8041259,156.792563 48.4981956,156.72368 L44.7121964,156.276473 C45.1252145,152.408876 42.8634487,151.539036 40.6606855,149.052372 C38.4579223,146.565709 39.1167845,143.155147 39.2446234,140.059104 C39.2224942,139.196513 39.3712131,138.338061 39.682226,137.533125 C40.3214206,136.166935 41.806319,135.410124 43.2469655,134.962918 C46.9247934,133.822788 51.1139769,134.102906 54.3738698,136.186592 C55.2618658,136.708786 55.9975748,137.454283 56.5077966,138.348908 C57.2256614,139.759328 57.0437368,141.435123 56.8421446,143.002802 C56.5847462,145.423896 55.768415,147.752188 54.4574568,149.804269 C53.1889012,151.696295 50.7648783,152.605451 50.4895329,154.870968 C50.4634726,155.47697 50.2250262,156.054514 49.8159201,156.502534 Z" id="Path" fill="#F8A094"></path>
                                <path d="M56.7339732,140.216363 C56.5225473,141.199234 56.0652773,142.182105 56.3012876,143.135489 C57.8451886,142.614568 58.8580663,141.03706 59.4038402,139.430066 C59.6783008,138.707561 59.8021177,137.936612 59.7676895,137.164549 C59.7332562,136.399667 59.3758731,135.685268 58.7843131,135.198807 C57.9336925,134.589427 56.4143759,134.83023 56.1734487,135.931046 C55.9325214,137.031861 57.0584874,138.7568 56.7339732,140.216363 Z" id="Path" fill="#292949"></path>
                                <path d="M64.9304158,131.704701 C64.9475808,130.542163 64.3760602,129.449622 63.4110992,128.800317 C62.5113097,128.190937 61.4787645,127.689673 60.9526581,126.72646 C60.5298062,125.979478 60.4609699,125.055579 60.0479518,124.308597 C59.2907519,122.947321 57.6435964,122.549258 56.2078668,122.092223 C52.6234598,120.93735 50.696042,119.610474 46.8952921,121.084781 C44.1959238,122.131538 40.7098543,122.274055 38.2022444,123.797504 C37.1124283,124.515134 36.1968754,125.467156 35.5225437,126.583943 C32.9903494,130.539999 32.380656,136.103048 34.047479,140.226192 C34.4179861,141.126288 34.86544,141.992784 35.384871,142.816056 C36.3682474,144.437793 37.4597952,146.44285 39.2347897,147.238975 C39.347878,146.472336 39.9182363,146.049702 40.0952441,145.273234 C40.1937373,144.723505 40.2136032,144.162581 40.1542466,143.607267 C40.0460752,141.440037 39.3773793,138.009818 41.5457243,136.933574 C44.2893445,135.572298 49.4127357,136.800886 52.0678521,137.950845 C54.4033711,138.968117 58.3467106,140.294993 60.8346529,139.204006 C63.1308369,138.211306 65.0238365,134.161878 64.9304158,131.704701 Z" id="Path" fill="#292949"></path>
                                <polygon id="Path" fill="#27D8DB" points="40.9655322 155.047885 16.7302201 147.912242 25.6986131 117.625075 18.3085393 112.327401 0.465173985 147.386406 5.39680677 159.524862 28.5553217 171.471658"></polygon>
                                <polygon id="Path" fill="#AA6755" points="254.328716 177.958606 256.211882 182.106321 249.367582 185.079505 243.029721 180.700815 246.368284 174.955935"></polygon>
                                <polygon id="Rectangle" fill="#633A88" transform="translate(135.541751, 225.306920) rotate(-3.590000) translate(-135.541751, -225.306920) " points="3.57886284 174.891144 267.501398 174.899622 267.504639 275.722697 3.58210355 275.714218"></polygon>
                                <path d="M13.5784987,276.93862 L8.07650754,189.315679 L257.509939,173.668374 L263.01193,261.296229 L13.5784987,276.93862 Z M9.75316435,190.789985 L15.0584802,275.262825 L261.335273,259.817009 L256.034874,175.344169 L9.75316435,190.789985 Z" id="Shape" fill="#FFFFFF" fill-rule="nonzero"></path>
                                <polygon id="Path" fill="#00888A" points="266.104649 290.880643 293.885033 241.899272 280.589783 234.370481 267.299451 226.836775 239.519067 275.818147 258.114715 273.994921"></polygon>
                                <polygon id="Path" fill="#00888A" points="303.664711 296.256947 290.752979 241.452066 305.626547 237.953045 320.500116 234.454025 333.406931 289.258906 316.070005 282.290352"></polygon>
                                <polygon id="Path" fill="#27D8DB" points="344.450249 213.327215 352.509019 208.167143 346.254744 200.933213 352.700777 193.866371 344.789514 188.490067 349.185206 179.998063 340.147977 176.852876 342.198317 167.510688 332.654648 166.812849 332.217046 157.259344 322.815967 159.053084 319.919924 149.94187 311.305546 154.104329 306.14282 146.049702 298.905169 152.300761 291.834693 145.858042 286.455624 153.765238 277.959251 149.371805 274.812447 158.399475 265.465454 156.355103 264.767257 165.893865 255.208838 166.331243 257.0035 175.722574 247.8876 178.622043 252.052199 187.231992 243.99343 192.38715 250.247704 199.625995 243.801671 206.692836 251.712935 212.06914 247.317242 220.561145 256.354471 223.706332 254.304131 233.043605 263.8478 233.746358 264.285402 243.299863 273.686481 241.506124 276.582524 250.617337 285.196902 246.454879 290.354711 254.509506 297.597279 248.258447 304.667755 254.701166 310.046824 246.793969 318.543197 251.187402 321.690001 242.154818 331.036994 244.204104 331.735191 234.665342 341.29361 234.227965 339.498948 224.831719 348.614848 221.937164"></polygon>
                                <ellipse id="Oval" fill="#FFFFFF" transform="translate(298.228167, 200.258237) rotate(-78.680000) translate(-298.228167, -200.258237) " cx="298.228167" cy="200.258237" rx="33.5951932" ry="33.6111406"></ellipse>
                                <path d="M302.110977,177.65883 L306.983607,191.659826 C307.054327,191.895894 307.239105,192.080578 307.475295,192.151261 L321.734253,196.048344 C322.004392,196.12464 322.208379,196.346693 322.26143,196.622209 C322.314481,196.897726 322.207524,197.17959 321.985014,197.350648 L310.228749,206.294774 C310.033695,206.441657 309.923387,206.675022 309.933736,206.918897 L310.631933,221.720932 C310.646045,222.001221 310.499696,222.265203 310.254441,222.401849 C310.009186,222.538496 309.707576,222.524099 309.476466,222.364713 L297.331767,213.926766 C297.131735,213.787819 296.875961,213.756553 296.648321,213.843222 L282.841715,219.091753 C282.576826,219.200489 282.272907,219.146146 282.062166,218.952364 C281.851425,218.758581 281.77196,218.460392 281.858339,218.187512 L286.121276,203.994856 C286.190592,203.760696 286.14102,203.507458 285.98852,203.316675 L276.744782,191.758113 C276.569481,191.53806 276.533733,191.237858 276.652461,190.982829 C276.771189,190.727799 277.02398,190.561787 277.305306,190.554096 L292.055953,190.224834 C292.298531,190.218119 292.522516,190.093339 292.655812,189.890658 L300.773585,177.496656 C300.923314,177.2471 301.205915,177.108932 301.494933,177.143979 C301.783952,177.179026 302.025298,177.380728 302.110977,177.65883 Z" id="Path" fill="#91D351"></path>
                                <polygon id="Path" fill="#AA6755" points="343.481623 165.657976 344.538753 170.08581 337.251933 171.707547 331.867947 166.198555 336.239056 161.195742"></polygon>
                                <polygon id="Path" fill="#F8A094" points="93.290992 166.370558 101.379263 169.402714 103.390268 177.983177 98.6946454 179.049592 94.8938955 173.850205 91.7716754 173.658545 88.8362967 168.921108"></polygon>
                            </g>
                        </g>
                    </g>
                </g>
            </g>
        </g>
    </g>
</svg>