<?xml version="1.0" encoding="UTF-8"?>
<svg width="36px" height="36px" viewBox="0 0 36 36" version="1.1" xmlns="http://www.w3.org/2000/svg" xmlns:xlink="http://www.w3.org/1999/xlink">
    <!-- Generator: Sketch 59.1 (86144) - https://sketch.com -->
    <title>Group 16</title>
    <desc>Created with Sketch.</desc>
    <g id="Page-1" stroke="none" stroke-width="1" fill="none" fill-rule="evenodd">
        <g id="Detalle-Receta" transform="translate(-726.000000, -4732.000000)">
            <g id="Social-media-№1" transform="translate(585.000000, 4682.000000)">
                <g id="Group-16" transform="translate(142.000000, 51.000000)">
                    <circle id="Oval-Copy-9" stroke="#E5E5E5" stroke-width="0.708333333" cx="17" cy="17" r="17"></circle>
                    <g id="Group-Copy" transform="translate(6.083333, 10.625000)" fill="#556274" fill-rule="nonzero">
                        <path d="M11.5086937,1.99599452 C10.9897676,2.57958258 10.4617761,3.15642721 9.8977977,3.69646393 C8.78412577,3.00441896 7.44326916,2.47702618 6.141696,2.94541391 C4.04236672,3.55681864 2.77101159,6.09206905 3.54788979,8.19264892 C4.19125922,10.386513 6.80017445,11.590497 8.84483655,10.6688943 C9.9035666,10.2811468 10.6016032,9.28199457 10.9079042,8.2083836 C9.69451274,8.18365767 8.48084659,8.19911138 7.26745514,8.16483225 C7.26443334,7.42642617 7.26141154,6.69082985 7.26443334,5.95242376 C9.28794282,5.94933302 11.3144741,5.94315154 13.3410054,5.96169599 C13.4654488,7.77090328 13.2044748,9.70711193 12.0545412,11.1591982 C10.4799069,13.2319614 7.57073433,13.8402754 5.2041128,13.0271295 C2.6924447,12.1833573 0.865901868,9.5952833 0.920569039,6.88329871 C0.796125679,3.53209271 3.66601484,0.435170395 6.94577043,0.394990764 C8.61737716,0.249163992 10.2436568,0.913111319 11.5086937,1.99599452 Z M19.0901238,4.0903929 C19.0934203,4.70797911 19.0991892,5.32865607 19.1024858,5.94596131 C19.7060223,5.95214279 20.3128554,5.95523353 20.9166667,5.95832427 L20.9166667,7.80771119 L20.9166667,7.80771119 C20.3131301,7.81080194 19.706297,7.81389268 19.1024858,7.81698342 C19.0964421,8.43766037 19.0934203,9.05496561 19.0901238,9.67564257 C18.4865873,9.67255182 17.8825013,9.67564257 17.2819865,9.67564257 C17.2762176,9.05496561 17.2762176,8.43766037 17.2698993,7.82007416 C16.6663627,7.8136117 16.0595297,7.81080194 15.4557184,7.80743022 L15.4557184,5.95804329 L15.4557184,5.95804329 C16.0595297,5.95495255 16.6633409,5.95186181 17.2698993,5.94568033 C17.2729211,5.32865607 17.2789647,4.70797911 17.285283,4.0903929 L19.0901238,4.0903929 L19.0901238,4.0903929 Z" id="Combined-Shape"></path>
                    </g>
                </g>
            </g>
        </g>
    </g>
</svg>