<?xml version="1.0" encoding="UTF-8"?>
<svg width="36px" height="36px" viewBox="0 0 36 36" version="1.1" xmlns="http://www.w3.org/2000/svg" xmlns:xlink="http://www.w3.org/1999/xlink">
    <!-- Generator: Sketch 59.1 (86144) - https://sketch.com -->
    <title>Group 18</title>
    <desc>Created with Sketch.</desc>
    <g id="Page-1" stroke="none" stroke-width="1" fill="none" fill-rule="evenodd">
        <g id="Detalle-Receta" transform="translate(-771.000000, -4732.000000)">
            <g id="Social-media-№1" transform="translate(585.000000, 4682.000000)">
                <g id="Group-18" transform="translate(187.000000, 51.000000)">
                    <circle id="Oval-Copy-13" stroke="#E5E5E5" stroke-width="0.708333333" cx="17" cy="17" r="17"></circle>
                    <g id="instagram-(6)-copy" transform="translate(8.500000, 8.500000)" fill="#556274" fill-rule="nonzero">
                        <path d="M11.5,0.5 C14.261,0.5 16.5,2.739 16.5,5.5 L16.5,5.5 L16.5,11.5 C16.5,14.261 14.261,16.5 11.5,16.5 L11.5,16.5 L5.5,16.5 C2.739,16.5 0.5,14.261 0.5,11.5 L0.5,11.5 L0.5,5.5 C0.5,2.739 2.739,0.5 5.5,0.5 L5.5,0.5 Z M11.5,2 L5.5,2 C3.57,2 2,3.57 2,5.5 L2,5.5 L2,11.5 C2,13.43 3.57,15 5.5,15 L5.5,15 L11.5,15 C13.43,15 15,13.43 15,11.5 L15,11.5 L15,5.5 C15,3.57 13.43,2 11.5,2 L11.5,2 Z M8.5,4.5 C10.709,4.5 12.5,6.291 12.5,8.5 C12.5,10.709 10.709,12.5 8.5,12.5 C6.291,12.5 4.5,10.709 4.5,8.5 C4.5,6.291 6.291,4.5 8.5,4.5 Z M8.5,6 C7.122,6 6,7.121 6,8.5 C6,9.878 7.122,11 8.5,11 C9.878,11 11,9.878 11,8.5 C11,7.121 9.878,6 8.5,6 Z M12.8333333,3.16666667 C13.3856181,3.16666667 13.8333333,3.61438192 13.8333333,4.16666667 C13.8333333,4.71895142 13.3856181,5.16666667 12.8333333,5.16666667 C12.2810486,5.16666667 11.8333333,4.71895142 11.8333333,4.16666667 C11.8333333,3.61438192 12.2810486,3.16666667 12.8333333,3.16666667 Z" id="Combined-Shape"></path>
                    </g>
                </g>
            </g>
        </g>
    </g>
</svg>