<?xml version="1.0" encoding="UTF-8"?>
<svg width="36px" height="36px" viewBox="0 0 36 36" version="1.1" xmlns="http://www.w3.org/2000/svg" xmlns:xlink="http://www.w3.org/1999/xlink">
    <!-- Generator: Sketch 59.1 (86144) - https://sketch.com -->
    <title>Group 13</title>
    <desc>Created with Sketch.</desc>
    <g id="Page-1" stroke="none" stroke-width="1" fill="none" fill-rule="evenodd">
        <g id="Detalle-Receta" transform="translate(-681.000000, -4732.000000)">
            <g id="Social-media-№1" transform="translate(585.000000, 4682.000000)">
                <g id="Group-13" transform="translate(97.000000, 51.000000)">
                    <circle id="Oval-Copy-3" stroke="#E5E5E5" stroke-width="0.708333333" cx="17" cy="17" r="17"></circle>
                    <path d="M25,12.5390003 C24.4114875,12.7999059 23.7784204,12.976372 23.1145078,13.0551822 C23.7923743,12.6491387 24.3125861,12.0066648 24.558126,11.2398569 C23.9238349,11.6160407 23.2209982,11.8889391 22.4736069,12.036035 C21.8748126,11.3984562 21.0216653,11 20.0769607,11 C18.2644206,11 16.7943634,12.4697355 16.7943634,14.2818789 C16.7943634,14.5391132 16.8234952,14.7894945 16.8798005,15.0298409 C14.1516876,14.8930246 11.7327642,13.5865386 10.1136204,11.6003765 C9.83111478,12.0849854 9.66905352,12.6491387 9.66905352,13.2504942 C9.66905352,14.3888355 10.2489978,15.3937871 11.1293185,15.9821708 C10.5914808,15.9652829 10.0849781,15.8176974 9.64261452,15.5712322 C9.64236972,15.5851831 9.64236972,15.599134 9.64236972,15.6128401 C9.64236972,17.2029935 10.7743505,18.5293043 12.2757428,18.830594 C12.0005814,18.9059776 11.7099972,18.9458722 11.4110897,18.9458722 C11.1990881,18.9458722 10.9936963,18.9255578 10.7934453,18.8873764 C11.2110836,20.1909254 12.4231158,21.1398287 13.8598794,21.1665066 C12.736222,22.0468794 11.3210013,22.5713828 9.78264329,22.5713828 C9.51825331,22.5713828 9.25631139,22.5559635 9,22.5253695 C10.4519416,23.4568954 12.1778206,24 14.0314881,24 C20.0693718,24 23.3713088,18.9992281 23.3713088,14.6619787 C23.3713088,14.5197778 23.3681263,14.3780665 23.3617614,14.2375788 C24.0036415,13.7749976 24.5600845,13.1971383 25,12.5390003 L25,12.5390003 Z" id="Path-Copy" fill="#556274" fill-rule="nonzero"></path>
                </g>
            </g>
        </g>
    </g>
</svg>