<?xml version="1.0" encoding="UTF-8"?>
<svg width="766px" height="565px" viewBox="0 0 766 565" version="1.1" xmlns="http://www.w3.org/2000/svg" xmlns:xlink="http://www.w3.org/1999/xlink">
    <!-- Generator: Sketch 52.4 (67378) - http://www.bohemiancoding.com/sketch -->
    <title>Recurso 18</title>
    <desc>Created with Sketch.</desc>
    <defs>
        <linearGradient x1="104.805289%" y1="0.930574792%" x2="13.3450727%" y2="80.5098684%" id="linearGradient-1">
            <stop stop-color="#FFFFFF" offset="0%"></stop>
            <stop stop-color="#FFFFFF" stop-opacity="0" offset="100%"></stop>
        </linearGradient>
        <linearGradient x1="92.3015391%" y1="-33.9219613%" x2="20.0998511%" y2="94.5506402%" id="linearGradient-2">
            <stop stop-color="#FFFFFF" offset="0%"></stop>
            <stop stop-color="#FFFFFF" stop-opacity="0" offset="100%"></stop>
        </linearGradient>
        <linearGradient x1="115.024466%" y1="-3.38124411%" x2="16.0865214%" y2="81.3972667%" id="linearGradient-3">
            <stop stop-color="#FFFFFF" offset="0%"></stop>
            <stop stop-color="#FFFFFF" stop-opacity="0" offset="100%"></stop>
        </linearGradient>
    </defs>
    <g id="Page-1" stroke="none" stroke-width="1" fill="none" fill-rule="evenodd">
        <g id="TYP" transform="translate(-141.000000, -300.000000)">
            <g id="Recurso-18" transform="translate(141.000000, 300.000000)">
                <path d="M556.093507,1.81845281 C485.254141,-7.22110434 414.877633,17.8826597 364.624442,67.286427 C347.355418,84.2644991 318.063098,98.8422989 268.537256,102.00229 C136.446303,110.447285 -65.1285025,160.291469 20.5553918,275.262304 C106.239286,390.233139 261.902953,386.467575 206.635463,432.535184 C151.367974,478.602793 2.59208021,468.957663 68.5604135,527.500081 C134.528747,586.042499 691.47957,536.969045 699.590612,532.586896 C716.936779,523.217027 850.427327,499.115211 681.340769,337.955652 C571.444975,233.191478 610.898138,193.102529 651.971305,177.875114 C692.846105,162.713762 713.322076,117.61507 695.391825,78.7042355 C679.963214,45.2765918 642.008831,12.784834 556.093507,1.81845281 Z" id="Path" fill="#00D0D2" opacity="0.36"></path>
                <path d="M628,222 C628,222 660.780774,247.048246 629.422375,301 L628,222 Z" id="Path" fill="#FFFFFF"></path>
                <polygon id="Path" fill="#FFD286" points="631 200.791756 631 393 428 344.598199 428 141"></polygon>
                <polygon id="Path" fill="#F4BD6C" points="427 141 286 217.806537 286 407 427 344.412412"></polygon>
                <polygon id="Path" fill="#DDA254" points="286 408.333333 461.351194 448 631 394.161186 427.136865 346"></polygon>
                <path d="M326.946252,297.755716 C326.946252,297.755716 327.663366,313.011367 340.494201,311.946764 C353.325035,310.882161 374,253.075314 374,214.771555 C374,176.467796 361.522207,166.18395 334.073267,172.922777 C306.624328,179.661605 179,267.968781 179,267.968781 C179,267.968781 188.984441,290.665679 224.994625,286.056057 C224.994625,286.056057 235.332107,308.752955 271.331259,302.014128 C271.331259,302.014128 286.291372,316.073473 301.990665,310.168768 C312.074399,306.371318 326.946252,297.755716 326.946252,297.755716 Z" id="Path" fill="#FFFFFF"></path>
                <path d="M225,286.83926 L286,252 L227.717273,291 C226.652179,289.72402 225.740204,288.327586 225,286.83926 Z" id="Path" fill="#B1C2B3"></path>
                <polygon id="Path" fill="#B1C2B3" points="272 301.95694 312 277 274.382887 304"></polygon>
                <path d="M327,298.170068 C331.714803,295.358777 336.081352,291.942769 340,288 C340,288 336.781452,295.119048 327.419355,301 L327,298.170068 Z" id="Path" fill="#B1C2B3"></path>
                <polygon id="Path" fill="#FFFAD7" points="516.307296 168 516.307296 366.393465 366 425.967613 405.737299 435 563 377.472166 563 181.686102"></polygon>
                <path d="M441,310 L453,313" id="Path" stroke="#A73E5C" stroke-width="1.42" stroke-linecap="round" stroke-linejoin="round"></path>
                <path d="M460,314 L467,316" id="Path" stroke="#A73E5C" stroke-width="1.42" stroke-linecap="round" stroke-linejoin="round"></path>
                <path d="M473,317 L500,323" id="Path" stroke="#A73E5C" stroke-width="1.42" stroke-linecap="round" stroke-linejoin="round"></path>
                <path d="M505,324.24 L507,324.76" id="Path" stroke="#A73E5C" stroke-width="1.42" stroke-linecap="round" stroke-linejoin="round"></path>
                <path d="M441,318 L464,323" id="Path" stroke="#A73E5C" stroke-width="1.42" stroke-linecap="round" stroke-linejoin="round"></path>
                <path d="M470,324.105 L474,324.895" id="Path" stroke="#A73E5C" stroke-width="1.42" stroke-linecap="round" stroke-linejoin="round"></path>
                <path d="M482,327 L507,332" id="Path" stroke="#A73E5C" stroke-width="1.42" stroke-linecap="round" stroke-linejoin="round"></path>
                <path d="M441,325 L458,329" id="Path" stroke="#A73E5C" stroke-width="1.42" stroke-linecap="round" stroke-linejoin="round"></path>
                <path d="M468,331 L476,333" id="Path" stroke="#A73E5C" stroke-width="1.42" stroke-linecap="round" stroke-linejoin="round"></path>
                <path d="M482,334.225 L485,334.775" id="Path" stroke="#A73E5C" stroke-width="1.42" stroke-linecap="round" stroke-linejoin="round"></path>
                <path d="M490,336 L507,340" id="Path" stroke="#A73E5C" stroke-width="1.42" stroke-linecap="round" stroke-linejoin="round"></path>
                <path d="M441,333 L491,344" id="Path" stroke="#A73E5C" stroke-width="1.42" stroke-linecap="round" stroke-linejoin="round"></path>
                <path d="M495,346 L507,349" id="Path" stroke="#A73E5C" stroke-width="1.42" stroke-linecap="round" stroke-linejoin="round"></path>
                <polygon id="Path" fill="#A73E5C" points="588 203 581 212.781513 585.23053 213.980392 585.23053 229.420168 590.780374 231 590.780374 215.560224 595 216.759104"></polygon>
                <polygon id="Path" fill="#A73E5C" points="605.994553 208 599 217.785428 603.227237 218.984788 603.227237 234.430745 608.772763 236 608.772763 220.565252 613 221.764612"></polygon>
                <polygon id="Path" fill="#A73E5C" points="609 241 586 234.621444 586 231 609 237.378556"></polygon>
                <polygon id="Path" stroke="#A73E5C" points="618 249 577 237.509095 577 196 618 207.490905"></polygon>
                <polygon id="Path" fill="#E2D69F" points="366 425.915811 516.307296 366 563 377.142239 405.737299 435"></polygon>
                <path d="M622,393.777964 L427.183521,349 L295,408 C295,408 414.515933,371.306488 465.109176,372.692394 C515.702419,374.0783 573.334434,391.171141 581.529812,404.447241 L622,393.777964 Z" id="Path" fill="#231F20" style="mix-blend-mode: soft-light;"></path>
                <path d="M340,313.062466 C340,313.062466 327.57149,315.806362 326.739223,299 C326.739223,299 311.79172,309.599404 300.206573,312.276916 C288.621426,314.954427 288,311.734775 288,311.734775 L288,325.454254 C288,325.454254 300.42851,329.73606 322.400341,314.312709 C322.400341,314.257389 327.57149,321.28309 340,313.062466 Z" id="Path" fill="#231F20" style="mix-blend-mode: soft-light;"></path>
                <path d="M335,314.347561 C335,314.347561 324.986094,315.666795 324.64421,302 C324.64421,302 305.619995,317.946523 289,315.053467 L289,319.60135 C301.194034,321.379674 313.487077,317.146899 322.306162,308.133278 C322.306162,308.133278 324.103812,318.640856 335,314.347561 Z" id="Path" fill="#231F20" style="mix-blend-mode: soft-light;"></path>
                <path d="M432,147 L628,204.275562 L628,313 C628,313 551.178316,202.997877 432,174.998938 L432,147 Z" id="Path" fill="#FFFFFF" opacity="0.5" style="mix-blend-mode: soft-light;"></path>
                <path d="M421,343.143287 L421,150 L374,176.986 C374,176.986 397.759191,174.469798 404.714154,241.286519 C411.669118,308.103241 411.690717,347 411.690717,347 L421,343.143287 Z" id="Path" fill="#231F20" style="mix-blend-mode: soft-light;"></path>
                <path d="M283,250 L223.555187,283.626268 C223.555187,283.626268 195.331343,287.702179 183,268.933265 L201.944924,256.54118 C201.944924,256.54118 198.549657,269.820762 213.734351,272.658561 C228.919044,275.496359 283,250 283,250 Z" id="Path" fill="#E9F2D7"></path>
                <path d="M234,290.52034 C234,290.52034 250.00311,306.13223 271.808709,299.245951 L311,274 C311,274 271.449456,300.715173 246.595645,281.974176 L234,290.52034 Z" id="Path" fill="#E9F2D7"></path>
                <path d="M279,304.357605 C279,304.357605 288.278461,310.996693 298.03189,308.395926 C307.78532,305.79516 328.529307,295.633514 341,285 C341,285 309.795653,303.907683 292.022982,295.863962 L279,304.357605 Z" id="Path" fill="#E9F2D7"></path>
                <path d="M342.583784,288.832575 C342.583784,288.832575 335.675676,298.411565 330,300.54023 C330,300.54023 331.837838,310.283807 340.810811,308.857383 C349.783784,307.430958 367.405405,262.597334 370,236 C370,236 356.551351,286.70391 346.767568,294.505356 C336.983784,302.306802 342.583784,288.832575 342.583784,288.832575 Z" id="Path" fill="#E9F2D7"></path>
                <path d="M233,291.116612 L287,255 L238.344099,295 C236.230757,294.219062 234.380241,292.874351 233,291.116612 Z" id="Path" fill="#E9F2D7" style="mix-blend-mode: multiply;"></path>
                <polygon id="Path" fill="#E9F2D7" style="mix-blend-mode: multiply;" points="314 281 279 304.015873 282.498889 306"></polygon>
                <path d="M343,290 C343,290 335.578754,300.540451 331.002318,302.028515 C331.002318,302.028515 330.847709,303.606764 333.063776,307 C333.053468,307 342.65986,299.920424 343,290 Z" id="Path" fill="#E9F2D7" style="mix-blend-mode: multiply;"></path>
                <path d="M633,243 L633,290 C633,290 641.197845,274.224234 640.996345,259.212163 C640.996345,259.212163 634.834705,258.743036 633,243 Z" id="Path" fill="#E9F2D7"></path>
                <path d="M635,262 L635,283 C636.615617,278.441435 637.952354,273.75287 639,268.970117 C639,268.970117 636.257143,267.244397 635,262 Z" id="Path" fill="#E9F2D7" style="mix-blend-mode: multiply;"></path>
                <path d="M289.344156,195 L75,332.256752 L75,450 L346.116034,308.074576 C346.116034,308.074576 368.350768,199.734894 289.344156,195 Z" id="Path" fill="url(#linearGradient-1)" style="mix-blend-mode: overlay;"></path>
                <polygon id="Path" fill="url(#linearGradient-2)" style="mix-blend-mode: overlay;" points="462 446.969537 286.593148 407 74.8316875 507.161296 62 589"></polygon>
                <polygon id="Path" fill="url(#linearGradient-3)" style="mix-blend-mode: overlay;" points="286 314 286 407.40086 88 501 91.8974644 413.19504"></polygon>
                <path d="M168,202.085486 L155.355426,202.085486 C155.355426,202.085486 149.655997,187.351212 135.401913,189.152685 C121.147828,190.954159 124.003055,206.945016 124.003055,206.945016 C124.003055,206.945016 112.427812,204.787696 110.465533,218.065223 C110.465533,218.065223 97.7989109,218.732435 97.6335503,234.211762 L85,247 L168,202.085486 Z" id="Path" fill="#F1F2F2"></path>
                <path d="M406.328044,172.364502 C405.899966,171.999403 405.323024,171.855581 404.771347,171.976443 L388.890797,175.524409 L388.778805,175.369185 C388.308436,174.692854 387.815668,174.005436 387.378897,173.295843 C386.234447,171.537472 384.456404,170.276729 382.406426,169.770051 C381.302211,169.538756 380.166934,169.490052 379.046648,169.625915 C378.665873,169.681352 378.161906,170.424208 378.128309,170.069411 C377.859526,167.30865 378.072312,170.723567 378.229102,171.078364 C378.611334,171.926914 379.100523,172.724151 379.685006,173.451066 C381.593478,175.415173 384.302109,176.41107 387.042919,176.15639 C387.154912,176.15639 387.210908,176.15639 387.401296,176.400313 C388.065316,177.17513 388.636544,178.023413 389.103583,178.928239 C389.902073,180.473117 390.392573,182.15578 390.548288,183.884304 C390.571162,184.848129 390.514981,185.812201 390.380299,186.767027 C390.289696,187.473926 390.15126,188.174006 389.965926,188.862544 L389.965926,188.973418 C389.960532,189.025022 389.960532,189.077038 389.965926,189.128642 C389.962659,189.561163 390.282665,189.929561 390.715115,189.991122 C391.147565,190.052684 391.559453,189.788474 391.679413,189.372564 C391.802605,188.862544 391.679413,189.206254 391.780206,188.84037 C392.036786,187.841589 392.194322,186.820407 392.250575,185.791336 L404.984133,182.952963 C406.077735,182.697901 406.854316,181.736871 406.865609,180.62461 L407,173.772601 C406.990053,173.229621 406.745393,172.716931 406.328044,172.364502 Z M385.766204,174.58198 C384.444691,174.393495 381.2865,173.739338 380.256168,171.577297 C380.213668,171.487222 380.221048,171.381825 380.275696,171.298418 C380.330343,171.215011 380.424545,171.165368 380.52495,171.167063 C382.745511,171.204883 384.808918,172.308986 386.057384,174.127397 C386.111718,174.224279 386.107549,174.34295 386.046548,174.43586 C385.985547,174.528771 385.877694,174.58072 385.766204,174.570893 L385.766204,174.58198 Z M405.779281,173.805863 L405.64489,180.646785 C405.639243,181.202916 405.250953,181.68343 404.704152,181.810962 L392.250575,184.593898 C392.244995,184.520085 392.244995,184.445962 392.250575,184.37215 C392.219461,183.785211 392.155903,183.200399 392.060188,182.620341 L397.055057,181.511602 C397.388138,181.394507 397.579213,181.048384 397.498897,180.707611 C397.418581,180.366838 397.092508,180.140179 396.741478,180.181115 L391.802605,181.289854 C391.655561,180.699119 391.472301,180.117802 391.253841,179.549133 L399.160518,177.77515 C399.490208,177.653704 399.69042,177.321812 399.642086,176.976858 C399.534208,176.644374 399.209821,176.428747 398.858138,176.45575 L390.693878,178.274083 C390.446645,177.791093 390.162084,177.327739 389.842734,176.888158 C389.775539,176.810547 389.719542,176.721848 389.663546,176.644236 L405.062528,173.207143 C405.247593,173.163579 405.442578,173.208757 405.588893,173.329105 C405.70945,173.441376 405.77826,173.597657 405.779281,173.761513 L405.779281,173.805863 Z" id="Shape" fill="#FFFFFF" fill-rule="nonzero"></path>
                <path d="M388.320762,173.651166 C388.40295,173.956514 388.515427,174.250753 388.65612,174.528456 C388.764618,174.725847 388.902706,174.967102 389.139429,175 C389.366288,175 389.533967,174.846474 389.711509,174.649084 C390.409587,173.851418 390.847142,172.816704 390.954304,171.710161 C391.100131,170.596549 390.894492,169.461157 390.37236,168.497085 C390.253999,168.266796 390.115911,168.036508 389.879188,168.003609 C389.642465,167.970711 389.464923,168.168101 389.297244,168.376458 C388.083874,169.740344 387.681245,171.756857 388.261582,173.563437 L388.320762,173.651166 Z M389.603011,169.527901 C389.62597,169.459132 389.684985,169.4135 389.750963,169.4135 C389.816941,169.4135 389.875955,169.459132 389.898915,169.527901 C390.062475,170.131817 390.102909,170.768671 390.017276,171.392143 C389.946869,172.091997 389.763075,172.771896 389.474786,173.398945 C389.445645,173.459694 389.38876,173.49764 389.326834,173.49764 C389.264909,173.49764 389.208024,173.459694 389.178883,173.398945 C388.829782,172.095555 388.9834,170.689502 389.603011,169.516935 L389.603011,169.527901 Z" id="Shape" fill="#FFFFFF" fill-rule="nonzero"></path>
                <path d="M387,177.396042 C387,177.054504 386.695842,176.849581 386.432238,176.667428 C384.385,175.458542 381.871802,175.92346 380.278104,177.805887 C380.078099,178.021052 379.977179,178.327442 380.004361,178.636962 C380.074726,178.932411 380.261417,179.175587 380.511292,179.297268 C381.49175,179.886932 382.61295,180.114028 383.715091,179.94619 C384.825187,179.749445 385.847272,179.149605 386.624872,178.238501 C386.860395,178.039038 386.999208,177.727294 387,177.396042 Z M385.215605,177.86281 C384.682228,178.160549 384.111123,178.364072 383.522458,178.466193 C382.951567,178.568763 382.369785,178.568763 381.798895,178.466193 C381.735315,178.439693 381.693126,178.371577 381.693126,178.295424 C381.693126,178.219271 381.735315,178.151156 381.798895,178.124656 C382.849112,177.524382 384.04169,177.313149 385.205467,177.521272 C385.259799,177.519239 385.310971,177.549908 385.339706,177.601727 C385.36844,177.653546 385.370373,177.718643 385.344775,177.772496 C385.319177,177.826349 385.269938,177.860776 385.215605,177.86281 Z" id="Shape" fill="#FFFFFF" fill-rule="nonzero"></path>
                <path d="M403.912826,185.158071 C403.801136,185.178806 403.691975,185.211087 403.58715,185.254379 L395.868643,186.966523 L395.314994,187.094933 C395.199436,187.084594 395.083166,187.084594 394.967607,187.094933 C393.973017,187.314766 393.210909,188.103854 393.037021,189.093864 C392.863134,190.083873 393.311755,191.079589 394.173477,191.616228 C395.035199,192.152866 396.140101,192.12461 396.972435,191.544649 C397.804769,190.964687 398.200409,189.947381 397.974677,188.967591 C397.890266,188.600482 397.723324,188.256735 397.486164,187.961706 L402.023908,186.955822 C401.943575,187.308123 401.943575,187.67361 402.023908,188.025912 C402.246924,189.006306 403.047438,189.757536 404.051783,189.928942 C405.056128,190.100348 406.066262,189.658129 406.610671,188.808707 C407.15508,187.959285 407.126415,186.870153 406.538055,186.049699 C405.949696,185.229246 404.917659,184.839253 403.923682,185.061763 L403.912826,185.158071 Z M395.727517,190.444315 C395.409486,190.515041 395.077335,190.41315 394.856182,190.177022 C394.635029,189.940894 394.558472,189.606403 394.655349,189.299548 C394.752226,188.992694 395.00782,188.760094 395.32585,188.689367 C395.560627,188.635146 395.807656,188.675948 396.011677,188.802647 C396.215699,188.929346 396.359688,189.131369 396.411435,189.363524 C396.466659,189.59628 396.425557,189.841132 396.297216,190.043948 C396.168876,190.246763 395.963868,190.390836 395.727517,190.444315 Z M404.672735,188.453948 C404.354705,188.524674 404.022554,188.422783 403.8014,188.186655 C403.580247,187.950527 403.50369,187.616036 403.600567,187.309181 C403.697444,187.002326 403.953038,186.769727 404.271069,186.699 C404.505845,186.644778 404.752874,186.685581 404.956896,186.81228 C405.160917,186.938979 405.304907,187.141002 405.356653,187.373157 C405.411877,187.605913 405.370775,187.850765 405.242435,188.053581 C405.114094,188.256396 404.909086,188.400469 404.672735,188.453948 Z" id="Shape" fill="#FFFFFF" fill-rule="nonzero"></path>
            </g>
        </g>
    </g>
</svg>