<svg version="1" xmlns="http://www.w3.org/2000/svg" width="666.667" height="666.667" viewBox="0 0 500.000000 500.000000"><path d="M7.4 1.4C1.5 4.1 0 7.2 0 17.2c0 11 1.9 20.2 7.5 37.2 6.5 19.8 8.8 24.9 16.1 35.9 20.8 31.2 46.2 52.8 76.7 65.3 8.4 3.4 23.9 7.8 31.2 8.9 2.2.3 4.7.8 5.6 1 5.4 1.7 23.9 54.9 27.4 79 .3 2.2 1 6.7 1.5 10 2.5 16.6 3.5 54.1 1.8 71-2.6 25-17.4 74.4-29.9 99.5-4 8.1-4.9 16.1-2.4 21.4 5.7 12 21.8 12.3 27.8.5 6.2-12.5 19.3-47.3 23.2-62.1l1.8-6.8 123.1-.2c121.4-.3 123.2-.3 127.9-2.3 6.8-3 14.6-8.9 19.1-14.7 3.5-4.4 8.1-13.9 9.1-18.6.8-4 3.7-16.6 6.4-28.7 1.6-7.2 3.2-14.1 3.5-15.5.3-1.4 3-13.5 6.1-27 3-13.5 6-26.5 6.5-29 1.3-6.1 1.4-6.9 4.5-20 3.8-16.4 4-17.7 4-26 0-4.9-.7-9.2-1.9-12.5-2.1-5.5-6.9-13-10.1-15.8-3.3-2.9-11.1-6.6-15.3-7.3-2.1-.3-70.6-.7-152.2-.8l-148.2-.1-3.9-10.5c-2.2-5.8-7.1-20-11.1-31.5-12.3-36.4-23.3-54.7-45.3-75.5-22.8-21.7-46.8-33.8-80-40.6C24 .1 10.3 0 7.4 1.4zm40.3 38.1C78.2 49.2 105 74 121 107.4c6.9 14.4 7.2 16.9 2.2 19.5-2.5 1.3-7.8-.6-21.2-7.8-34.3-18.3-56.1-40.4-65.5-66.2-2.9-8.2-3.1-11.5-.8-14.1 2.1-2.3 2.7-2.3 12 .7zm423.3 147c3.5 1.8 6 6.2 6 10.5 0 1.6-1.1 7.6-2.4 13.3-2 8.3-8.8 38.7-10.1 44.7-.2.8-3.6 15.7-7.5 33s-7.3 32.6-7.6 34c-.3 1.4-.7 3.1-1 3.9-.2.8-.7 3-1 4.9-1.6 10-8.3 18.7-16.3 21.1-5.8 1.7-237.1 1.6-237.1-.2 0-.6.4-3.9 1-7.2 1.1-7 1.6-12 2.6-23.1l.6-8.2h41.9c23.1-.1 44.5-.1 47.7-.1 4.8-.1 6.2-.5 8.8-2.9 7.5-6.9 6.8-17-1.7-22.5-2.4-1.6-7.1-1.7-49.3-1.8H199v-3.7c-.1-5-1.8-27.8-2.3-31.7-.1-.7 25.6-1.2 74.8-1.5 83-.6 77.5-.1 81.5-7.3 2.7-4.7 2.3-10.2-.9-14.3-4.9-6.2.5-5.8-83.1-6-42.1-.1-76.8-.2-77.1-.3-.6-.1-1.2-2.3-2.5-8.2-.4-1.8-7.7-23.3-8.9-26.2-.7-1.6 6.5-1.7 143.4-1.7 126.9 0 144.6.2 147.1 1.5z"/><path d="M224.8 17.8c-4.1 2.7-14.4 14.8-19.4 22.8-6 9.6-11.1 21.6-13.9 33-3.4 13.1-4 18.6-4 36.9 0 33.6 4.2 49.3 12.8 47.1 1.9-.4 12.7-10.9 17.2-16.8 6.8-8.7 14.2-25.3 18.3-41.3 4.1-16 4.3-17.6 4.6-35.5.5-21.2-2.7-40.8-7.5-45.8-2.4-2.7-4.5-2.8-8.1-.4zm.8 30.8c1.1 4.2-.4 24.2-2.5 33.9-2.7 12.4-6.6 24.4-11.2 34.4-4.7 10.2-6.6 12.6-8.6 10.9-1.1-.8-1.3-3.7-1.2-11.7.4-22.9 5-41.9 14.3-60 1.5-3.1 3.3-6.6 4-7.8 1.5-3.1 4.4-2.9 5.2.3zM44.5 158.6c-12.6 2.5-23.8 7.1-33 13.4C1.9 178.7 0 181.6 0 189.8v6.3l5.8 5.7c7.2 7.2 9 8.6 18.2 14 15.6 9.3 33.1 13.8 49.4 12.9 11.8-.7 13.7-1.1 23.1-3.8 13.3-3.8 29.9-13.4 34.7-20 3.3-4.4 3.4-10.1.5-15.1-7.8-13.3-30.3-26.8-52.2-31.3-6.4-1.4-28.1-1.3-35 .1zm39 28.2c11.6 3 17.5 5.7 17.5 8.1 0 3-1.4 3.6-14.5 5.7-6.4 1.1-24.4.7-31.5-.6-7.3-1.3-20.8-5.6-22.7-7.2-1.9-1.6-1.6-3.6.9-4.9 7.6-4.1 35.8-4.7 50.3-1.1zM236.6 401.2c-2 .4-6 2-8.9 3.4-21.8 11-32.4 39.7-23.4 63.5 7.9 20.9 24.1 32.3 44.9 31.5 6.7-.3 9-.9 15.2-4 16.2-8 26-23.2 27.3-42.1.4-7.3-1-18.2-3.2-23.8-.7-1.6 1.7-1.7 40.9-1.7 22.9 0 41.6.2 41.6.5s-.9 3.6-1.9 7.4c-5 17.9.2 38.1 13.1 51 8.3 8.3 17.3 12.2 29.2 12.6 11.1.4 21-3.1 29.1-10.3 11.7-10.5 17-23 17-39.7-.1-18.8-7.9-33.5-22.7-42.8-10.4-6.5-4.6-6.1-103.9-6.2-49.9 0-92.3.3-94.3.7zm17.6 33c5.9 3.3 8.3 7.9 8.3 15.9 0 5.7-.4 7.1-2.9 10.3-5.5 7.3-11.6 9.2-19.5 6-5.2-2.1-9.1-8-9.8-14.8-1.4-14.3 12-24.1 23.9-17.4zm165-.6c12.3 6.4 12.8 25.7.8 32.2-7.5 4-17.1 1.4-21.4-5.9-2.3-3.8-3.1-11.8-1.7-16 3.2-9.6 14-14.6 22.3-10.3z"/></svg>