<?xml version="1.0" encoding="UTF-8"?>
<svg width="711px" height="647px" viewBox="0 0 711 647" version="1.1" xmlns="http://www.w3.org/2000/svg" xmlns:xlink="http://www.w3.org/1999/xlink">
    <!-- Generator: Sketch 52.4 (67378) - http://www.bohemiancoding.com/sketch -->
    <title>d 2</title>
    <desc>Created with Sketch.</desc>
    <defs>
        <rect id="path-1" x="0" y="0" width="812" height="776"></rect>
        <path d="M87.5556575,243.81533 C144.311,218.373017 213.822782,214.066102 270.821361,189.989397 C372.926925,146.857219 413.223218,19.5195996 527.706852,3.2163506 C671.838396,-17.3097761 812.861909,63.4711421 900.670532,158.328319 C984.452228,248.857572 1055.72072,398.633168 985.371124,512.251687 C931.858944,598.642099 808.375534,626.437458 708.080736,646.270276 C573.246258,672.97315 428.92553,670.178907 296.793687,633.349531 C187.174797,602.801949 85.1232857,548.891978 25.6653077,458.299698 C-10.5770324,403.045129 -11.387823,319.154829 42.3405679,272.156932 C55.3447436,260.873792 70.6141879,251.302639 87.5556575,243.81533 Z M887.06903,40.6621811 C898.316835,40.6621811 907.434982,31.5596418 907.434982,20.3310906 C907.434982,9.1025393 898.316835,6.87550469e-16 887.06903,0 C875.821225,-6.87550469e-16 866.703078,9.1025393 866.703078,20.3310906 C866.703078,31.5596418 875.821225,40.6621811 887.06903,40.6621811 Z M292.161182,111.266844 C298.478805,111.26684 304.17401,107.466736 306.589956,101.639301 C309.005902,95.8118647 307.666548,89.1053406 303.19671,84.6483543 C298.726872,80.1913681 292.007291,78.8621291 286.172684,81.2807337 C280.338077,83.6993383 276.538102,89.3892223 276.545465,95.6960269 C276.545462,99.8288143 278.191266,103.792069 281.120305,106.712686 C284.049344,109.633304 288.021311,111.271667 292.161182,111.266844 Z" id="path-3"></path>
    </defs>
    <g id="Page-1" stroke="none" stroke-width="1" fill="none" fill-rule="evenodd">
        <g id="Registrate" transform="translate(-150.000000, -233.000000)">
            <g id="d-2" transform="translate(150.000000, 104.000000)">
                <mask id="mask-2" fill="white">
                    <use xlink:href="#path-1"></use>
                </mask>
                <g id="Mask"></g>
                <g mask="url(#mask-2)" id="d">
                    <g transform="translate(-303.000000, 0.000000)">
                        <g>
                            <rect id="Rectangle" x="294" y="0" width="1440" height="1419"></rect>
                            <g id="Rectangle" transform="translate(0.000000, 129.000000)">
                                <mask id="mask-4" fill="white">
                                    <use xlink:href="#path-3"></use>
                                </mask>
                                <use id="Mask" fill="#B8D3EE" xlink:href="#path-3"></use>
                                <rect mask="url(#mask-4)" x="284" y="-100" width="1450" height="997"></rect>
                                <path d="M620.373093,128 L373.628354,128 C374.135599,129.883619 374.39319,131.824059 374.394699,133.772898 C374.354586,146.099477 364.220864,156.079544 351.714546,156.109159 L331.278688,156.109159 C299.138553,156.168431 273.090338,181.818226 273,213.496445 L273,214 L620.373093,214 C644.430171,213.911248 663.909954,194.711385 664,171 C663.909954,147.288615 644.430171,128.088752 620.373093,128 Z" id="Path" fill="#DCE9F7" mask="url(#mask-4)"></path>
                                <path d="M278.903816,190 L664,190 L664,648 L338.302201,648 C265.325106,647.780272 206.220174,588.795052 206,515.965766 C206.210221,443.13235 265.320967,384.141328 338.302201,383.931533 C369.164195,383.841579 394.157572,358.890697 394.237654,328.091183 C394.147566,297.298772 369.157106,272.358928 338.302201,272.269023 L331.649727,272.269023 C299.545435,272.209076 273.526267,246.266998 273.43603,214.2278 C273.468289,205.850781 275.334412,197.581978 278.903816,190 Z" id="Path" fill="#CDE0F3" mask="url(#mask-4)"></path>
                                <path d="M273.911335,227 L631.401408,227 C641.638831,227 650,236.933708 650,249.050648 L650,648 L337.230341,648 C264.292884,647.780217 205.220054,588.780192 205,515.932627 C205.210107,443.080931 264.288747,384.075103 337.230341,383.865255 C368.075573,383.775279 393.055374,358.818135 393.135413,328.01089 C393.045374,297.210751 368.068487,272.264647 337.230341,272.174719 L330.581481,272.174719 C303.47199,272.110063 279.985495,253.387757 273.911335,227 Z" id="Path" fill="#C1DBF2" mask="url(#mask-4)"></path>
                                <path d="M390.272956,309 L650,309 L650,346 L390,346 C392.256965,339.952257 393.409051,333.558262 393.402856,327.114397 C393.411807,320.944815 392.353339,314.818897 390.272956,309 Z" id="Path" fill="#CDE0F3" mask="url(#mask-4)"></path>
                                <path d="M667.75172,294 L381,294 C388.702705,303.654338 392.888328,315.580244 392.88429,327.861367 C392.88429,328.919535 392.88429,329.959767 392.88429,331 L667.75172,331 C674.507961,330.980301 679.980011,325.587772 680,318.929714 L680,306.088221 C679.99001,299.42316 674.515045,294.019741 667.75172,294 Z" id="Path" fill="#DCE9F7" mask="url(#mask-4)"></path>
                                <path d="M210.17339,481 L650,481 L650,518 L205,518 C205.00003,517.659234 205.00003,517.318468 205.00003,516.977702 C204.991616,504.80487 206.733347,492.692147 210.17339,481 Z" id="Path" fill="#CDE0F3" mask="url(#mask-4)"></path>
                                <path d="M667.853983,464 L217.039878,464 C211.855879,475.773213 208.472242,488.242944 207,501 L667.853983,501 C674.530325,500.941696 679.930896,495.612032 679.999874,489.013579 L679.999874,476.165858 C680.030127,469.497417 674.600844,464.059209 667.853983,464 Z" id="Path" fill="#DCE9F7" mask="url(#mask-4)"></path>
                                <path d="M668.80398,633 L277,633 C295.696947,642.214611 316.457691,647.016802 337.524345,646.999956 L681,647 L681,644.663746 C680.990272,638.259558 675.550211,633.05692 668.80398,633 Z" id="Path" fill="#FFFFFF" mask="url(#mask-4)"></path>
                                <path d="M668.734667,172 L291.917407,172 C281.132871,181.572153 274.383549,194.772953 273,209 L668.734667,209 C675.507409,208.980259 680.989996,203.57684 681,196.911779 L681,184.070286 C680.979983,177.412228 675.500315,172.019699 668.734667,172 Z" id="Path" fill="#DCE9F7" mask="url(#mask-4)"></path>
                                <path d="M308.15029,161.678016 L629.711544,161.678016 C638.415677,161.678016 645.553794,153.777724 645.553794,144.095817 C645.568546,140.528425 644.565037,137.029233 642.658486,134 C655.223029,140.478599 664,154.659533 664,171 L293,171 C297.541241,167.149612 302.650063,164.006151 308.15029,161.678016 Z" id="Path" fill="#CDE0F3" mask="url(#mask-4)"></path>
                                <rect fill="#EAEAE6" mask="url(#mask-4)" x="577" y="368" width="62" height="95" rx="2.52"></rect>
                                <rect fill="#E7E9E3" mask="url(#mask-4)" x="539" y="368" width="33" height="95" rx="1.28"></rect>
                                <rect fill="#B3CEEB" mask="url(#mask-4)" x="512" y="351" width="37" height="113" rx="1.49"></rect>
                                <rect fill="#B8D3EE" mask="url(#mask-4)" x="500" y="420" width="61" height="44" rx="1.76"></rect>
                                <rect fill="#B8D3EE" mask="url(#mask-4)" x="461" y="383" width="33" height="81" rx="1.28"></rect>
                                <rect fill="#E3E2DC" mask="url(#mask-4)" x="589" y="391" width="38" height="24" rx="1.69"></rect>
                                <path d="M591.538066,420.000075 L624.461934,420.000075 C625.863669,420.000075 627,421.365489 627,423.049813 L627,425.950262 C627,427.634586 625.863669,429 624.461934,429 L591.538066,429 C590.136331,429 589,427.634586 589,425.950262 L589,423.028486 C588.999983,422.221593 589.267951,421.448055 589.744448,420.879501 C590.220945,420.310946 590.866567,419.994393 591.538066,420.000075 Z" id="Path" fill="#E3E2DC" mask="url(#mask-4)"></path>
                                <path d="M591.538066,434.000075 L624.461934,434.000075 C625.863669,434.000075 627,435.365489 627,437.049813 L627,439.950262 C627,441.634586 625.863669,443 624.461934,443 L591.538066,443 C590.136331,443 589,441.634586 589,439.950262 L589,437.028486 C588.999983,436.221593 589.267951,435.448055 589.744448,434.879501 C590.220945,434.310946 590.866567,433.994393 591.538066,434.000075 Z" id="Path" fill="#E3E2DC" mask="url(#mask-4)"></path>
                                <path d="M477.49118,416 C473.963365,416 471,419.428571 471,423.508571 C471,427.588571 473.910448,431 477.49118,431 C481.071913,431 484,427.571429 484,423.508571 C484,419.445714 481.018996,416 477.49118,416 Z" id="Path" fill="#B3CEEB" mask="url(#mask-4)"></path>
                                <path d="M476.812689,279 L491.187311,279 C492.188432,279 493,279.790418 493,280.765448 L493,291.234552 C493,292.209582 492.188432,293 491.187311,293 L476.812689,293 C475.811568,293 475,292.209582 475,291.234552 L475,280.765448 C475,279.790418 475.811568,279 476.812689,279 Z" id="Path" fill="#DCE9F7" mask="url(#mask-4)"></path>
                                <rect fill="#B8D3EE" mask="url(#mask-4)" x="425" y="256" width="46" height="37" rx="1.52"></rect>
                                <rect fill="#B3CEEB" mask="url(#mask-4)" x="419" y="269" width="32" height="25" rx="1.03"></rect>
                                <rect fill="#DCE9F7" mask="url(#mask-4)" x="405" y="233" width="27" height="60" rx="1.1"></rect>
                                <path d="M577.160496,251.589486 L575.622114,251.589486 L575.622114,248.810974 L576.153222,248.810974 C577.194727,248.707685 577.95991,247.813106 577.874744,246.798334 C577.936368,246.308261 577.786056,245.815299 577.45969,245.43712 C577.133324,245.05894 576.660188,244.829477 576.153222,244.803505 L574.321815,244.803505 L574.321815,232.994829 C574.383438,232.504756 574.233127,232.011794 573.906761,231.633615 C573.580395,231.255435 573.107259,231.025973 572.600293,231 C572.08335,231.02281 571.597677,231.247279 571.253031,231.622679 C570.908385,231.998079 570.733856,232.492724 570.768886,232.994829 L570.768886,244.750072 L568.937479,244.750072 C568.430512,244.776044 567.957377,245.005507 567.631011,245.383687 C567.304644,245.761866 567.154333,246.254828 567.215956,246.744901 C567.130791,247.759673 567.895974,248.654252 568.937479,248.757541 L569.468587,248.757541 L569.468587,251.536053 L567.930205,251.536053 C566.769868,251.639717 565.911937,252.633007 566.007228,253.762425 L566.007228,290.773628 C565.911937,291.903046 566.769868,292.896336 567.930205,293 L577.160496,293 C578.284039,292.852056 579.090121,291.872132 578.991903,290.773628 L578.991903,253.815858 C579.090121,252.717354 578.284039,251.73743 577.160496,251.589486 Z" id="Path" fill="#B3CEEB" mask="url(#mask-4)"></path>
                                <path d="M591.230467,255.865811 L589.829632,255.865811 L589.829632,253.304013 L590.315255,253.304013 C591.260947,253.216914 591.959855,252.401775 591.88419,251.474157 C591.959855,250.54654 591.260947,249.7314 590.315255,249.644302 L588.57822,249.644302 L588.57822,238.829856 C588.653885,237.902238 587.954976,237.087098 587.009285,237 C586.061096,237.087159 585.356719,237.899011 585.421672,238.829856 L585.421672,249.644302 L583.703315,249.644302 C582.755126,249.731461 582.050749,250.543313 582.115702,251.474157 C582.050749,252.405002 582.755126,253.216854 583.703315,253.304013 L584.17026,253.304013 L584.17026,255.865811 L582.788103,255.865811 C581.726244,255.96268 580.938022,256.873085 581.013712,257.915249 L581.013712,291.950562 C580.950738,292.457073 581.106497,292.96634 581.443399,293.355466 C581.780302,293.744592 582.267747,293.978231 582.788103,294 L591.230467,294 C591.747502,293.973316 592.230035,293.737572 592.562883,293.34904 C592.895731,292.960507 593.049027,292.45405 592.98618,291.950562 L592.98618,257.915249 C593.049027,257.41176 592.895731,256.905303 592.562883,256.516771 C592.230035,256.128239 591.747502,255.892494 591.230467,255.865811 Z" id="Path" fill="#B3CEEB" mask="url(#mask-4)"></path>
                                <rect fill="#DCE9F7" mask="url(#mask-4)" x="592" y="253" width="27" height="40" rx="1.06"></rect>
                                <path d="M599.19469,263 L611.821903,263 C612.472548,263 613,263.624403 613,264.394643 L613,272.585714 C613,273.366803 612.465119,274 611.80531,274 L599.19469,274 C598.534881,274 598,273.366803 598,272.585714 L598,264.394643 C598.009075,263.621236 598.541307,262.999925 599.19469,263 Z" id="Path" fill="#F5F6F5" mask="url(#mask-4)"></path>
                                <rect fill="#F5F6F5" mask="url(#mask-4)" x="598" y="276" width="15" height="3" rx="0.6"></rect>
                                <rect fill="#F5F6F5" mask="url(#mask-4)" x="598" y="281" width="15" height="3" rx="0.6"></rect>
                                <rect fill="#B8D3EE" mask="url(#mask-4)" x="575" y="270" width="15" height="24" rx="0.65"></rect>
                                <rect fill="#B8D3EE" mask="url(#mask-4)" x="509" y="233" width="56" height="60" rx="2.22"></rect>
                                <rect fill="#DCE9F7" mask="url(#mask-4)" x="554" y="270" width="15" height="24" rx="0.65"></rect>
                                <path d="M347.817083,256 L388.182917,256 C389.73154,255.999968 390.989812,257.199716 391,258.686058 L391,290.313942 C390.989812,291.800284 389.73154,293.000032 388.182917,293 L381.900081,293 C372.818227,281.855514 359.594205,274.517983 345,272.525481 L345,258.686058 C345.010188,257.199716 346.26846,255.999968 347.817083,256 Z" id="Path" fill="#B3CEEB" mask="url(#mask-4)"></path>
                                <path d="M367.026036,269.0044 L395.106509,269.0044 C396.152255,269.0044 397,269.798082 397,270.777137 L397,292.227262 C397,293.206318 396.152255,294 395.106509,294 L382.04142,294 C377.353744,288.435626 371.568555,283.765615 365,280.243556 L365,270.723955 C365.014208,270.240784 365.238533,269.783996 365.621033,269.459357 C366.003533,269.134718 366.511037,268.970382 367.026036,269.0044 Z" id="Path" fill="#B8D3EE" mask="url(#mask-4)"></path>
                                <path d="M359.800693,276 L369.199307,276 C369.641517,276 370,276.355752 370,276.794595 L370,283 C366.562589,280.606954 362.874481,278.589822 359,276.983784 L359,276.794595 C359,276.355752 359.358483,276 359.800693,276 Z" id="Path" fill="#F0F1EE" mask="url(#mask-4)"></path>
                                <path d="M319.986823,397.939358 L317.604951,397.939358 L317.604951,393.446734 L318.398908,393.446734 C319.178072,393.400012 319.906481,393.031405 320.420659,392.42364 C320.934836,391.815876 321.191717,391.019857 321.133649,390.214236 C321.246135,388.581606 320.078982,387.154571 318.504769,387 L315.840602,387 C312.170756,387.681808 308.559721,388.515804 305.007498,389.50199 C304.981411,389.738637 304.981411,389.977588 305.007498,390.214236 C304.88493,391.853709 306.05479,393.292181 307.636379,393.446734 L308.430336,393.446734 L308.430336,397.939358 L305.942604,397.939358 C304.160451,398.112867 302.850264,399.746806 303.013784,401.591899 L303.013784,461.34746 C302.850264,463.192553 304.160451,464.826491 305.942604,465 L320.057396,465 C321.839549,464.826491 323.149736,463.192553 322.986216,461.34746 L322.986216,401.537111 C323.117722,399.686305 321.77487,398.075562 319.986823,397.939358 Z" id="Path" fill="#B3CEEB" mask="url(#mask-4)"></path>
                                <path d="M343.189476,405.091324 L340.913652,405.091324 L340.913652,400.981735 L341.665991,400.981735 C343.167402,400.837089 344.276832,399.557213 344.167517,398.09589 C344.276832,396.634567 343.167402,395.354692 341.665991,395.210046 L339.032805,395.210046 L339.032805,385 L338.299275,385 C336.869831,385 335.459196,385 334.029753,385 L334.029753,395.118721 L331.264908,395.118721 C329.755959,395.254126 328.635755,396.536787 328.744574,398.004566 C328.665985,398.725137 328.888588,399.446181 329.362436,400.005919 C329.836284,400.565657 330.521703,400.917222 331.264908,400.981735 L332.017247,400.981735 L332.017247,405.018265 L329.797848,405.018265 C328.981793,405.092255 328.229613,405.478591 327.707349,406.091991 C327.185085,406.705392 326.935682,407.495417 327.014195,408.287671 L327.014195,461.767123 C326.883052,463.400339 328.119374,464.836176 329.797848,465 L343.189476,465 C344.870475,464.836157 346.112335,463.403566 345.991938,461.767123 L345.991938,408.287671 C346.101194,406.661709 344.859829,405.245871 343.189476,405.091324 Z" id="Path" fill="#DEDED7" mask="url(#mask-4)"></path>
                                <path d="M347.071833,401.000054 L382.946452,401.000054 C384.63288,401.000054 386,402.338673 386,403.989944 L386,460.010109 C386,461.66138 384.63288,463 382.946452,463 L347.071833,463 C345.375306,463 344,461.653365 344,459.992206 L344,403.989944 C343.999985,403.193864 344.324206,402.430648 344.900818,401.869417 C345.477431,401.308186 346.258818,400.995287 347.071833,401.000054 Z" id="Path" fill="#F9F9FA" mask="url(#mask-4)"></path>
                                <path d="M353.998591,415.000076 L375.036393,415.000076 C376.12082,415.000076 376.999922,415.852858 376.999922,416.904819 L376.999922,428.061168 C377.004646,428.57675 376.795599,429.072547 376.419761,429.437133 C376.043923,429.801718 375.532824,430.004507 375.00133,429.999924 L353.963528,429.999924 C352.879102,429.999924 352,429.147142 352,428.095181 L352,416.904819 C352.004629,416.395133 352.2178,415.908108 352.592613,415.550896 C352.967426,415.193683 353.473175,414.995546 353.998591,415.000076 Z" id="Path" fill="#F5F6F5" mask="url(#mask-4)"></path>
                                <rect fill="#F5F6F5" mask="url(#mask-4)" x="352" y="435" width="25" height="5" rx="0.95"></rect>
                                <rect fill="#F5F6F5" mask="url(#mask-4)" x="352" y="444" width="25" height="5" rx="0.95"></rect>
                                <rect fill="#EAEAE6" mask="url(#mask-4)" x="314" y="425" width="25" height="38" rx="1.03"></rect>
                                <rect fill="#C1DBF2" mask="url(#mask-4)" x="282" y="425" width="25" height="38" rx="1.03"></rect>
                                <rect fill="#EAEAE6" mask="url(#mask-4)" x="395" y="612" width="27" height="22" rx="1.47"></rect>
                                <rect fill="#EAEAE6" mask="url(#mask-4)" x="427" y="577" width="66" height="56" rx="2.2"></rect>
                                <rect fill="#E1E1D9" mask="url(#mask-4)" x="456" y="596" width="44" height="37" rx="1.5"></rect>
                                <rect fill="#B8D3EE" mask="url(#mask-4)" x="484" y="544" width="40" height="89" rx="1.59"></rect>
                                <rect fill="#EAEAE6" mask="url(#mask-4)" x="293" y="547" width="81" height="86" rx="3.21"></rect>
                                <rect fill="#F9F9FA" mask="url(#mask-4)" x="285" y="598" width="24" height="36" rx="0.95"></rect>
                                <rect fill="#EAEAE6" mask="url(#mask-4)" x="615" y="612" width="27" height="22" rx="1.47"></rect>
                                <rect fill="#EAEAE6" mask="url(#mask-4)" x="545" y="577" width="66" height="56" rx="2.2"></rect>
                                <rect fill="#E1E1D9" mask="url(#mask-4)" x="536" y="596" width="44" height="37" rx="1.5"></rect>
                                <rect fill="#F0F1EE" mask="url(#mask-4)" x="575" y="607" width="14" height="27" rx="0.61"></rect>
                                <rect fill="#4F3F55" mask="url(#mask-4)" x="244" y="431" width="96" height="61" rx="6.49"></rect>
                                <rect fill="#331C38" mask="url(#mask-4)" x="309" y="426" width="19" height="13" rx="1.6"></rect>
                                <rect fill="#4F3F55" mask="url(#mask-4)" x="312" y="426" width="15" height="13" rx="1.6"></rect>
                                <path d="M323.725664,434.003649 C323.087848,434.003649 322.570796,434.448697 322.570796,434.997692 L322.570796,439.607999 L318.329646,439.607999 L318.329646,434.997692 C318.31878,434.445936 317.795983,434.003569 317.154867,434.003649 C316.517052,434.003649 316,434.448697 316,434.997692 L316,447.286131 C316,448.232675 316.891468,449 317.99115,449 L323.00885,449 C324.108532,449 325,448.232675 325,447.286131 L325,434.997692 C324.995648,434.71697 324.8559,434.45044 324.614213,434.261913 C324.372525,434.073385 324.050657,433.979831 323.725664,434.003649 Z" id="Path" fill="#3F2C44" mask="url(#mask-4)"></path>
                                <path d="M330.878372,454 L253.121628,454 C252.558937,454 252.019293,454.210714 251.62141,454.585786 C251.223528,454.960859 251,455.469567 251,456 C251,456.530433 251.223528,457.039141 251.62141,457.414214 C252.019293,457.789286 252.558937,458 253.121628,458 L330.878372,458 C332.046009,457.990711 332.990146,457.100699 333,456 C333,454.895431 332.050115,454 330.878372,454 Z" id="Path" fill="#331C38" mask="url(#mask-4)"></path>
                                <path d="M330.878372,462 L253.121628,462 C252.558937,462 252.019293,462.210714 251.62141,462.585786 C251.223528,462.960859 251,463.469567 251,464 C251,464.530433 251.223528,465.039141 251.62141,465.414214 C252.019293,465.789286 252.558937,466 253.121628,466 L330.878372,466 C332.046009,465.990711 332.990146,465.100699 333,464 C333,462.895431 332.050115,462 330.878372,462 Z" id="Path" fill="#331C38" mask="url(#mask-4)"></path>
                                <rect fill="#331C38" mask="url(#mask-4)" x="251" y="472" width="82" height="4" rx="1.17"></rect>
                                <rect fill="#331C38" mask="url(#mask-4)" x="251" y="480" width="82" height="4" rx="1.17"></rect>
                                <rect fill="#331C38" mask="url(#mask-4)" x="238" y="492" width="125" height="81" rx="8.41"></rect>
                                <path d="M207.372686,492 L292.494823,492 C301.039573,492.009986 307.969634,498.865824 308,507.339113 L308,557.660887 C307.969732,566.119982 301.061996,572.969985 292.531608,573 L217.709471,573 C209.334188,555.42453 204.9935,536.225989 205.000007,516.786985 C205.003633,508.469076 205.798041,500.17003 207.372686,492 Z" id="Path" fill="#4F3F55" mask="url(#mask-4)"></path>
                                <path d="M439.03841,535.565474 C443.139916,550.126645 446.135757,564.981014 448,580 L317.087636,580 C316.612123,562.996241 318.020372,549.474291 322.574323,543.394941 C341.814307,518.009047 425.339981,519.888119 439.03841,535.565474 Z" id="Path" fill="#05304B" mask="url(#mask-4)"></path>
                                <path d="M424.498021,477.799126 C424.214631,486.011877 424.486601,494.234559 425.312041,502.410006 C416.683437,498.578809 406.987564,505.164819 407.34935,512.425849 C407.837761,521.912623 406.698135,528.115513 418.691351,546.414039 C424.317128,554.988623 429.29169,557.542754 433,557.834655 C427.338044,562.194922 420.862069,566.062607 415.941775,566.956552 C415.941775,566.956552 414.983041,567.412647 413.590164,565.369342 C412.197287,563.326037 406.716224,541.41524 402.989825,536.17927 C401.79593,534.519085 402.754664,519.595661 404.599774,500.020069 C385.226116,506.387153 353.316563,505.091844 338.808932,500.020069 C337.965236,498.799739 337.351997,497.432908 337,495.98819 C337.542679,494.893562 347.85359,479.568775 360.045789,462 C370.772753,479.076192 380.052572,493.251621 380.052572,493.251621 L424.498021,477.799126 Z" id="Path" fill="#004268" mask="url(#mask-4)"></path>
                                <path d="M335.518044,488.023272 C335.929347,486.563633 336.252051,485.080549 336.484398,483.582106 C336.735434,481.742681 336.845152,479.886781 336.812593,478.030648 C338.378756,461.039344 335.75592,443.923577 329.172932,428.176735 C317.394361,398.581093 300,349.746464 300,349.710061 C300.729323,348.9638 301.458647,348.253941 302.206203,347.580485 C304.183762,345.493177 306.517478,343.773655 309.098308,342.502266 C314.409698,339.502207 320.223427,337.491587 326.255639,336.568577 L326.365037,336.568577 L326.638533,336.568577 C339.69342,334.311591 355.702067,334.748427 376.870675,332 C378.165224,332 378.985713,332.200217 380.189096,332.218418 C395.194923,332.418635 436.711652,384.019892 430.07481,410.484875 C427.685109,421.650581 426.137039,432.979374 425.443607,444.376071 C424.149058,464.288514 423.292103,499.180793 425.589471,504.076997 C427.88684,508.973201 453.467854,557.826031 454.762403,561.156906 C460.633456,575.718107 356.066728,581.287767 321.825,551.546513 C323.359468,539.046614 325.796895,526.673766 329.118233,514.524659 C331.794019,505.83027 333.931329,496.97975 335.518044,488.023272 Z" id="Path" fill="#FFFFFF" mask="url(#mask-4)"></path>
                                <path d="M335.943931,489.446604 C336.348585,487.98013 336.666073,486.490102 336.894664,484.984642 C337.141642,483.136604 337.249587,481.272014 337.217555,479.40719 C338.758402,462.336324 336.177961,445.140414 329.701381,429.319837 C318.113198,399.585615 301,350.522319 301,350.485746 C301.717535,349.73599 302.435069,349.022807 303.170542,348.346198 C305.116135,346.249116 307.412129,344.521543 309.951243,343.244201 C315.176779,340.230093 320.896536,338.210059 326.831243,337.282727 L326.956811,337.282727 L327.207948,337.282727 C330.400977,336.715838 334.383293,334.41171 337.970966,334.082549 C343.047523,333.625381 347.944696,335.234613 353.971986,334.832305 C353.971986,334.832305 319.637959,361.457783 354.779212,428.972389 C371.766842,461.614202 356.142528,482.47936 335.19052,494 C335.441657,492.427341 335.710732,490.927829 335.943931,489.446604 Z" id="Path" fill="#FDF1EF" mask="url(#mask-4)"></path>
                                <path d="M338.906135,290 L339.769095,301.424036 C339.769095,301.424036 340.521891,324.857957 340.632056,328.427969 C340.347201,330.45572 339.12323,332.232125 337.3271,333.224599 C335.050353,334.872297 345.552767,339.925236 341.384851,340.767393 C341.384851,340.767393 358.735867,340.767393 370.119603,340.529392 C377.280339,340.419546 381.136121,347.339875 379.703973,332.071211 C379.703973,332.071211 379.538725,332.071211 379.446921,331.979672 C376.894761,330.899515 378.051496,331.979672 375.774748,330.148897 C375.462614,329.874281 375.113757,329.544742 374.74654,329.178587 C370.688789,325.022727 370.248129,305.982666 374.030466,300.874804 C377.812804,295.766941 338.906135,290 338.906135,290 Z" id="Path" fill="#E8685B" mask="url(#mask-4)"></path>
                                <path d="M473.032116,375.645995 L482.856366,374 C482.856366,374 490.133588,386.136951 477.871469,409 C477.871469,409 472.668255,401.764858 472.122463,397.677003 C471.576671,393.589147 473.032116,375.645995 473.032116,375.645995 Z" id="Path" fill="#F8CFBE" mask="url(#mask-4)"></path>
                                <path d="M395.470156,337.598073 C422.860376,348.338099 459.326752,366.988008 486.98656,379.75993 C494.76869,383.388317 501.634217,386.472446 503.161887,379.995776 C506.648569,365.482227 508.895142,334.931209 509.901607,315.700757 C510.153223,310.856861 504.85131,305.813403 503.521339,303.001403 C502.820408,301.550048 512.507632,297.812809 513.873548,298.175648 C518.95979,299.500009 525.591674,294.746822 528,298.429635 C526.814965,303.49262 526.259527,308.684929 526.346522,313.886564 C526.795837,329.97846 529.473752,357.790047 521.565814,400.042614 C521.440006,400.369169 523.075512,394.309762 521.242308,401.04042 C519.822474,406.301582 513.388288,411.181762 507.762869,411.925582 C497.302824,413.41322 433.59001,392.169014 422.447007,386.526872 C416.418713,383.468286 410.605856,379.994988 405.049544,376.131543 C409.344992,365.445944 391.965502,347.50357 395.470156,337.598073 Z" id="Path" fill="#F4AD85" mask="url(#mask-4)"></path>
                                <path d="M526.764638,298.084875 C528.882319,298.084875 530.056831,297.576895 531,299.046411 C529.63308,303.868435 528.961676,308.867572 529.006889,313.88671 C529.45178,329.978819 532.10333,357.790773 524.273249,400.043897 C524.14868,400.370457 525.768083,394.31097 523.952928,401.041717 C522.547072,406.302948 516.176234,411.183193 510.6062,411.927022 C505.623421,412.634567 488.468427,408.099023 470.779564,402.583802 C469.658439,394.383539 469,388.850176 469,388.850176 L479.677382,380.323354 C479.677382,380.323354 485.016073,395.762344 489.3938,399.499632 C493.771527,403.23692 509.609644,405.305128 514.307692,403.309489 C519.005741,401.31385 524.985075,356.230545 524.735936,336.636997 C524.486797,317.043448 523.063146,310.729971 521.390356,306.992683 C520.180253,304.54349 523.650402,302.438997 526.764638,298.084875 Z" id="Path" fill="#EF8871" mask="url(#mask-4)"></path>
                                <path d="M393,338.55886 L396.176517,337 C396.176517,337 432.273304,349.654275 484,375.513011 C481.07616,378.997522 473.351448,399.519455 479.05474,411 L442.380405,406.781908 L393,338.55886 Z" id="Path" fill="#FFFFFF" mask="url(#mask-4)"></path>
                                <path d="M391,338.530172 L394.170835,337 L394.603222,337 L394.729334,337 L394.855447,337 L395.017592,337 L395.179737,337 L395.359898,337 L395.558075,337 L395.72022,337 L395.95443,337 L396.098559,337 L396.206655,337 L396.458881,337.108012 L396.566978,337.108012 L396.729123,337.108012 L397.01738,337.216024 L397.25159,337.306034 L397.57588,337.414047 L397.882153,337.522059 L398.206443,337.648073 L398.566766,337.792089 L398.855023,337.900101 L399.233362,338.044118 L399.485587,338.134128 L399.629716,338.134128 L400.044086,338.296146 L400.242264,338.296146 L400.476473,338.386156 L400.90886,338.548174 L401.052989,338.548174 L401.359262,338.656187 L401.827681,338.836207 L402.224036,338.980223 L402.728487,339.160243 L403.232938,339.340264 L403.665324,339.502282 L404.187791,339.700304 L404.548114,339.84432 L404.728275,339.84432 L405.286774,340.060345 L405.575032,340.168357 L405.845273,340.276369 L406.944256,340.690416 L407.538788,340.924442 L407.6649,340.924442 L408.169351,341.122465 L408.781899,341.356491 L409.394447,341.590517 L409.970962,341.824544 L410.637558,342.076572 L411.123993,342.274594 L411.32217,342.274594 L412.006783,342.544625 L412.403137,342.706643 L412.709411,342.832657 L413.430055,343.12069 L413.718313,343.228702 L414.150699,343.408722 L414.88936,343.696755 L415.429843,343.912779 L415.62802,343.912779 L416.384697,344.218813 L417.087325,344.488844 L417.825986,344.794878 L418.618694,345.118915 L419.231242,345.370943 L419.411403,345.370943 L420.240144,345.712982 L420.744595,345.911004 L421.050869,346.05502 L421.897626,346.397059 C425.261759,356.57161 430.498144,366.028811 437.337431,374.282201 C450.939593,390.484026 467.280203,387.927738 476,384.885396 C473.910131,392.320233 472.811149,401.591278 476,408 L414.294828,400.799189 L391,338.530172 Z" id="Path" fill="#FDF1EF" mask="url(#mask-4)"></path>
                                <path d="M383.918218,333.127601 C420.415204,369.603079 370.664917,388.935082 347.256252,359.718224 C332.591466,341.480486 326.047305,337.41347 326.047305,337.41347 C325.603605,337.092745 325.044335,336.973511 324.507503,337.085191 C323.51763,337.231093 315.232026,340.149131 314.333808,340.47741 C313.435589,340.805689 313.343934,341.334584 313.343934,341.334584 C313.343934,341.334584 358.951419,376.533419 324.342524,419.556245 C324.342524,419.556245 352.370597,455.648729 324.800799,514.903142 C324.800799,514.903142 302.803619,561.70118 314.352139,572.516159 C325.900658,583.331138 461,565.512867 461,565.512867 C461,565.512867 439.55275,525.098038 434.603385,515.121995 C429.65402,505.145952 425.676196,494.969294 427.270992,468.816377 C428.865787,442.66346 434.053455,413.209512 432.953596,396.631407 C431.853738,380.053303 398.271377,340.295033 396.584927,337.541134 C394.898476,334.787236 385.586337,332.41633 383.918218,333.127601 Z" id="Path" fill="#27D8DB" mask="url(#mask-4)"></path>
                                <path d="M337.003077,389 C335.017523,403.83368 328.605458,414.840489 324.251812,419.46918 C324.251812,419.46918 352.104218,455.53288 324.707214,514.740037 C324.707214,514.740037 305.616749,554.284368 310.935848,570.44834 C316.254947,586.612313 327.858598,567.787754 336.238001,567.714861 C337.403831,518.29356 344.690268,421.072821 428.630023,446.676408 C429.886933,434.794886 431.289572,423.168488 432,413.163955 C400.303999,425.446388 341.666397,437.856383 337.003077,389 Z" id="Path" fill="#00B0B3" mask="url(#mask-4)"></path>
                                <path d="M300.053186,352.25631 C295.803924,359.691777 257.325503,467.068663 261.285453,488.609647 C265.245404,510.150632 295.152974,549.22328 310.6673,559.775082 C310.6673,559.775082 312.475496,560.850309 313.379594,558.298923 C314.283693,555.747537 317.84584,556.276039 321.444151,554.143809 C305.170382,525.732308 296.852678,515.98237 286.762942,484.582103 C281.229861,467.396698 317.502282,421.489981 323.776724,410.59192 C338.857083,384.677132 309.419644,335.982115 300.053186,352.25631 Z" id="Path" fill="#F4AD85" mask="url(#mask-4)"></path>
                                <path d="M341.9967,562 C342.14909,555.694485 337.004021,550.456644 330.488449,550.284242 L319.107261,550.003204 C312.597922,549.855627 307.187955,554.823802 307,561.121757 C307,561.42036 307,561.701397 307,562 L341.9967,562 Z" id="Path" fill="#F4AD85" mask="url(#mask-4)"></path>
                                <path d="M277.046274,204.949455 C266.909754,207.762939 259.467626,216.40752 258.192438,226.849576 C256.917249,237.291632 262.060332,247.473093 271.221889,252.643219 C280.383447,257.813345 291.757786,256.953133 300.037563,250.463964 C308.31734,243.974795 311.870656,233.135648 309.03951,223.004143 C305.171449,209.19884 290.863739,201.124595 277.046274,204.949455 Z" id="Path" fill="#3F2C44" mask="url(#mask-4)"></path>
                                <path d="M317.718516,194.014535 C317.718516,194.014535 297.905297,185.400672 287.204333,205.749098 C278.785998,221.918341 272.851163,243.92749 280.612101,269.623081 C281.762546,273.273023 296.115716,315.247355 333.916051,310.648428 C373.3964,305.848755 391.602648,272.944528 391.602648,272.944528 C432.416053,243.106253 363.206745,146.255045 317.718516,194.014535 Z" id="Path" fill="#70483C" mask="url(#mask-4)"></path>
                                <path d="M281.933665,224.162251 C277.829524,239.040631 278.035503,254.802705 282.526996,269.565555 C283.443962,272.483036 297.504108,315.297076 335.045776,310.64734 C330.424987,286.012856 326.217731,268.143283 326.217731,268.143283 L365,245.313991 L363.615561,212 C311.312538,281.818977 281.951645,224.253422 281.933665,224.162251 Z" id="Path" fill="#482E26" mask="url(#mask-4)"></path>
                                <path d="M391,274.383044 C380.801718,256.336762 323.850746,272.545337 323.850746,272.545337 L312.058417,264 C312.058417,264 291.064086,269.182334 298.653926,297.483021 C306.986447,305.991604 318.778776,312.644103 334.88228,310.641003 C368.556535,306.432654 386.634483,281.274445 391,274.383044 Z" id="Path" fill="#3B241C" mask="url(#mask-4)"></path>
                                <path d="M305.394628,267.109269 C300.577528,267.759605 296.628624,271.251736 295.394064,275.953061 C294.159504,280.654386 295.883196,285.636077 299.7593,288.56915 C303.635403,291.502222 308.898126,291.807198 313.0871,289.341497 C317.276074,286.875797 319.563695,282.126562 318.88048,277.314102 C317.953488,270.784514 311.930511,266.226887 305.394628,267.109269 Z" id="Path" fill="#E8685B" mask="url(#mask-4)"></path>
                                <path d="M340.806979,200.384803 C318.710639,203.608519 303.330948,224.330341 306.386866,246.760732 L311.510607,283.684011 C314.680628,306.080053 335.077665,321.681919 357.177956,318.615352 C379.273572,315.400337 394.660562,294.687519 391.615922,272.257533 L386.492181,235.316145 C383.313287,212.917484 362.911057,197.317745 340.806979,200.384803 Z" id="Path" fill="#F4AD85" mask="url(#mask-4)"></path>
                                <path d="M306.936775,228.720788 C305.055276,234.566387 304.535737,240.75733 305.417086,246.829734 L310.671915,283.771983 C313.968021,306.131875 334.872878,321.683228 357.507643,318.613594 C358.83805,318.434086 360.158118,318.186263 361.462497,317.871127 C316.585887,316.730264 307.266347,265.988998 325.740642,261.208236 C348.572602,255.286611 367.028588,234.207798 367.028588,234.207798 C371.477799,240.147533 381.877601,243.389034 389,244.964512 L387.626787,235.312444 C384.735663,215.492276 367.858716,200.595459 347.620507,200 C341.029083,201.702241 335.18835,203.748552 332.203899,204.165058 C324.367429,205.251594 314.516913,219.430899 308.401536,227.090983 C307.943051,227.659724 307.454097,228.203772 306.936775,228.720788 Z" id="Path" fill="#EF8871" mask="url(#mask-4)"></path>
                                <path d="M350.007342,292.214325 C350.070454,296.060089 352.585957,299.527279 356.464613,301.114565 C360.343269,302.701852 364.887836,302.123898 368.13047,299.630965 C371.373104,297.138031 372.730898,293.178256 371.615913,289.466263 C371.55807,289.012122 371.294894,288.599799 370.888764,288.327024 C370.482635,288.054249 369.969705,287.945305 369.471551,288.026014 L351.620196,290.310547 C351.121199,290.363185 350.668,290.598531 350.366567,290.961555 C350.065134,291.324579 349.941897,291.783452 350.02567,292.230879 L350.007342,292.214325 Z" id="Path" fill="#FFFFFF" mask="url(#mask-4)"></path>
                                <path d="M383.154925,275.059847 C379.875797,275.526439 377.595195,278.562324 378.060164,281.841877 C378.525132,285.12143 381.559723,287.403647 384.839304,286.940245 C388.118884,286.476844 390.402438,283.44318 389.94066,280.163176 C389.718619,278.586018 388.87861,277.161878 387.605753,276.204604 C386.332896,275.24733 384.731661,274.835491 383.154925,275.059847 Z" id="Path" fill="#E8685B" mask="url(#mask-4)"></path>
                                <path d="M331.16226,281.061898 C328.752722,281.40161 326.787052,283.162736 326.186122,285.520229 C325.585192,287.877722 326.468031,290.36462 328.421049,291.81587 C330.374068,293.267119 333.01042,293.395262 335.095037,292.140267 C337.179653,290.885272 338.299622,288.495723 337.930264,286.091068 C337.440882,282.83948 334.417548,280.592901 331.16226,281.061898 Z" id="Path" fill="#E8685B" mask="url(#mask-4)"></path>
                                <path d="M302,267.626536 L310.552127,263 C310.552127,263 316.989821,272.425061 308.985181,277 L308.230027,272.184275 C308.185385,270.78406 307.468981,269.472111 306.270072,268.595018 C305.071163,267.717924 303.510362,267.363924 302,267.626536 Z" id="Path" fill="#331C38" mask="url(#mask-4)"></path>
                                <path d="M364.283989,211.623293 C364.283989,211.623293 364.283989,242.979644 305.694196,267 L300,222.49008 L328.031554,196.182943 L358.974289,196 C358.974289,196 376.606155,210.83664 378.455395,212.922185 C380.304636,215.00773 394,236.046122 394,236.046122 L388.653681,241.772224 C388.653681,241.772224 374.738605,237.710899 364.283989,211.623293 Z" id="Path" fill="#573C33" mask="url(#mask-4)"></path>
                                <path d="M364,212 C364,212 364,243.709283 305.922047,268 L303,244.708292 C316.956858,250.480344 337.592681,247.409316 364,212 Z" id="Path" fill="#482E26" mask="url(#mask-4)"></path>
                                <path d="M283.351304,214.646281 L283.351304,214.754353 C282.876522,215.94314 282.438261,217.149939 282,218.356739 C316.805217,250.97634 350.25913,224.174591 366,186.133399 C360.616338,183.25022 354.683945,181.502124 348.57913,181 C341.512174,219.131251 305.72087,237.035108 283.351304,214.646281 Z" id="Path" fill="#875748" mask="url(#mask-4)"></path>
                                <path d="M340.11552,273.975545 C340.22601,274.832343 340.958147,275.430096 341.750793,275.310664 C342.543439,275.191231 343.096435,274.39984 342.985945,273.543041 C342.447907,269.388868 338.896266,266.492712 335.053135,267.074297 C331.210003,267.655881 328.530695,271.494971 329.068734,275.649144 C329.120482,276.061252 329.322249,276.433992 329.629261,276.684652 C329.936272,276.935312 330.323137,277.04316 330.704006,276.984263 C331.492995,276.858134 332.042689,276.071468 331.939158,275.216641 C331.734058,273.651301 332.317108,272.086591 333.46868,271.111923 C334.620252,270.137255 336.165395,269.900703 337.522068,270.491375 C338.878741,271.082047 339.840833,272.410205 340.045934,273.975545 L340.11552,273.975545 Z" id="Path" fill="#331C38" mask="url(#mask-4)"></path>
                                <path d="M381.107574,267.851991 C381.156026,268.412447 381.481595,268.901286 381.959358,269.130932 C382.43712,269.360579 382.992871,269.295366 383.413361,268.960317 C383.833852,268.625268 384.053774,268.072421 383.988739,267.51391 C383.733585,265.530669 382.753035,263.739012 381.264729,262.536606 C379.781496,261.321235 377.908056,260.794224 376.06156,261.07292 C374.215065,261.351616 372.548819,262.412881 371.433843,264.020406 C370.294213,265.625385 369.803305,267.656298 370.071837,269.65509 C370.197475,270.501459 370.922009,271.090104 371.713229,270.988632 C372.095906,270.932761 372.442028,270.714922 372.674787,270.383455 C372.907547,270.051987 373.007693,269.634306 372.953003,269.223098 C372.808712,268.059313 373.09046,266.880755 373.738775,265.936198 C375.115333,264.002729 377.677444,263.610223 379.501106,265.053431 C380.345171,265.735357 380.918884,266.734799 381.107574,267.851991 Z" id="Path" fill="#331C38" mask="url(#mask-4)"></path>
                            </g>
                            <path d="M317.024614,400.399913 L304.215393,402.20047 C303.528949,402.296962 302.842333,402.02578 302.414185,401.489077 C301.986038,400.952373 301.881405,400.231687 302.139702,399.598492 C302.397998,398.965297 302.979983,398.515792 303.666427,398.4193 L316.475647,396.618743 L316.274359,395.142286 C315.916546,393.739697 316.229666,392.25311 317.124528,391.105981 C318.019389,389.958853 319.397897,389.276932 320.86738,389.254464 L344.655932,385.959444 C346.095858,385.58898 347.628927,385.889677 348.814432,386.775095 C349.999938,387.660513 350.706558,389.032571 350.731162,390.496848 L350.840956,391.307099 L350.987347,392.315411 L360.905343,390.946988 L360.758952,389.92067 L360.649159,389.128425 C360.247053,387.712566 360.533356,386.193305 361.424624,385.013429 C362.315892,383.833554 363.711826,383.125843 365.205581,383.096558 L386.413991,380.16165 C387.834384,379.786845 389.350982,380.07162 390.531288,380.934765 C391.711593,381.79791 392.426054,383.144685 392.470922,384.591021 L394.904674,401.624292 C395.801319,407.782197 390.110366,409.11461 388.811145,409.330676 L388.609857,409.330676 L376.313005,411.041206 C366.083928,412.44564 362.954818,402.848671 361.490907,394.674141 L351.481417,396.078576 C352.378062,404.325127 352.048682,414.390242 341.819605,415.884705 L338.159827,416.406866 L327.015806,417.955345 L326.814518,417.955345 C325.496998,418.081384 319.659653,418.351468 318.781307,412.193562 L317.097809,400.417918 L317.024614,400.399913 Z M326.393644,414.138164 L341.288937,412.067523 C349.77962,410.897161 348.041226,398.923456 347.016488,391.829261 L346.906695,391.01901 C346.897804,390.923179 346.897804,390.826751 346.906695,390.730921 C346.906695,390.730921 346.906695,389.506542 345.223197,389.740614 L321.434645,393.035634 C320.025631,393.21569 320.062229,394.115968 320.098827,394.368046 L320.098827,394.620124 L320.574598,397.969161 L322.532579,411.653395 C322.655605,412.475183 323.118637,413.210285 323.811846,413.684344 C324.505056,414.158402 325.366682,414.329179 326.192356,414.15617 L326.393644,414.138164 Z M388.22558,405.567512 C389.072146,405.515033 389.858458,405.118684 390.396354,404.473311 C390.93425,403.827939 391.175331,402.991612 391.061908,402.164459 L388.628156,385.131188 C388.628156,385.04116 388.628156,384.969138 388.628156,384.87911 C388.628156,384.789082 388.371971,383.744759 386.962957,383.94282 L365.754548,386.877728 C364.125947,387.111801 364.437028,388.300169 364.437028,388.300169 L364.437028,388.588258 L364.546821,389.398509 C365.534961,396.492704 367.236758,408.466409 375.727441,407.296047 L388.024293,405.49549 L388.22558,405.567512 Z" id="Shape" fill="#331C38"></path>
                            <rect id="Rectangle" fill="#331C38" x="468" y="589" width="7" height="27"></rect>
                            <rect id="Rectangle" fill="#331C38" x="447" y="574" width="50" height="22" rx="2.23"></rect>
                            <rect id="Rectangle" fill="#FFFFFF" x="450" y="577" width="44" height="14" rx="0.56"></rect>
                            <rect id="Rectangle" fill="#4F3F55" x="416" y="612" width="69" height="86" rx="4.85"></rect>
                            <path d="M394,654.916836 L394,698.915429 C394.019896,705.029121 399.039184,709.980373 405.236884,710 L496.763116,710 C502.960816,709.980373 507.980104,705.029121 508,698.915429 L508,654.916836 C507.990016,652.198614 505.753365,650.000274 502.997774,650.000292 L399.056598,650.000292 C397.723665,649.985991 396.440079,650.497091 395.490716,651.420158 C394.541354,652.343225 394.004751,653.601901 394,654.916836 Z" id="Path" fill="#3F2C44"></path>
                            <path d="M405,643.934446 L405,687.915375 C405.020037,694.029096 410.074737,698.980373 416.316163,699 L483.683837,699 C489.925263,698.980373 494.979963,694.029096 495,687.915375 L495,643.934446 C494.989989,641.213299 492.740469,639.009806 489.962482,639 L410.019266,639 C407.244252,639.009849 404.999982,641.216193 405,643.934446 Z" id="Path" fill="#3F2C44"></path>
                            <path d="M497,682 L497,643.034826 C496.989911,640.258323 494.722747,638.010006 491.922971,638 L417,638 L417,670.689884 C417.019955,676.906761 422.080917,681.950056 428.349736,682 L496.944815,682 L497,682 Z" id="Path" fill="#4F3F55"></path>
                            <path d="M427.304567,612 L427.304567,621.895676 C427.324707,626.847949 431.29431,630.854643 436.190653,630.864791 L485,630.864791 L485,639 L416,639 L416,620.987646 C416.020079,616.032343 419.986777,612.020309 424.886086,612 L427.304567,612 Z" id="Path" fill="#3F2C44"></path>
                            <path d="M499.375698,650 L499.375698,680.848972 C499.37568,683.566415 501.608214,685.772102 504.368715,685.781948 L508,685.781948 L508,690 L495,690 C495.407019,688.850732 495.615677,687.642487 495.617318,686.42538 L495.617318,650 L499.375698,650 Z" id="Path" fill="#331C38"></path>
                            <path d="M402.678822,650 L402.678822,680.848972 C402.668821,683.569309 400.42165,685.772145 397.646564,685.781948 L394,685.781948 L394,690 L407,690 C406.597469,688.849693 406.394101,687.641475 406.398317,686.42538 L406.398317,650 L402.678822,650 Z" id="Path" fill="#331C38"></path>
                            <path d="M490.612131,643.001009 L452.314396,643.001009 C451.03619,643.001009 450,643.896214 450,645.000505 C450.009993,646.1012 451.040352,646.991367 452.314396,647 L490.685604,647 C491.959647,646.991367 492.990007,646.1012 493,645.000505 C493.000316,644.459022 492.746418,643.940581 492.296362,643.563724 C491.846305,643.186866 491.238576,642.983819 490.612131,643.001009 Z" id="Path" fill="#3F2C44"></path>
                            <path d="M442.409836,643 L444.590164,643 C445.92108,643 447,643.895431 447,645 C446.989595,646.100973 445.916746,646.991365 444.590164,647 L442.409836,647 C441.083254,646.991365 440.010405,646.100973 440,645 C440,643.895431 441.07892,643 442.409836,643 Z" id="Path" fill="#FFFFFF"></path>
                            <rect id="Rectangle" fill="#FFFFFF" x="470" y="655" width="20" height="22" rx="1.46"></rect>
                            <path d="M464.86117,654 L424.13883,654 C423.509871,654 423,654.671573 423,655.5 C423,655.897825 423.119983,656.279356 423.333555,656.56066 C423.547127,656.841965 423.836793,657 424.13883,657 L464.86117,657 C465.490129,657 466,656.328427 466,655.5 C466,655.102175 465.880017,654.720644 465.666445,654.43934 C465.452873,654.158035 465.163207,654 464.86117,654 Z" id="Path" fill="#3F2C44"></path>
                            <path d="M464.86117,660 L424.13883,660 C423.509871,660 423,660.671573 423,661.5 C423,661.897825 423.119983,662.279356 423.333555,662.56066 C423.547127,662.841965 423.836793,663 424.13883,663 L464.86117,663 C465.490129,663 466,662.328427 466,661.5 C466,661.102175 465.880017,660.720644 465.666445,660.43934 C465.452873,660.158035 465.163207,660 464.86117,660 Z" id="Path" fill="#3F2C44"></path>
                            <path d="M464.86117,667.0002 L424.13883,667.0002 C423.838495,666.993662 423.54876,667.147511 423.334643,667.427222 C423.120526,667.706932 422.99996,668.08908 423,668.487906 C423,668.888938 423.119983,669.273545 423.333555,669.557118 C423.547127,669.840691 423.836793,670 424.13883,670 L464.86117,670 C465.490129,670 466,669.323012 466,668.487906 C466.00004,668.08908 465.879474,667.706932 465.665357,667.427222 C465.45124,667.147511 465.161505,666.993662 464.86117,667.0002 Z" id="Path" fill="#3F2C44"></path>
                            <rect id="Rectangle" fill="#3F2C44" x="423" y="673" width="43" height="3" rx="0.62"></rect>
                            <path d="M723.090107,721 L231,721 C255.840125,756.10994 295.639957,776.932225 338.038711,777 L723.090107,777 C727.450328,776.979609 730.980044,773.372879 731,768.917526 L731,729.101097 C730.990029,724.638473 727.457409,721.020459 723.090107,721 Z" id="Path" fill="#5FA41E"></path>
                            <path d="M615,777 L598.011602,777 L598.011602,737 L615,737 L615,777 Z M338.61886,777 C332.052226,776.995413 325.494858,776.514927 319,775.562444 L319,737 L340.75611,737 L340.75611,777 L338.61886,777 Z M475.622069,777 L351.625031,777 L351.625031,737 L475.622069,737 L475.622069,777 Z M531.994322,777 L510.238213,777 L510.238213,737 L531.994322,737 L531.994322,777 Z M567.59689,777 L554.809923,777 L554.809923,737 L567.59689,737 L567.59689,777 Z" id="Shape" fill="#91D351"></path>
                            <path d="M723.090107,723 L231,723 C237.647232,731.919943 245.42444,739.983941 254.146461,747 L731,747 L731,730.733333 C730.990029,726.473298 727.457409,723.01953 723.090107,723 Z" id="Path" fill="#331C38"></path>
                            <path d="M804.124131,691 L213,691 C219.596629,708.608126 229.787181,724.620859 242.910943,738 L804.124131,738 C807.920358,737.9798 810.990036,734.874282 811,731.043853 L811,697.90094 C810.97002,694.087906 807.903263,691.009968 804.124131,691 Z" id="Path" fill="#A48378"></path>
                            <path d="M394.021407,691 L376,691 L376,738 L394.021407,738 L394.021407,691 Z M765,691 L734.496627,691 L734.496627,738 L765,738 L765,691 Z M719.244941,691 L476.657485,691 L476.657485,738 L719.244941,738 L719.244941,691 Z M456.394791,691 L425.90964,691 L425.90964,738 L456.340126,738 L456.394791,691 Z" id="Shape" fill="#70483C"></path>
                            <path d="M718.5,758 C716.014719,758 714,760.014719 714,762.5 C714,764.985281 716.014719,767 718.5,767 C720.985281,767 723,764.985281 723,762.5 C723,760.014719 720.985281,758 718.5,758 Z" id="Path" fill="#331C38"></path>
                            <path d="M220.218406,704.496711 L348.478405,704.496711 L363.026541,712.837171 C363.215041,712.943671 363.42806,712.99977 363.644836,713 L811,713 L811,710.557566 L363.917614,710.557566 L349.496775,702.235197 C349.292169,702.082528 349.04331,702 348.787553,702 L219,702 C219.400074,702.868421 219.800147,703.682566 220.218406,704.496711 Z" id="Path" fill="#FFFFFF"></path>
                            <path d="M555.161353,483.124 C555.161353,483.124 547.578292,486.770672 540.483877,505.241064 C533.389461,523.711456 511.328002,632.69224 512.015726,647.716528 C512.703449,662.740815 558.871443,748 558.871443,748 C558.871443,748 568.11952,732.683979 568.644362,725.354169 C569.169204,718.024359 562.690121,707.12081 562.690121,707.12081 C562.690121,707.12081 547.433508,655.319838 543.8863,635.427244 C540.339093,615.53465 568.517676,573.433825 568.517676,573.433825 L590,516.56398 C590,516.56398 570.852318,474.681955 555.161353,483.124 Z" id="Path" fill="#97B2BC"></path>
                            <path d="M542.45937,635 C538.763671,615.101533 567.608602,573.045065 567.608602,573.045065 L575,553.675036 C572.856495,539.388957 570.491247,528.273513 569.234709,531.589924 C566.887941,537.748974 545.545278,599.193692 542.385456,609.36159 C539.225633,619.529488 542.45937,635 542.45937,635 Z" id="Path" fill="#7D939D"></path>
                            <path d="M549.615729,728.816184 C554.729093,738.508492 558.281535,745 558.281535,745 C558.281535,745 567.449707,729.895105 567.970014,722.666334 C568.490321,715.437562 562.067219,704.684316 562.067219,704.684316 C562.067219,704.684316 548.359815,658.380619 544,637 C546.547711,650.180819 556.559139,702.166833 557.635637,706.446553 C558.712134,710.726274 557.169154,720.058941 549.615729,728.816184 Z" id="Path" fill="#7D939D"></path>
                            <path d="M704.762054,503.500607 L726.437493,488 C729.958661,492.635944 732.872469,497.705302 735.107669,503.084118 C741.36506,520.527005 746.055957,538.49531 749.124453,556.774888 C755.898027,597.482089 762.671602,653.472598 760.630498,671.798081 C758.589394,690.123565 711.86076,738.309446 706.441901,738.979449 C701.023041,739.649452 699,723.714249 699,723.714249 C699,723.714249 725.40791,684.365162 728.785666,668.755906 C732.163422,653.14665 705.087186,566.951688 705.087186,566.951688 L704.762054,503.500607 Z" id="Path" fill="#7D939D"></path>
                            <path d="M563.491213,716 C563.491213,716 556.690937,740.340299 556,776 L710.697183,776 C710.697183,776 715.461013,747.343284 706.769751,726.244776 L563.491213,716 Z" id="Path" stroke="#05304B" stroke-width="0.22" fill="#331C38" stroke-linecap="round" stroke-linejoin="round"></path>
                            <path d="M568.579591,675 C568.579591,675 562.663278,708.790697 561.454372,716.096304 C560.245466,723.401911 559.494479,732.574707 586.255261,741.747504 C613.016043,750.9203 678.077163,753.820789 700.038954,743.288389 C700.038954,743.288389 711.963163,738.230661 710.937424,727.69826 C709.911686,717.165859 701.24786,684.861663 701.24786,684.861663 L568.579591,675 Z" id="Path" fill="#FFFFFF"></path>
                            <path d="M569.505816,674 C569.505816,674 563.647883,708.498861 562.450906,715.957574 C561.399017,722.583428 560.637304,730.763952 579.063497,739 C576.643719,731.870576 575.983433,724.242344 577.141079,716.790433 C580.09725,701.984055 589.836291,693.155752 599.901781,693.914579 C609.96727,694.673405 651.099757,695.654328 682.112346,695.654328 C692.740052,695.654328 700.012595,697.856777 705,700.744021 C702.823678,691.693622 700.864988,684.086845 700.864988,684.086845 L569.505816,674 Z" id="Path" fill="#E6E4EB"></path>
                            <path d="M698.752458,667.709572 C698.752458,667.709572 701.489151,671.219014 702,684.342086 C701.431353,686.59607 699.689412,688.342429 697.475334,688.878227 C693.716943,689.755587 619.023471,698.995873 566.789126,680.813977 C566.789126,680.813977 562.264461,678.947253 561.151539,675.64315 C560.038617,672.339048 565.42078,660 565.42078,660 L698.752458,667.709572 Z" id="Path" fill="#5F6879"></path>
                            <path d="M555,481.708373 C555,481.708373 634.675293,429.14456 717.767851,477.350846 C722.890714,480.904879 727.185267,485.519198 730.35874,490.879236 C734.105598,512.969232 733.864237,535.549627 729.646049,557.554875 C721.76989,599.926815 705.670364,646.729211 704.647012,667.568767 C704.123011,672.411462 700.259999,676.219932 695.400292,676.684933 C686.829716,677.705944 590.269109,682.555744 566.640633,663.75821 C565.073228,662.047272 564.355836,659.726102 564.685299,657.43159 C572.83557,613.673993 563.990882,608.897122 564.283268,578.631451 C564.283268,578.558521 582.447773,501.052878 555,481.708373 Z" id="Path" fill="#97B2BC"></path>
                            <path d="M555,482.614293 C555,482.614293 634.671531,430.250622 717.760168,478.273358 C722.882789,481.813858 727.177138,486.410608 730.350462,491.750237 C732.942866,506.685982 733.636595,521.886347 732.415344,536.994047 C719.624043,535.4502 697.988471,538.01117 666.065039,557.663439 C616.526157,588.158966 576.873125,596.295949 582.245471,671 C576.638987,669.634009 571.343755,667.224256 566.640084,663.898302 C565.072752,662.19388 564.355395,659.881547 564.684842,657.595772 C572.834728,614.004787 563.990457,609.246105 564.28283,579.095673 C564.28283,579.095673 582.446477,501.885141 555,482.614293 Z" id="Path" fill="#8EA7B0"></path>
                            <path d="M575.584303,668 C572.59091,666.828904 569.777065,665.202093 567.23268,663.17155 C565.752653,661.468145 565.075254,659.157194 565.38635,656.872783 C573.082267,613.307822 564.730644,608.551981 565.006731,578.419549 C568.286298,562.695584 570.146642,546.68089 570.562976,530.588853 C572.754414,524.453454 578.483213,567.80059 579.880902,589.111117 C581.01976,606.537101 573.565419,645.600349 575.584303,668 Z" id="Path" fill="#7D939D"></path>
                            <path d="M654.352155,316.538718 C654.352155,316.538718 625.185421,303.783149 605.978953,326.706729 C586.772485,349.630308 599.790406,379.296117 596.714441,405.572589 C593.638477,431.849061 544.86247,475.983329 600.48616,501.877134 C600.48616,501.877134 609.402794,503.918025 611.801314,517.930929 C614.199834,531.943832 636.848453,564.707422 678.70354,540.107396 C720.558626,515.507371 736.341253,467.036209 706.844952,422.993052 C677.348651,378.949894 716.457341,316.538718 654.352155,316.538718 Z" id="Path" fill="#70483C"></path>
                            <path d="M596.924296,403 C596.924296,403.76163 596.796121,404.52326 596.704567,405.266756 C593.61005,431.434188 544.885131,475.282317 600.476583,501.105202 C600.476583,501.105202 609.39392,503.136215 611.792629,517.081298 C614.191338,531.026382 636.841742,563.631401 678.700127,539.150435 C720.558513,514.66947 736.342383,466.432901 706.843757,422.602906 C706.843757,422.602906 726.985588,454.663904 699.336348,486.471025 C672.254742,517.589052 600.000503,502.646596 596.924296,403 Z" id="Path" fill="#482E26"></path>
                            <path d="M552.88741,483 L552.88741,483.200037 C556.181125,485.89144 579.958785,508.059148 565.229589,575.944342 C564.211868,577.544636 562.916586,579.581374 561.528785,582 C561.787841,580.890705 562.046898,579.781411 562.305954,578.635746 C578.867048,506.54978 552.572841,485.800514 551.203544,484.782145 C551.127184,484.731422 551.058636,484.670179 551,484.600294 C551.586998,484.020665 552.21795,483.485695 552.88741,483 Z" id="Path" fill="#526675"></path>
                            <path d="M938.410122,466.614983 C938.410122,464.563005 934,435 934,435 C951.269512,443.849504 965.41283,457.857442 974.501116,475.113439 C989.351525,503.695854 1006.21799,591.495074 999.467804,622.801353 C992.717618,654.107631 953.58454,682 953.58454,682 L938.410122,466.614983 Z" id="Path" fill="#00D8DC"></path>
                            <path d="M938.428571,466.605689 C938.428571,464.554314 934,435 934,435 C951.341759,443.846902 965.544247,457.850722 974.670554,475.101646 C976.362933,478.43483 977.871527,481.858956 979.189504,485.358518 C972.555685,488.045274 967.15102,493.473247 965.632653,503.512274 C961.258309,532.413053 967.096793,610.782816 976.857726,627.919962 C981.882799,636.760841 989.257726,637.668529 996,633.910701 C984.088047,660.415184 953.666472,682 953.666472,682 L938.428571,466.605689 Z" id="Path" fill="#00B0B3"></path>
                            <path d="M764.443039,746.804 C764.443039,746.804 761.196201,753.428 764.443039,776 L939.55344,776 C939.55344,776 950.662006,768.386 949.968861,740 L764.443039,746.804 Z" id="Path" fill="#331C38"></path>
                            <path d="M763.489459,735.087705 C763.489459,735.087705 758.888913,746.153569 760.252712,750.522615 C761.61651,754.891662 774.890812,768.965722 821.241766,770.648879 C867.59272,772.332036 915.6166,767.96299 933.345977,757.559645 C951.075353,747.156301 954.293917,741.44431 952.602807,726.868884 C950.911697,712.293458 763.489459,735.087705 763.489459,735.087705 Z" id="Path" fill="#FFFFFF"></path>
                            <path d="M795.359207,453.198079 L771.829468,445 C771.829468,445 747.62641,468.209672 730.575084,507.815502 C713.523757,547.421332 694.41608,598.613781 693.051246,614.317656 C691.686412,630.021532 717.618259,690.833059 766.715889,710.599538 C815.81352,730.366017 782.402382,677.133158 782.402382,677.133158 C782.402382,677.133158 746.934895,623.208017 745.57006,613.643592 C744.205226,604.079166 766.715889,586.681021 766.715889,586.681021 C766.715889,586.681021 837.68726,555.601193 834.921197,546.054986 C832.155133,536.508778 795.359207,453.198079 795.359207,453.198079 Z" id="Path" fill="#00D8DC"></path>
                            <path d="M694,615.746345 C694.872564,634.213993 720.595016,690.671192 767.604389,709.611437 C776.839022,713.246801 783.146931,714.464647 787.309787,713.846636 C785.011276,701.232077 783.53571,688.481393 782.892433,675.675316 C780.456526,671.949069 766.67729,650.827605 756.770056,633.868634 C751.952777,657.134961 729.611509,666.023426 714.741568,651.172965 C705.096362,641.22607 697.98281,629.107286 694,615.83723 L694,615.746345 Z M746.481075,612.947115 C745.117694,603.404286 767.604389,586.045424 767.604389,586.045424 C767.604389,586.045424 777.238947,581.828402 789.254878,576.029997 C794.326654,527.225239 791.436287,501.50504 788.073281,516.046495 C784.146744,533.078174 768.949592,554.435936 754.970393,584.609455 C740.991194,614.782974 746.481075,612.947115 746.481075,612.947115 Z" id="Shape" fill="#00B0B3"></path>
                            <path d="M847,277 C863.534394,277.029911 876.939165,290.229557 877,306.540928 L877,365.459072 C876.939165,381.770443 863.534394,394.970089 847,395 C830.465606,394.970089 817.060835,381.770443 817,365.459072 L817,306.559118 C817.050713,290.240641 830.458437,277.029957 847,277 Z" id="Path" fill="#F4AD85"></path>
                            <rect id="Rectangle" fill="#F09576" x="841" y="360" width="44" height="76" rx="2.71"></rect>
                            <path d="M811.73661,320.163442 C811.73661,320.163442 792.139055,317.33612 787.862893,298.1792 C783.586732,279.022279 794.631966,251.709622 833.86347,264.124466 L866.435081,264.124466 C888.416369,264.124466 906.594604,268.492317 917.294105,282.955157 C934.617107,306.407432 930.249964,358.785389 909.014729,379.59158 C884.813476,403.315713 845.545579,391.118355 845.763936,359.129742 C848.789281,356.117246 850.388156,351.96701 850.162584,347.71207 C849.937013,343.457131 847.908211,339.497682 844.581168,336.81927 C840.486971,333.538851 835.100827,334.372549 835.100827,348.74477 L835.100827,361.431472 C829.90189,360.121946 826.287187,355.426573 826.366541,350.085936 C826.311951,340.643404 826.311951,319.003515 811.73661,320.163442 Z" id="Path" fill="#3F2C44"></path>
                            <path d="M811.833671,319.496931 C811.833671,319.496931 792.164518,316.684862 787.872734,297.631296 C786.221885,290.391703 786.924826,282.8227 789.881654,276 C789.79034,276.50473 784.76804,301.759268 803.049212,301.759268 C821.330384,301.759268 850.112729,304.192789 854.788034,321.461774 C859.262447,337.901558 873.544042,383.471488 923,355.819482 C920.292378,364.354639 915.644933,372.166406 909.412395,378.658525 C885.122726,402.254664 845.711368,390.123112 845.930523,358.307081 C848.96692,355.310837 850.571637,351.182992 850.345241,346.951009 C850.118845,342.719025 848.082631,338.780938 844.743434,336.116977 C840.634279,332.854256 835.228458,333.683456 835.228458,347.978137 L835.228458,360.596393 C830.010527,359.293932 826.382618,354.623891 826.462262,349.312067 C826.462262,339.866401 826.462262,318.343262 811.833671,319.496931 Z" id="Path" fill="#331C38"></path>
                            <path d="M810.77792,425.310703 C810.77792,425.310703 784.181643,431.775226 772.165694,443.342364 C772.165694,443.342364 810.265045,515.142152 767.018618,584.563141 C767.018618,584.563141 755.350692,702.286465 756.028421,715.306306 C756.70615,728.326146 759.123993,734.718034 767.018618,741.854431 C774.913243,748.990829 825.028543,762.264892 884.741948,754.783478 C944.455353,747.302063 955.793573,729.270402 957.167348,721.770829 C958.541123,714.271255 965.061973,667.00397 960.26292,590.101567 C955.463867,513.199164 963.7981,438.911624 928.226495,430.958081 C892.65489,423.004539 810.77792,425.310703 810.77792,425.310703 Z" id="Path" fill="#00D8DC"></path>
                            <path d="M810.267933,426.327257 C800.833201,428.744321 791.690461,432.169078 783,436.541485 C783.43892,436.378203 797.86843,430.808455 803.702415,443.109071 C809.536399,455.409687 801.87358,527 886,527 C886,527 858.567472,458.47577 858.567472,447.517699 C858.567472,442.074949 848.856357,433.293978 839.181818,426.000692 C822.283381,425.982549 810.267933,426.327257 810.267933,426.327257 Z" id="Path" fill="#00B0B3"></path>
                            <path d="M788.589662,515.005715 C788.218008,539.826245 781.101618,564.08038 767.999852,585.180058 C767.999852,585.180058 756.351798,703.500024 757.028373,716.585851 C757.704947,729.671678 760.118673,736.095961 767.999852,743.268527 C771.455868,746.425916 783.049064,750.769608 800,754 C781.202199,713.026944 779.739335,649.550646 786.614795,600.912252 C795.757695,535.702127 792.539394,497.977714 788.589662,515.13347 L788.589662,515.005715 Z" id="Path" fill="#00B0B3"></path>
                            <path d="M811,425.893951 C815.610098,425.942972 819.851644,428.401888 822.15656,432.361653 C826.278442,439.174541 825.820455,520.20249 876.913471,526.670191 C909.448859,530.776092 927.255389,495.785099 931.322313,464.064292 C934.674777,437.902802 926.485971,403.711188 886.439599,405.03743 C886.219765,405.03743 885.816736,405.03743 885.816736,405.219107 L885.816736,410.832927 C883.087135,422.750939 865.262285,420.043951 856.652132,414.847989 C842.546136,406.309169 823.841952,399.096592 811,425.893951 Z" id="Path" fill="#FFFFFF"></path>
                            <path d="M889.969162,404 C888.907372,404 887.792493,404 886.677614,404 C886.465256,404 886.075933,404 886.075933,404.186585 L886.075933,409.952069 C883.722299,420.811329 869.88364,419.841085 861,415.736211 C901.648848,443.630701 906.833921,406.052437 889.969162,404 Z" id="Path" fill="#F8CFBE"></path>
                            <path d="M308.280196,476.273211 L303.843373,476 C303.843373,476 298.519187,479.642811 297.028414,483.467763 C295.537642,487.292714 276.548042,535.28675 267,567.98098 C267,567.98098 290.266697,570.931657 295.537642,589 C295.537642,589 325.850013,547.107672 327.482763,540.22276 C332.416843,516.92671 325.13544,492.677744 308.280196,476.273211 Z" id="Path" fill="#FFFFFF"></path>
                            <path d="M309.470722,476.273211 L304.860563,476 C303.263102,477.061628 301.780092,478.282285 300.434811,479.642811 C332.171143,490.789813 313.214171,545.213411 301.725655,562.024984 C297.878624,568.118342 291.942685,572.643263 285,574.774823 C290.341634,578.041509 294.3248,583.086878 296.230346,589 C296.230346,589 327.72695,547.107672 329.423488,540.22276 C334.55033,516.92671 326.984461,492.677744 309.470722,476.273211 Z" id="Path" fill="#FDF1EF"></path>
                            <path d="M473.907022,500 C469.532577,506.176553 461.200299,520.907987 466.963458,537.16581 L469.445782,537.44979 C463.144497,521.475946 471.771876,506.726763 475.920656,500.993928 L473.907022,500 Z M478.003725,502.041102 L480,503.03503 C475.729708,509.26483 468.404247,523.020084 474.011176,538 L471.563569,537.698272 C466.425331,522.452125 473.577203,508.625876 478.003725,502.041102 Z" id="Shape" fill="#3F2C44"></path>
                            <path d="M271.117949,559 C278.171795,559.854545 295.869231,563.6 304,579.927273 L302.474359,582.054545 C294.882051,565.381818 276.84359,561.945455 270.4,561.236364 C270.633333,560.490909 270.866667,559.745455 271.117949,559 Z M269.682051,563.509091 C269.448718,564.272727 269.233333,565 269,565.745455 C276.179487,566.727273 292.333333,570.654545 299.620513,586 L301.146154,583.890909 C293.374359,568.745455 277.328205,564.618182 269.682051,563.490909 L269.682051,563.509091 Z" id="Shape" fill="#3F2C44"></path>
                            <path d="M370,469.198917 C369.475145,507.002686 316.754372,460.522052 339.847989,460 C339.920383,460 346.526316,467.938791 370,469.198917 Z" id="Path" fill="#3F2C44"></path>
                            <path d="M376.53425,459.180277 C376.53425,459.180277 380.27748,467.285672 371,469.79537 C371,469.79537 374.420847,480.540596 381.119259,478.811693 C387.817672,477.08279 385.560988,456.893663 376.53425,459.180277 Z" id="Path" fill="#3F2C44"></path>
                            <path d="M352.799387,518.522906 L368.200613,517.006885 C368.667124,516.962269 369.129074,517.135975 369.471989,517.484956 C369.814903,517.833937 370.00669,518.325534 369.999822,518.837923 L369.999822,524.271973 C369.980662,525.388911 369.213783,526.32041 368.200613,526.457406 L352.799387,527.993115 C352.332876,528.037731 351.870926,527.864025 351.528011,527.515044 C351.185097,527.166063 350.99331,526.674466 351.000178,526.162077 L351.000178,520.728027 C351.018177,519.606858 351.7834,518.668995 352.799387,518.522906 Z" id="Path" fill="#FFFFFF"></path>
                            <path d="M538.562451,242.000013 L450.383073,242.000013 C443.007145,242.019864 437.029916,247.974007 437,255.331396 L437,349.520516 C437.00952,350.116449 437.371066,350.650504 437.921676,350.881965 C438.472286,351.113426 439.107984,350.998583 439.542239,350.5892 L462.349755,327.838905 L538.616927,327.838905 C545.999913,327.819001 551.980046,321.853871 552,314.489408 L552,255.331396 C551.969978,247.952821 545.959637,241.989967 538.562451,242.000013 Z" id="Path" fill="#FFFFFF"></path>
                            <path d="M652.403348,191 L740.614814,191 C747.991906,191.019852 753.970079,196.974033 754,204.331469 L754,298.521196 C753.990129,299.121564 753.623018,299.658501 753.066234,299.886924 C752.509449,300.115347 751.869779,299.991445 751.439198,299.571773 L728.646241,276.785105 L652.367025,276.785105 C644.992903,276.765201 639.019957,270.808143 639,263.453636 L639,204.331469 C639.020023,196.962846 645.015045,190.999973 652.403348,191 Z" id="Path" fill="#FFFFFF"></path>
                            <path d="M403.3875,231.381026 C403.3875,230.618307 402.766295,230 402,230 C401.233705,230 400.6125,230.618307 400.6125,231.381026 L400.6125,234.609642 L397.36875,234.609642 C396.609787,234.619852 395.999931,235.235178 396,235.990669 C396,236.35199 396.144207,236.698513 396.400898,236.954006 C396.657588,237.209498 397.005735,237.353033 397.36875,237.353033 L400.6125,237.353033 L400.6125,240.618974 C400.6125,241.381693 401.233705,242 402,242 C402.766295,242 403.3875,241.381693 403.3875,240.618974 L403.3875,237.353033 L406.63125,237.353033 C407.38719,237.353033 408,236.743082 408,235.990669 C408.000069,235.235178 407.390213,234.619852 406.63125,234.609642 L403.3875,234.609642 L403.3875,231.381026 Z" id="Path" fill="#FFFFFF"></path>
                            <path d="M761.383178,385.39185 C761.383178,384.623152 760.763908,384 760,384 C759.236092,384 758.616822,384.623152 758.616822,385.39185 L758.616822,388.570533 L755.383178,388.570533 C754.61927,388.570533 754,389.193685 754,389.962382 C754,390.73108 754.61927,391.354232 755.383178,391.354232 L758.616822,391.354232 L758.616822,394.60815 C758.616822,395.376848 759.236092,396 760,396 C760.763908,396 761.383178,395.376848 761.383178,394.60815 L761.383178,391.354232 L764.616822,391.354232 C765.38073,391.354232 766,390.73108 766,389.962382 C766,389.193685 765.38073,388.570533 764.616822,388.570533 L761.383178,388.570533 L761.383178,385.39185 Z" id="Path" fill="#FFFFFF"></path>
                            <path d="M722.340068,153.543697 C722.400367,153.014611 722.158948,152.497041 721.719375,152.213018 C721.279802,151.928994 720.720198,151.928994 720.280625,152.213018 C719.841052,152.497041 719.599633,153.014611 719.659932,153.543697 L719.659932,156.777342 L716.505758,156.777342 C715.989676,156.715523 715.484826,156.963025 715.207783,157.413674 C714.930739,157.864322 714.930739,158.438025 715.207783,158.888673 C715.484826,159.339322 715.989676,159.586824 716.505758,159.525005 L719.659932,159.525005 L719.659932,162.777342 C719.739376,163.47441 720.315438,164 721,164 C721.684562,164 722.260624,163.47441 722.340068,162.777342 L722.340068,159.525005 L725.494242,159.525005 C726.010324,159.586824 726.515174,159.339322 726.792217,158.888673 C727.069261,158.438025 727.069261,157.864322 726.792217,157.413674 C726.515174,156.963025 726.010324,156.715523 725.494242,156.777342 L722.340068,156.777342 L722.340068,153.543697 Z" id="Path" fill="#FFFFFF"></path>
                            <path d="M543.222658,179.385335 C543.222658,178.620236 542.603389,178 541.839481,178 C541.474335,177.999966 541.124409,178.146515 540.867974,178.406868 C540.611539,178.667221 540.469993,179.019654 540.474995,179.385335 L540.474995,182.624025 L537.222658,182.624025 C536.52559,182.705598 536,183.297095 536,184 C536,184.702905 536.52559,185.294402 537.222658,185.375975 L540.474995,185.375975 L540.474995,188.633385 C540.474995,189.388146 541.085896,190 541.839481,190 C542.596148,190.000069 543.212433,189.391164 543.222658,188.633385 L543.222658,185.357254 L546.456303,185.357254 C546.985389,185.419169 547.502959,185.171281 547.786982,184.71993 C548.071006,184.268578 548.071006,183.69398 547.786982,183.242629 C547.502959,182.791277 546.985389,182.543389 546.456303,182.605304 L543.222658,182.605304 L543.222658,179.385335 Z" id="Path" fill="#FFFFFF"></path>
                            <path d="M956.525005,404.505758 C956.586824,403.989676 956.339322,403.484826 955.888673,403.207783 C955.438025,402.930739 954.864322,402.930739 954.413674,403.207783 C953.963025,403.484826 953.715523,403.989676 953.777342,404.505758 L953.777342,407.659932 L950.543697,407.659932 C950.014611,407.599633 949.497041,407.841052 949.213018,408.280625 C948.928994,408.720198 948.928994,409.279802 949.213018,409.719375 C949.497041,410.158948 950.014611,410.400367 950.543697,410.340068 L953.777342,410.340068 L953.777342,413.494242 C953.715523,414.010324 953.963025,414.515174 954.413674,414.792217 C954.864322,415.069261 955.438025,415.069261 955.888673,414.792217 C956.339322,414.515174 956.586824,414.010324 956.525005,413.494242 L956.525005,410.340068 L959.777342,410.340068 C960.47441,410.260624 961,409.684562 961,409 C961,408.315438 960.47441,407.739376 959.777342,407.659932 L956.525005,407.659932 L956.525005,404.505758 Z" id="Path" fill="#FFFFFF"></path>
                            <path d="M460.340068,471.222658 C460.260624,470.52559 459.684562,470 459,470 C458.315438,470 457.739376,470.52559 457.659932,471.222658 L457.659932,474.474995 L454.505758,474.474995 C453.989676,474.413176 453.484826,474.660678 453.207783,475.111327 C452.930739,475.561975 452.930739,476.135678 453.207783,476.586326 C453.484826,477.036975 453.989676,477.284477 454.505758,477.222658 L457.659932,477.222658 L457.659932,480.456303 C457.599633,480.985389 457.841052,481.502959 458.280625,481.786982 C458.720198,482.071006 459.279802,482.071006 459.719375,481.786982 C460.158948,481.502959 460.400367,480.985389 460.340068,480.456303 L460.340068,477.222658 L463.494242,477.222658 C464.010324,477.284477 464.515174,477.036975 464.792217,476.586326 C465.069261,476.135678 465.069261,475.561975 464.792217,475.111327 C464.515174,474.660678 464.010324,474.413176 463.494242,474.474995 L460.340068,474.474995 L460.340068,471.222658 Z" id="Path" fill="#FFFFFF"></path>
                            <path d="M596.233926,216.543697 C596.295841,216.014611 596.047953,215.497041 595.596602,215.213018 C595.14525,214.928994 594.570652,214.928994 594.1193,215.213018 C593.667949,215.497041 593.420061,216.014611 593.481976,216.543697 L593.481976,219.777342 L590.224566,219.777342 C589.52641,219.858788 589,220.449363 589,221.151173 C589,221.852984 589.52641,222.443559 590.224566,222.525005 L593.463255,222.525005 L593.463255,225.777342 C593.544828,226.47441 594.136325,227 594.83923,227 C595.542135,227 596.133632,226.47441 596.215205,225.777342 L596.215205,222.506314 L599.453895,222.506314 C599.983806,222.568132 600.502183,222.32063 600.78665,221.869982 C601.071117,221.419334 601.071117,220.84563 600.78665,220.394982 C600.502183,219.944334 599.983806,219.696831 599.453895,219.75865 L596.215205,219.75865 L596.233926,216.543697 Z" id="Path" fill="#719FD4"></path>
                            <path d="M728.222658,352.546105 C728.284477,352.016194 728.036975,351.497817 727.586326,351.21335 C727.135678,350.928883 726.561975,350.928883 726.111327,351.21335 C725.660678,351.497817 725.413176,352.016194 725.474995,352.546105 L725.474995,355.766074 L722.222658,355.766074 C721.52559,355.847647 721,356.439144 721,357.142049 C721,357.844954 721.52559,358.436451 722.222658,358.518024 L725.474995,358.518024 L725.474995,361.775434 C725.556441,362.47359 726.147016,363 726.848827,363 C727.550637,363 728.141212,362.47359 728.222658,361.775434 L728.222658,358.518024 L731.456303,358.518024 C731.985389,358.579939 732.502959,358.332051 732.786982,357.8807 C733.071006,357.429348 733.071006,356.85475 732.786982,356.403398 C732.502959,355.952047 731.985389,355.704159 731.456303,355.766074 L728.222658,355.766074 L728.222658,352.546105 Z" id="Path" fill="#719FD4"></path>
                            <path d="M458.340068,382.222658 C458.260624,381.52559 457.684562,381 457,381 C456.315438,381 455.739376,381.52559 455.659932,382.222658 L455.659932,385.474995 L452.505758,385.474995 C451.989676,385.413176 451.484826,385.660678 451.207783,386.111327 C450.930739,386.561975 450.930739,387.135678 451.207783,387.586326 C451.484826,388.036975 451.989676,388.284477 452.505758,388.222658 L455.659932,388.222658 L455.659932,391.456303 C455.599633,391.985389 455.841052,392.502959 456.280625,392.786982 C456.720198,393.071006 457.279802,393.071006 457.719375,392.786982 C458.158948,392.502959 458.400367,391.985389 458.340068,391.456303 L458.340068,388.222658 L461.494242,388.222658 C462.010324,388.284477 462.515174,388.036975 462.792217,387.586326 C463.069261,387.135678 463.069261,386.561975 462.792217,386.111327 C462.515174,385.660678 462.010324,385.413176 461.494242,385.474995 L458.340068,385.474995 L458.340068,382.222658 Z" id="Path" fill="#719FD4"></path>
                            <path d="M510.177936,561.543697 C510.239372,561.014611 509.993402,560.497041 509.545544,560.213018 C509.097686,559.928994 508.527535,559.928994 508.079677,560.213018 C507.63182,560.497041 507.38585,561.014611 507.447286,561.543697 L507.447286,564.777342 L504.215088,564.777342 C503.522336,564.858788 503,565.449363 503,566.151173 C503,566.852984 503.522336,567.443559 504.215088,567.525005 L507.521589,567.525005 L507.521589,570.777342 C507.602531,571.47441 508.18945,572 508.886914,572 C509.584379,572 510.171298,571.47441 510.252239,570.777342 L510.252239,567.599772 L513.465862,567.599772 C513.991671,567.66159 514.506036,567.414088 514.788301,566.96344 C515.070566,566.512792 515.070566,565.939088 514.788301,565.48844 C514.506036,565.037792 513.991671,564.790289 513.465862,564.852108 L510.252239,564.852108 L510.177936,561.543697 Z" id="Path" fill="#719FD4"></path>
                            <path d="M523.662655,450 C523.662655,440.413317 527.758139,436.302105 529.670568,432.264637 C531.023702,429.388632 532.052084,417.958356 531.997958,415.211403 C531.943833,412.46445 529.869028,392.774878 525.755502,404.149846 C525.797642,401.136854 525.245406,398.146059 524.131741,395.355908 C522.435814,392.074313 520.036257,399.043094 520.036257,399.043094 C520.036257,399.043094 519.693463,391.926825 516.4279,392.000569 C513.162338,392.074313 514.136594,403.559896 513.577299,400.333609 C513.018003,397.107321 512.206123,392.184928 508.760143,392.71957 L508.182806,393.088289 C507.497218,393.549187 506.847714,416.667841 507.01009,420.133796 C504.988688,416.963608 501.992904,414.5704 498.494369,413.330938 C497.08711,412.740989 495.26489,413.423118 495.012305,414.234299 C494.75972,415.04548 498.476327,419.543846 498.764995,420.944977 C501.056302,432.006534 508.32714,433.61046 512.242207,441.390421 C512.043747,442.791552 513.126254,446.9212 512.837586,448.617305 C519.043959,449.668153 519.206335,449.059768 523.662655,450 Z" id="Path" fill="#F4AD85"></path>
                        </g>
                    </g>
                </g>
            </g>
        </g>
    </g>
</svg>