<svg xmlns="http://www.w3.org/2000/svg" width="22" height="12" xmlns:xlink="http://www.w3.org/1999/xlink"><title>Suche Copy</title><desc>Created with Sketch.</desc><defs><path id="a" d="M11.65 5C10.7 2.3 7.9.5 4.77 1.12 2.47 1.58.62 3.42.14 5.7-.68 9.57 2.26 13 6 13c2.6 0 4.83-1.67 5.65-4H16v2c0 1.1.9 2 2 2s2-.9 2-2V9c1.1 0 2-.9 2-2s-.9-2-2-2h-8.35zM6 9c-1.1 0-2-.9-2-2s.9-2 2-2 2 .9 2 2-.9 2-2 2z"/></defs><g fill="none"><g><g transform="translate(-1036 -662) translate(1036 661)"><mask><use xlink:href="#a"/></mask><use fill="#DFE2E6" xlink:href="#a"/></g></g></g></svg>