<svg xmlns="http://www.w3.org/2000/svg" width="18" height="12" xmlns:xlink="http://www.w3.org/1999/xlink"><title>Suche Copy 3</title><desc>Created with Sketch.</desc><defs><path id="a" d="M9 .38C5.25.38 2.05 2.7.75 6c1.3 3.3 4.5 5.63 8.25 5.63S15.95 9.29 17.25 6C15.95 2.7 12.75.37 9 .37zm0 9.37C6.93 9.75 5.25 8.07 5.25 6c0-2.07 1.68-3.75 3.75-3.75 2.07 0 3.75 1.68 3.75 3.75 0 2.07-1.68 3.75-3.75 3.75zm0-6c-1.25 0-2.25 1-2.25 2.25s1 2.25 2.25 2.25c1.24 0 2.25-1 2.25-2.25s-1-2.25-2.25-2.25z"/></defs><g fill="none"><g><g transform="translate(-1344 -662) translate(1344 662)"><mask><use xlink:href="#a"/></mask><use fill="#DFE2E6" xlink:href="#a"/></g></g></g></svg>